<?xml version="1.0" encoding="utf-8"?>
<!-- Generator: Adobe Illustrator 12.0.0, SVG Export Plug-In . SVG Version: 6.00 Build 51448)  -->
<svg xmlns="http://www.w3.org/2000/svg" xmlns:xlink="http://www.w3.org/1999/xlink" version="1.1" viewBox="-43.173 4.563 553.065 290.307" font-family="Arial, sans-serif">

  <title>Osmotic pressure on blood cells</title>

  <metadata id="metadata603">
    <rdf:RDF xmlns:dc="http://purl.org/dc/elements/1.1/" xmlns:cc="http://web.resource.org/cc/" xmlns:rdf="http://www.w3.org/1999/02/22-rdf-syntax-ns#">
      <cc:Work rdf:about="">
        <dc:format>image/svg+xml</dc:format>
        <dc:type rdf:resource="http://purl.org/dc/dcmitype/StillImage"/>
        <dc:creator rdf:resource="https://commons.wikimedia.org/wiki/User:LadyofHats"/>
        <cc:license>public domain</cc:license>
        <cc:attributionURL rdf:resource="https://commons.wikimedia.org/wiki/File:Osmotic_pressure_on_blood_cells_diagram.svg"/>
        <cc:attributionName>Mariana Ruiz Villarreal</cc:attributionName>
        <dc:publisher rdf:resource="https://commons.wikimedia.org"/>
        <dc:contributor>
          <rdf:Bag>
            <rdf:li rdf:resource="https://commons.wikimedia.org/wiki/User:Antoni_Salv%C3%A0"/>
            <rdf:li rdf:resource="https://commons.wikimedia.org/wiki/User:Drahkrub"/>
            <rdf:li rdf:resource="https://commons.wikimedia.org/wiki/User:Karshan"/>
            <rdf:li rdf:resource="https://commons.wikimedia.org/wiki/User:Mess"/>
            <rdf:li rdf:resource="https://commons.wikimedia.org/wiki/User:Guabin"/>
            <rdf:li rdf:resource="https://commons.wikimedia.org/wiki/User:Esmu_Igors"/>
            <rdf:li rdf:resource="https://commons.wikimedia.org/wiki/User:M.Komorniczak"/>
            <rdf:li rdf:resource="https://commons.wikimedia.org/wiki/User:Metju~commonswiki"/>
            <rdf:li rdf:resource="https://commons.wikimedia.org/wiki/User:Mehinger"/>
            <rdf:li rdf:resource="https://commons.wikimedia.org/wiki/User:Free_Software_Foundation_Tamilnadu"/>
            <rdf:li rdf:resource="https://commons.wikimedia.org/wiki/User:Zlir%27a"/>
            <rdf:li rdf:resource="https://commons.wikimedia.org/wiki/User:Shakiestone"/>
          </rdf:Bag>
        </dc:contributor>
      </cc:Work>
    </rdf:RDF>
  </metadata>

  <style type="text/css">
<![CDATA[
	.st0{fill:#E5E5E5;}
	.st1{fill:#00FF00;stroke:#8F0000;stroke-width:0.9886;}
	.st2{fill:#E21B1B;stroke:#8F0000;stroke-width:0.7082;}
	.st3{fill:#E21B1B;stroke:#8F0000;stroke-width:0.7893;}
	.st4{fill:#E21B1B;stroke:#8F0000;stroke-width:0.8342;}
	.st5{fill:#E21B1B;stroke:#8F0000;stroke-width:0.8698;}
	.st6{fill:#E21B1B;stroke:#8F0000;stroke-width:0.9847;}
	.st7{fill:#FFFF00;stroke:#8F0000;stroke-width:0.9886;}
	.st8{fill:#BF0000;}
	.st9{fill:#F44E34;}
	.st10{fill:#E21B1B;stroke:#8F0000;stroke-width:1.248;}
	.st11{fill:#E21B1B;stroke:#8F0000;stroke-width:1.0111;}
	.st12{fill:#E21B1B;stroke:#8F0000;stroke-width:1.1535;}
	.st13{fill:#FFFFFF;}
	.st14{fill:url(#XMLID_57_);}
	.st15{fill:url(#XMLID_58_);}
	.st16{fill:none;}
	.st17{fill:#032835;stroke:#FFFFFF;stroke-width:0.8367;}
  
  .textH{font-size:20px; font-weight:bold; text-anchor:middle;}
  .textH2O{font-size:12px; font-weight:bold; text-anchor:middle;}
  .textH2Os {font-size:8px; baseline-shift:sub;}
]]>
</style>
<rect x="-43.173" y="4.563" class="st13" width="553.065" height="290.307"/>
<rect x="-37.875" y="33.275" class="st0" width="542.47" height="179.579"/>

  <switch class="textH" transform="translate(54,28)"><text systemLanguage="zh-hans" id="trsvg71"><tspan id="trsvg14">高渗</tspan></text>
    <text systemLanguage="en" id="trsvg58"><tspan id="trsvg1">Hypertonic</tspan></text>
    <text systemLanguage="ca" id="trsvg59"><tspan id="trsvg2">Hipertònic</tspan></text>
    <text systemLanguage="de" id="trsvg60"><tspan id="trsvg3">Hypertonisch</tspan></text>
    <text systemLanguage="es" id="trsvg61"><tspan id="trsvg4">Hipertónico</tspan></text>
    <text systemLanguage="fr" id="trsvg62"><tspan id="trsvg5">Hypertonique</tspan></text>
    <text systemLanguage="it" id="trsvg63"><tspan id="trsvg6">Ipertonico</tspan></text>
    <text systemLanguage="lv" id="trsvg64"><tspan id="trsvg7">Hipertoniskā</tspan></text>
    <text systemLanguage="pl" id="trsvg65"><tspan id="trsvg8">Hipertoniczny</tspan></text>
    <text systemLanguage="ru" id="trsvg66"><tspan id="trsvg9">Гипертонический</tspan></text>
    <text systemLanguage="sk" id="trsvg67"><tspan id="trsvg10">hypertonický</tspan></text>
    <text systemLanguage="sv" id="trsvg68"><tspan id="trsvg11">Hyperton</tspan></text>
    <text systemLanguage="ta" id="trsvg69"><tspan id="trsvg12">மிகையழுத்தம்</tspan></text>
    <text systemLanguage="uk" id="trsvg70"><tspan id="trsvg13">Гіпертонічний</tspan></text>
    
    
  <text id="trsvg72-id" systemLanguage="id"><tspan id="trsvg15-id">Hipertonik</tspan></text><text id="trsvg72-hi" systemLanguage="hi"><tspan id="trsvg15-hi">अतिपरासारी</tspan></text><text id="trsvg72"><tspan id="trsvg15">Hypertonic</tspan></text></switch>

  <switch class="textH" transform="translate(235,28)"><text systemLanguage="zh-hans" id="trsvg86"><tspan id="trsvg29">等渗</tspan></text>
    <text systemLanguage="en" id="trsvg73"><tspan id="trsvg16">Isotonic</tspan></text>
    <text systemLanguage="ca" id="trsvg74"><tspan id="trsvg17">Isotònic</tspan></text>
    <text systemLanguage="de" id="trsvg75"><tspan id="trsvg18">Isotonisch</tspan></text>
    <text systemLanguage="es" id="trsvg76"><tspan id="trsvg19">Isotónico</tspan></text>
    <text systemLanguage="fr" id="trsvg77"><tspan id="trsvg20">Isotonique</tspan></text>
    <text systemLanguage="it" id="trsvg78"><tspan id="trsvg21">Isotonico</tspan></text>
    <text systemLanguage="lv" id="trsvg79"><tspan id="trsvg22">Izotoniskā</tspan></text>
    <text systemLanguage="pl" id="trsvg80"><tspan id="trsvg23">Izotoniczny</tspan></text>
    <text systemLanguage="ru" id="trsvg81"><tspan id="trsvg24">Изотонический</tspan></text>
    <text systemLanguage="sk" id="trsvg82"><tspan id="trsvg25">izotonický</tspan></text>
    <text systemLanguage="sv" id="trsvg83"><tspan id="trsvg26">Isoton</tspan></text>
    <text systemLanguage="ta" id="trsvg84"><tspan id="trsvg27">சம அழுத்தம்</tspan></text>
    <text systemLanguage="uk" id="trsvg85"><tspan id="trsvg28">Ізотонічний</tspan></text>
    
    
  <text id="trsvg87-id" systemLanguage="id"><tspan id="trsvg30-id">Isotonik</tspan></text><text id="trsvg87-hi" systemLanguage="hi"><tspan id="trsvg30-hi">समपरासारी</tspan></text><text id="trsvg87"><tspan id="trsvg30">Isotonic</tspan></text></switch>

  <switch class="textH" transform="translate(418,28)"><text systemLanguage="zh-hans" id="trsvg101"><tspan id="trsvg44">低渗</tspan></text>
    <text systemLanguage="en" id="trsvg88"><tspan id="trsvg31">Hypotonic</tspan></text>
    <text systemLanguage="ca" id="trsvg89"><tspan id="trsvg32">Hipotònic</tspan></text>
    <text systemLanguage="de" id="trsvg90"><tspan id="trsvg33">Hypotonisch</tspan></text>
    <text systemLanguage="es" id="trsvg91"><tspan id="trsvg34">Hipotónico</tspan></text>
    <text systemLanguage="fr" id="trsvg92"><tspan id="trsvg35">Hypotonique</tspan></text>
    <text systemLanguage="it" id="trsvg93"><tspan id="trsvg36">Ipotonico</tspan></text>
    <text systemLanguage="lv" id="trsvg94"><tspan id="trsvg37">Hipotoniskā</tspan></text>
    <text systemLanguage="pl" id="trsvg95"><tspan id="trsvg38">Hipotoniczny</tspan></text>
    <text systemLanguage="ru" id="trsvg96"><tspan id="trsvg39">Гипотонический</tspan></text>
    <text systemLanguage="sk" id="trsvg97"><tspan id="trsvg40">hypotonický</tspan></text>
    <text systemLanguage="sv" id="trsvg98"><tspan id="trsvg41">Hypoton</tspan></text>
    <text systemLanguage="ta" id="trsvg99"><tspan id="trsvg42">தாழ்வழுத்தம்</tspan></text>
    <text systemLanguage="uk" id="trsvg100"><tspan id="trsvg43">Гіпотонічний</tspan></text>
    
    
  <text id="trsvg102-id" systemLanguage="id"><tspan id="trsvg45-id">Hipotonik</tspan></text><text id="trsvg102-hi" systemLanguage="hi"><tspan id="trsvg45-hi">अल्पपरासारी</tspan></text><text id="trsvg102"><tspan id="trsvg45">Hypotonic</tspan></text></switch>
  
  <!-- Chinese has H2O go to 水 -->
  
<g>
	<ellipse class="st10" cx="421.75" cy="254.778" rx="32.849" ry="32.69"/>
	<path class="st8" d="M433.801,245.676c7.021-0.335,2.458,15.937,0.146,18.396c-3.07,3.268-14.485,4.22-11.077-2.63   c1.257-2.527,7.54-2.653,9.769-5.862C433.21,254.754,436.377,245.555,433.801,245.676z"/>
</g>
<path class="st7" d="M368.099,228.696c0,0,17.745-4.283,27.862,2.963l2.082-7.739l7.714,13.391l-12.494,7.199l1.892-7.035  c0,0-17.041-2.751-25.523,2.134L368.099,228.696z"/>
<path class="st7" d="M364.92,259.241c0,0,17.743-4.282,27.865,2.963l2.08-7.738l7.714,13.39l-12.495,7.197l1.891-7.03  c0,0-17.042-2.756-25.521,2.133L364.92,259.241z"/>
  
  <switch><text x="422" y="258" class="textH2O" translate="no" id="trsvg103"><tspan id="trsvg46">H</tspan><tspan class="textH2Os" id="trsvg47">2</tspan><tspan id="trsvg48">O</tspan></text></switch>

<ellipse class="st12" cx="250.871" cy="250.677" rx="29.791" ry="30.793"/>
<path class="st8" d="M261.8,242.105c7.461-0.374,2.363,31.298-16.85,22.277c-5.495-2.583-13.406-12.609-6.648-17.823  c4.919,5.646,8.51,14.367,17.942,8.958C261.079,252.748,264.077,247.406,261.8,242.105z"/>
<path class="st1" d="M234.708,272.657c0,0-17.287,5.863-28.018-0.441l-1.374,7.893l-8.89-12.638l11.794-8.297l-1.25,7.175  c0,0,17.221,1.208,25.227-4.424L234.708,272.657z"/>
<path class="st7" d="M197.695,228.665c0,0,17.712-4.408,27.884,2.766l2.024-7.755l7.813,13.331l-12.442,7.292l1.84-7.048  c0,0-17.063-2.629-25.506,2.32L197.695,228.665z"/>
  
  <switch><text x="184" y="239" class="textH2O" translate="no" id="trsvg104"><tspan id="trsvg49">H</tspan><tspan class="textH2Os" id="trsvg50">2</tspan><tspan id="trsvg51">O</tspan></text></switch>
  <switch><text x="249" y="269" class="textH2O" translate="no" id="trsvg105"><tspan id="trsvg52">H</tspan><tspan class="textH2Os" id="trsvg53">2</tspan><tspan id="trsvg54">O</tspan></text></switch>

<g>
	<circle class="st17" cx="233.025" cy="122.282" r="81.578"/>
	<g>
		<ellipse class="st3" cx="180.231" cy="117.028" rx="20.385" ry="21.072"/>
		<path class="st8" d="M182.479,106.592c5.034,0.439,10.767,6.711,7.243,11.773c-0.349-2.808-2.075-6.463-4.657-7.864    c-13.061-7.085-14.331,20.671,0.956,14.955c-4.289,1.604-5.005,3.221-9.841,0.95c-4.59-2.154-7.239-7.557-6.182-12.639    C171.34,107.314,176.708,106.09,182.479,106.592z"/>
	</g>
	<g>
		
			<ellipse transform="matrix(-0.9285 0.3714 -0.3714 -0.9285 582.2078 127.0081)" class="st3" cx="278.874" cy="119.568" rx="23.82" ry="14.658"/>
		<path class="st8" d="M284.497,119.693c2.796-2.077,5.599-8.408,1.329-10.156c-0.927,4.704-13.592,11.562-16.568,6.095    c0.979,1.799-4.005,4.205,0.05,7.114C272.902,125.321,281.331,122.046,284.497,119.693z"/>
	</g>
	<g>
		
			<ellipse transform="matrix(-0.7984 -0.6021 0.6021 -0.7984 321.5788 303.9608)" class="st4" cx="211.668" cy="98.153" rx="23.82" ry="16.372"/>
		<path class="st8" d="M215.32,106.221c2.96,0.131,5.934-0.745,7.043-3.346c0.724-1.7,0.893-4.961-1.313-5.755    c-1.965-0.708-3.908,1.91-5.557,2.542c-3.236,1.241-6.269-0.582-8.284-3.036c-1.938-2.357-3-6.928,0.555-8.434    c3.046-1.29,5.816,0.938,8.266,2.389c0.101,0.06-0.526-1.688-0.767-1.941c-0.708-0.741-2.035-1.112-3.001-1.317    c-1.912-0.405-5.261-0.15-6.932,0.852c-2.2,1.318-3.189,3.548-3.109,6.094c0.137,4.299,3.865,8.074,7.281,10.282    C210.922,105.468,213.118,106.123,215.32,106.221z"/>
	</g>
	<g>
		<ellipse class="st2" cx="223.617" cy="74.49" rx="20.384" ry="16.966"/>
		<path class="st8" d="M225.864,66.088c5.036,0.353,10.767,5.402,7.244,9.479c-0.348-2.261-2.076-5.204-4.657-6.331    c-13.061-5.706-14.333,16.644,0.955,12.041c-4.289,1.291-5.005,2.593-9.84,0.764c-4.589-1.734-7.239-6.083-6.182-10.176    C214.726,66.668,220.093,65.683,225.864,66.088z"/>
	</g>
	<g>
		
			<ellipse transform="matrix(-0.5386 -0.8426 0.8426 -0.5386 278.9773 409.6859)" class="st3" cx="251.668" cy="128.454" rx="23.821" ry="14.658"/>
		<path class="st8" d="M252.596,133.996c2.562,2.356,9.308,3.928,10.226-0.595c-4.794-0.031-13.899-11.188-9.087-15.137    c-1.584,1.3-4.878-3.146-6.977,1.382C244.9,123.657,249.693,131.325,252.596,133.996z"/>
	</g>
	<path class="st3" d="M264.157,73.453c0.211,0.426,0.418,0.853,0.624,1.281c1.536,3.225,3.321,6.335,4.664,9.652   c1.114,2.75,2.653,6,2.949,8.944c0.412,4.092-1.711,6.377-5.729,6.023c-3.725-0.329-6.617-4.303-8.305-7.266   c-2.013-3.522-3.374-7.123-4.917-10.836c-1.169-2.819-2.515-5.562-3.677-8.386c-1.714-4.168-7.869-15.388-1.564-18.556   c6.07-3.05,10.422,5.365,12.061,9.834C261.449,67.383,262.611,70.323,264.157,73.453z"/>
	<g>
		<path class="st4" d="M245.636,110.79c2.769,8.607-5.137,18.853-17.66,22.885c-12.523,4.033-24.919,0.324-27.69-8.283    c-2.772-8.607,5.133-18.854,17.655-22.885C230.464,98.474,242.861,102.183,245.636,110.79z"/>
		<path class="st8" d="M214.258,116.435c-1.812,2.345-2.805,5.28-1.315,7.685c0.971,1.57,3.542,3.585,5.46,2.239    c1.711-1.199,0.688-4.296,1.12-6.008c0.846-3.359,4.083-4.791,7.248-5.027c3.045-0.229,7.396,1.534,6.579,5.307    c-0.699,3.234-4.116,4.218-6.711,5.387c-0.108,0.048,1.686,0.541,2.03,0.489c1.013-0.152,2.08-1.024,2.803-1.697    c1.432-1.329,3.151-4.215,3.295-6.16c0.186-2.557-1.069-4.649-3.195-6.048c-3.597-2.361-8.828-1.485-12.599,0.038    C217.406,113.271,215.606,114.69,214.258,116.435z"/>
	</g>
	<g>
		<ellipse class="st3" cx="241.388" cy="163.484" rx="20.385" ry="21.071"/>
		<path class="st8" d="M248.863,157.62c5.106-0.258,1.618,21.416-11.528,15.244c-3.761-1.766-9.175-8.63-4.548-12.195    c3.367,3.863,5.821,9.831,12.274,6.131C248.372,164.903,250.422,161.247,248.863,157.62z"/>
	</g>
	<g>
		<path class="st3" d="M178.153,150.337c3.502-7.299,15.957-8.602,27.818-2.909c11.859,5.69,18.635,16.222,15.131,23.521    c-3.502,7.299-15.957,8.601-27.816,2.912C181.426,168.166,174.651,157.636,178.153,150.337z"/>
		<path class="st8" d="M203.335,164.868c3.417,0.654,9.979-1.562,8.379-5.892c-4.09,2.5-17.708-2.189-15.696-8.081    c-0.662,1.939-5.804-0.105-5.204,4.848C191.347,160.135,199.46,164.127,203.335,164.868z"/>
	</g>
	<g>
		<path class="st4" d="M240.434,93.665c0.593-9.023,11.712-15.639,24.843-14.777c13.125,0.862,23.287,8.875,22.693,17.897    c-0.592,9.022-11.712,15.638-24.842,14.777C250.004,110.7,239.84,102.688,240.434,93.665z"/>
		<path class="st8" d="M271.682,99.968c8.243-4.898,1.416-13.134-6.069-13.393c-2.95-0.102-9.024-1.419-11.46,0.301    c-1.9,1.344-0.75,2.596-1.683,4.029c4.611-7.079,19.798,0.106,12.807,4.802c-1.644,1.102-6.839,0.825-7.323,2.449    C256.176,104.137,269.633,101.186,271.682,99.968z"/>
	</g>
	<path class="st3" d="M217.76,148.978c-0.468,0.072-0.938,0.141-1.406,0.206c-3.54,0.493-7.043,1.257-10.612,1.537   c-2.958,0.23-6.521,0.72-9.417,0.112c-4.025-0.841-5.563-3.557-4.014-7.282c1.437-3.451,6.098-5.006,9.433-5.724   c3.965-0.856,7.809-1.068,11.815-1.417c3.041-0.265,6.063-0.719,9.104-0.974c4.492-0.379,17.045-2.862,18.163,4.107   c1.076,6.706-8.26,8.317-13.015,8.528C224.368,148.226,221.213,148.448,217.76,148.978z"/>
	<g>
		<path class="st11" d="M284.226,165.739c-0.447,0.363-0.893,0.701-1.33,1.008c-6.842,4.793-20.581,12.264-27.571,3.553    c-6.324-7.88,4.118-15.57,9.242-20.067c2.307-2.023,4.386-4.262,6.7-6.273c3.418-2.972,11.405-12.988,20.02-5.245    C299.634,146.219,291.689,159.664,284.226,165.739z"/>
		<path class="st8" d="M263.223,158.824c5.531,3.823,20.21-7.092,16.869-13.661c-2.843-0.847-6.637,2.348-7.63,4.833    c-0.479,1.199,0.004,2.944-0.985,4.684c-1.492,2.633-3.617,4.14-6.422,5.063"/>
	</g>
	<path class="st9" d="M180.588,99.964c-0.013-0.247-0.107-0.523-0.3-0.83c-1.405-2.252-7.002,0.013-8.584,0.904   c-5.192,2.929-8.932,9.066-9.95,14.852c-1.326,7.543,2.923,16.722,10.497,19.094c-4.115-1.289-6.003-8.481-6.478-12.075   c-0.714-5.416-1.365-11.121,2.614-15.505c1.945-2.144,3.838-3.04,6.542-3.875C176.307,102.104,180.694,101.817,180.588,99.964z"/>
	<path class="st9" d="M198.855,82.829c-7.301-0.016-8.401,15.273-2.172,16.554c-0.59-6.073-3.174-13.25,4.97-15.555   c-0.557-1.348-2.19-1.747-3.503-0.999"/>
	<path class="st9" d="M204.833,74.688c-0.085,3.586,2.581,7.293,5.924,8.537c-4.873-2.822-3.866-10.506-1.304-14.435   c1.582-2.424,3.417-2.719,5.502-4.309c1.109-0.844,1.173-1.808,2.895-2.506c1.535-0.623,3.312-0.452,4.665-0.956   c-0.755,0.281-2.987-0.409-3.974-0.305c-1.439,0.151-2.931,0.601-4.28,1.101C209.259,63.667,204.966,69.208,204.833,74.688z"/>
	<path class="st9" d="M235.939,73.646c-0.437,4.646-4.067,6.608-6.329,9.845c3.203-0.888,9.363-5.928,5.622-9.491"/>
	<path class="st9" d="M221.458,94.836c1.238,0.936,1.654,2.414,1.486,3.85C226.237,98.374,223.672,93.401,221.458,94.836"/>
	<path class="st9" d="M191.086,110.729c4.908,6.904-2.788,18.17-10.497,17.738C189.155,132.25,198.16,116.612,191.086,110.729"/>
	<path class="st9" d="M203.747,125.815c0.247-7.331,7.03-14.215,13.75-16.782c4.898-1.871,14.162-4.038,18.705-0.459   c1.435-2.837-3.104-4.713-5.224-5.182c-7.134-1.574-15.607,1.435-21.474,5.534C205.143,111.972,198.014,120.933,203.747,125.815z"/>
	<path class="st9" d="M219.694,129.094c3.933,1.644,7.988-2.167,11.633-3.046C229.467,128.093,221.909,132.108,219.694,129.094"/>
	<path class="st9" d="M257.836,82.212c0.943-0.226,4.998,0.145,4.985-1.249c-0.012-1.215-2.581-1.157-3.395-1.179   c-3.02-0.082-6.101,1.021-8.719,2.441c-4.543,2.465-10.197,7.596-8.781,13.396c1.123,4.615,9.265,11.454,14.087,10.465   c0.042-1.438-1.191-1.618-1.647-2.754c-0.486-1.209,0.39-1.516-0.486-2.845c-1.831-2.779-5.528-3.382-6.313-7.346   c-0.645-3.25,1.615-5.955,3.902-7.841C253.399,83.71,255.394,82.796,257.836,82.212z"/>
	<path class="st9" d="M274.436,89.893c3.964,1.683,2.638,7.44,0.387,9.818c5.325,1.072,7.071-9.61-0.035-9.818"/>
	<path class="st9" d="M184.367,156.271c-0.017-2.801,3.817-4.978,2.022-7.526c-1.173-1.665-2.381-1.334-3.745-0.262   c-2.135,1.681-3.585,6.973-2.867,9.483c1.533,5.359,6.531,9.73,11.951,10.631c0.057-0.113,0.323-0.511,0.382-0.577   C188.083,166.549,184.394,160.536,184.367,156.271z"/>
	<path class="st9" d="M212.629,159.113c1.698,4.183-2.158,6.59-5.561,7.495c5.065,3.313,12.849-4.846,4.855-7.847"/>
	<path class="st9" d="M196.083,147.389c4.375,1.454,4.315-2.982,7.074-4.263c3.628-1.688,20.965,0.954,21.453-4.426   c-3.965-2.401-11.269-0.53-15.512,0.204c-3.262,0.565-6.722,0.396-9.997,1.234C196.377,140.835,190.096,145.4,196.083,147.389z"/>
	<path class="st9" d="M227.815,164.059c-3.708,2.625,1.962,8.247,4.544,9.145c-0.158-1.443-2.081-2.952-2.935-4.281   c-1.151-1.786-1.301-3.379-1.943-5.109c-0.625,0.193-0.454,0.544-0.727,0.952"/>
	<path class="st9" d="M252.184,148.52c-0.474-0.08-0.942-0.063-1.404,0.052c-0.675,1.463,1.764,8.331,3.17,8.455   c1.147,0.104,2.484-1.971,2.489-2.857c0.007-2.173-3.359-4.614-4.961-5.298"/>
	<path class="st9" d="M244.766,128.741c-4.382,0.801-3.437,4.832-1.693,7.796c1.939,3.297,5.009,3.758,8.369,4.509   c-1.626-4.491-6.168-7.464-7.733-12.306"/>
	<path class="st9" d="M259.25,124.15c1.006,2.514,6.292,13.104,1.792,14.753c2.093,0.565,2.859-1.269,3.168-3.005   c0.839-4.726-2.514-9.083-5.667-12.101"/>
	<path class="st9" d="M289.606,108.515c-1.846,1.396,0.107,2.895,0.031,5.013c-0.123,3.495-3.208,7.011-5.923,8.873   c-2.715,1.86-6.486,3.333-9.649,4.141c-0.833,0.211-3.941,0.289-4.247,1.298c-0.544,1.787,4.382,1.383,5.318,1.276   c4.986-0.572,9.984-3.31,13.862-6.389c2.651-2.102,5.313-5.304,6.085-8.667C295.752,111.142,293.538,105.533,289.606,108.515z"/>
	<path class="st9" d="M265.958,151.697c-2.275,2.584-9.604,10.355-1.501,10.241c5.489-0.077,10.595-4.164,15.228-6.594   c-0.75,7.086-13.784,15.777-20.789,12.614c-8.204-3.702,3.344-17.276,6.356-15.203"/>
	<path class="st9" d="M280.084,143.221c1.748,1.16,1.674,3.194,1.096,4.924c2.084-1.002,3.845-6.01,1.404-7.678   c-2.164-1.479-6.892,1.513-7.046,3.778c1.332-0.801,3.349-0.8,4.191,0.389"/>
</g>

<g>
	<path class="st6" d="M97.875,253.934c-5.333,1.936-5.128,8.207-5.842,11.714c-1.771,8.697-2.946,4.256-10.61,6.223   c-6.717,1.723-8.659,9.248-15.348,5.009c-3.809-2.413-6.988-9.071-11.764-5.884c-4.263-4.191-2.647-3.447-0.599-8.511   c1.582-3.909,1.561-7.321-3.433-8.08c0.348-2.362,1.776-4.098,1.912-6.456c0.425-7.387-1.903-11.686,7.047-15.41   c7.105-2.956,11.833,0.713,18.879,0.226c4.069-0.284,8.804-1.257,12.228,2.101c3.944,3.869,0.464,9.654,2.993,13.645   c0.494-0.042,0.503-0.394,0.976-0.499c1.658,2.146,4.038,3.018,4.026,5.77C98.181,253.828,98.024,253.878,97.875,253.934z"/>
	<path class="st8" d="M75.625,237.33c3.298,2.057,8.174,4.35,10.021,7.69c2.979,5.389,2.749,9.7-2.176,13.887   c0.824-5.813-5.045-4.775-8.719-4.472c0.33-2.565,2.192-4.987,2.492-7.855c-2.129-0.605-7.462-2.484-9.71-1.31   c-4.352,2.277,0.976,7.823,3.627,8.284c-1.236,1.496-2.011,3.556-1.681,5.526c4.522,0.304,7.747-0.165,11.562,2.827   c-4.823-2.523-10.696,3.816-15.528,3.121c0.121-1.976-0.795-3.372-2.677-3.995c1.147-1.642,2.132-3.616,1.817-5.718   c-2.255-0.455-4.736-1.313-7.104-0.382c1.747-0.687,2.148-15.825,4.086-18.428c3.655-4.902,9.291-2.271,13.369,0.425   C75.203,237.064,75.411,237.193,75.625,237.33z"/>
</g>
<path class="st1" d="M63.711,271.494c0,0-17.072,6.46-28.016,0.532l-1.099,7.937l-9.325-12.321l11.5-8.704l-0.999,7.218  c0,0,17.252,0.607,25.056-5.299L63.711,271.494z"/>
<path class="st1" d="M62.652,246.067c0,0-17.072,6.458-28.017,0.53l-1.099,7.936l-9.323-12.318l11.5-8.704l-1,7.215  c0,0,17.252,0.608,25.057-5.299L62.652,246.067z"/>
  
    <switch><text x="16" y="260" class="textH2O" translate="no" id="trsvg106"><tspan id="trsvg55">H</tspan><tspan class="textH2Os" id="trsvg56">2</tspan><tspan id="trsvg57">O</tspan></text></switch>
  
<g>
	<circle class="st17" cx="51.423" cy="122.88" r="81.577"/>
	<g>
		<path class="st3" d="M49.561,163.69c-0.964,1.887-2.542,3.684-2.534,5.995c0.02,4.991,6.962,9.578-2.08,11.216    c-2.354,0.428-4.89-1-6.873-0.552c-2.883,0.654-3.18,4.023-5.827,4.699c-3.271,0.838-3.975-2.092-6.372-3.112    c-2.045-0.871-6.402,0.16-7.984-1.23c-1.222-1.075-1.625-4.828-0.954-6.304c0.397-0.874,2.562-0.678,2.724-1.408    c0.407-1.817-0.542-1.861-0.716-3.34c-0.164-1.402-0.12-3.53-0.842-4.772c-0.776-1.331-2.873-1.562-3.397-2.695    c-2.62-5.641,9.809-2.183,12.217-5.771c1.2-1.789,0.399-3.999,3.627-3.788c-0.867-4.665,7.179-5.263,4.928,1.561    c1.568,1.443,3.144,1.225,4.699,0c1.599-1.261,0.417-4.29,1.01-5.206c4.274-6.584,5.602,2.629,6.357,5.314    c0.808,2.871,3.262,3.779,2.7,7.445C50.141,162.415,49.885,163.059,49.561,163.69z"/>
		<path class="st8" d="M41.143,160.358c0.197,0.898,0.711,2.117,0.756,2.942c0.179,3.37-1.468,8.399-4.792,10.009    c-0.979,0.472-9.604,1.966-10.077,1.539c-1.513-1.357,0.78-2.011,0.29-3.095c-0.818-1.813-0.58-3.52-3.362-2.205    c-1.592-3.531,2.021-4.821,4.876-5.355c-0.16,3.825,3.299,5.549,6.163,2.947c3.175-2.885,0.214-8.12-3.199-5.096    c-1.235-1.536-0.461-3.829,0.848-5.059c0,1.928,2.437,3.921,4.314,3.691c2.83-0.339,2.326-3.245,4.701-4.75    c0.055,1.335-0.74,2.78-0.578,4.089C41.096,160.125,41.117,160.239,41.143,160.358z"/>
	</g>
	<g>
		<path class="st3" d="M23.756,139.843c-4.276,1.551-4.11,6.579-4.683,9.389c-1.419,6.972-2.362,3.413-8.505,4.99    c-5.383,1.38-6.941,7.411-12.302,4.014c-3.054-1.935-5.602-7.27-9.43-4.716c-3.418-3.359-2.122-2.762-0.48-6.822    c1.268-3.134,1.252-5.869-2.751-6.476c0.278-1.896,1.424-3.287,1.532-5.178c0.341-5.92-1.526-9.365,5.649-12.351    c5.695-2.371,9.485,0.568,15.133,0.179c3.261-0.227,7.057-1.006,9.801,1.684c3.162,3.102,0.372,7.74,2.398,10.939    c0.398-0.033,0.406-0.315,0.785-0.403c1.328,1.724,3.235,2.42,3.228,4.626C24.001,139.758,23.876,139.798,23.756,139.843z"/>
		<path class="st8" d="M5.921,126.533c2.644,1.649,6.552,3.486,8.031,6.163c2.39,4.323,2.206,7.778-1.742,11.133    c0.661-4.658-4.045-3.829-6.99-3.583c0.265-2.057,1.757-3.998,1.999-6.298c-1.708-0.484-5.981-1.993-7.785-1.049    c-3.489,1.825,0.783,6.268,2.908,6.639c-0.991,1.201-1.612,2.85-1.347,4.432c3.624,0.243,6.208-0.134,9.266,2.266    c-3.865-2.023-8.574,3.059-12.446,2.501c0.096-1.582-0.637-2.701-2.145-3.2c0.918-1.316,1.708-2.899,1.456-4.585    c-1.806-0.364-3.795-1.051-5.693-0.307c1.399-0.549,1.721-12.685,3.273-14.769c2.93-3.933,7.448-1.82,10.716,0.338    C5.583,126.32,5.75,126.426,5.921,126.533z"/>
	</g>
	<g>
		<path class="st3" d="M71.04,116.904c-1.839-0.238-3.679-0.756-5.594-1.777c-5.704-3.04-5.967-8.666-10.609-12.449    c3.401-3.281,0.893-4.707-0.376-8.303c-1.46-4.14-0.865-5.276,2.253-4.89c4.797,0.595,8.298,4.007,12.895,2.39    c1.955-0.688,1.655-2.86,5.085-0.904c2.274,1.297,2.386,3.029,5.165,3.982c1.839,0.631,3.423-0.754,5.742,0.557    c2.172,1.229,1.776,2.634,4.207,3.463c2.002,0.684,8.128-2.054,10.082-0.901c3.405,2.009-1.35,4.014-2.032,5.184    c-2.654,4.562,0.86,1.659,1.337,4.906c0.365,2.487-6.148,7.114-8.2,8.205c-3.515,1.867-7.327,0.229-11.304,0.441    C76.619,116.973,73.828,117.262,71.04,116.904z"/>
		<path class="st8" d="M79.491,110.114c0.159,0.077,0.319,0.15,0.478,0.22c0.821,0.365,9.412,3.314,8.812,1.262    c-0.126-0.433-0.457-1.118-0.661-1.531c-1.764,0.322-3.938,0.543-5.672-0.119c2.399-4.601,9.054-5.884,12.158-10.162    c-1.979,2.364-5.065,0.302-7.584,1.12c-2.588,0.842-3.567,3.861-6.315,4.492c-2.101,0.482-5.136-0.002-3.981-2.624    c-1.017-1.341-2.291-2.14-3.887-2.441c2.121,5.021-4.825,2.592-6.434,0.349c-2.358-3.283-1.036-5.938-6.706-6.33    c4.164,3.081,3.235,11.009,7.557,13.391c2.056,1.134,4.173-0.282,6.5,0.022C75.763,108.026,77.661,109.241,79.491,110.114z"/>
	</g>
	<g>
		<path class="st4" d="M64.956,181.1c-0.201-0.276-0.392-0.547-0.57-0.809c-1.501-2.213-2.86-4.645-3.946-6.912    c-1.175-2.455-0.271-4.419-1.473-6.783c-1.464-2.871-12.428-7.698-3.612-10.789c1.84-0.647,2.74,0.877,4.666-1.031    c1.2-1.188,0.771-3.786,1.705-5.238c1.4-2.174,3.225-3.546,5.824-2.273c1.312,0.644,1.374,2.327,2.09,2.831    c0.8,0.561,2.61,0.608,3.089,0.992c2.077,1.673,3.436,4.281,5.429,5.894c1.655,1.337,4.363,1.459,5.706,2.731    c1.805,1.711,1.808,4.651,3.404,6.78c1.518,2.021,3.937,2.305,5.486,3.825c3.247,3.188,2.398,9.663,0.25,13.55    c-1.541,2.787-4.039,4.673-7.53,4.368c-2.841-0.246-4.224-2.749-6.945-3.125c-2.866-0.398-5.376,1.751-8.593,0.464    C68.047,184.815,66.265,182.88,64.956,181.1z"/>
		<path class="st8" d="M76.771,177.049c3.061-1.039,6.792-3.001,8.553,1.999c0.659-6.15,0.069-5.518-4.649-4.982    c-1.917,0.218-4.526,0.497-6.175-0.774c-2.792-2.153-0.606-4.312-1.741-6.808c-1.369-3.01-8.537-4.501-4.691-8.93    c3.181,1.631,5.186,3.142,8.186,5.584c-1.47-2.604-2.824-5.686-5.654-7.202c-1.633-0.872-3.11,2.238-4.331-2.089    c-5.644,0.496,3.231,8.829-2.636,8.185c1.23,2.563,4.217,3.832,5.458,6.461c0.392,0.828,1.214,6.73,0.554,6.913    c0.798-0.218,1.684,0.2,2.596-0.242C72.818,178.045,74.631,177.774,76.771,177.049z"/>
	</g>
	<g>
		<path class="st2" d="M52.61,129.5c1.265,2.279,2.858,5.711,2.458,6.952c-1.102,3.417-7.481,0.583-9.465,1.551    c-2.577,1.255-3.438,4.458-6.346,5.366c-2.574,0.806-6.127-0.32-8.467-1.525c-3.606-1.859-12.339-8.201-10.94-13.208    c0.749-2.679,4.015-3.459,4.658-6.479c0.561-2.63-1.552-4.579,0.849-6.906c1.874-1.817,4.484-1.865,6.816-2.041    c-0.174,0.448-0.19,1.394-0.408,1.958c3.897,0.257,8.77,0.686,12.144-1.363c2.75-1.67,5.358-7.047,9.021-7.083    c4.394-0.043,7.233,6.088,8.025,9.03c0.706,2.622,3.135,3.851-1.168,4.29c-1.961,0.201-3.941-1.942-6.274-1.694    c-0.691-2.343,0.418-4.643,3.045-4.055c0.347,0.022-0.632,0.877-0.613,0.76c-0.381-0.386-0.347-0.761-0.906-0.944    c-3.243-1.056-0.761,6.677-0.842,6.96c-0.915,3.167-2.79,1.218-4.48,3.559c-2.246,3.108,0.368,1.427,1.595,2.796    C51.532,127.669,52.035,128.466,52.61,129.5z"/>
		<path class="st8" d="M39.266,116.565c4.274-1.003,9.317-5.073,11.387-6.983c-2.006,1.126-3.451,3.973-3.641,6.114    c-0.118,1.317,1.861,1.444,1.21,3.302c-0.86,2.469-5.687,2.436-6.474,5.207c-0.987,3.481,3.171,7.295,6.344,8.38    c-2.059,0.349-3.614-1.404-5.548-0.82c-1.875,0.566-2.481,3.152-4.36,3.999c-2.231,1.005-4.457,0.573-6.353-1.061    c-0.864-0.746-1.446-2.596-2.109-3.098c-0.431-0.327-1.699-0.603-2.144-1.034c-1.442-1.409-2.899-0.43-2.104-3.162    c0.453-1.552,2.473-1.765,3.322-3.047c2.023-3.056-1.554-6.833,1.499-9.11C33.232,113.063,35.583,117.429,39.266,116.565z"/>
	</g>
	<g>
		<path class="st3" d="M80.671,146.554c-1.303-2.336,0.063-3.747,0.179-6.561c0.067-1.643,0.207-2.876-0.81-4.13    c-1.221-1.506-2.338-0.201-3.453-1.13c-4.873-4.06-1.903-7.589,1.979-10.42c1.772-1.294,5.425-6.599,7.157-6.888    c2.295-0.368,7.531,4.496,8.49,6.677c0.743,1.688,0.497,4.143,1.049,5.917c0.821,2.635,2.328,3.711,3.986,5.442    c3.407,3.554,9.147,6.717,9.682,12.067c0.283,2.849-0.803,10.839-3.724,11.665c-1.752,0.497-2.453-1.485-3.721-1.534    c-0.983-0.037-2.1,0.423-3.204,0.439c-1.938,0.029-2.674,1.057-5.273,0.153c-3.408-1.188-3.43-2.761-5.42-5.016    c-1.722-1.951-3.957-3.164-5.706-5.067C81.336,147.575,80.945,147.043,80.671,146.554z"/>
		<path class="st8" d="M91.505,145.177c0.145,0.119,0.292,0.235,0.446,0.351c2.171,1.619,4.811,1.755,4.317,5.111    c3.048-0.403,4.149-4.701,7.825-3.32c-2.071-3.358-7.441-1.125-10.553-3.501c-2.811-2.146-1.475-2.858-1.973-5.177    c-0.901-4.174-1.235-8.062-1.852-12.273c-0.022,0.162-0.689,1.461-0.8,1.903c-1.372-1.41-2.936-0.434-3.772,1.114    c0.298-0.552,1.884,7.271,2.022,7.984C87.78,140.532,89.028,143.152,91.505,145.177z"/>
	</g>
	<path class="st3" d="M79.145,74.236c0.045,0.967,0.125,1.889,0.334,2.694c0.951,3.688,4.86,6.352,5.654,9.521   c0.084,0.331-0.915,3.707-0.947,4.357c-0.117,2.328,0.678,4.359,0.498,6.706c-0.308,4.039-2.021,4.874-3.061,0.618   c-0.303-1.235,0.42-2.968,0.268-3.854c-0.133-0.756-0.199-1.822-0.503-2.887c-0.235-0.823-2.036-3.289-2.49-4.364   c-1.454-3.447-1.621-4.934-0.611-8.603c-1.774-0.942-2.522-2.751-3.175-4.634c-0.899-2.587,0.439-2.29-1.66-4.9   c-2.345-2.92-10.446-6.301-11.526-9.694c-0.837-2.635,1.992-4.927,4.579-4.439c2.523,0.477,3.434,3.628,4.782,5.427   c1.899,2.534,5.004,4.105,6.671,6.682C79.181,68.761,79.028,71.661,79.145,74.236z"/>
	<g>
		<path class="st4" d="M59.466,137.975c1.427-0.639,2.811-1.146,3.533-1.176c3.046-0.128,2.897,1.727,5.458,2.935    c2.199,1.039,4.861,0.544,6.859,0.64c2.066,0.102,5.744,2.08,5.405-2.014c1.267-0.218,2.918-0.017,4.091,0.542    c0.475,1.77,0,3.099,0.067,4.703c0.026,0.597,0.637,3.313,0.583,3.653c-0.216,1.377-1.151,3.817-2.173,4.806    c-1.336,1.292-2.72,0.692-4.119,1.698c-2.4,1.72-2.993,5.45-5.004,7.296c-2.088,1.919-7.232,3.048-10.358,3.062    c-1.904,0.006-3.131-0.9-5.004-1.338c-2.623-0.614-4.131,0.569-6.263,0.409c-0.92-0.07-2.184-1.026-3.142-1.083    c-0.828-0.053-1.626-0.638-2.687-0.545c-0.697,0.063-1.009,1.462-1.152,1.484c-5.436,0.755-4.431-7.16-2.73-9.954    c1.432-2.354,3.979-3.556,5.885-5.435c2.316-2.283,3.782-5.478,6.446-7.39C55.906,139.732,57.719,138.755,59.466,137.975z"/>
		<path class="st8" d="M54.447,149.12c-2.25,2.438-4.319,4.884-7.107,6.67c2.366-0.141,4.848-1.629,7.259-1.349    c2.25,0.262,2.596,1.99,4.758,2.68c3.665,1.172,6.738,0.102,9.81-1.932c2.354-1.557,7.678-3.663,8.573-6.449    c1.297-4.036-2.73-2.876-6.19-3.402c-4.244-0.646-8.083-1.587-12.264,0.099C57.359,146.216,55.856,147.592,54.447,149.12z"/>
	</g>
	<g>
		<path class="st3" d="M-2.013,106.627c-2.432-0.904-5.702-0.641-7.161-2.159c-1.445-1.507-0.353-3.021-1.021-4.676    c-0.762-1.889-2.28-3.315-3.761-4.649c-2.484-2.236-5.424-0.65-5.095-4.167c0.05-0.527,3.239-4.863,3.684-4.73    c1.252,0.377,3.472,0.767,4.642-0.07c1.502-1.075,0.19-2.354,1.008-3.32c2.691-3.175,4.099-1.064,7.972-0.416    c2.979,0.499,5.655-1.499,7.946-1.067c1.86,0.351,4.702,3.912,5.751,5.319c-0.066,0.386-0.312,0.413-0.376,0.798    c1.664,2.184,3.876,0.383,6.188,0.753c1.28,2.536,3.732,5.085,4.741,7.832c1.159,3.149-0.44,6.1-0.927,9.031    c-1.708,10.298-6.904,4.054-14.357,4.883c-5.611,0.625-3.802,0.4-7.909-2.661C-1.082,107.033-1.531,106.808-2.013,106.627z"/>
		<path class="st8" d="M14.597,104.534c-0.847-2.347,1.159-4.464,0.39-6.668c-0.708-2.023-3.057-2.861-4.764-3.811    c-0.376-0.21-8.975-5.945-4.064-6.761c-2.826,0.47-5.731-0.587-8.612-0.271c-1.572,0.173-7.258,3.816-8.243,3.378    c2.91,1.289,4.08,3.404,4.701,6.557c2.46-2.996,6.791-1.123,5.948,2.831c0.399-0.517,1.722-1.08,2.052-1.427    c0.011,0.68,0.57,1.609,0.568,2.42c1.816-0.156,3.242-0.088,4.496,0.162C9.678,101.466,11.536,102.785,14.597,104.534z"/>
	</g>
	<g>
		<path class="st4" d="M44.171,98.24c-1.622,0.441-3.396,0.203-5.706-1.227c-4.274-2.647-3.872-4.375-5.093-8.226    c-1.913-6.03-5.899-2.839-10.203-6.076c-3.427-2.576-2.003-6.156,1.826-7.169c2.876-0.762,6.075,0.814,9.081,0.635    c-0.022-3.125,2.416-3.9,4.933-4.703c4.189-1.339,3.355-0.208,6.899,1.188c2.943,1.16,10.736,1.159,12.34,4.173    c3.236-7.069,7.173-3.081,8.226,2.69c1.499,8.225-3.854,8.135-9.417,10.688c-3.2,1.47-4.954,2.848-7.441,4.697    C47.63,96.389,45.998,97.744,44.171,98.24z"/>
		<path class="st8" d="M53.338,85.86c1.954,0.029,4.049,0.17,5.307-0.618c2.486-1.561,3.617-5.922,2.108-8.349    c1.57,2.525-3.827,3.747-5.072,3.417c-2.188-0.58-3.633-3.66-6.08-4.403c-2.921-0.885-13.321-1.282-10.612,4.065    c-3.87,0.294-8.807-1.502-12.019,0.596c-0.066,0.043,8.805,3.134,9.364,3.568c1.837,1.423,2.825,7.329,5.772,6.584    c1.928-0.487,0.749-3.044,1.787-3.713c1.165-0.752,5.231-0.693,6.913-1.01C51.551,85.858,52.429,85.847,53.338,85.86z"/>
	</g>
	<path class="st3" d="M18.774,108.43c-0.634,0.584-1.302,1.073-2.017,1.418c-3.935,1.901-7.881,1.64-10.727,5.796   c-1.865,2.722-0.75,8.422-0.84,11.281c-4.279-0.605-3.41-3.24-3.114-6.719c0.191-2.239-0.162-8.34,0.438-10.074   c1.776-5.129,12.083-2.101,16.553-5.366c3.268-2.385,2.063-5.21,3.955-8.417c2.179-3.695,4.971-2.545,8.448-3.836   c1.63-0.605,8.804-5.428,6.996-0.62c-1.086,2.888-7.319,5.129-9.862,5.81C24.872,98.709,22.368,105.116,18.774,108.43z"/>
	<g>
		<path class="st11" d="M77.971,128.267c-0.026-7.27,13.162-8.704,17.018-12.188c1.774-1.602,3.028-3.522,4.893-5.148    c1.791-1.561,4.483-2.404,5.684-3.843c2.175-2.604,0.475-6.327,4.238-6.764c1.336-0.155,6.152,2.655,6.779,3.577    c0.568,0.835,0.271,3.238,0.627,4.261c0.53,1.521,2.194,1.766,2.17,3.723c-0.079,6.104-8.593,7.971-11.578,11.749    c-1.871,2.367-1.577,4.715-5.427,5.746c-3.678,0.983-13.074-1.016-12.251,5.735c-3.176-1.794-4.768,2.946-5.854,5.281    c-9.021,0.401,0.463-7.816,0.025-10.446C82.616,129.831,77.98,130.728,77.971,128.267z"/>
		<path class="st8" d="M90.109,125.678c7.03,1.217,13.792-8.335,18.092-11.833c2.589-2.107,5.054-3.908,3.101-7.721    c-3.748,0.076-4.047,5.1-6.342,7.319c-3.436,3.325-7.082,3.199-8.491,8.398c-2.655-0.163-8.036,0.438-9.375,2.611    C88.103,125.113,89.109,125.505,90.109,125.678z"/>
	</g>
	<path class="st9" d="M-8.456,126.268c-2.964,0.626-3.356,4.264-3.132,6.69c1.063-0.565,2-1.489,3.097-2.083   c-0.436-1.344-0.672-2.826,0.39-3.9"/>
	<path class="st9" d="M-10.575,137.218c-0.739,0.635-1.889,1.254-2.469,1.771c1.555,0.993,2.739-0.644,2.786-2.17   c-0.158-0.241-0.381-0.343-0.67-0.308"/>
	<path class="st9" d="M-9.515,145.692c-0.225,1.8-3.387,5.29-1.492,6.675c0.275-2.173,3.023-2.859,3.892-4.204   c-0.103,0.162,0.302-2.387,0.33-2.471c0.361-1.081,1.419-1.118,1.454-2.366c-1.205,1.272-2.778,2.871-4.537,3.073"/>
	<path class="st9" d="M-1.745,151.344c-4.797-0.592-1.034,4.165-0.072,5.544c-0.125-4.817,2.887-6.023,6.322-8.754   c-2.282,0.572-5.548,1.2-6.604,3.563"/>
	<path class="st9" d="M10.616,147.459c-1.304,0.645-1.938,1.769-1.711,3.135c2.286-0.1,3.924,1.278,5.897,1.401   c0.351-2.888-6.085-3.566-4.539-6.655"/>
	<path class="st9" d="M10.616,125.209c2.167,0.511,4.463,2.304,4.95,4.482c-0.337-1.943-0.078-4.142-2.117-5.117   c-1.418-0.679-4.272,0.131-5.282,0.909c1.168,0.276,2.315,0.638,3.508,0.784"/>
	<path class="st9" d="M7.791,108.963c-3.252-0.121-3.635,0.12-4.162,3.152c-0.519,3.004-2.059,6.836-1.858,9.814   c2.054-2.923,0.778-7.737,3.107-10.49c1.948-2.302,5.939-1.853,8.441-3.562c-2.721,0.761-5.618,0.216-8.355,1.085"/>
	<path class="st9" d="M-5.276,98.722c-1.24,0.869-2.103,2.155-2.443,3.575c0.671,0.285,1.544,0.718,2.346,0.695   c-2.285-1.054,0.333-3.145,0.804-4.624"/>
	<path class="st9" d="M-15.165,92.718c1.244,0.755,2.627,1.257,4.021,1.64c0.198-0.356,0.435-1.17,0.443-1.588   c-1.681-0.124-3.455-0.052-5.172-0.052"/>
	<path class="st9" d="M-8.102,83.888c-0.429,1.291-0.883,2.566-1.014,3.865c4.234-1.562-0.323-2.85,1.719-4.217"/>
	<path class="st9" d="M0.021,83.536c0.726,1.12,2.114,1.59,3.237,1.634c-0.342-0.314-0.505-0.907-0.746-1.201   c0.639-0.243,1.628-0.975,2.103-1.077c-1.811,0.203-3.571,0.771-5.3,1.35"/>
	<path class="st9" d="M12.383,89.54c-0.95,0.456-1.788,0.81-2.726,1.156c1.361,0.357,7.058,1.476,6.485-1.104   c-2.094-0.146-4.737-0.25-6.585,0.654"/>
	<path class="st9" d="M15.561,95.542c2.158,0.856,1.813,4.281,0.813,5.977c0.822-0.436,1.723-0.686,2.665-0.731   c1.095-2.416-0.251-6.366-2.35-7.688c-0.36,0.659-0.945,1.396-1.128,2.091"/>
	<path class="st9" d="M0.021,134.039c-2.993,0.839-0.158,3.444,1.105,4.465c-0.538-1.16-0.484-2.426-0.339-3.697   c0.164-0.101,0.565-0.276,0.638-0.318c-0.905-0.568-1.83-0.591-2.463-0.097"/>
	<path class="st9" d="M27.214,116.027c-3.951,1.829-0.508,5.053-1.669,7.504c-1.018,2.146-5.374,3.916-3.626,7.23   c1.062-3.521,3.695-5.067,6.232-7.319c-2.463-1.963-2.157-7.332,1.535-7.768"/>
	<path class="st9" d="M31.1,136.511c-0.5-0.034-1.521,0.336-2.118,0.396c0.723,2.006,5.688,4.851,7.699,5.922   c0.967-2.796,3.222-2.258,4.931-3.926c2.198-2.141-1.217-2.77,0.125-5.092c-2.936,2.255-8.557,9.113-11.696,2.346"/>
	<path class="st9" d="M46.286,127.682c-4.011,1.86-0.228,2.442,0.779,2.876c2.319,1.002,3.216,1.552,4.75,3.098   c-1.157-2.646-3.396-7.514-7.295-4.915"/>
	<path class="st9" d="M48.052,119.91c0.762,0.921,2.069,1.616,3.095,2.066c0.466-1.423-0.206-3.534-0.32-5.169   c-0.916,1.285-3.039,2.778-2.775,4.165"/>
	<path class="st9" d="M25.449,95.896c-1.251,0.964-1.961,2.275-2.16,3.804c0.878-1.216,2.163-2.239,2.107-3.769   c-0.354,0.08-0.645,0.227-1.006,0.318"/>
	<path class="st9" d="M27.214,78.237c-4.121-3.538-5.966,3.3-1.898,3.851c-1.693-2.135-1.24-4.259,1.546-4.557"/>
	<path class="st9" d="M37.81,74c-6.178-0.624-0.697,3.583-0.336,4.829c-1.287-2.268-0.026-6.518,3.163-6.242"/>
	<path class="st9" d="M36.75,89.187c0.071-0.324-0.756,0.414-1.692,0.675c-0.508-1.131-0.657-2.388-0.099-3.383   c0.959,0.321,1.201,0.975,1.085,2"/>
	<path class="st9" d="M40.282,93.424c-4.183,1.514-0.896,4.614,2.059,3.538c1.361-0.496,3.067-2.684,4.575-3.457   c1.58-0.81,3.762-1.2,4.895-2.552c-2.112-1.623-3.92-3.143-6.855-2.843c0.951,0.351,3.501,0.891,3.481,2.145   c-0.024,1.563-1.486,0.577-2.486,0.949c-1.875,0.696-6.298,3.791-6.021,4.34"/>
	<path class="st9" d="M62.532,77.179c-0.019,2.03-0.396,3.565-0.708,5.445c-0.101,0.611-0.91,1.148-1.02,1.916   c4.039,0.817,1.654-5.529,1.022-7.009"/>
	<path class="st9" d="M53.35,88.127c-1.132-0.829-2.346-0.986-3.457-0.256c1.575,0.357,3.297,0.927,4.784,1.268   c-1.248-1.287-3.447-1.592-5.212-1.719"/>
	<path class="st9" d="M59.353,97.662c-0.226,1.723-1.107,3.801-2.018,5.262c1.3,0.452,2.763,0.475,4.057-0.038   c0.424-2.001-2.083-4.609-3.45-5.931"/>
	<path class="st9" d="M66.064,110.377c-0.778-0.955-1.774-1.289-2.75-0.753c0.154,0.891,2.005,3.852,2.804,4.291   c1.467,0.806,3.197-0.016,4.826-0.033c2.535-0.028,4.991,0.635,7.535,0.301c-2.213-0.606-8.795-0.885-6.891-5.174   c-2.047-0.186-4.091-0.086-5.879,1.015"/>
	<path class="st9" d="M81.957,112.847c-0.009,0.754,0.359,1.707,0.742,2.354c0.986-0.5,2.048-0.786,3.135-1.001   C85.006,113.109,83.316,113.078,81.957,112.847"/>
	<path class="st9" d="M91.139,104.726c-2.693,0.789-4.755,1.763-6.256,4.201c3.354-0.994,7.695-1.737,11.101-0.653   c-1.813-0.526-3.625-0.958-5.503-1.137c0.628-2.521,6.286-5.454,8.327-7.403c-3.265,1.034-6.953,2.954-9.433,5.346"/>
	<path class="st9" d="M77.365,98.722c-0.104-0.526-0.328-0.987-0.669-1.384c0.56,2,1.286,4.667,0.705,6.659   c5.177-1.627-2.61-8.984-4.304-10.82c2.272,3.627-1.608,5.318-2.783,8.349c1.805-0.473,3.295-2.507,3.934-4.163   c0.886-0.2,1.726,0.038,2.412,0.653"/>
	<path class="st9" d="M65.005,95.19c0.705,1.266,1.873,1.745,3.188,1.364c-0.561-1.204-2.772-2.444-3.542-1.011"/>
	<path class="st9" d="M65.709,57.048c-4.696-0.167-0.634,4.56,1.446,5.163c-0.538-1.583-1.556-3.037-2.413-4.498   c0.289-0.604,0.696-0.611,1.321-0.666"/>
	<path class="st9" d="M73.127,65.523c-0.319,2.133,2.189,2.43,2.833,4.221c0.617,1.722,0.07,3.505,1.058,5.319   c1.611-1.999-2.321-11.518-4.243-8.48"/>
	<path class="st9" d="M80.897,83.536c-2.458,1.475,1.534,4.749,1.687,6.999c0.284-2.045-0.507-6.204-2.746-6.646"/>
	<path class="st9" d="M22.625,160.174c-1.579-0.494-6.237-0.707-6.681,1.352c3.313-0.492,2.12,2.868,3.415,4.277   c0.568-1.163,0.524-3.327,1.582-4.17c1-0.799,2.012,0.638,2.714-0.772c-0.384-0.493-0.594-0.147-1.03-0.334"/>
	<path class="st9" d="M28.982,155.935c-1.216,1.688-1.873,3.663-0.982,5.622c1.05-1.202,1.894-3.104,3.141-4.209   c-0.655-0.618-1.328-1.406-1.807-2.119"/>
	<path class="st9" d="M23.331,172.887c1.05,2.738-4.032,2.136-5.642,2.534c0.341,0.866-0.07,4.045,1.042,4.226   c0.768,0.127,1.341-1.865,1.83-2.262c1.156-0.939,2.353-1.425,3.801-1.742c0.261-0.987-0.235-1.231-1.03-1.695"/>
	<path class="st9" d="M31.806,179.599c-2.643-3.127-3.752,2.322-0.035,2.786c-0.577-1.377-1.039-3.147-0.343-4.417   c0.246,0.066,0.49,0.137,0.732,0.218"/>
	<path class="st9" d="M41.696,173.947c-3.127-0.33-4.702,3.812-1.352,4.605c1.299,0.309,3.654-0.233,4.536-0.987   c-2.542-0.267-5.573-3.911-2.125-5.385"/>
	<path class="st9" d="M44.167,165.824c-0.514,1.039-1,2.082-0.994,3.161c0.915-1.739,3.97-2.887,3.42-5.226   c-1.804-0.472-3.234,0.95-3.133,2.77"/>
	<path class="st9" d="M37.458,156.995c3.993-0.288,4.979-4.918,4.281-7.991c0.579-0.224,1.095-0.188,1.67,0   c0.404,1.453-0.802,2.647-1.36,2.693"/>
	<path class="st9" d="M48.052,151.344c-2.411,1.828-6.587,5.363-5.93,8.814c1.152-1.783,2.757-3.225,4.171-4.855   c0.347-0.403,1.065-0.177,1.432-0.766C48.171,153.815,47.621,152.246,48.052,151.344"/>
	<path class="st9" d="M59.001,140.396c-2.749-0.211-5.309,2.753-5.622,5.302c1.007-0.921,2.534-2.326,3.212-0.463   c3.438-3.67,7.865-0.989,11.792-1.73c-3.357-1.146-7.249-2.953-10.795-2.756"/>
	<path class="st9" d="M57.234,158.055c-2.27-0.48-5.728,2.274-5.593,4.553c1.513-0.628,3.216-0.867,4.866-1.083   c-0.567-2.491,1.294-3.095,3.553-2.763"/>
	<path class="st9" d="M69.949,158.407c-1.792,0.016-3.438,1.215-3.873,2.868c3.935,2.222,8.777-5.05,10.482-7.692   c-3.365,0.298-6.36,3.826-9.082,5.884"/>
	<path class="st9" d="M81.25,147.813c-0.295,0.573-0.384,1.78-0.308,2.451c1.586-0.201,3.158-4.066,3.538-5.689   c-0.684-0.453-1.593-0.903-2.471-1.229c-0.004,2.056-0.538,4.149-0.406,6.232"/>
	<path class="st9" d="M65.357,168.649c-6.941-5.559-3.303,6.166-1.042,8.825c1.389-0.977-0.244-1.848-0.068-3.254   c0.265-2.111,1.479-3.591,3.542-4.235c-0.271-0.998-1.226-2.127-2.433-2.396"/>
	<path class="st9" d="M75.245,178.537c-2.208,0.608-2.041,4.134-3.052,5.986c3.202-2.176,3.993-1.726,2.675-5.595   c0.962-0.055,1.91-0.185,2.851-0.392"/>
	<path class="st9" d="M84.076,178.892c-0.666,1.477-0.888,3.43-2.081,4.307c0.986,1.512,2.131,3.291,3.173,4.907   c0.885-1.587-0.632-3.461-0.766-5.285c-0.104-1.443,0.569-2.701,0.026-3.929"/>
	<path class="st9" d="M87.608,176.064c0.569,1.463,0.81,3.031,1.121,4.561c4.375-1.203,4.314-6.016,2.42-9.563   c-1.536,1.228-3.202,3.395-3.541,5.357"/>
	<path class="st9" d="M83.722,162.998c-3.571,1.322-5.61,5.207-8.829,7.105c-0.69-0.587-1.111-1.523-1.138-2.495   c-0.542,1.305-0.723,4.202,1.388,4.629c1.287,0.262,3.617-2.171,4.977-2.492c1.339-0.314,2.931,0.006,4.295-0.07   c-0.448-0.878-0.951-1.884-1.38-2.763c1.292,0.107,2.288,1.014,3.482,1.601c-1.567-1.656-2.973-4.172-2.796-6.572"/>
	<path class="st9" d="M76.659,160.526c-0.963,1.189-0.574,2.346,0.649,3.007c0.814-0.9,1.756-2.308,2.525-3.291   c-1.231-0.159-2.347-0.585-3.571-0.722c-0.313,0.272-0.18,0.372,0.397,0.3"/>
	<path class="st9" d="M88.313,143.928c-4.985,2.841,0.888,5.858,1.474,8.433c2.791-1.381,3.58,1.35,4.081,3.457   c0.465-0.975,0.94-2.3,1.465-3.335c-1.02-0.646-1.512-2.203-1.491-2.842c0.281,0.193,0.844,0.432,1.058,0.616   c-0.932-3.417-4.67-3.616-6.941-4.916"/>
	<path class="st9" d="M104.912,148.166c-1.83,0.145-3.861,1.072-4.568,2.777c3.867-0.813,5.98,2.143,4.172,5.968   c1.28-2.657,2.122-6.957-1.017-8.745"/>
	<path class="st9" d="M93.611,141.809c1.39,0.401,2.811,0.683,4.235,0.906c-2.255-1.687-1.902-2.182-2.037-4.456   c-0.042-0.713,0.377-1.1,0.203-2.094c-0.176-1.001-1.48-2.274-1.799-3.411c-0.859,3.162-0.819,6.487-0.602,9.76"/>
	<path class="st9" d="M89.02,127.329c-1.446-0.546-3.302-0.112-3.484,1.36c0.393-0.042,0.913,0.09,1.311,0.106   c0.277,2.361-1.901,4.537-2.625,6.738c2.082-3.471,3.915-7.08,8.238-7.858c-1.761,0.149-3.433-0.479-5.204-0.346"/>
	<path class="st9" d="M81.25,125.21c-0.289,0.765-0.183,1.244-0.571,1.844c1.23-1.854,4.756-4.482,6.539-3.66   c-1.168-1.535,5.397-3.73,7.433-3.782c-0.652,0.637-1.106,1.592-1.371,2.492c-2.668-2.775-9.535,2.03-11.677,3.812"/>
	<path class="st9" d="M102.793,111.436c-0.568,1.205-1.027,2.51-1.374,3.785c1.399-1.3,7.858-4.425,5.18-6.838   c-1.766,0.957-3.094,2.694-4.512,4.113"/>
	<path class="st9" d="M113.388,109.318c0.898,2.558-0.93,3.707-2.334,5.338c1.456-0.817,3.162-1.692,4.754-1.147   c0.125-2.065-2.316-3.15-1.712-5.251"/>
	<path class="st9" d="M106.326,118.5c-2.375,2.358-6.783,5.261-5.554,8.781c1.358-1.042,6.415-7.382,3.787-8.428"/>
</g>
<g>
	<circle class="st17" cx="416.923" cy="122.805" r="81.578"/>
	
		<linearGradient id="XMLID_59_" gradientUnits="userSpaceOnUse" x1="446.979" y1="-184.6313" x2="493.3501" y2="-184.6313" gradientTransform="matrix(1 0 0 -1 -0.1655 -50.6426)">
		<stop offset="0.0056" style="stop-color:#000000"/>
		<stop offset="0.4775" style="stop-color:#0F3956"/>
		<stop offset="1" style="stop-color:#096586"/>
	</linearGradient>
	<path style="fill:url(#XMLID_59_);" d="M477.209,118.906c3.798-1.07,2.108,2.927,1.411,4.468c2,2.177,4.949-0.647,7.001-0.92   c4.718-0.627,1.867,1.75,0.009,3.383c-1.103,0.969-2.54,0.426-1.005,2.205c0.876,1.018,4.012,0.154,2.796,2.05   c-0.558,0.867-3.085,0.192-3.235,1.466c-0.226,1.914,2.545,1.564,3.59,1.854c1.505,0.417,7.034,1.841,4.942,3.804   c-2.253,2.11-7.107-1.159-8.952-2.119c-3.914-2.036-10.189-4.949-14.335-2.746c1.893,2.621,6.125,2.611,9.065,3.884   c2.698,1.168,5.241,2.421,7.563,4.14c1.406,1.041,4.543,3.409,2.501,5.423c-1.737,1.718-4.099-1.083-5.684-1.739   c-0.73,1.477-0.226,5.236-2.888,5.191c-2.301-0.038-2.694-4.344-3.621-6.029c-3.164-5.76-8.298-7.44-14.497-8.201   c-3.472-0.425-7.355-0.534-10.781,0.422c-3.404,0.949-5.083,1.154-3.898-3.527c1.748-6.93,8.038-7.514,14.129-7.261   c3.268,0.135,6.412-0.103,9.645-0.681c1.544-0.276,3.479-0.636,4.691-1.723C475.988,121.955,477.601,118.795,477.209,118.906z"/>
	
		<linearGradient id="XMLID_60_" gradientUnits="userSpaceOnUse" x1="497.1509" y1="-186.8506" x2="446.6445" y2="-181.5528" gradientTransform="matrix(1 0 0 -1 -0.1655 -50.6426)">
		<stop offset="0" style="stop-color:#081F2E"/>
		<stop offset="1" style="stop-color:#00A0C6"/>
	</linearGradient>
	<path style="fill:url(#XMLID_60_);" d="M463.624,121.325c6.925,2.164,14.43,3.077,20.49-1.261   c2.479,3.986-9.386,5.108-11.308,5.145c-3.503,0.066-12.437-2.958-14.806-0.076c6.475,3.761,15.231,1.764,22.313,2.463   c2.33,0.229,8.577,0.634,9.813,2.999c1.198,2.295-0.612,1.506-2.401,1.227c-5.74-0.892-11.118-2.304-17.049-2.375   c-3.889-0.045-14.309-0.391-16.215,3.463c3.615,1.032,7.291-0.422,10.943-0.555c3.848-0.14,7.648,0.495,11.471,0.899   c4.263,0.451,9.196,0.816,12.892,3.169c0.78,0.498,3.151,1.659,2.408,2.94c-0.775,1.335-5.092-1.087-6.029-1.43   c-3.272-1.196-9.188-4.13-12.599-2.746c1.357,1.999,4.601,1.939,6.662,3.082c2.076,1.149,5.186,3.6,6.385,5.745   c1.734,3.108,1.625,9.04-2.143,3.895c-4.011-5.476-7.832-10.706-14.738-12.898c-2.631-0.835-6.39-0.899-9.271-0.541   c-2.446,0.305-6.208,2.06-8.464,0.37c-4.222-3.16,3.099-4.456,3.466-6.806c0.227-1.442-1.744-1.521-0.219-3.513   c1.479-1.929,2.997-0.356,4.836-1.055c-0.646-1.664-2.816-2.301-3.104-4.218c6.226,1.77,12.98,5.617,19.732,4.194"/>
	<g>
		<path class="st5" d="M424.687,119.326c12.283,0,22.241,10.502,22.241,23.455s-9.958,23.456-22.241,23.456    c-12.28,0-22.238-10.503-22.238-23.456S412.407,119.326,424.687,119.326z"/>
		<path class="st8" d="M425.381,132.945c1.172,1.202,1.908,2.635,2.673,2.618c-2.847,0.061-4.581-0.615-7.325,0.666    c-2.285,1.069-3.388,4.221-5.851,1.81c0.548-3.375,2.769-5.839,6.059-6.582C422.965,130.997,424.342,131.881,425.381,132.945z"/>
	</g>
	<g>
		<path class="st3" d="M443.012,125.902c-4.575,1.673-9.671,2.114-14.325,1.251c-7.34-1.359-16.563-8.39-16.198-16.557    c0.39-8.793,10.028-15.338,17.314-18.253c6.364-2.546,15.518-4.228,21.899-0.868c9.692,5.102,7.47,17.181,2.913,25.106    C452.074,121.005,447.833,124.137,443.012,125.902z"/>
		<path class="st8" d="M439.918,104.7c1.894-1.293,2.918-3.303,2.049-6.175c-2.885-0.995-4.801,3.071-6.92,4.203    c-0.976,0.519-10.098,1.6-9.396,0.017C423.961,106.549,434.943,108.103,439.918,104.7z"/>
	</g>
	<g>
		<path class="st4" d="M357.593,137.282c-2.547-1.286-4.663-2.979-6.031-5.087c-4.46-6.865-6.116-19.759-0.983-26.659    c6.878-9.253,21.43-4.364,28.886,1.26c8.599,6.483,18.153,22.922,5.509,30.581C378.412,141.354,365.78,141.416,357.593,137.282z"/>
		<path class="st8" d="M373.968,112.294c0.104,0.061-0.523-1.688-0.766-1.939c-0.707-0.742-2.034-1.113-2.999-1.318    c-1.913-0.405-5.261-0.151-6.936,0.854c-1.361,0.816-5.269,4.941-1.43,5.58c2.725,0.453,1.039-4.366,3.865-5.563    C368.75,108.617,371.522,110.845,373.968,112.294z"/>
	</g>
	<g>
		<path class="st2" d="M419.383,116.269c0.053,1.404-0.073,2.872-0.393,4.391c-3.525,16.548-27.6,22.037-37.99,8.833    c-10.427-13.248,3.109-30.201,18.176-30.201C409.604,99.292,419.014,106.207,419.383,116.269z"/>
		<path class="st8" d="M399.117,108.59c-0.464,1.419-8.251,6.972-8.845,4.675c-0.682-2.625,1.051-3.763,3.177-4.617    C395.128,107.972,397.524,107.98,399.117,108.59z"/>
	</g>
	<g>
		<path class="st3" d="M400.512,188.687c-1.621-1.869-2.866-4.076-3.709-6.72c-1.629-5.105-1.265-9.424,0.278-14.45    c0.835-2.716,2.085-5.521,3.975-7.682c10.093-11.529,23.469-2.556,30.127,7.865c4.262,6.666,8.992,19.427,2.271,26.464    c-5.926,6.212-18.85,3.221-25.51-0.016C404.954,192.697,402.462,190.934,400.512,188.687z"/>
		<path class="st8" d="M415.406,173.05c0.797-0.317,1.634-2.031,2.042-3.709c0.068-0.269,2.945-2.377,3.322-3.834    c-1.726,0.292-4.171-0.392-5.56,0.968c-0.983,0.963-1.567,2.985-1.321,4.34C414.239,172.745,414.81,173.291,415.406,173.05z"/>
	</g>
	<path class="st3" d="M428.873,67.331c0.74,1.063,1.688,2.062,2.973,3.407c5.196,5.438,11.267,14.918,3.765,21.322   c-4.754,4.055-13.443,1.723-18.101-1.68c-6.498-4.749-10.838-12.889-12.212-20.723c-1.097-6.251-0.534-13.947,3.993-18.859   c3.546-3.847,10.749-3.925,14.034,0.245c2.659,3.371,2.62,7.639,3.587,11.615C427.417,64.746,428.003,66.083,428.873,67.331z"/>
	<g>
		<path class="st4" d="M380.172,135.962c11.306-3.578,30.212-1.191,28.297,14.801c-1.073,8.948-10.46,15.191-18.095,17.648    c-11.197,3.604-25.672,0.855-29.538-11.844c-3.154-10.36,10.103-17.157,18.045-20.16    C379.299,136.252,379.728,136.103,380.172,135.962z"/>
		<path class="st8" d="M379.112,149.987c2.209,2.342,4.569-0.058,6.981-0.671c2.077-0.53,5.64,0.423,6.962-2.005    c1.247-2.285-5.881-1.43-6.354-1.358C383.693,146.422,380.896,147.323,379.112,149.987z"/>
	</g>
	<g>
		<path class="st3" d="M451.968,108.467c-4.93-1.479-9.333-4.636-11.668-9.263c-3.532-6.992-5.71-17.892,0.31-24.217    c6.689-7.027,18.726-4.536,26.447-0.829c7.061,3.388,18.998,13.614,16.03,22.69c-2.628,8.042-13.704,11.126-21.271,12.325    C458.593,109.684,455.171,109.43,451.968,108.467z"/>
		<path class="st8" d="M454.037,85.409c3.2,4.285,11.329,5.818,14.919,1.278c-1.857,2.348-16.554-4.595-9.246-8.708    c-1.271,0.717-4.067-1.099-5.806,0.285C451.523,80.165,452.406,83.231,454.037,85.409z"/>
	</g>
	<g>
		<path class="st4" d="M384.374,105.314c-4.129-0.101-8.22-1.132-11.791-3.143c-6.711-3.777-11.017-11.938-10.766-19.628    c0.376-11.514,15.772-15.381,24.846-14.786c13.951,0.917,29.055,12.218,19.532,26.852    C401.509,101.809,392.857,105.521,384.374,105.314z"/>
		<path class="st8" d="M393.071,88.837c3.997-2.375,4.979-6.78,1.512-10.149c-0.956-0.93-3.353-2.332-4.686-2.433    c-1.233-0.094-3.455,1.271-3.428,1.273c6.728,0.658,5.181,10.17-0.51,10.761c-0.677,0.071,2.003,2.003,2.435,2.101    C389.532,90.644,392.132,89.394,393.071,88.837z"/>
	</g>
	<path class="st3" d="M474.548,136.914c-1.844-1.303-4.797-3.958-6.979-2.521c1.456,0.57,4.994,3.432,5.215,5.339   c-3.047-1.699-6.704-5.007-10.385-3.615c-1.472-1.805-2.994,0.008-3.964,0.749c-3.852,2.937-6.518,2.583-10.979,3.899   c-0.163,0.049-0.322,0.098-0.482,0.149c-4.383,1.43-8.375,4.482-13.026,5.987c-3.23,1.044-5.965,1.348-8.873-0.537   c-9.892-6.407-3.974-19.83,2.824-26.016c7.447-6.777,17.854-7.362,26.866-3.528c2.885,1.228,9.723,6.607,12.545,4.275   c-1.612,1.331-3.028,2.646-4.867,3.611c-1.476,0.774-3.679,1.098-4.688,2.543c3.626,1.911,9.122-1.136,11.842,1.844   c-0.093-0.103-2.641,0.542-2.954,0.589C468.144,132.698,473.409,132.601,474.548,136.914z"/>
	<g>
		<path class="st11" d="M467.595,173.344c-1.478,1.568-3.243,2.873-5.338,3.799c-9.333,4.125-18.206,6.784-27.091-0.545    c-10.023-8.274,0.382-17.433,6.941-23.194c2.306-2.021,4.383-4.258,6.695-6.27c4.492-3.903,11.204-10.101,17.664-7.602    c6.451,2.496,7.495,8.179,7.542,14.311C474.058,160.633,472.303,168.341,467.595,173.344z"/>
		<path class="st8" d="M456.873,150.712c-4.587,3-5.375-2.895-1.179-3.216c6.361-0.482,0.103,8.139-1.753,9.821    c0.283-0.535,1.785-3.086,2.52-2.968c-0.64-0.104-0.698,0.31-1.178,0.601"/>
	</g>
	<path class="st9" d="M364.651,83.535c-1.109,9.595,9.045,18.099,17.391,19.686c-0.974-1.874-3.36-3.732-2.183-6.283   c1.46-3.152,3.492-0.851,6.53-1.383c5.994-1.052,15.845-6.201,13.968-13.38c-1.816,5.798-9.734,10.245-16.106,9.142   c-3.145-0.545-5.642-1.474-6.511-4.804c-0.927-3.544,1.341-4.804,3.566-1.64c0.267-2.218,1.982-3.73,4.253-4.292   c-2.017-6.202,4.063-6.089,8.521-4.421C386.715,65.086,366.102,70.976,364.651,83.535z"/>
	<path class="st9" d="M441.276,97.816c4.59,7.612,20.34,12.826,27.013,6.197c-8.177-3.039,5.869-7.526,6.953-9.182   c3.369-5.144-2.373-10.663-6.67-12.093c1.781,1.035,1.646,2.145,2.502,3.653c-5.501,3.643-16.606,4.886-19.168-2.859   c-3.202-9.68,6.603-6.692,11.363-5.757c-3.228-0.634-5.168-4.897-10.123-4.748C440.295,73.418,434.819,87.114,441.276,97.816z"/>
	<path class="st9" d="M435.71,140.126c0.083,0.401,0.162,0.805,0.241,1.207c4.849-0.085,9.55-2.639,14.657-2.847   c-3.417-3.404-10.361-3.021-8.434-9.75c1.558-5.44,9.98-7.717,14.771-5.756c-11.254-4.603-24.19-10.217-31.125,3.991   C421.477,135.874,424.763,145.035,435.71,140.126z"/>
	<path class="st9" d="M386.389,109.666c-11.22,4.285-4.51,26.688,2.135,21.491c2.688,2.249,8.918,1.732,12.551,3.164   c0.47-6.192,12.964-5.213,12.009-13.986c-3.148,2.095-10.167,4.886-11.081-0.624c7.52-3.468,10.027-17.979-1.278-15.729   c5.499,2.199-3.214,8.093-5.845,9.216c-1.55,0.664-5.342,2.349-7.114,1.447c-2.271-1.157-2.899-3.758-0.671-4.979"/>
	<path class="st9" d="M416.761,57.397c-9.273-4.972-8.407,10.998-9.626,14.883c6.497-0.804,11.335,11.461,6.359,15.647   c3.159,3.063,11.84,11.232,15.924,7.081c-8.463-2.725-14.643-23.192-9.868-30.479c0.693,0.19,1.393,0.316,2.064,0.57   c-0.253-3.649-3.087-7.805-6.973-8.408"/>
	<path class="st9" d="M372.261,118.848c-3.825,6.056,0.116,12.817,6.119,14.836c-3.59-1.208-9.983,4.188-14.752,2.833   c-9.092-2.581-16.511-10.405-14.673-20.174c0.669-3.565,2.381-7.922,5.297-10.274c3.438-2.772,5.334-0.418,8.262-1.399   c-11.435,3.829,0.913,17.323,9.041,15.592"/>
	<path class="st9" d="M370.849,107.548c3.621,0.468,3.896,3.832,6.994,3.629c1.101-4.337-5.196-5.279-8.408-5.043"/>
	<path class="st9" d="M381.443,139.332c-10.439,0.725-26.044,13.259-15.535,23.933c7.933,8.06,24.831,4.535,30.825-3.515   c-6.086,2.332-12.017-2.68-3.492-5.619c-0.56-0.038-1.136,0.062-1.697,0.085c2.469-1.728,12.131-8.96,4.285-10.555   c1.332,4.946-18.613,13.785-22.896,10.538c-6.347-4.814,15.766-10.782,19.052-10.772c-0.094-0.615-0.791-0.796-1.28-1.233   c0.137-0.368,0.655-1.626,0.524-2.012c-3.436-2.479-10.437-3.216-14.023-0.85"/>
	<path class="st9" d="M411.817,159.109c-10.045,0.771-12.938,13.962-11.279,21.876c1.702,8.122,5.529,9.622,12.701,11.961   c0.054-1.009,0.521-1.009,0.236-2.17c2.828,3.224,6.378,3.242,10.291,2.803c-5.565-5.807-12.834-10.248-14.277-19.355   c-0.999-6.325,1.713-9.259,4.443-14.267C413.241,159.637,412.537,159.356,411.817,159.109"/>
	<path class="st9" d="M438.112,173.959c4.7,4.229,14.973,3.615,20.334,1.252c7.668-3.376,11.308-11.702,9.346-19.828   c-1.368-5.655-5.182-12.126-11.969-9.145c8.548-0.612-4.388,16.837-9.288,16.881c-0.615-3.533,2.229-5.46,3.827-8.263   c0.382-0.671-1.125-2.571-0.171-4.075c-2.492,3.926-9.312,5.328-12.181,9.941C435.375,164.959,433.979,170.242,438.112,173.959z"/>
	<path class="st9" d="M423.116,108.253c0.018,3.191-0.997,7.837,1.439,10.024c4.966-3.584,11.586-4.658,16.164-7.748   c-3.681-0.892-17.935-0.91-18.309-2.277"/>
	<path class="st9" d="M422.411,154.872c2.201,0.588,4.244,2.062,5.663,3.633c1.028-1.189,1.87-3.249,2.018-4.941   c-7.112-0.956-14.942-4.567-14.886-12.763c-10.522,9.957,2.784,10.213,10.03,15.484"/>
</g>
<rect x="-43.173" y="4.563" class="st16" width="553.065" height="290.307"/>
</svg>
