<?xml version="1.0" encoding="UTF-8" standalone="no"?>
<svg
   width="1782.2"
   height="2370.2"
   enable-background="new 0 0 1782.178 2370.238"
   version="1.1"
   viewBox="0 0 1782.2 2370.2"
   xml:space="preserve"
   id="svg292"
   sodipodi:docname="Tree_Of_Life_(with_horizontal_gene_transfer).svg"
   inkscape:version="1.1.2 (0a00cf5339, 2022-02-04)"
   xmlns:inkscape="http://www.inkscape.org/namespaces/inkscape"
   xmlns:sodipodi="http://sodipodi.sourceforge.net/DTD/sodipodi-0.dtd"
   xmlns="http://www.w3.org/2000/svg"
   xmlns:svg="http://www.w3.org/2000/svg"><defs
   id="defs296" /><sodipodi:namedview
   id="namedview294"
   pagecolor="#ffffff"
   bordercolor="#666666"
   borderopacity="1.0"
   inkscape:pageshadow="2"
   inkscape:pageopacity="0.0"
   inkscape:pagecheckerboard="0"
   showgrid="false"
   width="1782.1999px"
   inkscape:zoom="0.30334993"
   inkscape:cx="616.44978"
   inkscape:cy="1183.4517"
   inkscape:window-width="3840"
   inkscape:window-height="2091"
   inkscape:window-x="0"
   inkscape:window-y="0"
   inkscape:window-maximized="1"
   inkscape:current-layer="svg292" /><rect
   style="fill:#ffffff;fill-opacity:1;stroke:none;stroke-width:1;stroke-miterlimit:4;stroke-dasharray:none"
   id="rect1159"
   width="1782.2"
   height="2370.2"
   x="0"
   y="0" /><g
   fill="none"
   stroke-miterlimit="10"
   id="g20">
<path
   d="m 852.48,1817.5 c 117.63,89.299 126.09,232.76 126.09,350.86"
   stroke="#0072bc"
   stroke-width="20"
   id="path2" /><g
   stroke-width="10"
   id="g10">
<path
   d="m 1343.6,1075.3 c 0,135.94 -53.057,191.94 -321.06,185.94 -200.9,-4.498 -454,60 -490,176 -27.362,88.166 63.934,182.08 63.934,182.08"
   stroke="#39b54a"
   id="path4" />
<path
   d="m 1564.4,1345.2 c -83.83,52.114 -225.83,106.11 -341.83,42.114 -116,-63.996 -230.53,-128 -416.53,-72 -118,36 -153.47,150 -153.47,150"
   stroke="#ff850c"
   id="path6" />
<path
   d="m 494.07,745.71 c 0,-95.852 -62.323,-143.07 -128.51,-152.74 -8.6842,-1.2682 -17.435,-1.8897 -26.12,-1.8897 -74.874,0 -206.71,2.196 -206.71,-179.8 0,-58 40,-56.917 56.917,-56.917 16.917,0 250.91,14.917 393.92,-59.083"
   stroke="#0072bc"
   id="path8" /></g><g
   stroke="#0072bc"
   id="g18">
<path
   d="m 581.26,2168.4 c 0,-62.099 -12,-142.1 237,-142.1 249,0 333.78,-43.879 301.39,-130.44"
   stroke-width="20"
   id="path12" />
<path
   d="m 897.02,1983.2 c 106.24,1.05 153.89,20.366 214.57,-115.29"
   stroke-width="10"
   id="path14" />
<path
   d="m 1061.3,1824.3 c 0,48 -36.01,153.34 -230.01,168.67 -194,15.33 -218,72.526 -218,175.43"
   stroke-width="20"
   id="path16" />
</g></g><g
   id="g26">
	
		
	<g
   id="g24">
		<path
   d="m 1184,2168.4 c 0,-175 -238.18,-270.69 -407.14,-407.14 -170.83,-137.96 -558.93,-387.5 -558.93,-775 V 104.12"
   fill="none"
   stroke="#0072bc"
   stroke-miterlimit="10"
   stroke-width="20"
   id="path22" />
	</g>
</g>
<g
   id="g30">
		<path
   d="m 466.47,2168.4 c 0,-175 455.89,-257.69 826.93,-551.19 333.29,-263.64 362.67,-412.3 362.67,-630.95 V 104.12"
   fill="none"
   stroke="#0072bc"
   stroke-miterlimit="10"
   stroke-width="20"
   id="path28" />
	</g>
<g
   id="g36">
	
		
	<g
   id="g34">
		<path
   d="m 1061.3,104.13 v 1995.3 c 0,27.952 16.082,58.871 69.072,58.871"
   fill="none"
   stroke="#0072bc"
   stroke-miterlimit="10"
   stroke-width="20"
   id="path32" />
	</g>
</g><g
   fill="none"
   stroke-miterlimit="10"
   id="g102"><g
     stroke="#0072bc"
     id="g88"><g
       stroke-width="20"
       id="g58">
<path
   d="m 1054.5,1387.3 c -89.885,0 -94.941,-45.885 -94.941,-94.942 0,-49.057 0,-1188.2 0,-1188.2"
   id="path38" />
<path
   d="m 705.88,1651.3 c -31.311,-112.03 6.689,-184.03 84.689,-216.03 101.95,-29.805 168.94,-38.064 168.94,-134.03"
   stroke-miterlimit="10"
   stroke-width="10"
   id="path40" />
<path
   d="m 812.15,1788.5 c -95.578,-141.27 -159.58,-157.27 -159.58,-305.27 0,-148 0,-1379.1 0,-1379.1"
   id="path42" />
<path
   d="m 1656.1,576 c 72.918,0 87.705,-44.965 87.705,-87.705 0,-42.74 0,-384.16 0,-384.16"
   id="path44" />
<path
   d="m 1656.1,760.02 c -78.49,0 -106.8,-57.526 -106.8,-106.8 0,-49.274 0,-549.09 0,-549.09"
   id="path46" />
<path
   d="m 1549.3,350.05 c -85.832,0 -89.504,-41.575 -89.504,-89.504 0,-47.929 0,-156.41 0,-156.41"
   id="path48" />
<path
   d="m 1591.1,1301.2 c -181.25,0 -248.26,-127.67 -248.26,-248.26 V 104.09"
   id="path50" />
<path
   d="m 1342.8,576 c 48.381,0 55.637,-41.393 55.637,-55.637 0,-14.244 0,-416.23 0,-416.23"
   id="path52" />
<path
   d="m 1213.1,2168.4 c 0,-104.14 -67.5,-195.64 -88.5,-257.64 -21,-62 -43.621,-146.24 20.953,-189.08"
   id="path54" />
<path
   d="m 652.57,1301.2 c -72,0 -68.984,-43.999 -68.984,-68.983 0,-24.984 -0.018,-1128.1 -0.018,-1128.1"
   id="path56" /></g><g
       stroke-width="10"
       id="g66">
<path
   d="m 959.51,777.28 c 53.057,0 101.76,-34 101.76,-46"
   id="path60" />
<path
   d="m 652.57,767.28 c 70,-84 306.94,-38 306.94,-146"
   id="path62" />
<path
   d="m 959.51,1171.1 c -70,-84 -306.94,-38 -306.94,-146"
   id="path64" />
</g><g
       id="g86"><path
   d="m 583.57,971.28 c -86.998,0 -89.499,-52.998 -89.499,-89.499 0,-36.501 0,-777.64 0,-777.64"
   stroke-width="20"
   id="path68" />
<path
   d="m 337.15,1347.3 c -16.579,-80.069 13.421,-92.069 49.421,-98.069 36,-6 146,-10 197,-54"
   stroke-width="10"
   id="path70" />
<path
   d="m 218.13,1001.3 c 84.443,0 81.254,-44.443 81.254,-81.255 0,-36.812 0.016,-815.96 0.016,-815.96"
   stroke-width="20"
   id="path72" />
<path
   d="m 583.57,1001.3 c -287,0 -284.17,-174.07 -284.17,-330.07"
   stroke-width="10"
   id="path74" /><g
   stroke-width="20"
   id="g84">
<path
   d="m 218.13,681.28 c -87.557,0 -85.386,-64.771 -85.386,-85.386 0,-20.615 -0.005,-491.76 -0.005,-491.76"
   id="path76" />
<path
   d="m 132.74,255.28 c 43.523,0 39.348,-15.695 39.348,-39.348 0,-23.653 0,-111.8 0,-111.8"
   id="path78" />
<path
   d="M 132.74,311.28 C 66.261,311.28 72,263.801 72,250.541 c 0,-13.26 0,-146.4 0,-146.4"
   id="path80" />
<path
   d="m 71.874,175.28 c -34.615,0 -34.807,-13.615 -34.807,-34.808 0,-21.193 0,-36.335 0,-36.335"
   id="path82" />
</g></g></g><path
     d="M 71.999,238.28"
     stroke="#231f20"
     id="path90" /><g
     stroke="#0072bc"
     stroke-width="20"
     id="g100">
<path
   d="m 71.999,255.28 c 0,0 30.369,0 30.369,-41 0,-28 30.369,-28 30.369,-28"
   stroke-miterlimit="10"
   stroke-width="10"
   id="path92" />
<path
   d="m 549.26,2168.4 c 0,-54.143 7.572,-139.88 141.91,-206.28"
   id="path94" />
<path
   d="m 959.51,2168.4 c 0,-53.099 -19.254,-79.177 -79.176,-79.177 -158.08,0 -284.84,-80.53 -147.98,-147.76"
   id="path96" />
<path
   d="m 549.89,2161.3 c 0,0 23.662,-46 109.37,-46 114,0 109,-35 48.168,-66.262"
   id="path98" />
</g></g><g
   transform="translate(144)"
   id="g120">
	<path
   d="m 25.568,28.469 h 18.24 c 2.506,0 4.692,0.08 6.56,0.24 1.866,0.16 3.546,0.44 5.04,0.84 1.492,0.4 2.826,0.988 4,1.76 1.172,0.773 2.292,1.748 3.36,2.92 1.333,1.387 2.252,2.934 2.76,4.64 0.506,1.708 0.76,3.414 0.76,5.12 0,2.294 -0.547,4.508 -1.64,6.64 -1.094,2.134 -2.84,3.894 -5.24,5.28 2.4,0.854 4.252,1.934 5.56,3.24 1.307,1.308 2.267,2.64 2.88,4 0.612,1.36 0.986,2.627 1.12,3.8 0.133,1.174 0.2,2.08 0.2,2.72 0,2.4 -0.454,4.774 -1.36,7.12 -0.908,2.347 -2.268,4.268 -4.08,5.76 -1.388,1.12 -2.694,2.028 -3.92,2.72 -1.228,0.694 -2.574,1.214 -4.04,1.561 -1.468,0.348 -3.107,0.573 -4.92,0.68 -1.814,0.107 -3.974,0.16 -6.48,0.16 h -18.8 z m 14.48,22.48 h 5.36 c 0.532,0 1.16,-0.026 1.88,-0.08 0.72,-0.053 1.413,-0.227 2.08,-0.52 0.666,-0.292 1.24,-0.76 1.72,-1.4 0.48,-0.64 0.72,-1.546 0.72,-2.72 0,-1.12 -0.228,-1.986 -0.68,-2.6 -0.454,-0.612 -1,-1.052 -1.64,-1.32 -0.64,-0.267 -1.333,-0.426 -2.08,-0.48 -0.748,-0.053 -1.414,-0.08 -2,-0.08 h -5.36 z m 0,23.441 h 7.12 c 0.48,0 1.146,-0.026 2,-0.08 0.853,-0.053 1.68,-0.267 2.48,-0.64 0.8,-0.373 1.506,-0.933 2.12,-1.68 0.612,-0.746 0.92,-1.84 0.92,-3.28 0,-1.28 -0.28,-2.266 -0.84,-2.96 -0.56,-0.692 -1.24,-1.2 -2.04,-1.52 -0.8,-0.32 -1.627,-0.506 -2.48,-0.56 -0.854,-0.053 -1.574,-0.08 -2.16,-0.08 h -7.12 z"
   id="path104" />
	<path
   d="m 91.248,79.109 -3.12,8.56 h -16.24 l 23.76,-59.2 h 11.92 l 23.52,59.2 h -16.4 l -2.88,-8.56 z m 4.16,-12 h 12.4 l -6.08,-20.24 h -0.24 z"
   id="path106" />
	<path
   d="m 192.69,65.509 c -0.854,3.52 -2.228,6.708 -4.12,9.56 -1.894,2.854 -4.147,5.294 -6.76,7.32 -2.614,2.028 -5.548,3.6 -8.8,4.72 -3.253,1.119 -6.667,1.68 -10.24,1.68 -4.64,0 -8.88,-0.854 -12.72,-2.561 -3.84,-1.706 -7.12,-3.986 -9.84,-6.839 -2.72,-2.853 -4.84,-6.133 -6.36,-9.84 -1.52,-3.706 -2.28,-7.56 -2.28,-11.56 0,-3.786 0.706,-7.506 2.12,-11.16 1.413,-3.653 3.453,-6.92 6.12,-9.8 2.666,-2.88 5.92,-5.212 9.76,-7 3.84,-1.786 8.187,-2.68 13.04,-2.68 4.64,0 8.746,0.8 12.32,2.4 3.573,1.6 6.6,3.574 9.08,5.92 2.48,2.348 4.44,4.908 5.88,7.68 1.44,2.773 2.373,5.307 2.8,7.6 h -15.84 c -0.428,-1.12 -1.028,-2.28 -1.8,-3.48 -0.774,-1.2 -1.748,-2.306 -2.92,-3.32 -1.174,-1.013 -2.56,-1.853 -4.16,-2.52 -1.6,-0.666 -3.414,-1 -5.44,-1 -2.56,0 -4.813,0.507 -6.76,1.52 -1.948,1.014 -3.6,2.334 -4.96,3.96 -1.36,1.627 -2.388,3.48 -3.08,5.56 -0.694,2.08 -1.04,4.16 -1.04,6.24 0,2.24 0.373,4.414 1.12,6.52 0.746,2.108 1.8,3.988 3.16,5.64 1.36,1.654 3.026,2.974 5,3.96 1.973,0.988 4.187,1.48 6.64,1.48 2.346,0 4.373,-0.426 6.08,-1.28 1.706,-0.853 3.12,-1.84 4.24,-2.96 1.12,-1.12 1.986,-2.227 2.6,-3.32 0.613,-1.092 1.053,-1.906 1.32,-2.44 z"
   id="path108" />
	<path
   d="M 207.65,41.75 H 195.97 V 28.47 h 38.4 v 13.28 h -11.6 v 45.92 h -15.12 z"
   id="path110" />
	<path
   d="m 240.45,28.469 h 32.88 v 13.28 h -18.4 v 9.2 h 17.84 v 13.28 h -17.84 v 10.16 h 18.4 v 13.28 h -32.88 z"
   id="path112" />
	<path
   d="m 282.69,28.469 h 18.72 c 2.612,0 4.853,0.08 6.72,0.24 1.866,0.16 3.493,0.414 4.88,0.76 1.386,0.348 2.6,0.788 3.64,1.32 1.04,0.534 2.04,1.174 3,1.92 2.453,1.92 4.28,4.333 5.48,7.24 1.2,2.908 1.8,5.88 1.8,8.92 0,1.708 -0.24,3.547 -0.72,5.52 -0.48,1.974 -1.293,3.854 -2.44,5.64 -1.147,1.788 -2.667,3.36 -4.56,4.72 -1.894,1.36 -4.228,2.28 -7,2.76 l 16.08,20.16 h -17.28 l -13.68,-19.12 h -0.16 v 19.12 h -14.48 z m 14.48,29.76 h 5.36 c 2.24,0 4.012,-0.306 5.32,-0.92 1.306,-0.613 2.292,-1.36 2.96,-2.24 0.667,-0.88 1.106,-1.8 1.32,-2.76 0.213,-0.96 0.32,-1.812 0.32,-2.56 0,-2.72 -0.894,-4.732 -2.68,-6.04 -1.788,-1.306 -4.147,-1.96 -7.08,-1.96 h -5.52 z"
   id="path114" />
	<path
   d="m 334.93,28.469 h 15.12 v 59.2 h -15.12 z"
   id="path116" />
	<path
   d="m 375.49,79.109 -3.12,8.56 h -16.24 l 23.76,-59.2 h 11.92 l 23.52,59.2 h -16.4 l -2.88,-8.56 z m 4.16,-12 h 12.4 l -6.08,-20.24 h -0.24 z"
   id="path118" />
</g>
<g
   transform="translate(158)"
   id="g136">
	<path
   d="m 608.53,79.109 -3.12,8.56 h -16.24 l 23.76,-59.2 h 11.92 l 23.52,59.2 h -16.4 l -2.88,-8.56 z m 4.16,-12 h 12.4 l -6.08,-20.24 h -0.24 z"
   id="path122" />
	<path
   d="m 654.45,28.469 h 18.72 c 2.612,0 4.853,0.08 6.72,0.24 1.866,0.16 3.493,0.414 4.88,0.76 1.386,0.348 2.6,0.788 3.64,1.32 1.04,0.534 2.04,1.174 3,1.92 2.453,1.92 4.28,4.333 5.48,7.24 1.2,2.908 1.8,5.88 1.8,8.92 0,1.708 -0.24,3.547 -0.72,5.52 -0.48,1.974 -1.293,3.854 -2.44,5.64 -1.147,1.788 -2.667,3.36 -4.56,4.72 -1.894,1.36 -4.228,2.28 -7,2.76 l 16.08,20.16 h -17.28 l -13.68,-19.12 h -0.16 v 19.12 h -14.48 z m 14.48,29.76 h 5.36 c 2.24,0 4.012,-0.306 5.32,-0.92 1.306,-0.613 2.292,-1.36 2.96,-2.24 0.667,-0.88 1.106,-1.8 1.32,-2.76 0.213,-0.96 0.32,-1.812 0.32,-2.56 0,-2.72 -0.894,-4.732 -2.68,-6.04 -1.788,-1.306 -4.147,-1.96 -7.08,-1.96 h -5.52 z"
   id="path124" />
	<path
   d="m 765.41,65.509 c -0.854,3.52 -2.228,6.708 -4.12,9.56 -1.894,2.854 -4.147,5.294 -6.76,7.32 -2.614,2.028 -5.548,3.6 -8.8,4.72 -3.253,1.119 -6.667,1.68 -10.24,1.68 -4.64,0 -8.88,-0.854 -12.72,-2.561 -3.84,-1.706 -7.12,-3.986 -9.84,-6.839 -2.72,-2.853 -4.84,-6.133 -6.36,-9.84 -1.52,-3.706 -2.28,-7.56 -2.28,-11.56 0,-3.786 0.706,-7.506 2.12,-11.16 1.413,-3.653 3.453,-6.92 6.12,-9.8 2.666,-2.88 5.92,-5.212 9.76,-7 3.84,-1.786 8.187,-2.68 13.04,-2.68 4.64,0 8.746,0.8 12.32,2.4 3.573,1.6 6.6,3.574 9.08,5.92 2.48,2.348 4.44,4.908 5.88,7.68 1.44,2.773 2.373,5.307 2.8,7.6 h -15.84 c -0.428,-1.12 -1.028,-2.28 -1.8,-3.48 -0.774,-1.2 -1.748,-2.306 -2.92,-3.32 -1.174,-1.013 -2.56,-1.853 -4.16,-2.52 -1.6,-0.666 -3.414,-1 -5.44,-1 -2.56,0 -4.813,0.507 -6.76,1.52 -1.948,1.014 -3.6,2.334 -4.96,3.96 -1.36,1.627 -2.388,3.48 -3.08,5.56 -0.694,2.08 -1.04,4.16 -1.04,6.24 0,2.24 0.373,4.414 1.12,6.52 0.746,2.108 1.8,3.988 3.16,5.64 1.36,1.654 3.026,2.974 5,3.96 1.973,0.988 4.187,1.48 6.64,1.48 2.346,0 4.373,-0.426 6.08,-1.28 1.706,-0.853 3.12,-1.84 4.24,-2.96 1.12,-1.12 1.986,-2.227 2.6,-3.32 0.613,-1.092 1.053,-1.906 1.32,-2.44 z"
   id="path126" />
	<path
   d="m 773.25,28.469 h 15.12 v 22.24 h 19.36 v -22.24 h 15.12 v 59.2 h -15.12 v -23.68 h -19.36 v 23.68 h -15.12 z"
   id="path128" />
	<path
   d="m 848.29,79.109 -3.121,8.56 H 828.93 l 23.76,-59.2 h 11.92 l 23.521,59.2 h -16.4 l -2.88,-8.56 z m 4.16,-12 h 12.399 l -6.08,-20.24 h -0.24 z"
   id="path130" />
	<path
   d="m 894.21,28.469 h 32.88 v 13.28 h -18.4 v 9.2 h 17.841 v 13.28 H 908.69 v 10.16 h 18.4 v 13.28 h -32.88 z"
   id="path132" />
	<path
   d="m 951.17,79.109 -3.12,8.56 h -16.239 l 23.76,-59.2 h 11.92 l 23.52,59.2 h -16.4 l -2.879,-8.56 z m 4.161,-12 h 12.4 l -6.08,-20.24 h -0.24 z"
   id="path134" />
</g>
<g
   id="g158">
	<path
   d="m 1254.8,28.469 h 32.881 v 13.28 h -18.4 v 9.2 h 17.84 v 13.28 h -17.84 v 10.16 h 18.4 v 13.28 H 1254.8 Z"
   id="path138" />
	<path
   d="m 1312,28.469 v 35.76 c 0,1.014 0.053,2.174 0.16,3.48 0.107,1.308 0.4,2.534 0.881,3.68 0.479,1.147 1.24,2.12 2.279,2.92 1.041,0.8 2.492,1.2 4.36,1.2 1.866,0 3.306,-0.36 4.319,-1.08 1.014,-0.72 1.761,-1.64 2.24,-2.76 0.48,-1.12 0.76,-2.346 0.84,-3.68 0.08,-1.333 0.121,-2.586 0.121,-3.76 v -35.76 h 15.119 v 35.76 c 0,2.507 -0.133,4.68 -0.399,6.52 -0.268,1.84 -0.653,3.454 -1.16,4.84 -0.508,1.388 -1.12,2.627 -1.84,3.72 -0.72,1.094 -1.56,2.12 -2.521,3.08 -1.92,1.973 -4.24,3.534 -6.96,4.68 -2.72,1.146 -5.92,1.72 -9.6,1.72 -1.067,0 -2.334,-0.08 -3.8,-0.24 -1.468,-0.16 -2.975,-0.468 -4.521,-0.92 -1.548,-0.452 -3.08,-1.093 -4.6,-1.92 -1.521,-0.826 -2.894,-1.906 -4.12,-3.24 -1.228,-1.333 -2.228,-2.626 -3,-3.88 -0.773,-1.252 -1.374,-2.572 -1.801,-3.96 -0.427,-1.386 -0.719,-2.92 -0.879,-4.6 -0.16,-1.68 -0.24,-3.612 -0.24,-5.8 v -35.76 z"
   id="path140" />
	<path
   d="m 1354.5,28.469 h 15.12 v 26.64 h 0.16 l 16.72,-26.64 h 15.84 l -19.6,29.52 20.88,29.68 h -17.681 l -16.159,-25.6 h -0.16 v 25.6 h -15.12 z"
   id="path142" />
	<path
   d="m 1424.2,79.109 -3.121,8.56 h -16.239 l 23.76,-59.2 h 11.92 l 23.521,59.2 h -16.4 l -2.88,-8.56 z m 4.16,-12 h 12.399 l -6.08,-20.24 h -0.24 z"
   id="path144" />
	<path
   d="m 1470.1,28.469 h 18.72 c 2.613,0 4.854,0.08 6.721,0.24 1.865,0.16 3.492,0.414 4.88,0.76 1.386,0.348 2.6,0.788 3.64,1.32 1.04,0.534 2.04,1.174 3,1.92 2.453,1.92 4.28,4.333 5.48,7.24 1.199,2.908 1.8,5.88 1.8,8.92 0,1.708 -0.24,3.547 -0.72,5.52 -0.48,1.974 -1.294,3.854 -2.44,5.64 -1.147,1.788 -2.667,3.36 -4.56,4.72 -1.895,1.36 -4.229,2.28 -7,2.76 l 16.08,20.16 h -17.28 l -13.681,-19.12 h -0.16 v 19.12 h -14.479 v -59.2 z m 14.479,29.76 h 5.361 c 2.239,0 4.012,-0.306 5.319,-0.92 1.306,-0.613 2.292,-1.36 2.96,-2.24 0.666,-0.88 1.106,-1.8 1.32,-2.76 0.213,-0.96 0.32,-1.812 0.32,-2.56 0,-2.72 -0.895,-4.732 -2.681,-6.04 -1.788,-1.306 -4.147,-1.96 -7.08,-1.96 h -5.521 v 16.48 z"
   id="path146" />
	<path
   d="m 1534.6,66.149 -17.68,-37.68 h 16.399 l 8.801,23.76 8.879,-23.76 h 16.24 l -17.52,37.68 v 21.52 h -15.12 v -21.52 z"
   id="path148" />
	<path
   d="m 1569.8,46.149 c 0.799,-1.92 1.972,-3.973 3.52,-6.16 1.546,-2.186 3.506,-4.226 5.88,-6.12 2.372,-1.893 5.173,-3.453 8.399,-4.68 3.227,-1.226 6.92,-1.84 11.08,-1.84 4.533,0 8.721,0.827 12.561,2.48 3.84,1.654 7.146,3.88 9.92,6.68 2.772,2.8 4.933,6.068 6.48,9.8 1.546,3.733 2.319,7.654 2.319,11.76 0,4.107 -0.773,8.028 -2.319,11.76 -1.548,3.733 -3.708,7 -6.48,9.8 -2.773,2.8 -6.08,5.027 -9.92,6.68 -3.84,1.653 -8.054,2.48 -12.641,2.48 -4.64,0 -8.879,-0.854 -12.719,-2.561 -3.841,-1.706 -7.121,-3.959 -9.841,-6.76 -2.72,-2.8 -4.827,-6 -6.319,-9.6 -1.494,-3.6 -2.24,-7.292 -2.24,-11.08 0,-1.973 0.16,-4.026 0.479,-6.16 0.321,-2.131 0.933,-4.291 1.841,-6.479 z m 12.799,11.761 c 0,2.293 0.373,4.494 1.121,6.6 0.746,2.107 1.826,3.974 3.239,5.6 1.413,1.627 3.12,2.934 5.12,3.92 2,0.988 4.28,1.48 6.84,1.48 2.666,0 5,-0.546 7,-1.64 2,-1.093 3.652,-2.493 4.961,-4.2 1.306,-1.706 2.292,-3.572 2.959,-5.6 0.666,-2.026 1,-4 1,-5.92 0,-1.92 -0.334,-3.906 -1,-5.96 -0.667,-2.053 -1.653,-3.946 -2.959,-5.68 -1.309,-1.732 -2.975,-3.146 -5,-4.24 -2.028,-1.093 -4.4,-1.64 -7.121,-1.64 -2.613,0 -4.934,0.507 -6.959,1.52 -2.028,1.014 -3.721,2.348 -5.08,4 -1.36,1.654 -2.389,3.507 -3.08,5.56 -0.694,2.053 -1.041,4.12 -1.041,6.2 z"
   id="path150" />
	<path
   d="m 1644.1,41.75 h -11.681 V 28.47 h 38.4 v 13.28 h -11.6 v 45.92 h -15.12 V 41.75 Z"
   id="path152" />
	<path
   d="m 1676.9,28.469 h 32.88 v 13.28 h -18.4 v 9.2 h 17.841 v 13.28 h -17.841 v 10.16 h 18.4 v 13.28 h -32.88 z"
   id="path154" />
	<path
   d="m 1742.3,45.75 c -0.107,-0.48 -0.227,-1.053 -0.359,-1.72 -0.134,-0.666 -0.388,-1.306 -0.76,-1.92 -0.374,-0.612 -0.895,-1.12 -1.561,-1.52 -0.668,-0.4 -1.588,-0.6 -2.76,-0.6 -1.334,0 -2.533,0.428 -3.6,1.28 -1.068,0.854 -1.601,1.974 -1.601,3.36 0,0.908 0.133,1.654 0.399,2.24 0.268,0.587 0.841,1.188 1.721,1.8 0.88,0.614 2.12,1.308 3.72,2.08 1.601,0.773 3.733,1.748 6.4,2.92 2.772,1.228 5.052,2.48 6.84,3.76 1.786,1.28 3.2,2.614 4.24,4 1.04,1.388 1.76,2.84 2.159,4.36 0.4,1.52 0.601,3.134 0.601,4.84 0,2.188 -0.348,4.36 -1.04,6.52 -0.693,2.16 -1.84,4.094 -3.439,5.8 -1.601,1.708 -3.721,3.108 -6.36,4.201 -2.64,1.092 -5.907,1.64 -9.8,1.64 -4.268,0 -7.788,-0.628 -10.561,-1.88 -2.773,-1.253 -4.96,-2.812 -6.56,-4.68 -1.601,-1.866 -2.708,-3.893 -3.32,-6.08 -0.614,-2.186 -0.92,-4.24 -0.92,-6.16 v -1.92 h 15.04 c 0,1.708 0.227,3.094 0.68,4.16 0.453,1.067 1.013,1.894 1.68,2.48 0.667,0.587 1.347,0.974 2.041,1.16 0.691,0.188 1.279,0.28 1.76,0.28 1.812,0 3.227,-0.6 4.24,-1.8 1.012,-1.2 1.52,-2.493 1.52,-3.88 0,-0.96 -0.174,-1.786 -0.52,-2.48 -0.348,-0.692 -0.961,-1.333 -1.84,-1.92 -0.881,-0.586 -2.068,-1.212 -3.561,-1.88 -1.494,-0.667 -3.388,-1.48 -5.68,-2.44 -1.068,-0.426 -2.414,-1.026 -4.041,-1.8 -1.627,-0.772 -3.213,-1.812 -4.76,-3.12 -1.547,-1.307 -2.879,-2.946 -4,-4.92 -1.119,-1.973 -1.68,-4.347 -1.68,-7.12 0,-2.772 0.613,-5.24 1.84,-7.4 1.227,-2.16 2.826,-3.986 4.801,-5.48 1.973,-1.493 4.186,-2.626 6.64,-3.4 2.452,-0.772 4.933,-1.16 7.44,-1.16 2.932,0 5.852,0.547 8.76,1.64 2.906,1.094 5.32,2.788 7.24,5.08 0.852,1.067 1.531,2.12 2.039,3.16 0.507,1.04 0.893,2.054 1.16,3.04 0.267,0.987 0.44,1.934 0.52,2.84 0.08,0.908 0.146,1.788 0.201,2.64 H 1742.3 Z"
   id="path156" />
</g>
<g
   id="g240">
	<path
   d="m 234.56,2229.5 c -0.854,3.52 -2.228,6.707 -4.12,9.56 -1.894,2.854 -4.147,5.294 -6.76,7.32 -2.614,2.028 -5.548,3.601 -8.8,4.72 -3.253,1.119 -6.667,1.68 -10.24,1.68 -4.64,0 -8.88,-0.854 -12.72,-2.561 -3.84,-1.705 -7.12,-3.985 -9.84,-6.839 -2.72,-2.853 -4.84,-6.133 -6.36,-9.841 -1.52,-3.705 -2.28,-7.56 -2.28,-11.56 0,-3.786 0.706,-7.506 2.12,-11.159 1.413,-3.653 3.453,-6.92 6.12,-9.801 2.666,-2.88 5.92,-5.213 9.76,-7 3.84,-1.786 8.187,-2.68 13.04,-2.68 4.64,0 8.746,0.8 12.32,2.4 3.573,1.6 6.6,3.573 9.08,5.92 2.48,2.348 4.44,4.907 5.88,7.68 1.44,2.773 2.373,5.307 2.8,7.6 h -15.84 c -0.428,-1.119 -1.028,-2.279 -1.8,-3.48 -0.774,-1.199 -1.748,-2.306 -2.92,-3.319 -1.174,-1.013 -2.56,-1.853 -4.16,-2.521 -1.6,-0.666 -3.414,-1 -5.44,-1 -2.56,0 -4.813,0.508 -6.76,1.521 -1.948,1.014 -3.6,2.334 -4.96,3.96 -1.36,1.627 -2.388,3.48 -3.08,5.561 -0.694,2.08 -1.04,4.16 -1.04,6.24 0,2.239 0.373,4.413 1.12,6.52 0.746,2.107 1.8,3.987 3.16,5.64 1.36,1.653 3.026,2.974 5,3.96 1.973,0.988 4.187,1.48 6.64,1.48 2.346,0 4.373,-0.427 6.08,-1.28 1.706,-0.853 3.12,-1.84 4.24,-2.96 1.12,-1.12 1.986,-2.227 2.6,-3.32 0.613,-1.092 1.053,-1.906 1.32,-2.439 h 15.84 z"
   id="path160" />
	<path
   d="m 242.16,2210.1 c 0.8,-1.92 1.972,-3.973 3.52,-6.16 1.546,-2.187 3.506,-4.226 5.88,-6.12 2.373,-1.893 5.172,-3.452 8.4,-4.68 3.227,-1.227 6.92,-1.84 11.08,-1.84 4.533,0 8.72,0.827 12.56,2.48 3.84,1.653 7.146,3.879 9.92,6.68 2.772,2.8 4.933,6.067 6.48,9.8 1.546,3.733 2.32,7.653 2.32,11.76 0,4.107 -0.773,8.028 -2.32,11.761 -1.547,3.732 -3.708,7 -6.48,9.799 -2.774,2.801 -6.08,5.027 -9.92,6.68 -3.84,1.654 -8.054,2.48 -12.64,2.48 -4.64,0 -8.88,-0.854 -12.72,-2.561 -3.84,-1.705 -7.12,-3.959 -9.84,-6.76 -2.72,-2.799 -4.827,-6 -6.32,-9.6 -1.494,-3.6 -2.24,-7.292 -2.24,-11.08 0,-1.973 0.16,-4.025 0.48,-6.16 0.32,-2.131 0.932,-4.291 1.84,-6.479 z m 12.8,11.761 c 0,2.293 0.373,4.493 1.12,6.6 0.746,2.107 1.826,3.974 3.24,5.6 1.413,1.627 3.12,2.934 5.12,3.92 2,0.988 4.28,1.48 6.84,1.48 2.666,0 5,-0.547 7,-1.641 2,-1.092 3.652,-2.492 4.96,-4.199 1.306,-1.707 2.292,-3.572 2.96,-5.601 0.666,-2.026 1,-4 1,-5.92 0,-1.92 -0.334,-3.906 -1,-5.96 -0.667,-2.053 -1.654,-3.946 -2.96,-5.68 -1.308,-1.732 -2.974,-3.146 -5,-4.24 -2.028,-1.093 -4.4,-1.641 -7.12,-1.641 -2.614,0 -4.934,0.508 -6.96,1.521 -2.028,1.014 -3.72,2.348 -5.08,4 -1.36,1.653 -2.388,3.507 -3.08,5.56 -0.694,2.055 -1.04,4.121 -1.04,6.201 z"
   id="path162" />
	<path
   d="m 310.48,2192.5 h 19.44 l 11.76,38.961 h 0.16 l 11.6,-38.961 h 19.52 v 59.201 h -13.92 l 0.48,-44.32 -0.16,-0.16 -12.64,44.48 h -10 l -12.64,-44.48 -0.16,0.16 0.48,44.32 h -13.92 z"
   id="path164" />
	<path
   d="m 383.68,2192.5 h 19.44 l 11.76,38.961 h 0.16 l 11.6,-38.961 h 19.52 v 59.201 h -13.92 l 0.48,-44.32 -0.16,-0.16 -12.64,44.48 h -10 l -12.64,-44.48 -0.16,0.16 0.48,44.32 h -13.92 z"
   id="path166" />
	<path
   d="m 456.64,2210.1 c 0.8,-1.92 1.972,-3.973 3.52,-6.16 1.546,-2.187 3.506,-4.226 5.88,-6.12 2.373,-1.893 5.172,-3.452 8.4,-4.68 3.227,-1.227 6.92,-1.84 11.08,-1.84 4.533,0 8.72,0.827 12.56,2.48 3.84,1.653 7.146,3.879 9.92,6.68 2.772,2.8 4.933,6.067 6.48,9.8 1.546,3.733 2.32,7.653 2.32,11.76 0,4.107 -0.773,8.028 -2.32,11.761 -1.547,3.732 -3.708,7 -6.48,9.799 -2.774,2.801 -6.08,5.027 -9.92,6.68 -3.84,1.654 -8.054,2.48 -12.64,2.48 -4.64,0 -8.88,-0.854 -12.72,-2.561 -3.84,-1.705 -7.12,-3.959 -9.84,-6.76 -2.72,-2.799 -4.827,-6 -6.32,-9.6 -1.494,-3.6 -2.24,-7.292 -2.24,-11.08 0,-1.973 0.16,-4.025 0.48,-6.16 0.32,-2.131 0.932,-4.291 1.84,-6.479 z m 12.8,11.761 c 0,2.293 0.373,4.493 1.12,6.6 0.746,2.107 1.826,3.974 3.24,5.6 1.413,1.627 3.12,2.934 5.12,3.92 2,0.988 4.28,1.48 6.84,1.48 2.666,0 5,-0.547 7,-1.641 2,-1.092 3.652,-2.492 4.96,-4.199 1.306,-1.707 2.292,-3.572 2.96,-5.601 0.666,-2.026 1,-4 1,-5.92 0,-1.92 -0.334,-3.906 -1,-5.96 -0.667,-2.053 -1.654,-3.946 -2.96,-5.68 -1.308,-1.732 -2.974,-3.146 -5,-4.24 -2.028,-1.093 -4.4,-1.641 -7.12,-1.641 -2.614,0 -4.934,0.508 -6.96,1.521 -2.028,1.014 -3.72,2.348 -5.08,4 -1.36,1.653 -2.388,3.507 -3.08,5.56 -0.694,2.055 -1.04,4.121 -1.04,6.201 z"
   id="path168" />
	<path
   d="M 524.96,2192.5 H 538 l 22.88,37.201 0.16,-0.16 -0.64,-37.041 h 14.48 v 59.201 h -13.12 l -22.56,-36 -0.16,0.08 0.4,35.92 h -14.48 z"
   id="path170" />
	<path
   d="m 623.52,2243.1 -3.12,8.561 h -16.24 l 23.76,-59.201 h 11.92 l 23.52,59.201 h -16.4 l -2.88,-8.561 z m 4.16,-12 h 12.4 L 634,2210.86 h -0.24 z"
   id="path172" />
	<path
   d="m 669.44,2192.5 h 13.04 l 22.88,37.201 0.16,-0.16 -0.64,-37.041 h 14.48 v 59.201 h -13.12 l -22.56,-36 -0.16,0.08 0.4,35.92 h -14.48 z"
   id="path174" />
	<path
   d="m 788.88,2229.5 c -0.854,3.52 -2.228,6.707 -4.12,9.56 -1.894,2.854 -4.147,5.294 -6.76,7.32 -2.614,2.028 -5.548,3.601 -8.8,4.72 -3.253,1.119 -6.667,1.68 -10.24,1.68 -4.64,0 -8.88,-0.854 -12.72,-2.561 -3.84,-1.705 -7.12,-3.985 -9.84,-6.839 -2.72,-2.853 -4.84,-6.133 -6.36,-9.841 -1.52,-3.705 -2.28,-7.56 -2.28,-11.56 0,-3.786 0.706,-7.506 2.12,-11.159 1.413,-3.653 3.453,-6.92 6.12,-9.801 2.666,-2.88 5.92,-5.213 9.76,-7 3.84,-1.786 8.187,-2.68 13.04,-2.68 4.64,0 8.746,0.8 12.32,2.4 3.573,1.6 6.6,3.573 9.08,5.92 2.48,2.348 4.44,4.907 5.88,7.68 1.44,2.773 2.373,5.307 2.8,7.6 h -15.84 c -0.428,-1.119 -1.028,-2.279 -1.8,-3.48 -0.774,-1.199 -1.748,-2.306 -2.92,-3.319 -1.174,-1.013 -2.56,-1.853 -4.16,-2.521 -1.6,-0.666 -3.414,-1 -5.44,-1 -2.56,0 -4.813,0.508 -6.76,1.521 -1.948,1.014 -3.6,2.334 -4.96,3.96 -1.36,1.627 -2.388,3.48 -3.08,5.561 -0.694,2.08 -1.04,4.16 -1.04,6.24 0,2.239 0.373,4.413 1.12,6.52 0.746,2.107 1.8,3.987 3.16,5.64 1.36,1.653 3.026,2.974 5,3.96 1.973,0.988 4.187,1.48 6.64,1.48 2.346,0 4.373,-0.427 6.08,-1.28 1.706,-0.853 3.12,-1.84 4.24,-2.96 1.12,-1.12 1.986,-2.227 2.6,-3.32 0.613,-1.092 1.053,-1.906 1.32,-2.439 h 15.84 z"
   id="path176" />
	<path
   d="m 796.72,2192.5 h 32.88 v 13.281 h -18.4 v 9.199 h 17.841 v 13.28 H 811.2 v 10.16 h 18.4 v 13.28 h -32.88 z"
   id="path178" />
	<path
   d="m 862.16,2209.8 c -0.107,-0.48 -0.228,-1.053 -0.359,-1.721 -0.135,-0.666 -0.389,-1.307 -0.761,-1.92 -0.374,-0.612 -0.894,-1.12 -1.56,-1.52 -0.668,-0.4 -1.588,-0.601 -2.76,-0.601 -1.334,0 -2.534,0.428 -3.601,1.28 -1.067,0.854 -1.601,1.974 -1.601,3.359 0,0.908 0.133,1.654 0.4,2.24 0.267,0.588 0.84,1.188 1.721,1.801 0.879,0.613 2.119,1.307 3.719,2.08 1.601,0.773 3.733,1.747 6.4,2.92 2.773,1.227 5.053,2.479 6.84,3.76 1.787,1.279 3.201,2.613 4.24,4 1.04,1.387 1.76,2.84 2.16,4.359 0.4,1.521 0.6,3.135 0.6,4.84 0,2.188 -0.348,4.36 -1.039,6.521 -0.694,2.16 -1.84,4.094 -3.44,5.8 -1.601,1.707 -3.72,3.107 -6.36,4.201 -2.64,1.092 -5.907,1.639 -9.8,1.639 -4.268,0 -7.788,-0.627 -10.56,-1.879 -2.773,-1.254 -4.961,-2.812 -6.561,-4.681 -1.6,-1.866 -2.707,-3.893 -3.32,-6.08 -0.613,-2.187 -0.92,-4.239 -0.92,-6.16 v -1.92 h 15.041 c 0,1.708 0.226,3.094 0.68,4.16 0.452,1.067 1.012,1.894 1.68,2.479 0.666,0.588 1.346,0.975 2.04,1.16 0.692,0.188 1.28,0.28 1.761,0.28 1.812,0 3.226,-0.601 4.239,-1.8 1.013,-1.2 1.521,-2.492 1.521,-3.881 0,-0.959 -0.174,-1.785 -0.521,-2.479 -0.348,-0.692 -0.96,-1.333 -1.84,-1.92 -0.88,-0.586 -2.067,-1.212 -3.56,-1.88 -1.494,-0.666 -3.389,-1.48 -5.681,-2.439 -1.067,-0.427 -2.413,-1.027 -4.04,-1.801 -1.627,-0.772 -3.213,-1.812 -4.76,-3.119 -1.547,-1.307 -2.88,-2.947 -4,-4.92 -1.12,-1.973 -1.68,-4.348 -1.68,-7.121 0,-2.771 0.612,-5.24 1.84,-7.399 1.227,-2.16 2.826,-3.986 4.8,-5.479 1.973,-1.493 4.187,-2.627 6.64,-3.4 2.453,-0.773 4.933,-1.16 7.44,-1.16 2.933,0 5.853,0.547 8.76,1.64 2.906,1.094 5.32,2.788 7.24,5.08 0.853,1.067 1.532,2.12 2.04,3.16 0.506,1.04 0.893,2.054 1.16,3.04 0.266,0.987 0.439,1.934 0.52,2.84 0.08,0.908 0.146,1.787 0.2,2.641 z"
   id="path180" />
	<path
   d="m 891.92,2205.8 h -11.68 v -13.281 h 38.4 v 13.281 h -11.599 v 45.92 h -15.12 v -45.92 z"
   id="path182" />
	<path
   d="m 924.72,2192.5 h 18.721 c 2.611,0 4.852,0.08 6.719,0.24 1.867,0.16 3.493,0.414 4.881,0.76 1.387,0.348 2.6,0.788 3.64,1.32 1.04,0.534 2.04,1.174 3,1.92 2.452,1.92 4.28,4.334 5.479,7.24 1.201,2.908 1.801,5.881 1.801,8.92 0,1.708 -0.24,3.548 -0.721,5.521 -0.479,1.974 -1.293,3.854 -2.439,5.64 -1.147,1.787 -2.668,3.36 -4.561,4.721 -1.893,1.359 -4.227,2.279 -7,2.76 l 16.08,20.16 h -17.279 l -13.68,-19.121 h -0.16 v 19.121 h -14.48 V 2192.5 Z m 14.481,29.76 h 5.359 c 2.24,0 4.013,-0.306 5.32,-0.92 1.307,-0.612 2.293,-1.36 2.96,-2.24 0.667,-0.88 1.106,-1.8 1.319,-2.76 0.213,-0.96 0.32,-1.812 0.32,-2.56 0,-2.721 -0.894,-4.732 -2.68,-6.041 -1.787,-1.306 -4.147,-1.959 -7.08,-1.959 h -5.52 v 16.48 z"
   id="path184" />
	<path
   d="m 991.68,2243.1 -3.121,8.561 H 972.32 l 23.76,-59.201 H 1008 l 23.521,59.201 h -16.4 l -2.88,-8.561 z m 4.16,-12 h 12.399 l -6.08,-20.24 h -0.24 z"
   id="path186" />
	<path
   d="m 1038,2192.5 h 15.121 v 45.921 h 17.52 v 13.28 H 1038 Z"
   id="path188" />
	<path
   d="m 1160,2229.5 c -0.854,3.52 -2.228,6.707 -4.12,9.56 -1.894,2.854 -4.147,5.294 -6.76,7.32 -2.614,2.028 -5.548,3.601 -8.8,4.72 -3.254,1.119 -6.668,1.68 -10.24,1.68 -4.641,0 -8.881,-0.854 -12.721,-2.561 -3.84,-1.705 -7.119,-3.985 -9.84,-6.839 -2.72,-2.853 -4.84,-6.133 -6.359,-9.841 -1.52,-3.705 -2.28,-7.56 -2.28,-11.56 0,-3.786 0.706,-7.506 2.12,-11.159 1.412,-3.653 3.453,-6.92 6.12,-9.801 2.666,-2.88 5.92,-5.213 9.76,-7 3.84,-1.786 8.187,-2.68 13.04,-2.68 4.641,0 8.746,0.8 12.32,2.4 3.572,1.6 6.6,3.573 9.08,5.92 2.479,2.348 4.439,4.907 5.879,7.68 1.441,2.773 2.373,5.307 2.801,7.6 h -15.84 c -0.428,-1.119 -1.027,-2.279 -1.801,-3.48 -0.773,-1.199 -1.747,-2.306 -2.92,-3.319 -1.174,-1.013 -2.56,-1.853 -4.16,-2.521 -1.6,-0.666 -3.413,-1 -5.439,-1 -2.561,0 -4.813,0.508 -6.76,1.521 -1.947,1.014 -3.6,2.334 -4.96,3.96 -1.36,1.627 -2.388,3.48 -3.08,5.561 -0.694,2.08 -1.04,4.16 -1.04,6.24 0,2.239 0.373,4.413 1.12,6.52 0.746,2.107 1.8,3.987 3.159,5.64 1.361,1.653 3.027,2.974 5,3.96 1.973,0.988 4.188,1.48 6.641,1.48 2.346,0 4.373,-0.427 6.08,-1.28 1.706,-0.853 3.12,-1.84 4.24,-2.96 1.119,-1.12 1.986,-2.227 2.6,-3.32 0.613,-1.092 1.053,-1.906 1.32,-2.439 H 1160 Z"
   id="path190" />
	<path
   d="m 1167.6,2210.1 c 0.799,-1.92 1.972,-3.973 3.52,-6.16 1.546,-2.187 3.506,-4.226 5.88,-6.12 2.372,-1.893 5.173,-3.452 8.399,-4.68 3.227,-1.227 6.92,-1.84 11.08,-1.84 4.533,0 8.721,0.827 12.561,2.48 3.84,1.653 7.146,3.879 9.92,6.68 2.772,2.8 4.933,6.067 6.48,9.8 1.546,3.733 2.319,7.653 2.319,11.76 0,4.107 -0.773,8.028 -2.319,11.761 -1.548,3.732 -3.708,7 -6.48,9.799 -2.773,2.801 -6.08,5.027 -9.92,6.68 -3.84,1.654 -8.054,2.48 -12.641,2.48 -4.64,0 -8.879,-0.854 -12.719,-2.561 -3.841,-1.705 -7.121,-3.959 -9.841,-6.76 -2.72,-2.799 -4.827,-6 -6.319,-9.6 -1.494,-3.6 -2.24,-7.292 -2.24,-11.08 0,-1.973 0.16,-4.025 0.479,-6.16 0.321,-2.131 0.933,-4.291 1.841,-6.479 z m 12.799,11.761 c 0,2.293 0.373,4.493 1.121,6.6 0.746,2.107 1.826,3.974 3.239,5.6 1.413,1.627 3.12,2.934 5.12,3.92 2,0.988 4.28,1.48 6.84,1.48 2.666,0 5,-0.547 7,-1.641 2,-1.092 3.652,-2.492 4.961,-4.199 1.306,-1.707 2.292,-3.572 2.959,-5.601 0.666,-2.026 1,-4 1,-5.92 0,-1.92 -0.334,-3.906 -1,-5.96 -0.667,-2.053 -1.653,-3.946 -2.959,-5.68 -1.309,-1.732 -2.975,-3.146 -5,-4.24 -2.028,-1.093 -4.4,-1.641 -7.121,-1.641 -2.613,0 -4.934,0.508 -6.959,1.521 -2.028,1.014 -3.721,2.348 -5.08,4 -1.36,1.653 -2.389,3.507 -3.08,5.56 -0.694,2.055 -1.041,4.121 -1.041,6.201 z"
   id="path192" />
	<path
   d="m 1235.9,2192.5 h 19.44 l 11.761,38.961 h 0.16 l 11.6,-38.961 h 19.52 v 59.201 h -13.92 l 0.48,-44.32 -0.16,-0.16 -12.641,44.48 h -10 l -12.64,-44.48 -0.16,0.16 0.479,44.32 h -13.92 V 2192.5 Z"
   id="path194" />
	<path
   d="m 1309.1,2192.5 h 19.44 l 11.76,38.961 h 0.16 l 11.6,-38.961 h 19.52 v 59.201 h -13.92 l 0.48,-44.32 -0.16,-0.16 -12.641,44.48 h -10 l -12.639,-44.48 -0.16,0.16 0.479,44.32 h -13.92 V 2192.5 Z"
   id="path196" />
	<path
   d="m 1397.3,2192.5 v 35.761 c 0,1.014 0.053,2.174 0.16,3.479 0.105,1.309 0.4,2.534 0.881,3.681 0.479,1.147 1.238,2.12 2.279,2.92 1.039,0.8 2.492,1.2 4.359,1.2 1.867,0 3.307,-0.36 4.32,-1.08 1.012,-0.721 1.76,-1.641 2.24,-2.76 0.48,-1.121 0.76,-2.347 0.84,-3.681 0.08,-1.333 0.119,-2.586 0.119,-3.76 v -35.761 h 15.121 v 35.761 c 0,2.507 -0.135,4.681 -0.4,6.521 -0.268,1.84 -0.654,3.453 -1.16,4.84 -0.508,1.387 -1.119,2.627 -1.84,3.72 -0.721,1.094 -1.561,2.12 -2.52,3.08 -1.92,1.974 -4.24,3.534 -6.961,4.681 -2.719,1.145 -5.92,1.719 -9.6,1.719 -1.066,0 -2.334,-0.08 -3.799,-0.24 -1.469,-0.16 -2.975,-0.467 -4.521,-0.92 -1.547,-0.451 -3.08,-1.092 -4.6,-1.92 -1.52,-0.826 -2.893,-1.906 -4.119,-3.24 -1.229,-1.332 -2.229,-2.625 -3,-3.879 -0.773,-1.253 -1.375,-2.572 -1.801,-3.961 -0.428,-1.386 -0.721,-2.92 -0.879,-4.6 -0.16,-1.68 -0.24,-3.612 -0.24,-5.8 V 2192.5 Z"
   id="path198" />
	<path
   d="m 1438.2,2192.5 h 13.039 l 22.881,37.201 0.16,-0.16 -0.641,-37.041 h 14.48 v 59.201 h -13.121 l -22.561,-36 -0.158,0.08 0.398,35.92 h -14.479 V 2192.5 Z"
   id="path200" />
	<path
   d="m 1498.9,2192.5 h 15.119 v 59.201 H 1498.9 Z"
   id="path202" />
	<path
   d="m 1531.8,2205.8 h -11.68 v -13.281 h 38.4 v 13.281 h -11.602 v 45.92 h -15.119 v -45.92 z"
   id="path204" />
	<path
   d="m 1577.7,2230.1 -17.68,-37.681 h 16.4 l 8.799,23.761 8.881,-23.761 h 16.24 l -17.521,37.681 v 21.521 H 1577.7 Z"
   id="path206" />
	<path
   d="m 503.72,2306.2 c 0.8,-1.922 1.972,-3.973 3.52,-6.16 1.546,-2.188 3.506,-4.227 5.88,-6.121 2.373,-1.893 5.172,-3.453 8.4,-4.68 3.227,-1.227 6.92,-1.84 11.08,-1.84 4.533,0 8.72,0.828 12.56,2.48 3.84,1.652 7.146,3.879 9.92,6.68 2.772,2.799 4.933,6.066 6.48,9.799 1.546,3.734 2.32,7.654 2.32,11.762 0,4.108 -0.773,8.027 -2.32,11.76 -1.547,3.732 -3.708,7 -6.48,9.799 -2.774,2.801 -6.08,5.027 -9.92,6.68 -3.84,1.654 -8.054,2.48 -12.64,2.48 -4.64,0 -8.88,-0.854 -12.72,-2.561 -3.84,-1.705 -7.12,-3.959 -9.84,-6.76 -2.72,-2.799 -4.827,-6 -6.32,-9.6 -1.494,-3.6 -2.24,-7.293 -2.24,-11.08 0,-1.973 0.16,-4.025 0.48,-6.16 0.32,-2.132 0.932,-4.29 1.84,-6.478 z m 12.799,11.76 c 0,2.293 0.373,4.492 1.12,6.6 0.746,2.107 1.826,3.973 3.24,5.6 1.413,1.627 3.12,2.934 5.12,3.92 2,0.988 4.28,1.48 6.84,1.48 2.666,0 5,-0.547 7,-1.641 2,-1.092 3.652,-2.492 4.96,-4.199 1.306,-1.707 2.292,-3.572 2.96,-5.6 0.666,-2.027 1,-4 1,-5.92 0,-1.922 -0.334,-3.906 -1,-5.961 -0.667,-2.053 -1.654,-3.945 -2.96,-5.68 -1.308,-1.732 -2.974,-3.146 -5,-4.24 -2.028,-1.092 -4.4,-1.641 -7.12,-1.641 -2.614,0 -4.934,0.508 -6.96,1.521 -2.028,1.014 -3.72,2.346 -5.08,4 -1.36,1.652 -2.388,3.506 -3.08,5.559 -0.693,2.056 -1.04,4.122 -1.04,6.202 z"
   id="path208" />
	<path
   d="m 572.04,2288.5 h 32.32 v 13.281 h -17.84 v 10.08 h 17.2 v 13.279 h -17.2 v 22.561 h -14.48 z"
   id="path210" />
	<path
   d="m 637.24,2288.5 h 19.36 c 2.72,0 5.052,0.107 7,0.32 1.946,0.215 3.626,0.508 5.04,0.881 1.413,0.373 2.6,0.826 3.56,1.359 0.96,0.533 1.84,1.121 2.64,1.76 2.346,1.92 4.093,4.254 5.24,7 1.146,2.748 1.72,5.641 1.72,8.68 0,1.494 -0.147,3 -0.44,4.521 -0.294,1.52 -0.72,2.959 -1.28,4.318 -0.56,1.361 -1.214,2.615 -1.96,3.762 -0.748,1.146 -1.6,2.119 -2.56,2.92 -1.014,0.854 -2.054,1.6 -3.12,2.238 -1.067,0.641 -2.268,1.174 -3.6,1.602 -1.333,0.428 -2.854,0.746 -4.56,0.959 -1.708,0.215 -3.708,0.32 -6,0.32 h -6.56 v 18.561 h -14.48 z m 14.48,27.361 h 6.16 c 0.692,0 1.586,-0.041 2.68,-0.121 1.092,-0.08 2.132,-0.332 3.12,-0.76 0.986,-0.426 1.84,-1.133 2.56,-2.119 0.72,-0.986 1.08,-2.361 1.08,-4.121 0,-1.76 -0.374,-3.105 -1.12,-4.039 -0.748,-0.934 -1.64,-1.613 -2.68,-2.041 -1.04,-0.426 -2.134,-0.68 -3.28,-0.76 -1.147,-0.08 -2.12,-0.119 -2.92,-0.119 h -5.6 z"
   id="path212" />
	<path
   d="m 688.12,2288.5 h 18.72 c 2.612,0 4.853,0.08 6.72,0.24 1.866,0.16 3.493,0.414 4.88,0.76 1.386,0.348 2.6,0.789 3.64,1.32 1.04,0.533 2.04,1.174 3,1.92 2.453,1.92 4.28,4.334 5.48,7.24 1.2,2.908 1.8,5.881 1.8,8.92 0,1.707 -0.24,3.547 -0.72,5.52 -0.48,1.975 -1.293,3.855 -2.44,5.641 -1.147,1.787 -2.667,3.359 -4.56,4.721 -1.894,1.359 -4.228,2.279 -7,2.76 l 16.08,20.16 h -17.28 l -13.68,-19.121 h -0.16 v 19.121 h -14.48 z m 14.48,29.76 h 5.36 c 2.24,0 4.012,-0.305 5.32,-0.92 1.306,-0.611 2.292,-1.359 2.96,-2.238 0.667,-0.881 1.106,-1.801 1.32,-2.762 0.213,-0.959 0.32,-1.812 0.32,-2.559 0,-2.721 -0.894,-4.732 -2.68,-6.041 -1.788,-1.307 -4.147,-1.959 -7.08,-1.959 h -5.52 z"
   id="path214" />
	<path
   d="m 740.36,2288.5 h 15.12 v 59.201 h -15.12 z"
   id="path216" />
	<path
   d="m 766.2,2288.5 h 19.44 l 11.76,38.961 h 0.16 l 11.6,-38.961 h 19.52 v 59.201 h -13.92 l 0.48,-44.32 -0.16,-0.16 -12.64,44.48 h -10 l -12.64,-44.48 -0.16,0.16 0.48,44.32 H 766.2 Z"
   id="path218" />
	<path
   d="m 839.4,2288.5 h 15.119 v 59.201 H 839.4 Z"
   id="path220" />
	<path
   d="m 872.36,2301.8 h -11.68 v -13.281 h 38.4 v 13.281 h -11.6 v 45.92 h -15.121 v -45.92 z"
   id="path222" />
	<path
   d="m 905.16,2288.5 h 15.12 v 59.201 h -15.12 z"
   id="path224" />
	<path
   d="m 942.44,2288.5 11.92,41.521 h 0.16 l 12,-41.521 h 15.6 l -19.84,59.201 h -15.6 L 926.919,2288.5 Z"
   id="path226" />
	<path
   d="m 988.76,2288.5 h 32.881 v 13.281 h -18.4 v 9.199 h 17.84 v 13.279 h -17.84 v 10.16 h 18.4 V 2347.7 H 988.76 Z"
   id="path228" />
	<path
   d="m 1114.4,2325.5 c -0.854,3.52 -2.229,6.707 -4.121,9.561 -1.892,2.854 -4.146,5.293 -6.76,7.318 -2.613,2.027 -5.547,3.602 -8.8,4.721 -3.253,1.119 -6.667,1.68 -10.239,1.68 -4.641,0 -8.881,-0.854 -12.721,-2.561 -3.84,-1.705 -7.12,-3.984 -9.84,-6.84 -2.721,-2.852 -4.84,-6.131 -6.359,-9.84 -1.521,-3.705 -2.281,-7.559 -2.281,-11.559 0,-3.787 0.707,-7.508 2.121,-11.16 1.412,-3.652 3.452,-6.92 6.119,-9.801 2.666,-2.879 5.92,-5.213 9.76,-7 3.84,-1.785 8.188,-2.68 13.041,-2.68 4.64,0 8.746,0.801 12.319,2.4 3.573,1.599 6.601,3.572 9.08,5.92 2.479,2.348 4.44,4.906 5.88,7.68 1.44,2.773 2.373,5.307 2.801,7.6 h -15.84 c -0.428,-1.119 -1.028,-2.279 -1.801,-3.48 -0.773,-1.199 -1.748,-2.305 -2.92,-3.318 -1.174,-1.014 -2.561,-1.854 -4.16,-2.521 -1.6,-0.666 -3.414,-1 -5.439,-1 -2.561,0 -4.814,0.508 -6.76,1.521 -1.948,1.014 -3.601,2.332 -4.961,3.959 -1.359,1.627 -2.387,3.48 -3.08,5.561 -0.693,2.081 -1.039,4.16 -1.039,6.24 0,2.24 0.372,4.412 1.119,6.52 0.746,2.107 1.801,3.986 3.16,5.641 1.36,1.652 3.026,2.973 5,3.959 1.973,0.988 4.187,1.48 6.641,1.48 2.346,0 4.372,-0.426 6.08,-1.281 1.705,-0.852 3.119,-1.84 4.239,-2.959 1.12,-1.119 1.986,-2.227 2.601,-3.32 0.612,-1.092 1.053,-1.906 1.32,-2.439 h 15.84 z"
   id="path230" />
	<path
   d="m 1122.3,2288.5 h 32.881 v 13.281 h -18.4 v 9.199 h 17.84 v 13.279 h -17.84 v 10.16 h 18.4 V 2347.7 H 1122.3 Z"
   id="path232" />
	<path
   d="m 1164.9,2288.5 h 15.119 v 45.92 h 17.521 v 13.281 h -32.64 z"
   id="path234" />
	<path
   d="m 1203.9,2288.5 h 15.121 v 45.92 h 17.52 v 13.281 H 1203.9 Z"
   id="path236" />
	<path
   d="m 1265.6,2305.8 c -0.107,-0.48 -0.228,-1.053 -0.36,-1.721 -0.133,-0.666 -0.387,-1.307 -0.76,-1.92 -0.373,-0.613 -0.894,-1.119 -1.561,-1.52 -0.667,-0.401 -1.587,-0.6 -2.76,-0.6 -1.334,0 -2.533,0.426 -3.6,1.279 -1.067,0.854 -1.6,1.975 -1.6,3.359 0,0.908 0.133,1.654 0.399,2.24 0.267,0.588 0.841,1.188 1.72,1.801 0.881,0.613 2.121,1.307 3.721,2.08 1.6,0.773 3.732,1.746 6.4,2.92 2.771,1.227 5.052,2.48 6.84,3.76 1.785,1.279 3.199,2.613 4.24,4 1.039,1.387 1.76,2.84 2.159,4.359 0.399,1.519 0.601,3.135 0.601,4.84 0,2.188 -0.348,4.361 -1.041,6.521 -0.693,2.158 -1.84,4.094 -3.439,5.799 -1.6,1.707 -3.721,3.107 -6.359,4.201 -2.641,1.092 -5.908,1.639 -9.801,1.639 -4.268,0 -7.787,-0.627 -10.561,-1.879 -2.773,-1.254 -4.959,-2.812 -6.559,-4.682 -1.601,-1.865 -2.708,-3.891 -3.32,-6.078 -0.614,-2.188 -0.92,-4.24 -0.92,-6.16 v -1.92 h 15.039 c 0,1.707 0.227,3.094 0.681,4.158 0.452,1.068 1.013,1.895 1.68,2.48 0.667,0.588 1.347,0.975 2.04,1.16 0.692,0.188 1.28,0.281 1.76,0.281 1.812,0 3.227,-0.602 4.24,-1.801 1.013,-1.199 1.52,-2.492 1.52,-3.881 0,-0.959 -0.174,-1.785 -0.52,-2.479 -0.348,-0.693 -0.96,-1.334 -1.84,-1.92 -0.88,-0.588 -2.067,-1.213 -3.561,-1.881 -1.493,-0.666 -3.387,-1.48 -5.68,-2.439 -1.067,-0.428 -2.414,-1.027 -4.04,-1.801 -1.628,-0.771 -3.214,-1.812 -4.76,-3.119 -1.548,-1.307 -2.88,-2.947 -4,-4.92 -1.12,-1.973 -1.681,-4.348 -1.681,-7.121 0,-2.771 0.613,-5.24 1.841,-7.4 1.226,-2.16 2.826,-3.986 4.8,-5.479 1.973,-1.494 4.186,-2.627 6.641,-3.4 2.451,-0.773 4.932,-1.16 7.439,-1.16 2.933,0 5.853,0.547 8.76,1.641 2.906,1.094 5.32,2.787 7.24,5.08 0.853,1.066 1.532,2.119 2.04,3.158 0.507,1.041 0.893,2.055 1.159,3.041 0.268,0.988 0.441,1.934 0.521,2.84 0.08,0.908 0.146,1.787 0.2,2.641 H 1265.6 Z"
   id="path238" />
</g><g
   stroke-miterlimit="10"
   id="g290">
<g
   fill="#39b54a"
   id="g258">
	<path
   d="m 1184.9,1274.9 h 12.101 c 1.7,0 3.157,0.068 4.375,0.201 1.216,0.133 2.267,0.316 3.149,0.549 0.883,0.234 1.625,0.518 2.226,0.851 0.6,0.333 1.149,0.7 1.649,1.101 1.467,1.199 2.559,2.658 3.275,4.375 0.716,1.717 1.075,3.524 1.075,5.424 0,0.934 -0.093,1.875 -0.275,2.826 -0.184,0.949 -0.45,1.85 -0.8,2.699 -0.35,0.849 -0.759,1.634 -1.225,2.35 -0.468,0.718 -1,1.326 -1.601,1.826 -0.634,0.533 -1.283,1 -1.95,1.399 -0.667,0.399 -1.417,0.733 -2.25,1 -0.833,0.267 -1.783,0.468 -2.85,0.601 -1.067,0.133 -2.317,0.199 -3.75,0.199 h -4.1 v 11.6 h -9.051 V 1274.9 Z m 9.05,17.101 h 3.85 c 0.433,0 0.991,-0.024 1.675,-0.075 0.683,-0.05 1.333,-0.207 1.95,-0.475 0.616,-0.267 1.15,-0.708 1.6,-1.325 0.45,-0.616 0.676,-1.476 0.676,-2.575 0,-1.099 -0.234,-1.941 -0.7,-2.525 -0.468,-0.582 -1.025,-1.008 -1.675,-1.274 -0.65,-0.267 -1.334,-0.425 -2.051,-0.476 -0.717,-0.049 -1.324,-0.074 -1.824,-0.074 h -3.5 v 8.799 z"
   id="path242" />
	<path
   d="m 1217,1274.9 h 9.45 v 28.701 h 10.949 v 8.299 H 1217 Z"
   id="path244" />
	<path
   d="m 1250.3,1306.6 -1.949,5.35 h -10.15 l 14.85,-37 h 7.45 l 14.7,37 h -10.25 l -1.801,-5.35 z m 2.6,-7.5 h 7.75 l -3.799,-12.65 h -0.151 z"
   id="path246" />
	<path
   d="m 1293.5,1285.7 c -0.067,-0.301 -0.142,-0.658 -0.226,-1.075 -0.083,-0.417 -0.242,-0.816 -0.475,-1.2 -0.233,-0.383 -0.559,-0.699 -0.975,-0.949 -0.418,-0.25 -0.992,-0.375 -1.725,-0.375 -0.834,0 -1.584,0.267 -2.25,0.799 -0.668,0.534 -1,1.234 -1,2.101 0,0.567 0.082,1.034 0.25,1.399 0.166,0.367 0.524,0.742 1.074,1.125 0.551,0.385 1.325,0.818 2.325,1.301 1,0.483 2.333,1.092 4,1.824 1.733,0.768 3.157,1.551 4.274,2.351 1.117,0.8 2,1.634 2.65,2.5 0.65,0.867 1.1,1.774 1.35,2.726 0.25,0.949 0.375,1.958 0.375,3.024 0,1.367 -0.217,2.726 -0.649,4.075 -0.434,1.35 -1.149,2.559 -2.149,3.625 -1,1.066 -2.326,1.941 -3.976,2.625 -1.649,0.682 -3.692,1.025 -6.125,1.025 -2.667,0 -4.867,-0.393 -6.601,-1.176 -1.732,-0.783 -3.1,-1.758 -4.1,-2.926 -1,-1.166 -1.691,-2.432 -2.074,-3.799 -0.385,-1.367 -0.576,-2.65 -0.576,-3.85 v -1.201 h 9.4 c 0,1.068 0.142,1.934 0.426,2.601 0.282,0.667 0.633,1.184 1.049,1.55 0.417,0.367 0.842,0.609 1.275,0.725 0.434,0.117 0.801,0.176 1.1,0.176 1.133,0 2.018,-0.375 2.65,-1.125 0.632,-0.75 0.95,-1.559 0.95,-2.426 0,-0.6 -0.108,-1.115 -0.325,-1.549 -0.217,-0.434 -0.6,-0.834 -1.15,-1.201 -0.549,-0.365 -1.291,-0.758 -2.225,-1.174 -0.934,-0.417 -2.117,-0.926 -3.55,-1.525 -0.667,-0.267 -1.509,-0.642 -2.524,-1.125 -1.018,-0.482 -2.01,-1.133 -2.976,-1.95 -0.968,-0.816 -1.8,-1.841 -2.5,-3.075 -0.7,-1.232 -1.05,-2.717 -1.05,-4.449 0,-1.733 0.383,-3.275 1.15,-4.625 0.766,-1.351 1.766,-2.492 3,-3.426 1.232,-0.933 2.615,-1.641 4.149,-2.125 1.532,-0.482 3.083,-0.725 4.649,-0.725 1.834,0 3.658,0.342 5.476,1.025 1.816,0.684 3.325,1.742 4.524,3.174 0.533,0.668 0.959,1.326 1.275,1.976 0.316,0.65 0.559,1.284 0.725,1.899 0.167,0.617 0.275,1.209 0.326,1.775 0.049,0.567 0.091,1.117 0.125,1.65 z"
   id="path248" />
	<path
   d="m 1312.1,1283.2 h -7.299 v -8.301 h 24 v 8.301 h -7.25 v 28.699 h -9.451 z"
   id="path250" />
	<path
   d="m 1332.6,1274.9 h 9.45 v 37 h -9.45 z"
   id="path252" />
	<path
   d="m 1348.2,1274.9 h 12.25 c 1.033,0 2.241,0.034 3.625,0.101 1.383,0.067 2.816,0.317 4.3,0.75 1.483,0.434 2.958,1.117 4.425,2.05 1.467,0.934 2.801,2.268 4,4 1.267,1.768 2.15,3.617 2.65,5.551 0.5,1.934 0.75,3.916 0.75,5.949 0,2.533 -0.334,4.926 -1,7.176 -0.668,2.25 -1.75,4.225 -3.25,5.924 -1.5,1.701 -3.467,3.043 -5.9,4.025 -2.434,0.984 -5.4,1.475 -8.9,1.475 h -12.949 V 1274.9 Z m 9.449,28.702 h 4.051 c 1.766,0 3.232,-0.283 4.4,-0.851 1.166,-0.566 2.091,-1.316 2.774,-2.25 0.683,-0.933 1.167,-2.017 1.45,-3.25 0.283,-1.233 0.425,-2.5 0.425,-3.8 0,-1.066 -0.134,-2.208 -0.399,-3.426 -0.268,-1.216 -0.734,-2.357 -1.4,-3.424 -0.268,-0.4 -0.6,-0.809 -1,-1.226 -0.4,-0.417 -0.884,-0.782 -1.45,-1.101 -0.567,-0.316 -1.242,-0.574 -2.024,-0.774 -0.784,-0.2 -1.693,-0.3 -2.726,-0.3 h -4.101 z"
   id="path254" />
	<path
   d="m 1400.3,1285.7 c -0.067,-0.301 -0.143,-0.658 -0.225,-1.075 -0.084,-0.417 -0.242,-0.816 -0.476,-1.2 -0.233,-0.383 -0.559,-0.699 -0.976,-0.949 -0.416,-0.25 -0.992,-0.375 -1.725,-0.375 -0.834,0 -1.584,0.267 -2.25,0.799 -0.667,0.534 -1,1.234 -1,2.101 0,0.567 0.083,1.034 0.25,1.399 0.166,0.367 0.525,0.742 1.075,1.125 0.55,0.385 1.325,0.818 2.325,1.301 1,0.483 2.332,1.092 4,1.824 1.732,0.768 3.158,1.551 4.275,2.351 1.115,0.8 2,1.634 2.649,2.5 0.649,0.867 1.101,1.774 1.351,2.726 0.25,0.949 0.375,1.958 0.375,3.024 0,1.367 -0.218,2.726 -0.65,4.075 -0.434,1.35 -1.15,2.559 -2.15,3.625 -1,1.066 -2.324,1.941 -3.975,2.625 -1.65,0.682 -3.692,1.025 -6.125,1.025 -2.668,0 -4.867,-0.393 -6.6,-1.176 -1.734,-0.783 -3.101,-1.758 -4.101,-2.926 -1,-1.166 -1.692,-2.432 -2.075,-3.799 -0.383,-1.367 -0.574,-2.65 -0.574,-3.85 v -1.201 h 9.399 c 0,1.068 0.142,1.934 0.425,2.601 0.283,0.667 0.633,1.184 1.051,1.55 0.416,0.367 0.841,0.609 1.274,0.725 0.433,0.117 0.8,0.176 1.101,0.176 1.133,0 2.016,-0.375 2.649,-1.125 0.633,-0.75 0.95,-1.559 0.95,-2.426 0,-0.6 -0.109,-1.115 -0.325,-1.549 -0.218,-0.434 -0.601,-0.834 -1.149,-1.201 -0.551,-0.365 -1.293,-0.758 -2.226,-1.174 -0.934,-0.417 -2.117,-0.926 -3.55,-1.525 -0.668,-0.267 -1.509,-0.642 -2.525,-1.125 -1.018,-0.482 -2.008,-1.133 -2.975,-1.95 -0.967,-0.816 -1.801,-1.841 -2.5,-3.075 -0.7,-1.232 -1.051,-2.717 -1.051,-4.449 0,-1.733 0.383,-3.275 1.15,-4.625 0.767,-1.351 1.767,-2.492 3,-3.426 1.232,-0.933 2.617,-1.641 4.15,-2.125 1.533,-0.482 3.082,-0.725 4.65,-0.725 1.832,0 3.657,0.342 5.475,1.025 1.816,0.684 3.324,1.742 4.525,3.174 0.532,0.668 0.957,1.326 1.274,1.976 0.316,0.649 0.558,1.284 0.726,1.899 0.166,0.617 0.274,1.209 0.324,1.775 0.051,0.567 0.092,1.117 0.125,1.65 z"
   id="path256" />
</g>
<g
   fill="#ff850c"
   id="g284">
	<path
   d="m 1133.4,1431.7 h 12.149 l 7.351,24.35 h 0.1 l 7.25,-24.35 h 12.199 v 37 h -8.699 l 0.3,-27.701 -0.101,-0.1 -7.899,27.801 h -6.25 l -7.899,-27.801 -0.101,0.1 0.3,27.701 h -8.699 v -37 z"
   id="path260" />
	<path
   d="m 1179.2,1431.7 h 9.45 v 37 h -9.45 z"
   id="path262" />
	<path
   d="m 1199.8,1440 h -7.3 v -8.299 h 24 V 1440 h -7.25 v 28.701 h -9.45 z"
   id="path264" />
	<path
   d="m 1219.4,1442.7 c 0.5,-1.199 1.232,-2.482 2.199,-3.85 0.967,-1.366 2.191,-2.641 3.676,-3.824 1.482,-1.184 3.232,-2.158 5.25,-2.926 2.016,-0.766 4.324,-1.15 6.924,-1.15 2.834,0 5.451,0.518 7.851,1.551 2.4,1.033 4.466,2.425 6.2,4.175 1.732,1.75 3.082,3.792 4.05,6.125 0.966,2.333 1.45,4.784 1.45,7.351 0,2.567 -0.484,5.017 -1.45,7.35 -0.968,2.334 -2.317,4.375 -4.05,6.125 -1.734,1.75 -3.801,3.143 -6.2,4.176 -2.399,1.031 -5.034,1.549 -7.899,1.549 -2.9,0 -5.551,-0.533 -7.951,-1.6 -2.399,-1.066 -4.449,-2.475 -6.149,-4.225 -1.7,-1.75 -3.017,-3.75 -3.95,-6 -0.933,-2.25 -1.4,-4.559 -1.4,-6.926 0,-1.232 0.101,-2.516 0.301,-3.85 0.197,-1.334 0.58,-2.684 1.148,-4.051 z m 8,7.35 c 0,1.434 0.232,2.809 0.699,4.125 0.467,1.317 1.142,2.483 2.025,3.5 0.883,1.017 1.949,1.833 3.199,2.45 1.25,0.617 2.676,0.925 4.275,0.925 1.666,0 3.125,-0.341 4.375,-1.024 1.25,-0.683 2.283,-1.559 3.1,-2.625 0.817,-1.066 1.434,-2.233 1.851,-3.5 0.417,-1.268 0.625,-2.5 0.625,-3.701 0,-1.199 -0.208,-2.441 -0.625,-3.725 -0.417,-1.284 -1.034,-2.467 -1.851,-3.55 -0.817,-1.083 -1.857,-1.966 -3.125,-2.649 -1.267,-0.684 -2.75,-1.025 -4.449,-1.025 -1.634,0 -3.084,0.316 -4.35,0.949 -1.268,0.635 -2.326,1.468 -3.176,2.5 -0.85,1.034 -1.492,2.193 -1.925,3.476 -0.432,1.283 -0.648,2.574 -0.648,3.874 z"
   id="path266" />
	<path
   d="m 1298.8,1454.8 c -0.533,2.2 -1.392,4.192 -2.574,5.976 -1.184,1.783 -2.592,3.309 -4.225,4.574 -1.635,1.268 -3.468,2.25 -5.5,2.951 -2.034,0.699 -4.168,1.049 -6.4,1.049 -2.9,0 -5.551,-0.533 -7.95,-1.6 -2.399,-1.067 -4.45,-2.492 -6.149,-4.275 -1.701,-1.783 -3.025,-3.832 -3.976,-6.15 -0.95,-2.316 -1.425,-4.725 -1.425,-7.225 0,-2.366 0.441,-4.691 1.324,-6.975 0.883,-2.284 2.158,-4.325 3.826,-6.125 1.666,-1.801 3.699,-3.258 6.1,-4.375 2.401,-1.117 5.116,-1.676 8.15,-1.676 2.899,0 5.466,0.5 7.699,1.5 2.232,1 4.125,2.234 5.676,3.701 1.549,1.467 2.774,3.066 3.674,4.799 0.9,1.734 1.483,3.318 1.75,4.75 h -9.899 c -0.267,-0.699 -0.642,-1.424 -1.125,-2.174 -0.483,-0.75 -1.093,-1.441 -1.825,-2.076 -0.733,-0.633 -1.6,-1.157 -2.6,-1.574 -1,-0.416 -2.134,-0.625 -3.4,-0.625 -1.6,0 -3.008,0.316 -4.225,0.949 -1.217,0.635 -2.25,1.459 -3.1,2.476 -0.851,1.017 -1.492,2.175 -1.926,3.476 -0.434,1.299 -0.65,2.6 -0.65,3.899 0,1.399 0.233,2.759 0.701,4.075 0.466,1.316 1.125,2.492 1.975,3.525 0.85,1.033 1.891,1.857 3.125,2.475 1.232,0.617 2.616,0.925 4.15,0.925 1.466,0 2.732,-0.267 3.799,-0.8 1.067,-0.533 1.951,-1.15 2.65,-1.85 0.7,-0.701 1.242,-1.393 1.625,-2.076 0.383,-0.682 0.658,-1.191 0.825,-1.524 z"
   id="path268" />
	<path
   d="m 1303.7,1431.7 h 9.449 v 13.899 h 12.101 V 1431.7 h 9.45 v 37 h -9.45 v -14.801 h -12.101 v 14.801 h -9.449 z"
   id="path270" />
	<path
   d="m 1341.2,1442.7 c 0.5,-1.199 1.232,-2.482 2.2,-3.85 0.966,-1.366 2.191,-2.641 3.675,-3.824 1.482,-1.184 3.232,-2.158 5.25,-2.926 2.017,-0.766 4.325,-1.15 6.925,-1.15 2.833,0 5.45,0.518 7.85,1.551 2.4,1.033 4.467,2.425 6.2,4.175 1.733,1.75 3.083,3.792 4.05,6.125 0.967,2.333 1.45,4.784 1.45,7.351 0,2.567 -0.483,5.017 -1.45,7.35 -0.967,2.334 -2.316,4.375 -4.05,6.125 -1.734,1.75 -3.8,3.143 -6.2,4.176 -2.399,1.031 -5.033,1.549 -7.899,1.549 -2.9,0 -5.55,-0.533 -7.95,-1.6 -2.4,-1.067 -4.45,-2.475 -6.15,-4.225 -1.699,-1.75 -3.017,-3.75 -3.949,-6 -0.934,-2.25 -1.4,-4.559 -1.4,-6.926 0,-1.232 0.1,-2.516 0.3,-3.85 0.197,-1.334 0.58,-2.684 1.148,-4.051 z m 8,7.35 c 0,1.434 0.232,2.809 0.7,4.125 0.466,1.317 1.141,2.483 2.024,3.5 0.883,1.017 1.95,1.833 3.2,2.45 1.25,0.617 2.675,0.925 4.275,0.925 1.666,0 3.125,-0.341 4.375,-1.024 1.25,-0.683 2.282,-1.559 3.1,-2.625 0.816,-1.066 1.433,-2.233 1.85,-3.5 0.417,-1.268 0.625,-2.5 0.625,-3.701 0,-1.199 -0.208,-2.441 -0.625,-3.725 -0.417,-1.284 -1.033,-2.467 -1.85,-3.55 -0.817,-1.083 -1.858,-1.966 -3.125,-2.649 -1.268,-0.684 -2.75,-1.025 -4.45,-1.025 -1.634,0 -3.083,0.316 -4.35,0.949 -1.268,0.635 -2.325,1.468 -3.175,2.5 -0.851,1.034 -1.492,2.193 -1.926,3.476 -0.433,1.283 -0.648,2.574 -0.648,3.874 z"
   id="path272" />
	<path
   d="m 1383.9,1431.7 h 8.149 l 14.3,23.25 0.1,-0.101 -0.399,-23.149 h 9.05 v 37 h -8.199 l -14.101,-22.5 -0.101,0.049 0.25,22.451 h -9.049 z"
   id="path274" />
	<path
   d="m 1421.4,1431.7 h 12.25 c 1.033,0 2.241,0.033 3.625,0.1 1.383,0.066 2.816,0.316 4.3,0.75 1.484,0.434 2.958,1.117 4.425,2.05 1.467,0.934 2.801,2.267 4,4 1.267,1.767 2.15,3.617 2.65,5.55 0.5,1.934 0.75,3.918 0.75,5.95 0,2.534 -0.334,4.925 -1,7.175 -0.668,2.25 -1.75,4.225 -3.25,5.926 -1.5,1.699 -3.467,3.041 -5.9,4.025 -2.434,0.982 -5.4,1.475 -8.9,1.475 h -12.949 V 1431.7 Z m 9.449,28.699 h 4.051 c 1.766,0 3.232,-0.283 4.4,-0.85 1.166,-0.566 2.091,-1.316 2.774,-2.25 0.683,-0.934 1.167,-2.017 1.45,-3.25 0.283,-1.232 0.425,-2.5 0.425,-3.801 0,-1.066 -0.134,-2.207 -0.399,-3.424 -0.268,-1.217 -0.734,-2.358 -1.4,-3.426 -0.268,-0.4 -0.6,-0.808 -1,-1.225 -0.4,-0.416 -0.884,-0.783 -1.45,-1.1 -0.567,-0.316 -1.242,-0.576 -2.024,-0.775 -0.784,-0.2 -1.693,-0.301 -2.726,-0.301 h -4.101 z"
   id="path276" />
	<path
   d="m 1459,1431.7 h 11.699 c 1.633,0 3.033,0.049 4.2,0.149 1.167,0.1 2.183,0.259 3.05,0.476 0.867,0.217 1.625,0.492 2.275,0.824 0.65,0.334 1.275,0.734 1.875,1.2 1.533,1.2 2.675,2.708 3.425,4.524 0.75,1.818 1.125,3.676 1.125,5.576 0,1.066 -0.149,2.217 -0.45,3.449 -0.3,1.234 -0.809,2.408 -1.525,3.525 -0.716,1.117 -1.666,2.1 -2.85,2.949 -1.184,0.851 -2.643,1.426 -4.375,1.726 l 10.051,12.601 h -10.801 l -8.55,-11.951 h -0.101 v 11.951 h -9.049 V 1431.7 Z m 9.048,18.599 h 3.351 c 1.399,0 2.508,-0.191 3.325,-0.575 0.816,-0.383 1.433,-0.851 1.85,-1.399 0.416,-0.551 0.691,-1.125 0.825,-1.726 0.133,-0.601 0.2,-1.133 0.2,-1.601 0,-1.699 -0.559,-2.957 -1.676,-3.774 -1.117,-0.816 -2.592,-1.226 -4.424,-1.226 h -3.451 z"
   id="path278" />
	<path
   d="m 1491.6,1431.7 h 9.45 v 37 h -9.45 z"
   id="path280" />
	<path
   d="m 1517,1463.3 -1.95,5.351 h -10.149 l 14.85,-37 h 7.449 l 14.701,37 h -10.25 l -1.801,-5.351 z m 2.599,-7.5 h 7.75 l -3.8,-12.649 h -0.15 z"
   id="path282" />
</g>
<path
   d="m 979.89,2125 c 37.501,-40.947 52.666,-50.719 83.333,-49.352"
   fill="none"
   stroke="#0072bc"
   stroke-width="10"
   id="path286" />
<path
   d="M 959.51,576 C 889.51,492 652.57,538 652.57,430"
   fill="none"
   stroke="#0072bc"
   stroke-width="10"
   id="path288" />






</g></svg>
