<?xml version="1.0" encoding="utf-8"?>
<!-- Generator: Adobe Illustrator 16.0.0, SVG Export Plug-In . SVG Version: 6.00 Build 0)  -->
<!DOCTYPE svg PUBLIC "-//W3C//DTD SVG 1.1//EN" "http://www.w3.org/Graphics/SVG/1.1/DTD/svg11.dtd">
<svg version="1.1" id="Layer_1" xmlns="http://www.w3.org/2000/svg" xmlns:xlink="http://www.w3.org/1999/xlink" x="0px" y="0px"
	 width="1930px" height="674.072px" viewBox="0 0 1930 674.072" enable-background="new 0 0 1930 674.072" xml:space="preserve">
<circle fill="#39B54A" stroke="#464646" stroke-width="10" stroke-miterlimit="10" cx="224" cy="346.998" r="166"/>
<g>
	<path d="M102.001,557.856c0.5-1.2,1.232-2.482,2.2-3.85c0.966-1.366,2.191-2.642,3.675-3.825c1.482-1.183,3.232-2.158,5.25-2.925
		c2.016-0.767,4.325-1.15,6.925-1.15c2.833,0,5.45,0.518,7.85,1.55c2.4,1.034,4.466,2.426,6.2,4.176
		c1.733,1.75,3.083,3.792,4.05,6.125c0.966,2.333,1.45,4.783,1.45,7.35c0,2.567-0.483,5.018-1.45,7.35
		c-0.967,2.334-2.317,4.375-4.05,6.125c-1.733,1.75-3.8,3.143-6.2,4.176c-2.4,1.032-5.034,1.55-7.9,1.55
		c-2.9,0-5.55-0.534-7.95-1.601s-4.45-2.475-6.15-4.225c-1.7-1.75-3.017-3.75-3.95-6c-0.934-2.25-1.4-4.558-1.4-6.925
		c0-1.233,0.1-2.517,0.3-3.851C101.051,560.574,101.434,559.224,102.001,557.856z M110.001,565.207c0,1.434,0.232,2.809,0.7,4.125
		c0.466,1.316,1.142,2.483,2.025,3.5c0.883,1.017,1.95,1.833,3.2,2.449c1.25,0.617,2.675,0.926,4.275,0.926
		c1.667,0,3.125-0.342,4.375-1.025c1.25-0.683,2.283-1.558,3.1-2.625c0.816-1.066,1.433-2.232,1.85-3.5
		c0.417-1.267,0.625-2.5,0.625-3.7s-0.208-2.441-0.625-3.725c-0.417-1.283-1.034-2.467-1.85-3.55
		c-0.817-1.083-1.858-1.967-3.125-2.65c-1.267-0.683-2.75-1.025-4.45-1.025c-1.633,0-3.083,0.317-4.35,0.95
		c-1.268,0.634-2.325,1.468-3.175,2.5c-0.85,1.034-1.492,2.192-1.925,3.476C110.217,562.615,110.001,563.906,110.001,565.207z"/>
	<path d="M144.701,546.807h11.7c1.633,0,3.033,0.05,4.2,0.15c1.167,0.1,2.183,0.258,3.05,0.475c0.867,0.217,1.625,0.492,2.275,0.825
		c0.65,0.333,1.275,0.733,1.875,1.2c1.533,1.199,2.675,2.708,3.425,4.524c0.75,1.817,1.125,3.675,1.125,5.575
		c0,1.067-0.15,2.217-0.45,3.45c-0.3,1.233-0.809,2.408-1.525,3.524c-0.717,1.117-1.667,2.101-2.85,2.95
		c-1.184,0.851-2.642,1.425-4.375,1.726l10.05,12.6h-10.8l-8.55-11.95h-0.1v11.95h-9.05V546.807z M153.75,565.406h3.35
		c1.4,0,2.508-0.191,3.325-0.574c0.816-0.383,1.433-0.851,1.85-1.4c0.417-0.55,0.691-1.125,0.825-1.725
		c0.133-0.601,0.2-1.133,0.2-1.601c0-1.7-0.559-2.958-1.675-3.774c-1.117-0.816-2.592-1.226-4.425-1.226h-3.45V565.406z"/>
	<path d="M177.351,546.807h9.45v37h-9.45V546.807z"/>
	<path d="M231.25,562.757c0.033,0.333,0.05,0.649,0.05,0.95c0,0.3,0,0.633,0,1c0,3.1-0.55,5.875-1.65,8.324
		c-1.1,2.45-2.559,4.534-4.375,6.25c-1.817,1.718-3.917,3.025-6.3,3.926c-2.384,0.899-4.859,1.35-7.425,1.35
		c-2.8,0-5.4-0.509-7.8-1.525c-2.4-1.016-4.475-2.407-6.225-4.175c-1.75-1.767-3.125-3.825-4.125-6.175s-1.5-4.857-1.5-7.525
		c0-2.766,0.517-5.316,1.55-7.649s2.45-4.342,4.25-6.025c1.8-1.683,3.9-3,6.3-3.95c2.4-0.949,4.966-1.425,7.7-1.425
		c2.2,0,4.308,0.351,6.325,1.05c2.017,0.7,3.841,1.643,5.475,2.825c1.633,1.184,3.033,2.567,4.2,4.15c1.167,1.583,2,3.274,2.5,5.075
		h-10.6c-0.734-1.301-1.775-2.426-3.125-3.375c-1.35-0.95-3.025-1.426-5.025-1.426c-1.167,0-2.35,0.218-3.55,0.65
		c-1.2,0.434-2.284,1.092-3.25,1.975c-0.967,0.884-1.759,2-2.375,3.351c-0.617,1.35-0.925,2.942-0.925,4.774
		c0,1.934,0.308,3.601,0.925,5c0.616,1.4,1.417,2.551,2.4,3.45c0.983,0.9,2.075,1.567,3.275,2c1.2,0.434,2.383,0.65,3.55,0.65
		c2.366,0,4.308-0.542,5.825-1.625c1.517-1.083,2.525-2.525,3.025-4.325H209.3v-7.55H231.25z"/>
	<path d="M236.2,546.807h9.45v37h-9.45V546.807z"/>
	<path d="M252.35,546.807h8.15l14.3,23.25l0.1-0.1l-0.4-23.15h9.05v37h-8.2l-14.1-22.5l-0.1,0.05l0.25,22.45h-9.05V546.807z"/>
	<path d="M299.499,578.457l-1.95,5.35h-10.15l14.85-37h7.45l14.7,37h-10.25l-1.8-5.35H299.499z M302.099,570.957h7.75l-3.8-12.65
		h-0.05h-0.1L302.099,570.957z"/>
	<path d="M328.449,546.807h9.45v28.7h10.95v8.3h-20.4V546.807z"/>
	<path d="M65.526,606.807h12.1c1.7,0,3.158,0.067,4.375,0.2c1.216,0.134,2.266,0.317,3.15,0.55c0.883,0.233,1.625,0.518,2.225,0.85
		c0.6,0.334,1.15,0.7,1.65,1.101c1.466,1.2,2.558,2.658,3.275,4.375c0.716,1.717,1.075,3.524,1.075,5.425
		c0,0.934-0.092,1.875-0.275,2.825c-0.184,0.95-0.45,1.85-0.8,2.7c-0.35,0.85-0.759,1.633-1.225,2.35
		c-0.467,0.717-1,1.325-1.6,1.825c-0.633,0.533-1.283,1-1.95,1.399c-0.667,0.4-1.417,0.734-2.25,1
		c-0.833,0.268-1.784,0.468-2.85,0.601c-1.067,0.134-2.317,0.2-3.75,0.2h-4.1v11.6h-9.05V606.807z M74.576,623.906h3.85
		c0.433,0,0.991-0.024,1.675-0.074c0.683-0.051,1.333-0.208,1.95-0.476c0.616-0.267,1.15-0.708,1.6-1.325
		c0.45-0.616,0.675-1.475,0.675-2.574c0-1.101-0.233-1.941-0.7-2.525c-0.467-0.583-1.025-1.008-1.675-1.275
		c-0.65-0.266-1.333-0.425-2.05-0.475c-0.717-0.05-1.325-0.075-1.825-0.075h-3.5V623.906z"/>
	<path d="M97.176,617.856c0.5-1.2,1.232-2.482,2.2-3.85c0.966-1.366,2.191-2.642,3.675-3.825c1.482-1.183,3.232-2.158,5.25-2.925
		c2.016-0.767,4.325-1.15,6.925-1.15c2.833,0,5.45,0.518,7.85,1.55c2.4,1.034,4.466,2.426,6.2,4.176
		c1.733,1.75,3.083,3.792,4.05,6.125c0.966,2.333,1.45,4.783,1.45,7.35c0,2.567-0.483,5.018-1.45,7.35
		c-0.967,2.334-2.317,4.375-4.05,6.125c-1.733,1.75-3.8,3.143-6.2,4.176c-2.4,1.032-5.034,1.55-7.9,1.55
		c-2.9,0-5.55-0.534-7.95-1.601s-4.45-2.475-6.15-4.225c-1.7-1.75-3.017-3.75-3.95-6c-0.934-2.25-1.4-4.558-1.4-6.925
		c0-1.233,0.1-2.517,0.3-3.851C96.226,620.574,96.608,619.224,97.176,617.856z M105.176,625.207c0,1.434,0.232,2.809,0.7,4.125
		c0.466,1.316,1.142,2.483,2.025,3.5c0.883,1.017,1.95,1.833,3.2,2.449c1.25,0.617,2.675,0.926,4.275,0.926
		c1.667,0,3.125-0.342,4.375-1.025c1.25-0.683,2.283-1.558,3.1-2.625c0.816-1.066,1.433-2.232,1.85-3.5
		c0.417-1.267,0.625-2.5,0.625-3.7s-0.208-2.441-0.625-3.725c-0.417-1.283-1.034-2.467-1.85-3.55
		c-0.817-1.083-1.858-1.967-3.125-2.65c-1.267-0.683-2.75-1.025-4.45-1.025c-1.633,0-3.083,0.317-4.35,0.95
		c-1.268,0.634-2.325,1.468-3.175,2.5c-0.85,1.034-1.492,2.192-1.925,3.476C105.392,622.615,105.176,623.906,105.176,625.207z"/>
	<path d="M139.875,606.807h12.1c1.7,0,3.158,0.067,4.375,0.2c1.216,0.134,2.266,0.317,3.15,0.55c0.883,0.233,1.625,0.518,2.225,0.85
		c0.6,0.334,1.15,0.7,1.65,1.101c1.466,1.2,2.558,2.658,3.275,4.375c0.716,1.717,1.075,3.524,1.075,5.425
		c0,0.934-0.092,1.875-0.275,2.825c-0.184,0.95-0.45,1.85-0.8,2.7c-0.35,0.85-0.759,1.633-1.225,2.35
		c-0.467,0.717-1,1.325-1.6,1.825c-0.633,0.533-1.283,1-1.95,1.399c-0.667,0.4-1.417,0.734-2.25,1
		c-0.833,0.268-1.784,0.468-2.85,0.601c-1.067,0.134-2.317,0.2-3.75,0.2h-4.1v11.6h-9.05V606.807z M148.925,623.906h3.85
		c0.433,0,0.991-0.024,1.675-0.074c0.683-0.051,1.333-0.208,1.95-0.476c0.616-0.267,1.15-0.708,1.6-1.325
		c0.45-0.616,0.675-1.475,0.675-2.574c0-1.101-0.233-1.941-0.7-2.525c-0.467-0.583-1.025-1.008-1.675-1.275
		c-0.65-0.266-1.333-0.425-2.05-0.475c-0.717-0.05-1.325-0.075-1.825-0.075h-3.5V623.906z"/>
	<path d="M181.025,606.807v22.35c0,0.634,0.033,1.359,0.1,2.176c0.066,0.816,0.25,1.583,0.55,2.3c0.3,0.717,0.775,1.325,1.425,1.825
		s1.558,0.75,2.725,0.75c1.167,0,2.066-0.226,2.7-0.676c0.633-0.449,1.1-1.024,1.4-1.725c0.3-0.7,0.475-1.467,0.525-2.3
		s0.075-1.616,0.075-2.351v-22.35h9.45v22.35c0,1.567-0.083,2.926-0.25,4.075c-0.167,1.15-0.409,2.159-0.725,3.025
		c-0.317,0.867-0.7,1.642-1.15,2.325c-0.45,0.684-0.975,1.324-1.575,1.925c-1.2,1.233-2.65,2.208-4.35,2.925
		c-1.7,0.717-3.7,1.075-6,1.075c-0.667,0-1.458-0.05-2.375-0.15c-0.917-0.1-1.859-0.292-2.825-0.575
		c-0.967-0.282-1.925-0.683-2.875-1.199c-0.95-0.517-1.809-1.191-2.575-2.025c-0.768-0.833-1.393-1.642-1.875-2.425
		c-0.484-0.783-0.859-1.608-1.125-2.476c-0.268-0.866-0.45-1.824-0.55-2.875c-0.1-1.05-0.15-2.258-0.15-3.625v-22.35H181.025z"/>
	<path d="M206.825,606.807h9.45v28.7h10.95v8.3h-20.4V606.807z"/>
	<path d="M240.125,638.457l-1.95,5.35h-10.15l14.85-37h7.45l14.7,37h-10.25l-1.8-5.35H240.125z M242.725,630.957h7.75l-3.8-12.65
		h-0.05h-0.1L242.725,630.957z"/>
	<path d="M272.025,615.106h-7.3v-8.3h24v8.3h-7.25v28.7h-9.45V615.106z"/>
	<path d="M292.525,606.807h9.45v37h-9.45V606.807z"/>
	<path d="M308.525,617.856c0.5-1.2,1.232-2.482,2.2-3.85c0.966-1.366,2.191-2.642,3.675-3.825c1.482-1.183,3.232-2.158,5.25-2.925
		c2.016-0.767,4.325-1.15,6.925-1.15c2.833,0,5.45,0.518,7.85,1.55c2.4,1.034,4.466,2.426,6.2,4.176
		c1.733,1.75,3.083,3.792,4.05,6.125c0.966,2.333,1.45,4.783,1.45,7.35c0,2.567-0.483,5.018-1.45,7.35
		c-0.967,2.334-2.317,4.375-4.05,6.125c-1.733,1.75-3.8,3.143-6.2,4.176c-2.4,1.032-5.034,1.55-7.9,1.55
		c-2.9,0-5.55-0.534-7.95-1.601s-4.45-2.475-6.15-4.225c-1.7-1.75-3.017-3.75-3.95-6c-0.934-2.25-1.4-4.558-1.4-6.925
		c0-1.233,0.1-2.517,0.3-3.851C307.575,620.574,307.958,619.224,308.525,617.856z M316.525,625.207c0,1.434,0.232,2.809,0.7,4.125
		c0.466,1.316,1.142,2.483,2.025,3.5c0.883,1.017,1.95,1.833,3.2,2.449c1.25,0.617,2.675,0.926,4.275,0.926
		c1.667,0,3.125-0.342,4.375-1.025c1.25-0.683,2.283-1.558,3.1-2.625c0.816-1.066,1.433-2.232,1.85-3.5
		c0.417-1.267,0.625-2.5,0.625-3.7s-0.208-2.441-0.625-3.725c-0.417-1.283-1.034-2.467-1.85-3.55
		c-0.817-1.083-1.858-1.967-3.125-2.65c-1.267-0.683-2.75-1.025-4.45-1.025c-1.633,0-3.083,0.317-4.35,0.95
		c-1.268,0.634-2.325,1.468-3.175,2.5c-0.85,1.034-1.492,2.192-1.925,3.476C316.741,622.615,316.525,623.906,316.525,625.207z"/>
	<path d="M351.225,606.807h8.15l14.3,23.25l0.1-0.1l-0.4-23.15h9.05v37h-8.2l-14.1-22.5l-0.1,0.05l0.25,22.45h-9.05V606.807z"/>
</g>
<path fill="#39B54A" stroke="#464646" stroke-width="10" stroke-miterlimit="10" d="M653,512.998c-91.68,0-166-74.32-166-166
	s74.32-166,166-166C653,311.091,653,411.586,653,512.998z"/>
<circle fill="#39B54A" stroke="#464646" stroke-width="10" stroke-miterlimit="10" cx="1556" cy="346.998" r="80.551"/>
<g>
	<path d="M565.026,562.756c0.033,0.334,0.05,0.65,0.05,0.95s0,0.634,0,1c0,3.101-0.55,5.875-1.65,8.325
		c-1.1,2.449-2.559,4.533-4.375,6.25c-1.817,1.717-3.917,3.025-6.3,3.926c-2.384,0.898-4.859,1.35-7.425,1.35
		c-2.8,0-5.4-0.51-7.8-1.525s-4.475-2.408-6.225-4.176c-1.75-1.766-3.125-3.824-4.125-6.174c-1-2.351-1.5-4.858-1.5-7.525
		c0-2.767,0.517-5.316,1.55-7.65c1.033-2.332,2.45-4.342,4.25-6.025c1.8-1.682,3.9-3,6.3-3.949c2.4-0.95,4.966-1.426,7.7-1.426
		c2.2,0,4.308,0.351,6.325,1.051c2.017,0.699,3.841,1.643,5.475,2.824c1.633,1.184,3.033,2.568,4.2,4.15
		c1.167,1.584,2,3.275,2.5,5.075h-10.6c-0.734-1.3-1.775-2.425-3.125-3.375c-1.35-0.95-3.025-1.425-5.025-1.425
		c-1.167,0-2.35,0.217-3.55,0.65s-2.284,1.092-3.25,1.975c-0.967,0.883-1.759,2-2.375,3.35c-0.617,1.35-0.925,2.942-0.925,4.775
		c0,1.934,0.308,3.6,0.925,5c0.616,1.4,1.417,2.55,2.4,3.449c0.983,0.9,2.075,1.568,3.275,2c1.2,0.434,2.383,0.65,3.55,0.65
		c2.366,0,4.308-0.541,5.825-1.625c1.517-1.082,2.525-2.525,3.025-4.324h-11.05v-7.551H565.026z"/>
	<path d="M569.976,546.807h20.55v8.299h-11.5v5.75h11.15v8.301h-11.15v6.35h11.5v8.301h-20.55V546.807z"/>
	<path d="M596.226,557.855c0.5-1.199,1.232-2.482,2.2-3.85c0.966-1.366,2.191-2.641,3.675-3.824c1.482-1.184,3.232-2.158,5.25-2.926
		c2.016-0.766,4.325-1.15,6.925-1.15c2.833,0,5.45,0.518,7.85,1.551s4.466,2.425,6.2,4.175c1.733,1.75,3.083,3.792,4.05,6.125
		c0.966,2.333,1.45,4.784,1.45,7.351s-0.483,5.017-1.45,7.35c-0.967,2.334-2.317,4.375-4.05,6.125c-1.733,1.75-3.8,3.143-6.2,4.176
		c-2.4,1.031-5.034,1.549-7.9,1.549c-2.9,0-5.55-0.533-7.95-1.6s-4.45-2.475-6.15-4.225c-1.7-1.75-3.017-3.75-3.95-6
		c-0.934-2.25-1.4-4.559-1.4-6.926c0-1.232,0.1-2.516,0.3-3.85C595.275,560.573,595.658,559.223,596.226,557.855z M604.226,565.206
		c0,1.434,0.232,2.809,0.7,4.125c0.466,1.317,1.142,2.483,2.025,3.5c0.883,1.017,1.95,1.833,3.2,2.45s2.675,0.925,4.275,0.925
		c1.667,0,3.125-0.341,4.375-1.024s2.283-1.559,3.1-2.625c0.816-1.066,1.433-2.233,1.85-3.5c0.417-1.268,0.625-2.5,0.625-3.701
		c0-1.199-0.208-2.441-0.625-3.725c-0.417-1.283-1.034-2.467-1.85-3.55c-0.817-1.083-1.858-1.966-3.125-2.649
		c-1.267-0.684-2.75-1.025-4.45-1.025c-1.633,0-3.083,0.316-4.35,0.949c-1.268,0.635-2.325,1.468-3.175,2.5
		c-0.85,1.034-1.492,2.193-1.925,3.476C604.442,562.615,604.226,563.906,604.226,565.206z"/>
	<path d="M676.675,562.756c0.033,0.334,0.05,0.65,0.05,0.95s0,0.634,0,1c0,3.101-0.55,5.875-1.65,8.325
		c-1.1,2.449-2.559,4.533-4.375,6.25c-1.817,1.717-3.917,3.025-6.3,3.926c-2.384,0.898-4.859,1.35-7.425,1.35
		c-2.8,0-5.4-0.51-7.8-1.525s-4.475-2.408-6.225-4.176c-1.75-1.766-3.125-3.824-4.125-6.174c-1-2.351-1.5-4.858-1.5-7.525
		c0-2.767,0.517-5.316,1.55-7.65c1.033-2.332,2.45-4.342,4.25-6.025c1.8-1.682,3.9-3,6.3-3.949c2.4-0.95,4.966-1.426,7.7-1.426
		c2.2,0,4.308,0.351,6.325,1.051c2.017,0.699,3.841,1.643,5.475,2.824c1.633,1.184,3.033,2.568,4.2,4.15
		c1.167,1.584,2,3.275,2.5,5.075h-10.6c-0.734-1.3-1.775-2.425-3.125-3.375c-1.35-0.95-3.025-1.425-5.025-1.425
		c-1.167,0-2.35,0.217-3.55,0.65s-2.284,1.092-3.25,1.975c-0.967,0.883-1.759,2-2.375,3.35c-0.617,1.35-0.925,2.942-0.925,4.775
		c0,1.934,0.308,3.6,0.925,5c0.616,1.4,1.417,2.55,2.4,3.449c0.983,0.9,2.075,1.568,3.275,2c1.2,0.434,2.383,0.65,3.55,0.65
		c2.366,0,4.308-0.541,5.825-1.625c1.517-1.082,2.525-2.525,3.025-4.324h-11.05v-7.551H676.675z"/>
	<path d="M681.625,546.807h11.7c1.633,0,3.033,0.049,4.2,0.149c1.167,0.101,2.183,0.259,3.05,0.476
		c0.867,0.217,1.625,0.492,2.275,0.824c0.65,0.334,1.275,0.734,1.875,1.2c1.533,1.2,2.675,2.708,3.425,4.524
		c0.75,1.818,1.125,3.676,1.125,5.576c0,1.066-0.15,2.217-0.45,3.449c-0.3,1.234-0.809,2.408-1.525,3.525
		c-0.717,1.117-1.667,2.1-2.85,2.949c-1.184,0.851-2.642,1.426-4.375,1.726l10.05,12.601h-10.8l-8.55-11.951h-0.1v11.951h-9.05
		V546.807z M690.674,565.406h3.35c1.4,0,2.508-0.191,3.325-0.575c0.816-0.383,1.433-0.851,1.85-1.399
		c0.417-0.551,0.691-1.125,0.825-1.726c0.133-0.601,0.2-1.133,0.2-1.601c0-1.699-0.559-2.957-1.675-3.774
		c-1.117-0.816-2.592-1.226-4.425-1.226h-3.45V565.406z"/>
	<path d="M723.474,578.456l-1.95,5.351h-10.15l14.85-37h7.45l14.7,37h-10.25l-1.8-5.351H723.474z M726.074,570.956h7.75l-3.8-12.649
		h-0.05h-0.1L726.074,570.956z"/>
	<path d="M752.174,546.807h12.1c1.7,0,3.158,0.066,4.375,0.199c1.216,0.134,2.266,0.317,3.15,0.551
		c0.883,0.232,1.625,0.517,2.225,0.85c0.6,0.334,1.15,0.699,1.65,1.1c1.466,1.2,2.558,2.658,3.275,4.375
		c0.716,1.717,1.075,3.525,1.075,5.426c0,0.934-0.092,1.875-0.275,2.824c-0.184,0.95-0.45,1.85-0.8,2.7s-0.759,1.634-1.225,2.351
		c-0.467,0.717-1,1.324-1.6,1.824c-0.633,0.533-1.283,1-1.95,1.4c-0.667,0.4-1.417,0.733-2.25,1c-0.833,0.268-1.784,0.467-2.85,0.6
		c-1.067,0.134-2.317,0.2-3.75,0.2h-4.1v11.601h-9.05V546.807z M761.224,563.906h3.85c0.433,0,0.991-0.025,1.675-0.075
		c0.683-0.05,1.333-0.208,1.95-0.476c0.616-0.266,1.15-0.707,1.6-1.324c0.45-0.617,0.675-1.475,0.675-2.575s-0.233-1.941-0.7-2.524
		c-0.467-0.584-1.025-1.008-1.675-1.275c-0.65-0.267-1.333-0.426-2.05-0.475c-0.717-0.051-1.325-0.076-1.825-0.076h-3.5V563.906z"/>
	<path d="M783.974,546.807h9.45v13.899h12.1v-13.899h9.45v37h-9.45v-14.801h-12.1v14.801h-9.45V546.807z"/>
	<path d="M821.674,546.807h9.449v37h-9.449V546.807z"/>
	<path d="M874.523,569.956c-0.533,2.2-1.393,4.192-2.575,5.976c-1.184,1.783-2.593,3.309-4.226,4.574
		c-1.633,1.268-3.467,2.25-5.5,2.951c-2.033,0.699-4.166,1.049-6.399,1.049c-2.899,0-5.55-0.533-7.95-1.6s-4.449-2.492-6.15-4.275
		c-1.699-1.783-3.024-3.832-3.975-6.15c-0.949-2.316-1.425-4.725-1.425-7.225c0-2.366,0.441-4.691,1.325-6.975
		c0.883-2.283,2.158-4.325,3.824-6.125c1.667-1.801,3.701-3.258,6.101-4.375s5.116-1.676,8.149-1.676c2.9,0,5.467,0.5,7.701,1.5
		c2.232,1,4.125,2.234,5.674,3.701c1.551,1.467,2.775,3.066,3.676,4.799c0.9,1.734,1.482,3.318,1.75,4.75h-9.9
		c-0.268-0.699-0.643-1.424-1.125-2.174c-0.483-0.75-1.092-1.441-1.824-2.076c-0.734-0.633-1.601-1.157-2.601-1.574
		c-1-0.416-2.134-0.625-3.399-0.625c-1.601,0-3.01,0.316-4.226,0.949c-1.218,0.635-2.25,1.459-3.101,2.476
		c-0.85,1.017-1.492,2.175-1.924,3.476c-0.434,1.299-0.65,2.6-0.65,3.899c0,1.399,0.232,2.759,0.699,4.075s1.125,2.492,1.976,3.525
		s1.892,1.857,3.125,2.475s2.616,0.925,4.149,0.925c1.467,0,2.733-0.267,3.801-0.8c1.066-0.533,1.949-1.15,2.65-1.85
		c0.699-0.701,1.24-1.393,1.625-2.076c0.383-0.682,0.657-1.191,0.824-1.524H874.523z"/>
	<path d="M598.225,606.807h11.4c1.566,0,2.933,0.049,4.1,0.15c1.167,0.1,2.216,0.273,3.15,0.523c0.933,0.25,1.767,0.617,2.5,1.102
		c0.733,0.482,1.433,1.092,2.1,1.824c0.833,0.867,1.408,1.834,1.725,2.9c0.316,1.066,0.475,2.133,0.475,3.199
		c0,1.434-0.342,2.818-1.025,4.15c-0.684,1.334-1.775,2.434-3.275,3.301c1.5,0.533,2.658,1.207,3.475,2.023
		c0.816,0.818,1.417,1.65,1.8,2.5c0.383,0.852,0.617,1.643,0.7,2.375c0.083,0.734,0.125,1.301,0.125,1.701
		c0,1.5-0.284,2.982-0.85,4.449c-0.567,1.467-1.417,2.668-2.55,3.6c-0.867,0.701-1.684,1.268-2.45,1.701
		c-0.767,0.434-1.608,0.758-2.525,0.975c-0.917,0.217-1.942,0.359-3.075,0.426c-1.133,0.066-2.483,0.1-4.05,0.1h-11.75V606.807z
		 M607.275,620.855h3.35c0.333,0,0.725-0.016,1.175-0.049c0.45-0.033,0.883-0.143,1.3-0.326c0.417-0.182,0.775-0.475,1.075-0.875
		c0.3-0.398,0.45-0.965,0.45-1.699c0-0.699-0.142-1.242-0.425-1.625c-0.284-0.383-0.625-0.658-1.025-0.824
		c-0.4-0.168-0.833-0.268-1.3-0.301c-0.467-0.033-0.884-0.051-1.25-0.051h-3.35V620.855z M607.275,635.506h4.45
		c0.3,0,0.716-0.016,1.25-0.049c0.533-0.033,1.05-0.168,1.55-0.4s0.941-0.584,1.325-1.051c0.383-0.467,0.575-1.15,0.575-2.049
		c0-0.801-0.175-1.418-0.525-1.852c-0.35-0.432-0.775-0.75-1.275-0.949s-1.017-0.316-1.55-0.35c-0.534-0.033-0.984-0.051-1.35-0.051
		h-4.45V635.506z"/>
	<path d="M639.275,638.457l-1.95,5.35h-10.15l14.85-37h7.45l14.7,37h-10.25l-1.8-5.35H639.275z M641.875,630.957h7.75l-3.8-12.65
		h-0.05h-0.1L641.875,630.957z"/>
	<path d="M667.975,606.807h11.7c1.633,0,3.033,0.049,4.2,0.15c1.167,0.1,2.183,0.258,3.05,0.475
		c0.867,0.217,1.625,0.492,2.275,0.824c0.65,0.334,1.275,0.734,1.875,1.201c1.533,1.199,2.675,2.707,3.425,4.523
		c0.75,1.818,1.125,3.676,1.125,5.576c0,1.066-0.15,2.217-0.45,3.449c-0.3,1.234-0.809,2.408-1.525,3.525
		c-0.717,1.117-1.667,2.1-2.85,2.949c-1.184,0.852-2.642,1.426-4.375,1.727l10.05,12.6h-10.8l-8.55-11.951h-0.1v11.951h-9.05
		V606.807z M677.025,625.406h3.35c1.4,0,2.508-0.191,3.325-0.574c0.816-0.383,1.433-0.852,1.85-1.4
		c0.417-0.551,0.691-1.125,0.825-1.725c0.133-0.602,0.2-1.133,0.2-1.602c0-1.699-0.559-2.957-1.675-3.773
		c-1.117-0.816-2.592-1.227-4.425-1.227h-3.45V625.406z"/>
	<path d="M700.625,606.807h11.7c1.633,0,3.033,0.049,4.2,0.15c1.167,0.1,2.183,0.258,3.05,0.475
		c0.867,0.217,1.625,0.492,2.275,0.824c0.65,0.334,1.275,0.734,1.875,1.201c1.533,1.199,2.675,2.707,3.425,4.523
		c0.75,1.818,1.125,3.676,1.125,5.576c0,1.066-0.15,2.217-0.45,3.449c-0.3,1.234-0.809,2.408-1.525,3.525
		c-0.717,1.117-1.667,2.1-2.85,2.949c-1.184,0.852-2.642,1.426-4.375,1.727l10.05,12.6h-10.8l-8.55-11.951h-0.1v11.951h-9.05
		V606.807z M709.675,625.406h3.35c1.4,0,2.508-0.191,3.325-0.574c0.816-0.383,1.433-0.852,1.85-1.4
		c0.417-0.551,0.691-1.125,0.825-1.725c0.133-0.602,0.2-1.133,0.2-1.602c0-1.699-0.559-2.957-1.675-3.773
		c-1.117-0.816-2.592-1.227-4.425-1.227h-3.45V625.406z"/>
	<path d="M733.275,606.807h9.45v37h-9.45V606.807z"/>
	<path d="M749.425,606.807h20.55v8.299h-11.5v5.75h11.15v8.301h-11.15v6.35h11.5v8.301h-20.55V606.807z"/>
	<path d="M775.825,606.807h11.7c1.633,0,3.033,0.049,4.2,0.15c1.167,0.1,2.183,0.258,3.05,0.475
		c0.867,0.217,1.625,0.492,2.275,0.824c0.65,0.334,1.275,0.734,1.875,1.201c1.533,1.199,2.675,2.707,3.425,4.523
		c0.75,1.818,1.125,3.676,1.125,5.576c0,1.066-0.15,2.217-0.45,3.449c-0.3,1.234-0.809,2.408-1.525,3.525
		c-0.717,1.117-1.667,2.1-2.85,2.949c-1.184,0.852-2.642,1.426-4.375,1.727l10.05,12.6h-10.8l-8.55-11.951h-0.1v11.951h-9.05
		V606.807z M784.875,625.406h3.35c1.4,0,2.508-0.191,3.325-0.574c0.816-0.383,1.433-0.852,1.85-1.4
		c0.417-0.551,0.691-1.125,0.825-1.725c0.133-0.602,0.2-1.133,0.2-1.602c0-1.699-0.559-2.957-1.675-3.773
		c-1.117-0.816-2.592-1.227-4.425-1.227h-3.45V625.406z"/>
</g>
<polygon points="1680.854,97.953 1601,51.853 1601,76.955 249.146,76.955 249.146,118.953 1601,118.953 1601,144.055 "/>
<g>
	<path fill="#FFFFFF" d="M261.273,89.716h-5.11v-5.81h16.8v5.81h-5.075v20.09h-6.615V89.716z"/>
	<path fill="#FFFFFF" d="M275.623,83.906h6.615v25.9h-6.615V83.906z"/>
	<path fill="#FFFFFF" d="M286.928,83.906h8.505l5.145,17.045h0.07l5.075-17.045h8.54v25.9h-6.09l0.21-19.39l-0.07-0.07l-5.53,19.46
		h-4.375l-5.53-19.46l-0.07,0.07l0.21,19.39h-6.09V83.906z"/>
	<path fill="#FFFFFF" d="M318.953,83.906h14.385v5.81h-8.05v4.025h7.805v5.81h-7.805v4.445h8.05v5.81h-14.385V83.906z"/>
</g>
<path fill="#39B54A" stroke="#464646" stroke-width="10" stroke-miterlimit="10" d="M736,180.998c91.68,0,166,74.32,166,166
	s-74.32,166-166,166C736,382.905,736,282.41,736,180.998z"/>
<path fill="#39B54A" stroke="#464646" stroke-width="10" stroke-miterlimit="10" d="M1147,512.996c-91.68,0-166-74.32-166-166
	s74.32-166,166-166C1147,311.089,1147,411.584,1147,512.996z"/>
<path fill="#0072BC" stroke="#464646" stroke-width="10" stroke-miterlimit="10" d="M1230,180.996c91.68,0,166,74.32,166,166
	s-74.32,166-166,166C1230,382.903,1230,282.408,1230,180.996z"/>
<circle fill="#0072BC" stroke="#464646" stroke-width="10" stroke-miterlimit="10" cx="1786" cy="346.998" r="80.551"/>
<g>
	<path d="M1537.426,557.605c-0.067-0.299-0.143-0.657-0.225-1.074c-0.084-0.416-0.242-0.816-0.476-1.2
		c-0.233-0.383-0.559-0.7-0.976-0.95c-0.416-0.25-0.992-0.375-1.725-0.375c-0.834,0-1.584,0.268-2.25,0.801
		c-0.667,0.533-1,1.232-1,2.1c0,0.566,0.083,1.033,0.25,1.4c0.166,0.367,0.525,0.742,1.075,1.125s1.325,0.816,2.325,1.299
		c1,0.484,2.332,1.093,4,1.826c1.732,0.767,3.158,1.549,4.275,2.35c1.115,0.8,2,1.633,2.649,2.5s1.101,1.775,1.351,2.725
		c0.25,0.95,0.375,1.959,0.375,3.025c0,1.367-0.218,2.725-0.65,4.074c-0.434,1.351-1.15,2.559-2.15,3.625
		c-1,1.068-2.324,1.943-3.975,2.625c-1.65,0.684-3.692,1.025-6.125,1.025c-2.668,0-4.867-0.393-6.6-1.174
		c-1.734-0.783-3.101-1.758-4.101-2.926c-1-1.166-1.692-2.434-2.075-3.801c-0.383-1.365-0.574-2.649-0.574-3.85v-1.199h9.399
		c0,1.066,0.142,1.934,0.425,2.6c0.283,0.667,0.633,1.184,1.051,1.55c0.416,0.367,0.841,0.608,1.274,0.726
		c0.433,0.117,0.8,0.174,1.101,0.174c1.133,0,2.016-0.375,2.649-1.125c0.633-0.75,0.95-1.557,0.95-2.424
		c0-0.601-0.109-1.117-0.325-1.551c-0.218-0.433-0.601-0.832-1.149-1.199c-0.551-0.367-1.293-0.758-2.226-1.176
		c-0.934-0.416-2.117-0.925-3.55-1.525c-0.668-0.266-1.509-0.641-2.525-1.125c-1.018-0.482-2.008-1.133-2.975-1.949
		s-1.801-1.842-2.5-3.075c-0.7-1.233-1.051-2.716-1.051-4.45c0-1.732,0.383-3.275,1.15-4.625c0.767-1.35,1.767-2.491,3-3.425
		c1.232-0.933,2.617-1.642,4.15-2.125s3.082-0.726,4.65-0.726c1.832,0,3.657,0.343,5.475,1.025c1.816,0.684,3.324,1.742,4.525,3.176
		c0.532,0.666,0.957,1.324,1.274,1.975c0.316,0.65,0.558,1.283,0.726,1.9c0.166,0.617,0.274,1.208,0.324,1.774
		c0.051,0.567,0.092,1.117,0.125,1.649H1537.426z"/>
	<path d="M1551.576,546.807h12.1c1.699,0,3.158,0.066,4.375,0.199c1.217,0.134,2.266,0.317,3.15,0.551
		c0.883,0.232,1.625,0.517,2.225,0.85c0.6,0.334,1.15,0.699,1.65,1.1c1.466,1.2,2.557,2.658,3.274,4.375
		c0.716,1.717,1.075,3.525,1.075,5.426c0,0.934-0.092,1.875-0.275,2.824c-0.184,0.95-0.449,1.85-0.8,2.7s-0.759,1.634-1.226,2.351
		s-1,1.324-1.6,1.824c-0.633,0.533-1.283,1-1.949,1.4c-0.668,0.4-1.418,0.733-2.25,1c-0.834,0.268-1.784,0.467-2.851,0.6
		c-1.067,0.134-2.317,0.2-3.75,0.2h-4.101v11.601h-9.049V546.807z M1560.625,563.906h3.851c0.433,0,0.991-0.025,1.675-0.075
		s1.333-0.208,1.95-0.476c0.616-0.266,1.149-0.707,1.601-1.324c0.449-0.617,0.674-1.475,0.674-2.575s-0.232-1.941-0.699-2.524
		c-0.467-0.584-1.025-1.008-1.676-1.275c-0.649-0.267-1.333-0.426-2.049-0.475c-0.718-0.051-1.326-0.076-1.826-0.076h-3.5V563.906z"
		/>
	<path d="M1583.375,546.807h20.55v8.299h-11.5v5.75h11.149v8.301h-11.149v6.35h11.5v8.301h-20.55V546.807z"/>
	<path d="M1646.475,569.956c-0.533,2.2-1.393,4.192-2.574,5.976c-1.184,1.783-2.593,3.309-4.226,4.574
		c-1.634,1.268-3.468,2.25-5.5,2.951c-2.034,0.699-4.167,1.049-6.399,1.049c-2.9,0-5.551-0.533-7.951-1.6
		c-2.399-1.066-4.449-2.492-6.149-4.275s-3.024-3.832-3.976-6.15c-0.949-2.316-1.424-4.725-1.424-7.225
		c0-2.366,0.441-4.691,1.324-6.975s2.158-4.325,3.825-6.125c1.667-1.801,3.7-3.258,6.101-4.375c2.399-1.117,5.115-1.676,8.149-1.676
		c2.899,0,5.466,0.5,7.7,1.5c2.232,1,4.125,2.234,5.675,3.701s2.774,3.066,3.675,4.799c0.9,1.734,1.482,3.318,1.75,4.75h-9.9
		c-0.267-0.699-0.642-1.424-1.125-2.174c-0.482-0.75-1.092-1.441-1.824-2.076c-0.734-0.633-1.6-1.157-2.6-1.574
		c-1-0.416-2.135-0.625-3.4-0.625c-1.6,0-3.009,0.316-4.225,0.949c-1.218,0.635-2.25,1.459-3.101,2.476s-1.492,2.175-1.925,3.476
		c-0.434,1.299-0.65,2.6-0.65,3.899c0,1.399,0.232,2.759,0.7,4.075c0.466,1.316,1.125,2.492,1.976,3.525
		c0.85,1.033,1.891,1.857,3.125,2.475c1.232,0.617,2.615,0.925,4.149,0.925c1.466,0,2.733-0.267,3.8-0.8s1.95-1.15,2.65-1.85
		c0.699-0.701,1.241-1.393,1.625-2.076c0.383-0.682,0.658-1.191,0.824-1.524H1646.475z"/>
	<path d="M1651.374,546.807h9.45v37h-9.45V546.807z"/>
	<path d="M1676.724,578.456l-1.95,5.351h-10.149l14.85-37h7.45l14.7,37h-10.25l-1.8-5.351H1676.724z M1679.324,570.956h7.75
		l-3.801-12.649h-0.05h-0.1L1679.324,570.956z"/>
	<path d="M1708.624,555.105h-7.3v-8.299h24v8.299h-7.25v28.701h-9.45V555.105z"/>
	<path d="M1729.124,546.807h9.45v37h-9.45V546.807z"/>
	<path d="M1745.124,557.855c0.5-1.199,1.232-2.482,2.2-3.85c0.966-1.366,2.191-2.641,3.675-3.824
		c1.482-1.184,3.232-2.158,5.25-2.926c2.017-0.766,4.325-1.15,6.925-1.15c2.833,0,5.45,0.518,7.85,1.551
		c2.4,1.033,4.467,2.425,6.2,4.175s3.083,3.792,4.05,6.125s1.45,4.784,1.45,7.351s-0.483,5.017-1.45,7.35
		c-0.967,2.334-2.316,4.375-4.05,6.125s-3.8,3.143-6.2,4.176c-2.399,1.031-5.033,1.549-7.899,1.549c-2.9,0-5.55-0.533-7.95-1.6
		s-4.45-2.475-6.15-4.225c-1.699-1.75-3.017-3.75-3.949-6c-0.934-2.25-1.4-4.559-1.4-6.926c0-1.232,0.1-2.516,0.3-3.85
		C1744.174,560.573,1744.557,559.223,1745.124,557.855z M1753.124,565.206c0,1.434,0.232,2.809,0.7,4.125
		c0.466,1.317,1.141,2.483,2.024,3.5c0.883,1.017,1.95,1.833,3.2,2.45s2.675,0.925,4.275,0.925c1.666,0,3.125-0.341,4.375-1.024
		s2.282-1.559,3.1-2.625c0.816-1.066,1.433-2.233,1.85-3.5c0.417-1.268,0.625-2.5,0.625-3.701c0-1.199-0.208-2.441-0.625-3.725
		s-1.033-2.467-1.85-3.55c-0.817-1.083-1.858-1.966-3.125-2.649c-1.268-0.684-2.75-1.025-4.45-1.025
		c-1.634,0-3.083,0.316-4.35,0.949c-1.268,0.635-2.325,1.468-3.175,2.5c-0.851,1.034-1.492,2.193-1.926,3.476
		C1753.34,562.615,1753.124,563.906,1753.124,565.206z"/>
	<path d="M1787.824,546.807h8.149l14.3,23.25l0.1-0.101l-0.399-23.149h9.05v37h-8.199l-14.101-22.5l-0.101,0.049l0.25,22.451h-9.049
		V546.807z"/>
</g>
<g>
	<path d="M1003.727,546.807h11.699c1.633,0,3.033,0.049,4.2,0.149s2.183,0.259,3.05,0.476s1.625,0.492,2.275,0.824
		c0.65,0.334,1.275,0.734,1.875,1.2c1.533,1.2,2.675,2.708,3.425,4.524c0.75,1.818,1.125,3.676,1.125,5.576
		c0,1.066-0.149,2.217-0.45,3.449c-0.3,1.234-0.809,2.408-1.525,3.525s-1.666,2.1-2.85,2.949c-1.184,0.851-2.643,1.426-4.375,1.726
		l10.051,12.601h-10.801l-8.55-11.951h-0.101v11.951h-9.049V546.807z M1012.775,565.406h3.351c1.399,0,2.508-0.191,3.325-0.575
		c0.816-0.383,1.433-0.851,1.85-1.399c0.416-0.551,0.691-1.125,0.825-1.726c0.133-0.601,0.2-1.133,0.2-1.601
		c0-1.699-0.559-2.957-1.676-3.774c-1.117-0.816-2.592-1.226-4.424-1.226h-3.451V565.406z"/>
	<path d="M1036.376,546.807h20.55v8.299h-11.5v5.75h11.15v8.301h-11.15v6.35h11.5v8.301h-20.55V546.807z"/>
	<path d="M1062.775,546.807h12.101c1.7,0,3.157,0.066,4.375,0.199c1.216,0.134,2.267,0.317,3.149,0.551
		c0.883,0.232,1.625,0.517,2.226,0.85c0.6,0.334,1.149,0.699,1.649,1.1c1.467,1.2,2.559,2.658,3.275,4.375s1.075,3.525,1.075,5.426
		c0,0.934-0.093,1.875-0.275,2.824c-0.184,0.95-0.45,1.85-0.8,2.7s-0.759,1.634-1.225,2.351c-0.468,0.717-1,1.324-1.601,1.824
		c-0.634,0.533-1.283,1-1.95,1.4s-1.417,0.733-2.25,1c-0.833,0.268-1.783,0.467-2.85,0.6c-1.067,0.134-2.317,0.2-3.75,0.2h-4.1
		v11.601h-9.051V546.807z M1071.826,563.906h3.85c0.433,0,0.991-0.025,1.675-0.075c0.683-0.05,1.333-0.208,1.95-0.476
		c0.616-0.266,1.15-0.707,1.6-1.324c0.45-0.617,0.676-1.475,0.676-2.575s-0.234-1.941-0.7-2.524
		c-0.468-0.584-1.025-1.008-1.675-1.275c-0.65-0.267-1.334-0.426-2.051-0.475c-0.717-0.051-1.324-0.076-1.824-0.076h-3.5V563.906z"
		/>
	<path d="M1094.575,546.807h11.7c1.633,0,3.033,0.049,4.199,0.149c1.167,0.101,2.184,0.259,3.051,0.476
		c0.866,0.217,1.625,0.492,2.275,0.824c0.649,0.334,1.274,0.734,1.875,1.2c1.532,1.2,2.674,2.708,3.424,4.524
		c0.75,1.818,1.125,3.676,1.125,5.576c0,1.066-0.149,2.217-0.449,3.449c-0.301,1.234-0.809,2.408-1.525,3.525s-1.667,2.1-2.85,2.949
		c-1.184,0.851-2.643,1.426-4.375,1.726l10.05,12.601h-10.8l-8.551-11.951h-0.1v11.951h-9.05V546.807z M1103.625,565.406h3.35
		c1.4,0,2.508-0.191,3.326-0.575c0.816-0.383,1.432-0.851,1.85-1.399c0.416-0.551,0.691-1.125,0.824-1.726s0.201-1.133,0.201-1.601
		c0-1.699-0.559-2.957-1.676-3.774c-1.117-0.816-2.592-1.226-4.425-1.226h-3.45V565.406z"/>
	<path d="M1127.075,557.855c0.5-1.199,1.232-2.482,2.2-3.85c0.966-1.366,2.191-2.641,3.675-3.824
		c1.482-1.184,3.232-2.158,5.25-2.926c2.017-0.766,4.325-1.15,6.925-1.15c2.833,0,5.45,0.518,7.85,1.551
		c2.4,1.033,4.467,2.425,6.2,4.175s3.083,3.792,4.05,6.125s1.45,4.784,1.45,7.351s-0.483,5.017-1.45,7.35
		c-0.967,2.334-2.316,4.375-4.05,6.125s-3.8,3.143-6.2,4.176c-2.399,1.031-5.033,1.549-7.899,1.549c-2.9,0-5.55-0.533-7.95-1.6
		s-4.45-2.475-6.15-4.225c-1.699-1.75-3.017-3.75-3.949-6c-0.934-2.25-1.4-4.559-1.4-6.926c0-1.232,0.1-2.516,0.3-3.85
		C1126.125,560.573,1126.508,559.223,1127.075,557.855z M1135.075,565.206c0,1.434,0.232,2.809,0.7,4.125
		c0.466,1.317,1.141,2.483,2.024,3.5c0.883,1.017,1.95,1.833,3.2,2.45s2.675,0.925,4.275,0.925c1.666,0,3.125-0.341,4.375-1.024
		s2.282-1.559,3.1-2.625c0.816-1.066,1.433-2.233,1.85-3.5c0.417-1.268,0.625-2.5,0.625-3.701c0-1.199-0.208-2.441-0.625-3.725
		s-1.033-2.467-1.85-3.55c-0.817-1.083-1.858-1.966-3.125-2.649c-1.268-0.684-2.75-1.025-4.45-1.025
		c-1.634,0-3.083,0.316-4.35,0.949c-1.268,0.635-2.325,1.468-3.175,2.5c-0.851,1.034-1.492,2.193-1.926,3.476
		C1135.291,562.615,1135.075,563.906,1135.075,565.206z"/>
	<path d="M1169.275,546.807h12.25c1.032,0,2.24,0.033,3.625,0.1c1.383,0.066,2.816,0.316,4.299,0.75
		c1.483,0.434,2.959,1.117,4.426,2.05c1.467,0.934,2.8,2.267,4,4c1.266,1.767,2.15,3.617,2.65,5.55c0.5,1.934,0.75,3.918,0.75,5.95
		c0,2.534-0.334,4.925-1,7.175c-0.668,2.25-1.75,4.225-3.25,5.926c-1.5,1.699-3.468,3.041-5.9,4.025
		c-2.434,0.982-5.4,1.475-8.9,1.475h-12.949V546.807z M1178.725,575.506h4.051c1.766,0,3.232-0.283,4.399-0.85
		s2.091-1.316,2.774-2.25s1.167-2.017,1.451-3.25c0.282-1.232,0.424-2.5,0.424-3.801c0-1.066-0.133-2.207-0.399-3.424
		s-0.733-2.358-1.399-3.426c-0.268-0.4-0.601-0.808-1-1.225c-0.4-0.416-0.885-0.783-1.451-1.1s-1.242-0.576-2.024-0.775
		c-0.784-0.2-1.692-0.301-2.726-0.301h-4.1V575.506z"/>
	<path d="M1216.225,546.807v22.35c0,0.633,0.033,1.358,0.1,2.175c0.066,0.817,0.25,1.583,0.551,2.3
		c0.299,0.717,0.774,1.325,1.424,1.825c0.65,0.5,1.559,0.75,2.726,0.75s2.066-0.226,2.7-0.675c0.633-0.45,1.1-1.025,1.4-1.725
		c0.299-0.701,0.475-1.467,0.524-2.301c0.05-0.832,0.075-1.616,0.075-2.35v-22.35h9.449v22.35c0,1.566-0.083,2.925-0.25,4.074
		c-0.166,1.15-0.408,2.159-0.725,3.025c-0.316,0.867-0.699,1.643-1.15,2.325c-0.449,0.684-0.975,1.325-1.574,1.925
		c-1.2,1.234-2.65,2.209-4.35,2.926c-1.701,0.717-3.701,1.074-6,1.074c-0.668,0-1.459-0.049-2.375-0.15
		c-0.918-0.1-1.859-0.291-2.826-0.574s-1.924-0.684-2.875-1.199c-0.949-0.518-1.809-1.191-2.574-2.025
		c-0.768-0.834-1.393-1.643-1.875-2.426c-0.484-0.783-0.859-1.607-1.125-2.475c-0.268-0.867-0.45-1.825-0.551-2.875
		c-0.1-1.051-0.149-2.258-0.149-3.625v-22.35H1216.225z"/>
	<path d="M1278.475,569.956c-0.533,2.2-1.393,4.192-2.575,5.976c-1.184,1.783-2.593,3.309-4.226,4.574
		c-1.633,1.268-3.467,2.25-5.5,2.951c-2.033,0.699-4.166,1.049-6.399,1.049c-2.899,0-5.55-0.533-7.95-1.6s-4.449-2.492-6.15-4.275
		c-1.699-1.783-3.024-3.832-3.975-6.15c-0.949-2.316-1.425-4.725-1.425-7.225c0-2.366,0.441-4.691,1.325-6.975
		c0.883-2.283,2.158-4.325,3.824-6.125c1.667-1.801,3.701-3.258,6.101-4.375s5.116-1.676,8.149-1.676c2.9,0,5.467,0.5,7.701,1.5
		c2.232,1,4.125,2.234,5.674,3.701c1.551,1.467,2.775,3.066,3.676,4.799c0.9,1.734,1.482,3.318,1.75,4.75h-9.9
		c-0.268-0.699-0.643-1.424-1.125-2.174c-0.483-0.75-1.092-1.441-1.824-2.076c-0.734-0.633-1.601-1.157-2.601-1.574
		c-1-0.416-2.134-0.625-3.399-0.625c-1.601,0-3.01,0.316-4.226,0.949c-1.218,0.635-2.25,1.459-3.101,2.476
		c-0.85,1.017-1.492,2.175-1.924,3.476c-0.434,1.299-0.65,2.6-0.65,3.899c0,1.399,0.232,2.759,0.699,4.075s1.125,2.492,1.976,3.525
		s1.892,1.857,3.125,2.475s2.616,0.925,4.149,0.925c1.467,0,2.733-0.267,3.801-0.8c1.066-0.533,1.949-1.15,2.65-1.85
		c0.699-0.701,1.24-1.393,1.625-2.076c0.383-0.682,0.657-1.191,0.824-1.524H1278.475z"/>
	<path d="M1287.823,555.105h-7.3v-8.299h24v8.299h-7.25v28.701h-9.45V555.105z"/>
	<path d="M1308.323,546.807h9.45v37h-9.45V546.807z"/>
	<path d="M1331.623,546.807l7.45,25.949h0.1l7.5-25.949h9.75l-12.399,37h-9.75l-12.351-37H1331.623z"/>
	<path d="M1360.572,546.807h20.55v8.299h-11.5v5.75h11.149v8.301h-11.149v6.35h11.5v8.301h-20.55V546.807z"/>
	<path d="M1060.375,606.807h9.45v37h-9.45V606.807z"/>
	<path d="M1091.025,617.605c-0.067-0.299-0.143-0.656-0.225-1.074c-0.084-0.416-0.242-0.816-0.476-1.199s-0.559-0.701-0.976-0.951
		c-0.416-0.25-0.992-0.375-1.725-0.375c-0.834,0-1.584,0.268-2.25,0.801c-0.667,0.533-1,1.232-1,2.1c0,0.566,0.083,1.033,0.25,1.4
		c0.166,0.367,0.525,0.742,1.075,1.125s1.325,0.816,2.325,1.299c1,0.484,2.332,1.094,4,1.826c1.732,0.768,3.158,1.549,4.275,2.35
		c1.115,0.801,2,1.633,2.649,2.5s1.101,1.775,1.351,2.725c0.25,0.951,0.375,1.959,0.375,3.025c0,1.367-0.218,2.725-0.65,4.074
		c-0.434,1.352-1.15,2.559-2.15,3.625c-1,1.068-2.324,1.943-3.975,2.625c-1.65,0.684-3.692,1.025-6.125,1.025
		c-2.668,0-4.867-0.393-6.6-1.174c-1.734-0.783-3.101-1.758-4.101-2.926c-1-1.166-1.692-2.434-2.075-3.801
		c-0.383-1.365-0.574-2.648-0.574-3.85v-1.199h9.399c0,1.066,0.142,1.934,0.425,2.6c0.283,0.668,0.633,1.184,1.051,1.551
		c0.416,0.367,0.841,0.607,1.274,0.725c0.433,0.117,0.8,0.174,1.101,0.174c1.133,0,2.016-0.375,2.649-1.125
		c0.633-0.75,0.95-1.557,0.95-2.424c0-0.6-0.109-1.117-0.325-1.551c-0.218-0.432-0.601-0.832-1.149-1.199
		c-0.551-0.367-1.293-0.758-2.226-1.176c-0.934-0.416-2.117-0.924-3.55-1.525c-0.668-0.266-1.509-0.641-2.525-1.125
		c-1.018-0.482-2.008-1.133-2.975-1.949s-1.801-1.842-2.5-3.074c-0.7-1.234-1.051-2.717-1.051-4.451c0-1.732,0.383-3.275,1.15-4.625
		c0.767-1.35,1.767-2.49,3-3.424c1.232-0.934,2.617-1.643,4.15-2.125c1.533-0.484,3.082-0.727,4.65-0.727
		c1.832,0,3.657,0.344,5.475,1.025c1.816,0.684,3.324,1.742,4.525,3.176c0.532,0.666,0.957,1.324,1.274,1.975
		c0.316,0.65,0.558,1.283,0.726,1.9c0.166,0.617,0.274,1.209,0.324,1.775c0.051,0.566,0.092,1.117,0.125,1.648H1091.025z"/>
	<path d="M1105.025,617.855c0.5-1.199,1.232-2.482,2.199-3.85c0.967-1.365,2.191-2.641,3.676-3.824
		c1.482-1.184,3.232-2.158,5.25-2.926c2.016-0.766,4.324-1.15,6.925-1.15c2.833,0,5.45,0.518,7.851,1.551
		c2.399,1.033,4.466,2.426,6.199,4.176c1.732,1.75,3.083,3.791,4.051,6.125c0.966,2.332,1.449,4.783,1.449,7.35
		s-0.483,5.018-1.449,7.35c-0.968,2.334-2.318,4.375-4.051,6.125c-1.733,1.75-3.8,3.143-6.199,4.176
		c-2.4,1.031-5.034,1.549-7.9,1.549c-2.9,0-5.551-0.533-7.95-1.6s-4.45-2.475-6.149-4.225c-1.701-1.75-3.018-3.75-3.951-6
		s-1.399-4.559-1.399-6.926c0-1.232,0.101-2.516,0.3-3.85C1104.075,620.574,1104.458,619.223,1105.025,617.855z M1113.025,625.207
		c0,1.434,0.232,2.809,0.699,4.125s1.143,2.482,2.025,3.5c0.883,1.016,1.95,1.832,3.2,2.449s2.675,0.926,4.274,0.926
		c1.667,0,3.125-0.342,4.375-1.025s2.283-1.559,3.101-2.625c0.816-1.066,1.433-2.232,1.851-3.5c0.416-1.268,0.625-2.5,0.625-3.701
		c0-1.199-0.209-2.441-0.625-3.725c-0.418-1.283-1.034-2.467-1.851-3.549c-0.817-1.084-1.858-1.967-3.125-2.65
		s-2.75-1.025-4.45-1.025c-1.633,0-3.084,0.316-4.35,0.949c-1.268,0.635-2.325,1.469-3.176,2.5c-0.85,1.035-1.492,2.193-1.924,3.477
		C1113.242,622.615,1113.025,623.906,1113.025,625.207z"/>
	<path d="M1147.975,606.807h9.45v28.699h10.95v8.301h-20.4V606.807z"/>
	<path d="M1181.275,638.457l-1.95,5.35h-10.149l14.85-37h7.449l14.701,37h-10.25l-1.801-5.35H1181.275z M1183.875,630.957h7.75
		l-3.8-12.65h-0.05h-0.1L1183.875,630.957z"/>
	<path d="M1213.176,615.105h-7.301v-8.299h24v8.299h-7.25v28.701h-9.449V615.105z"/>
	<path d="M1233.676,606.807h9.449v37h-9.449V606.807z"/>
	<path d="M1249.676,617.855c0.5-1.199,1.232-2.482,2.199-3.85c0.967-1.365,2.191-2.641,3.676-3.824
		c1.482-1.184,3.232-2.158,5.25-2.926c2.016-0.766,4.324-1.15,6.924-1.15c2.834,0,5.451,0.518,7.851,1.551s4.466,2.426,6.2,4.176
		c1.732,1.75,3.082,3.791,4.05,6.125c0.966,2.332,1.45,4.783,1.45,7.35s-0.484,5.018-1.45,7.35c-0.968,2.334-2.317,4.375-4.05,6.125
		c-1.734,1.75-3.801,3.143-6.2,4.176c-2.399,1.031-5.034,1.549-7.899,1.549c-2.9,0-5.551-0.533-7.951-1.6
		c-2.399-1.066-4.449-2.475-6.149-4.225s-3.017-3.75-3.95-6s-1.4-4.559-1.4-6.926c0-1.232,0.101-2.516,0.301-3.85
		C1248.725,620.574,1249.107,619.223,1249.676,617.855z M1257.676,625.207c0,1.434,0.232,2.809,0.699,4.125s1.142,2.482,2.025,3.5
		c0.883,1.016,1.949,1.832,3.199,2.449s2.676,0.926,4.275,0.926c1.666,0,3.125-0.342,4.375-1.025s2.283-1.559,3.1-2.625
		s1.434-2.232,1.851-3.5s0.625-2.5,0.625-3.701c0-1.199-0.208-2.441-0.625-3.725s-1.034-2.467-1.851-3.549
		c-0.816-1.084-1.857-1.967-3.125-2.65c-1.267-0.684-2.75-1.025-4.449-1.025c-1.634,0-3.084,0.316-4.35,0.949
		c-1.268,0.635-2.326,1.469-3.176,2.5c-0.85,1.035-1.492,2.193-1.925,3.477C1257.892,622.615,1257.676,623.906,1257.676,625.207z"/>
	<path d="M1292.375,606.807h8.15l14.299,23.25l0.101-0.1l-0.399-23.15h9.049v37h-8.199l-14.1-22.5l-0.101,0.049l0.25,22.451h-9.05
		V606.807z"/>
</g>
<line fill="none" stroke="#363636" stroke-width="15" stroke-miterlimit="10" x1="1189.334" y1="166.996" x2="1189.334" y2="526.995"/>
<line fill="none" stroke="#363636" stroke-width="15" stroke-miterlimit="10" x1="695.333" y1="166.996" x2="695.333" y2="526.995"/>
<g>
</g>
<g>
</g>
<g>
</g>
<g>
</g>
<g>
</g>
<g>
</g>
</svg>
