<?xml version="1.0"?>
<svg xmlns="http://www.w3.org/2000/svg" version="1.1" x="0px" y="0px" width="429" height="421">
<g fill="#000">
<path d="M100.07 118.55L100.45 119.36 103.51 119.36 100.07 116.87M154.92 118.74M154.23 119.35L154.92 118.74 154.34 117.69M118.81 51.4c0 -2.73 0.73 -4.87 2.2 -6.42c1.47 -1.55 3.36 -2.32 5.69 -2.32c1.52 0 2.89 0.36 4.11 1.09c1.22 0.73 2.15 1.74 2.79 3.04c0.64 1.3 0.96 2.77 0.96 4.42c0 1.67 -0.34 3.16 -1.01 4.48c-0.68 1.31 -1.63 2.31 -2.86 2.99c-1.23 0.68 -2.56 1.02 -4 1.02c-1.55 0 -2.94 -0.38 -4.15 -1.12c-1.22 -0.75 -2.15 -1.77 -2.77 -3.06C119.13 54.21 118.81 52.84 118.81 51.4zM121.06 51.43c0 1.98 0.53 3.55 1.6 4.69c1.06 1.15 2.4 1.71 4.02 1.71c1.64 0 2.99 -0.57 4.05 -1.73c1.06 -1.15 1.59 -2.79 1.59 -4.91c0 -1.34 -0.23 -2.51 -0.68 -3.51c-0.45 -1 -1.11 -1.77 -1.99 -2.32c-0.87 -0.55 -1.85 -0.83 -2.94 -0.83c-1.54 0 -2.87 0.53 -3.98 1.59C121.62 47.18 121.06 48.95 121.06 51.43zM132.56 193.4c0 -2.73 0.73 -4.87 2.2 -6.42c1.47 -1.55 3.36 -2.32 5.69 -2.32c1.52 0 2.89 0.36 4.11 1.09c1.22 0.73 2.15 1.74 2.79 3.04c0.64 1.3 0.96 2.77 0.96 4.42c0 1.67 -0.34 3.16 -1.01 4.48c-0.68 1.31 -1.63 2.31 -2.86 2.99c-1.23 0.68 -2.56 1.02 -4 1.02c-1.55 0 -2.94 -0.38 -4.15 -1.12c-1.22 -0.75 -2.15 -1.77 -2.77 -3.06C132.88 196.21 132.56 194.84 132.56 193.4zM134.81 193.43c0 1.98 0.53 3.55 1.6 4.69c1.06 1.15 2.4 1.71 4.02 1.71c1.64 0 2.99 -0.57 4.05 -1.73c1.06 -1.15 1.59 -2.79 1.59 -4.91c0 -1.34 -0.23 -2.51 -0.68 -3.51c-0.45 -1 -1.11 -1.77 -1.99 -2.32c-0.87 -0.55 -1.85 -0.83 -2.94 -0.83c-1.54 0 -2.87 0.53 -3.98 1.59C135.37 189.18 134.81 190.95 134.81 193.43zM143.81 155.4c0 -2.73 0.73 -4.87 2.2 -6.42c1.47 -1.55 3.36 -2.32 5.69 -2.32c1.52 0 2.89 0.36 4.11 1.09c1.22 0.73 2.15 1.74 2.79 3.04c0.64 1.3 0.96 2.77 0.96 4.42c0 1.67 -0.34 3.16 -1.01 4.48c-0.68 1.31 -1.63 2.31 -2.86 2.99c-1.23 0.68 -2.56 1.02 -4 1.02c-1.55 0 -2.94 -0.38 -4.15 -1.12c-1.22 -0.75 -2.15 -1.77 -2.77 -3.06C144.13 158.21 143.81 156.84 143.81 155.4zM146.06 155.43c0 1.98 0.53 3.55 1.6 4.69c1.06 1.15 2.4 1.71 4.02 1.71c1.64 0 2.99 -0.57 4.05 -1.73c1.06 -1.15 1.59 -2.79 1.59 -4.91c0 -1.34 -0.23 -2.51 -0.68 -3.51c-0.45 -1 -1.11 -1.77 -1.99 -2.32c-0.87 -0.55 -1.85 -0.82 -2.94 -0.82c-1.54 0 -2.87 0.53 -3.98 1.59C146.62 151.18 146.06 152.95 146.06 155.43zM152.31 368.15c0 -2.73 0.73 -4.87 2.2 -6.42c1.47 -1.55 3.36 -2.32 5.69 -2.32c1.52 0 2.89 0.36 4.11 1.09c1.22 0.73 2.15 1.74 2.79 3.04c0.64 1.3 0.96 2.77 0.96 4.42c0 1.67 -0.34 3.16 -1.01 4.48c-0.68 1.31 -1.63 2.31 -2.86 2.99c-1.23 0.68 -2.56 1.02 -4 1.02c-1.55 0 -2.94 -0.38 -4.15 -1.12c-1.22 -0.75 -2.15 -1.77 -2.77 -3.06C152.63 370.96 152.31 369.59 152.31 368.15zM154.56 368.18c0 1.98 0.53 3.55 1.6 4.69c1.06 1.15 2.4 1.71 4.02 1.71c1.64 0 2.99 -0.57 4.05 -1.73c1.06 -1.15 1.59 -2.79 1.59 -4.91c0 -1.34 -0.23 -2.51 -0.68 -3.51c-0.45 -1 -1.11 -1.77 -1.99 -2.32c-0.87 -0.55 -1.85 -0.83 -2.94 -0.83c-1.54 0 -2.87 0.53 -3.98 1.59C155.12 363.93 154.56 365.7 154.56 368.18zM162.44 163.42v-16.46h2.18v6.76h8.56v-6.76h2.18v16.46h-2.18v-7.76h-8.56v7.76L162.44 163.42L162.44 163.42zM169.26 35.17V18.7h7.3c1.47 0 2.58 0.15 3.35 0.44c0.77 0.3 1.37 0.81 1.83 1.56s0.69 1.57 0.69 2.48c0 1.17 -0.38 2.15 -1.14 2.95c-0.76 0.8 -1.92 1.31 -3.5 1.52c0.57 0.27 1.02 0.55 1.31 0.82c0.64 0.58 1.24 1.31 1.81 2.19l2.86 4.48h-2.74l-2.18 -3.42c-0.64 -0.99 -1.16 -1.75 -1.57 -2.27c-0.41 -0.52 -0.78 -0.89 -1.1 -1.1c-0.33 -0.21 -0.66 -0.35 -0.99 -0.44c-0.25 -0.06 -0.65 -0.08 -1.21 -0.08h-2.52v7.31L169.26 35.17L169.26 35.17zM171.44 25.97h4.69c1 0 1.77 -0.1 2.34 -0.31s0.99 -0.53 1.28 -0.98s0.44 -0.94 0.44 -1.48c0 -0.78 -0.28 -1.42 -0.85 -1.92c-0.56 -0.5 -1.46 -0.75 -2.68 -0.75h-5.21L171.44 25.97L171.44 25.97zM189.56 330.9c0 -2.73 0.73 -4.87 2.2 -6.42c1.47 -1.55 3.36 -2.32 5.69 -2.32c1.52 0 2.89 0.36 4.11 1.09c1.22 0.73 2.15 1.74 2.79 3.04c0.64 1.3 0.96 2.77 0.96 4.42c0 1.67 -0.34 3.16 -1.01 4.48c-0.68 1.31 -1.63 2.31 -2.86 2.99c-1.23 0.68 -2.56 1.02 -4 1.02c-1.55 0 -2.94 -0.38 -4.15 -1.12c-1.22 -0.75 -2.15 -1.77 -2.77 -3.06C189.88 333.71 189.56 332.34 189.56 330.9zM191.81 330.93c0 1.98 0.53 3.55 1.6 4.69c1.06 1.15 2.4 1.71 4.02 1.71c1.64 0 2.99 -0.57 4.05 -1.73c1.06 -1.15 1.59 -2.79 1.59 -4.91c0 -1.34 -0.23 -2.51 -0.68 -3.51c-0.45 -1 -1.11 -1.77 -1.99 -2.32c-0.87 -0.55 -1.85 -0.83 -2.94 -0.83c-1.54 0 -2.87 0.53 -3.98 1.59C192.37 326.68 191.81 328.45 191.81 330.93zM189.92 405.81c0 -2.73 0.73 -4.87 2.2 -6.42c1.47 -1.55 3.36 -2.32 5.69 -2.32c1.52 0 2.89 0.36 4.11 1.09c1.22 0.73 2.15 1.74 2.79 3.04s0.96 2.77 0.96 4.42c0 1.67 -0.34 3.16 -1.01 4.48c-0.68 1.31 -1.63 2.31 -2.86 2.99c-1.23 0.68 -2.57 1.02 -4 1.02c-1.55 0 -2.94 -0.38 -4.15 -1.12c-1.22 -0.75 -2.15 -1.77 -2.77 -3.07C190.23 408.62 189.92 407.25 189.92 405.81zM192.16 405.84c0 1.98 0.53 3.55 1.6 4.69c1.06 1.15 2.4 1.71 4.02 1.71c1.64 0 2.99 -0.58 4.05 -1.73c1.06 -1.15 1.59 -2.79 1.59 -4.91c0 -1.34 -0.23 -2.51 -0.68 -3.51c-0.45 -1 -1.12 -1.77 -1.99 -2.32c-0.87 -0.55 -1.85 -0.83 -2.94 -0.83c-1.54 0 -2.87 0.53 -3.98 1.59C192.72 401.6 192.16 403.37 192.16 405.84zM191.48 376.17v-16.46h6.21c1.1 0 1.93 0.06 2.51 0.16c0.81 0.14 1.48 0.39 2.03 0.77c0.55 0.38 0.98 0.91 1.32 1.59c0.33 0.68 0.5 1.43 0.5 2.24c0 1.4 -0.44 2.59 -1.34 3.56c-0.89 0.97 -2.5 1.45 -4.83 1.45h-4.22v6.69L191.48 376.17L191.48 376.17zM193.66 367.53h4.26c1.41 0 2.4 -0.26 3 -0.79c0.59 -0.52 0.89 -1.26 0.89 -2.21c0 -0.69 -0.17 -1.28 -0.52 -1.77c-0.35 -0.49 -0.81 -0.81 -1.38 -0.98c-0.37 -0.1 -1.05 -0.15 -2.03 -0.15h-4.21L193.66 367.53L193.66 367.53zM213.81 226.4c0 -2.73 0.73 -4.87 2.2 -6.42c1.47 -1.55 3.36 -2.32 5.69 -2.32c1.52 0 2.89 0.36 4.11 1.09c1.22 0.73 2.15 1.74 2.79 3.04c0.64 1.3 0.96 2.77 0.96 4.42c0 1.67 -0.34 3.16 -1.01 4.48c-0.68 1.31 -1.63 2.31 -2.86 2.99c-1.23 0.68 -2.57 1.02 -4 1.02c-1.55 0 -2.94 -0.38 -4.15 -1.12s-2.15 -1.77 -2.77 -3.06C214.13 229.21 213.81 227.84 213.81 226.4zM216.06 226.43c0 1.98 0.53 3.55 1.6 4.69c1.06 1.15 2.4 1.71 4.02 1.71c1.64 0 2.99 -0.57 4.05 -1.73c1.06 -1.15 1.59 -2.79 1.59 -4.91c0 -1.34 -0.23 -2.51 -0.68 -3.51c-0.45 -1 -1.11 -1.77 -1.98 -2.32c-0.87 -0.55 -1.85 -0.83 -2.94 -0.83c-1.54 0 -2.87 0.53 -3.98 1.59C216.62 222.18 216.06 223.95 216.06 226.43zM227.56 368.4c0 -2.73 0.73 -4.87 2.2 -6.42c1.47 -1.55 3.36 -2.32 5.69 -2.32c1.52 0 2.89 0.36 4.11 1.09c1.22 0.73 2.15 1.74 2.79 3.04c0.64 1.3 0.96 2.77 0.96 4.42c0 1.67 -0.34 3.16 -1.01 4.48c-0.68 1.31 -1.63 2.31 -2.86 2.99c-1.23 0.68 -2.57 1.02 -4 1.02c-1.55 0 -2.94 -0.38 -4.15 -1.12c-1.22 -0.75 -2.15 -1.77 -2.77 -3.06C227.88 371.21 227.56 369.84 227.56 368.4zM229.81 368.43c0 1.98 0.53 3.55 1.6 4.69c1.06 1.15 2.4 1.71 4.02 1.71c1.65 0 2.99 -0.57 4.05 -1.73c1.06 -1.15 1.59 -2.79 1.59 -4.91c0 -1.34 -0.23 -2.51 -0.68 -3.51c-0.45 -1 -1.11 -1.77 -1.99 -2.32c-0.87 -0.55 -1.85 -0.83 -2.94 -0.83c-1.54 0 -2.87 0.53 -3.98 1.59C230.37 364.18 229.81 365.95 229.81 368.43zM238.81 330.4c0 -2.73 0.73 -4.87 2.2 -6.42c1.47 -1.55 3.36 -2.32 5.69 -2.32c1.52 0 2.89 0.36 4.11 1.09c1.22 0.73 2.15 1.74 2.79 3.04c0.64 1.3 0.96 2.77 0.96 4.42c0 1.67 -0.34 3.16 -1.01 4.48c-0.68 1.31 -1.63 2.31 -2.86 2.99c-1.23 0.68 -2.57 1.02 -4 1.02c-1.55 0 -2.94 -0.38 -4.15 -1.12c-1.22 -0.75 -2.15 -1.77 -2.77 -3.06C239.13 333.21 238.81 331.84 238.81 330.4zM241.06 330.43c0 1.98 0.53 3.55 1.6 4.69c1.06 1.15 2.4 1.71 4.02 1.71c1.65 0 2.99 -0.57 4.05 -1.73c1.06 -1.15 1.59 -2.79 1.59 -4.91c0 -1.34 -0.23 -2.51 -0.68 -3.51c-0.45 -1 -1.11 -1.77 -1.99 -2.32c-0.87 -0.55 -1.85 -0.83 -2.94 -0.83c-1.54 0 -2.87 0.53 -3.98 1.59C241.62 326.18 241.06 327.95 241.06 330.43zM248.66 153.78v-14.32h1.94l7.52 11.24v-11.24h1.81v14.31h-1.94l-7.52 -11.25v11.25L248.66 153.78L248.66 153.78zM257.44 338.42v-16.46h2.18v6.76h8.56v-6.76h2.18v16.46h-2.18v-7.76h-8.56v7.76H257.44zM266.14 207.52v-14.31h1.94l7.52 11.24v-11.24h1.81v14.31h-1.94l-7.52 -11.25v11.25H266.14zM289.34 88.34c0 -2.73 0.73 -4.87 2.2 -6.42c1.47 -1.55 3.36 -2.32 5.69 -2.32c1.52 0 2.89 0.36 4.11 1.09c1.22 0.73 2.15 1.74 2.79 3.04c0.64 1.3 0.96 2.77 0.96 4.42c0 1.67 -0.34 3.16 -1.01 4.48c-0.68 1.31 -1.63 2.31 -2.86 2.99c-1.23 0.68 -2.56 1.02 -4 1.02c-1.55 0 -2.94 -0.38 -4.15 -1.12c-1.22 -0.75 -2.15 -1.77 -2.77 -3.06C289.65 91.15 289.34 89.78 289.34 88.34zM291.58 88.37c0 1.98 0.53 3.55 1.6 4.69c1.06 1.15 2.4 1.71 4.02 1.71c1.64 0 2.99 -0.57 4.05 -1.73c1.06 -1.15 1.59 -2.79 1.59 -4.91c0 -1.34 -0.23 -2.51 -0.68 -3.51c-0.45 -1 -1.11 -1.77 -1.99 -2.32c-0.87 -0.55 -1.85 -0.82 -2.94 -0.82c-1.54 0 -2.87 0.53 -3.98 1.59C292.14 84.12 291.58 85.89 291.58 88.37zM328.98 193.85v-14.31h1.94l7.52 11.24v-11.24h1.81v14.31h-1.94l-7.52 -11.25v11.25H328.98zM341.73 134.52v-14.32h1.94l7.52 11.24v-11.24h1.81v14.31h-1.94l-7.52 -11.25v11.25L341.73 134.52L341.73 134.52zM357.75 134.27v-14.32h1.9v5.88h7.44v-5.88h1.9v14.31h-1.9v-6.75h-7.44v6.75L357.75 134.27L357.75 134.27zM38.06 18.9c0 -2.73 0.73 -4.87 2.2 -6.42c1.47 -1.55 3.36 -2.32 5.68 -2.32c1.52 0 2.89 0.36 4.11 1.09c1.22 0.73 2.15 1.74 2.79 3.04c0.64 1.3 0.96 2.77 0.96 4.42c0 1.67 -0.34 3.16 -1.01 4.48c-0.68 1.31 -1.63 2.31 -2.86 2.99c-1.23 0.68 -2.56 1.02 -4 1.02c-1.55 0 -2.94 -0.38 -4.15 -1.12c-1.22 -0.75 -2.15 -1.77 -2.77 -3.06C38.38 21.71 38.06 20.34 38.06 18.9zM40.31 18.93c0 1.98 0.53 3.55 1.6 4.69c1.06 1.15 2.4 1.71 4.02 1.71c1.64 0 2.99 -0.57 4.05 -1.73c1.06 -1.15 1.59 -2.79 1.59 -4.91c0 -1.34 -0.23 -2.51 -0.68 -3.51c-0.45 -1 -1.11 -1.77 -1.99 -2.32c-0.87 -0.55 -1.85 -0.82 -2.94 -0.82c-1.54 0 -2.87 0.53 -3.98 1.59C40.87 14.68 40.31 16.45 40.31 18.93zM387.48 175.68v-14.31h1.94l7.52 11.24v-11.24h1.81v14.31h-1.94l-7.52 -11.25v11.25H387.48zM402 175.68v-14.31h1.9v5.88h7.44v-5.88h1.9v14.31h-1.9v-6.75h-7.44v6.75H402zM424.89 179.69v1.48h-8.27c-0.02 -0.37 0.05 -0.73 0.18 -1.06c0.21 -0.56 0.55 -1.12 1.01 -1.67c0.47 -0.55 1.14 -1.18 2.01 -1.9c1.36 -1.11 2.28 -2 2.76 -2.65c0.48 -0.65 0.72 -1.27 0.72 -1.85c0 -0.6 -0.22 -1.12 -0.65 -1.54c-0.43 -0.42 -1 -0.63 -1.7 -0.63c-0.74 0 -1.33 0.23 -1.77 0.67c-0.44 0.44 -0.67 1.06 -0.68 1.85l-1.58 -0.16c0.1 -1.18 0.52 -2.08 1.22 -2.69s1.65 -0.93 2.85 -0.93c1.2 0 2.15 0.33 2.85 1c0.7 0.67 1.05 1.49 1.05 2.48c0 0.5 -0.1 0.99 -0.31 1.48c-0.2 0.48 -0.55 0.99 -1.02 1.52c-0.48 0.54 -1.27 1.27 -2.37 2.2c-0.92 0.77 -1.52 1.3 -1.77 1.57c-0.26 0.28 -0.48 0.56 -0.65 0.83h6.14v-0h-0.01v-0L424.89 179.69L424.89 179.69zM57.31 193.15c0 -2.73 0.73 -4.87 2.2 -6.42c1.47 -1.55 3.36 -2.32 5.69 -2.32c1.52 0 2.89 0.36 4.11 1.09c1.22 0.73 2.15 1.74 2.79 3.04c0.64 1.3 0.96 2.77 0.96 4.42c0 1.67 -0.34 3.16 -1.01 4.48c-0.68 1.31 -1.63 2.31 -2.86 2.99c-1.23 0.68 -2.56 1.02 -4 1.02c-1.55 0 -2.94 -0.38 -4.15 -1.12c-1.22 -0.75 -2.15 -1.77 -2.77 -3.06C57.63 195.96 57.31 194.59 57.31 193.15zM59.56 193.18c0 1.98 0.53 3.55 1.6 4.69c1.06 1.15 2.4 1.71 4.02 1.71c1.64 0 2.99 -0.57 4.05 -1.73c1.06 -1.15 1.59 -2.79 1.59 -4.91c0 -1.34 -0.23 -2.51 -0.68 -3.51c-0.45 -1 -1.11 -1.77 -1.99 -2.32c-0.87 -0.55 -1.85 -0.83 -2.94 -0.83c-1.54 0 -2.87 0.53 -3.98 1.59C60.12 188.93 59.56 190.7 59.56 193.18zM94.56 155.9c0 -2.73 0.73 -4.87 2.2 -6.42c1.47 -1.55 3.36 -2.32 5.69 -2.32c1.52 0 2.89 0.36 4.11 1.09c1.22 0.73 2.15 1.74 2.79 3.04c0.64 1.3 0.96 2.77 0.96 4.42c0 1.67 -0.34 3.16 -1.01 4.48c-0.68 1.31 -1.63 2.31 -2.86 2.99c-1.23 0.68 -2.56 1.02 -4 1.02c-1.55 0 -2.94 -0.38 -4.15 -1.12c-1.22 -0.75 -2.15 -1.77 -2.77 -3.06C94.88 158.71 94.56 157.34 94.56 155.9zM96.81 155.93c0 1.98 0.53 3.55 1.6 4.69c1.06 1.15 2.4 1.71 4.02 1.71c1.64 0 2.99 -0.57 4.05 -1.73c1.06 -1.15 1.59 -2.79 1.59 -4.91c0 -1.34 -0.23 -2.51 -0.68 -3.51c-0.45 -1 -1.11 -1.77 -1.99 -2.32c-0.87 -0.55 -1.85 -0.82 -2.94 -0.82c-1.54 0 -2.87 0.53 -3.98 1.59C97.37 151.68 96.81 153.45 96.81 155.93zM94.92 230.81c0 -2.73 0.73 -4.87 2.2 -6.42c1.47 -1.55 3.36 -2.32 5.69 -2.32c1.52 0 2.89 0.36 4.11 1.09c1.22 0.73 2.15 1.74 2.79 3.04c0.64 1.3 0.96 2.77 0.96 4.42c0 1.67 -0.34 3.16 -1.01 4.48c-0.68 1.31 -1.63 2.31 -2.86 2.99s-2.57 1.02 -4 1.02c-1.55 0 -2.94 -0.38 -4.15 -1.12c-1.22 -0.75 -2.15 -1.77 -2.77 -3.06C95.23 233.62 94.92 232.26 94.92 230.81zM97.16 230.84c0 1.98 0.53 3.55 1.6 4.69c1.06 1.15 2.4 1.71 4.02 1.71c1.64 0 2.99 -0.58 4.05 -1.73c1.06 -1.15 1.59 -2.79 1.59 -4.91c0 -1.34 -0.23 -2.51 -0.68 -3.51c-0.45 -1 -1.12 -1.77 -1.99 -2.32c-0.87 -0.55 -1.85 -0.83 -2.94 -0.83c-1.54 0 -2.87 0.53 -3.98 1.59C97.72 226.6 97.16 228.37 97.16 230.84zM96.48 201.17v-16.46h6.21c1.1 0 1.93 0.06 2.51 0.16c0.81 0.14 1.48 0.39 2.03 0.77c0.55 0.38 0.98 0.91 1.32 1.59c0.33 0.68 0.5 1.43 0.5 2.24c0 1.4 -0.44 2.59 -1.34 3.56c-0.89 0.97 -2.5 1.45 -4.83 1.45h-4.22v6.69L96.48 201.17L96.48 201.17zM98.66 192.53h4.26c1.41 0 2.4 -0.26 3 -0.79c0.59 -0.52 0.89 -1.26 0.89 -2.21c0 -0.69 -0.17 -1.27 -0.52 -1.77c-0.35 -0.49 -0.81 -0.81 -1.38 -0.98c-0.37 -0.1 -1.05 -0.15 -2.03 -0.15H98.66L98.66 192.53L98.66 192.53z"/>
<path stroke="#000" d="M173.94 250.1L199.88 290.17 197.35 291.65 195.31 292.85 173.02 250.64M176.78 75.73L154.72 118.07 152.18 116.6 150.13 115.42 175.86 75.2M271.77 250.73L249.72 293.07 247.18 291.6 245.13 290.42 270.86 250.2M78.94 75.1L104.88 115.17 102.35 116.65 100.31 117.85 78.02 75.64"/>
</g>
<path fill="#E22" d="M113.16 300.51L109.01 291.4 107.69 295.64 103.63 297.45M45.98 269.78L37.61 266.06 39.32 269.76 37.7 273.44"/>
<g fill="none" stroke="#000">
<path stroke-width="1.8" d="M261.45 192.45L242.95 179.2 249.45 159.45M264.45 145.95L289.45 145.95 300.2 178.45 282.95 191.7M289.79 145.2L313.29 119.7 336.12 124.36M255.79 161.2L251.12 176.2M300.2 178.45L324.12 184.53M351.79 140.37L358.45 160.03 381.79 165.37M358.45 160.03L344.45 176.37M351.12 159.37L339.12 172.37M304.95 173.03L296.62 147.37M197.35 340.85L197.35 357.18"/>
<path d="M109.45 221.03L117.12 221.03M204.45 396.03L212.12 396.03"/>
<path stroke-width="1.8" d="M102.7 118.07L102.7 144.32M151.83 118.45L151.83 144.7M102.79 166.37L102.79 182.7M75.45 189.37L94.29 189.37M75.45 195.2L94.29 195.2M111.45 192.28L130.29 192.28M102.95 203.78L102.95 220.12M151.62 198.2L174.18 212.37 173.69 249.87 211.45 229.7M231.7 229.7L271.2 249.7 271.2 213.45M16.45 18.2L35.33 18.2M56.62 23.2L79.18 37.37 78.69 74.86 116.45 54.7M136.7 54.7L176.2 74.7 176.2 38.45M170.45 364.37L189.29 364.37M170.45 370.2L189.29 370.2M206.45 367.28L225.28 367.28M197.95 378.78L197.95 395.12M197.7 293.07L197.7 319.32M246.83 293.45L246.83 319.7M245.1 372.14L264.85 383.89M304.08 95.93L316.77 120.11M298.92 98.64L311.04 121.75"/>
<path stroke-width="5" d="M100.45 116.87L154.23 116.87M195.45 291.87L249.83 291.87"/>
<path stroke-width="0.7" d="M265.55 393.32c0.51 0.34 0.87 0.81 1.03 1.33c0.08 0.26 0.11 0.53 0.09 0.8c-0.03 0.27 -0.12 0.55 -0.28 0.8c-0.17 0.25 -0.39 0.44 -0.62 0.57c-0.36 0.2 -0.77 0.28 -1.18 0.26c-0.41 -0.02 -0.84 -0.16 -1.23 -0.41l0.28 -0.44c0.46 0.3 0.98 0.41 1.42 0.35c0.22 -0.02 0.43 -0.09 0.59 -0.19c0.17 -0.1 0.3 -0.22 0.4 -0.37c0.1 -0.15 0.15 -0.32 0.17 -0.52c0.03 -0.29 -0.04 -0.62 -0.2 -0.93c-0.16 -0.31 -0.42 -0.61 -0.77 -0.83L265.55 393.32zM267.45 390.35c-0.52 -0.32 -1.1 -0.44 -1.64 -0.37c-0.27 0.03 -0.53 0.12 -0.76 0.26c-0.24 0.14 -0.45 0.34 -0.61 0.59c-0.15 0.26 -0.24 0.53 -0.26 0.81c-0.03 0.41 0.07 0.81 0.26 1.18c0.2 0.36 0.5 0.69 0.89 0.94l0.28 -0.44c-0.46 -0.29 -0.78 -0.72 -0.92 -1.14c-0.07 -0.21 -0.1 -0.42 -0.08 -0.62c0.02 -0.19 0.07 -0.36 0.17 -0.52c0.1 -0.15 0.23 -0.27 0.39 -0.38c0.25 -0.15 0.58 -0.23 0.93 -0.21c0.35 0.02 0.73 0.13 1.08 0.35L267.45 390.35zM269.36 387.37c0.51 0.34 0.86 0.81 1.03 1.33c0.08 0.26 0.11 0.53 0.09 0.8c-0.03 0.27 -0.12 0.55 -0.28 0.8c-0.17 0.25 -0.38 0.44 -0.62 0.57c-0.36 0.2 -0.77 0.28 -1.18 0.26c-0.41 -0.02 -0.84 -0.16 -1.23 -0.41l0.28 -0.44c0.46 0.3 0.98 0.41 1.42 0.35c0.22 -0.02 0.43 -0.09 0.59 -0.19s0.3 -0.22 0.4 -0.37v-0c0.1 -0.15 0.15 -0.32 0.18 -0.52c0.03 -0.29 -0.04 -0.62 -0.2 -0.93c-0.16 -0.31 -0.42 -0.61 -0.77 -0.83L269.36 387.37zM271.26 384.39c-0.52 -0.32 -1.1 -0.44 -1.64 -0.37c-0.27 0.04 -0.53 0.12 -0.76 0.26c-0.23 0.14 -0.45 0.34 -0.61 0.59c-0.15 0.26 -0.24 0.53 -0.26 0.81c-0.03 0.41 0.07 0.81 0.27 1.18c0.2 0.36 0.5 0.69 0.89 0.94l0.28 -0.44c-0.46 -0.29 -0.78 -0.72 -0.92 -1.14c-0.07 -0.21 -0.1 -0.42 -0.08 -0.62c0.02 -0.19 0.07 -0.36 0.17 -0.52V385.1c0.1 -0.15 0.23 -0.27 0.4 -0.38c0.25 -0.15 0.57 -0.23 0.93 -0.21c0.35 0.02 0.73 0.13 1.08 0.35L271.26 384.39zM273.16 381.41c0.51 0.34 0.87 0.81 1.03 1.33c0.08 0.26 0.11 0.53 0.08 0.8c-0.02 0.27 -0.11 0.55 -0.28 0.8c-0.16 0.25 -0.38 0.44 -0.62 0.57c-0.36 0.2 -0.77 0.28 -1.18 0.26c-0.42 -0.02 -0.84 -0.16 -1.23 -0.41l0.28 -0.44c0.46 0.3 0.98 0.41 1.42 0.35c0.22 -0.02 0.43 -0.09 0.59 -0.18c0.17 -0.1 0.3 -0.22 0.4 -0.37c0.1 -0.15 0.15 -0.32 0.18 -0.52c0.03 -0.29 -0.04 -0.62 -0.2 -0.93c-0.16 -0.31 -0.42 -0.61 -0.77 -0.83L273.16 381.41zM275.05 378.46c-0.52 -0.32 -1.1 -0.44 -1.64 -0.37c-0.27 0.04 -0.53 0.12 -0.76 0.26c-0.23 0.14 -0.45 0.34 -0.61 0.59c-0.15 0.26 -0.24 0.53 -0.26 0.81c-0.03 0.41 0.07 0.81 0.27 1.18c0.2 0.36 0.5 0.69 0.89 0.94l0.28 -0.45c-0.46 -0.29 -0.78 -0.71 -0.92 -1.14c-0.07 -0.21 -0.1 -0.43 -0.08 -0.62c0.02 -0.19 0.07 -0.37 0.16 -0.52v-0c0.1 -0.15 0.23 -0.28 0.39 -0.37c0.25 -0.15 0.57 -0.23 0.93 -0.21c0.35 0.02 0.73 0.13 1.08 0.35L275.05 378.46zM8.95 13.22c-0.61 0.01 -1.17 0.22 -1.58 0.56c-0.21 0.17 -0.38 0.39 -0.51 0.63C6.74 14.66 6.67 14.94 6.67 15.24v0.04c0.01 0.3 0.09 0.58 0.21 0.82c0.19 0.36 0.49 0.65 0.85 0.85c0.36 0.2 0.79 0.31 1.25 0.31v-0.53c-0.55 0 -1.04 -0.18 -1.39 -0.47c-0.17 -0.14 -0.31 -0.31 -0.4 -0.48c-0.09 -0.17 -0.14 -0.35 -0.14 -0.53v-0v-0.02c0 -0.18 0.04 -0.35 0.13 -0.53c0.13 -0.26 0.36 -0.5 0.67 -0.68c0.31 -0.18 0.69 -0.28 1.1 -0.29L8.95 13.22zM8.95 16.76c0.61 0.01 1.17 0.22 1.58 0.56c0.21 0.18 0.38 0.39 0.5 0.63c0.12 0.24 0.2 0.53 0.2 0.82v0.04v-0c-0.01 0.3 -0.09 0.58 -0.21 0.82c-0.19 0.36 -0.49 0.65 -0.85 0.85c-0.36 0.2 -0.79 0.31 -1.25 0.31V20.27c0.55 0 1.04 -0.19 1.39 -0.47c0.17 -0.14 0.31 -0.31 0.4 -0.48c0.09 -0.17 0.14 -0.35 0.14 -0.53v-0v-0.02c0 -0.18 -0.04 -0.35 -0.13 -0.53c-0.13 -0.26 -0.36 -0.5 -0.67 -0.68s-0.69 -0.28 -1.1 -0.29L8.95 16.76zM8.95 20.28c-0.61 0.01 -1.17 0.22 -1.58 0.57c-0.21 0.17 -0.38 0.39 -0.51 0.63c-0.12 0.24 -0.2 0.52 -0.2 0.82v0.04c0.01 0.3 0.09 0.58 0.21 0.82c0.19 0.36 0.49 0.65 0.85 0.85c0.36 0.2 0.79 0.31 1.25 0.31v-0.53c-0.55 0 -1.04 -0.18 -1.39 -0.47c-0.17 -0.14 -0.31 -0.31 -0.4 -0.48c-0.09 -0.17 -0.14 -0.35 -0.14 -0.53v-0v-0.02c0 -0.18 0.04 -0.35 0.13 -0.53c0.13 -0.26 0.36 -0.5 0.67 -0.68c0.31 -0.18 0.69 -0.28 1.1 -0.29L8.95 20.28zM8.95 23.82c0.61 0.01 1.17 0.22 1.58 0.56c0.21 0.18 0.38 0.39 0.5 0.63c0.12 0.24 0.2 0.52 0.2 0.82v0.04v-0c-0.01 0.3 -0.09 0.58 -0.21 0.82c-0.19 0.36 -0.49 0.65 -0.85 0.85c-0.36 0.2 -0.79 0.31 -1.25 0.31v-0.53c0.55 0 1.04 -0.18 1.39 -0.47c0.17 -0.14 0.31 -0.31 0.4 -0.48c0.09 -0.17 0.14 -0.35 0.14 -0.53V25.86v-0.02c0 -0.18 -0.04 -0.35 -0.13 -0.53c-0.13 -0.26 -0.36 -0.5 -0.67 -0.68c-0.31 -0.18 -0.69 -0.28 -1.1 -0.29L8.95 23.82zM8.95 6.18C8.34 6.19 7.79 6.4 7.37 6.75C7.16 6.92 6.99 7.13 6.87 7.37C6.74 7.62 6.67 7.9 6.67 8.2v0.04c0.01 0.3 0.09 0.58 0.21 0.82c0.19 0.36 0.49 0.65 0.85 0.85c0.36 0.2 0.79 0.31 1.25 0.31V9.69C8.44 9.69 7.95 9.51 7.6 9.23c-0.17 -0.14 -0.31 -0.31 -0.4 -0.48C7.11 8.57 7.06 8.4 7.06 8.22V8.2c0 -0.18 0.04 -0.35 0.13 -0.53c0.13 -0.26 0.36 -0.5 0.67 -0.68c0.31 -0.18 0.69 -0.28 1.1 -0.29L8.95 6.18zM8.95 9.68c0.61 0.01 1.17 0.22 1.58 0.56c0.21 0.18 0.38 0.39 0.5 0.63c0.12 0.24 0.2 0.52 0.2 0.82v0.04c-0.01 0.3 -0.09 0.58 -0.21 0.82c-0.19 0.36 -0.49 0.65 -0.85 0.85c-0.36 0.2 -0.79 0.31 -1.25 0.31v-0.53c0.55 0 1.04 -0.19 1.39 -0.47c0.17 -0.14 0.31 -0.31 0.4 -0.48c0.09 -0.17 0.14 -0.35 0.14 -0.53v-0.02c0 -0.18 -0.04 -0.35 -0.13 -0.53c-0.13 -0.26 -0.36 -0.5 -0.67 -0.68s-0.69 -0.28 -1.1 -0.29L8.95 9.68z"/>
<path stroke="#E22" stroke-width="1.8" d="M28.12 269.75L41.19 269.75M62.79 249.78L108.67 296.06"/>
</g>
<g font-family="Liberation Sans" font-size="20" fill="#E22">
<switch><text x="169" y="203" id="trsvg13"><tspan id="trsvg1">5'</tspan></text></switch>
<switch><text x="154" y="254" id="trsvg14"><tspan id="trsvg2">4'</tspan></text></switch>
<switch><text x="173" y="301" id="trsvg15"><tspan id="trsvg3">3'</tspan></text></switch>
<switch><text x="253" y="304" id="trsvg16"><tspan id="trsvg4">2'</tspan></text></switch>
<switch><text x="275" y="257" id="trsvg17"><tspan id="trsvg5">1'</tspan></text></switch>
<switch><text x="27" y="276" text-anchor="end" id="trsvg18"><tspan id="trsvg6">5'</tspan></text></switch>
<switch><text x="46" y="276" id="trsvg19"><tspan id="trsvg7">3'</tspan></text></switch>
<switch><text x="12" y="300" id="trsvg20-cs" systemLanguage="cs"><tspan id="trsvg8-cs">sm&#x11B;r</tspan></text><text x="12" y="300" id="trsvg20"><tspan id="trsvg8">směr</tspan></text></switch>
</g>
<g font-family="Liberation Sans" font-size="20" fill="#525294">
<switch><text x="260" y="36" id="trsvg21-cs" systemLanguage="cs"><tspan id="trsvg9-cs">b&#xE1;ze</tspan></text><text x="260" y="36" id="trsvg21"><tspan id="trsvg9">báze</tspan></text></switch>
<switch><text x="260" y="60" id="trsvg22-cs" systemLanguage="cs"><tspan id="trsvg10-cs">(zde: guanin)</tspan></text><text x="260" y="60" id="trsvg22"><tspan id="trsvg10">(zde: guanin)</tspan></text></switch>
<switch><text x="293" y="277" id="trsvg23-cs" systemLanguage="cs"><tspan id="trsvg11-cs">rib&#xF3;za</tspan></text><text x="293" y="277" id="trsvg23"><tspan id="trsvg11">ribóza</tspan></text></switch>
<switch><text x="140" y="374" text-anchor="end" id="trsvg24-cs" systemLanguage="cs"><tspan id="trsvg12-cs">fosf&#xE1;t</tspan></text><text x="140" y="374" text-anchor="end" id="trsvg24"><tspan id="trsvg12">fosfát</tspan></text></switch>
</g>
</svg>
