<?xml version="1.0" encoding="UTF-8" standalone="no"?>
<!-- Created with Inkscape (http://www.inkscape.org/) -->
<svg
   xmlns:dc="http://purl.org/dc/elements/1.1/"
   xmlns:cc="http://web.resource.org/cc/"
   xmlns:rdf="http://www.w3.org/1999/02/22-rdf-syntax-ns#"
   xmlns:svg="http://www.w3.org/2000/svg"
   xmlns="http://www.w3.org/2000/svg"
   xmlns:sodipodi="http://sodipodi.sourceforge.net/DTD/sodipodi-0.dtd"
   xmlns:inkscape="http://www.inkscape.org/namespaces/inkscape"
   version="1.0"
   width="720"
   height="700"
   id="svg2"
   sodipodi:version="0.32"
   inkscape:version="0.45"
   sodipodi:docname="Crick's_1958_central_dogma.svg"
   inkscape:output_extension="org.inkscape.output.svg.inkscape"
   sodipodi:docbase="/home/asereje/wikipedia"
   sodipodi:modified="true">
  <metadata
     id="metadata30">
    <rdf:RDF>
      <cc:Work
         rdf:about="">
        <dc:format>image/svg+xml</dc:format>
        <dc:type
           rdf:resource="http://purl.org/dc/dcmitype/StillImage" />
      </cc:Work>
    </rdf:RDF>
  </metadata>
  <sodipodi:namedview
     inkscape:window-height="590"
     inkscape:window-width="872"
     inkscape:pageshadow="2"
     inkscape:pageopacity="0.0"
     guidetolerance="10.0"
     gridtolerance="10.0"
     objecttolerance="10.0"
     borderopacity="1.0"
     bordercolor="#666666"
     pagecolor="#ffffff"
     id="base"
     inkscape:zoom="0.56285714"
     inkscape:cx="360"
     inkscape:cy="243.28426"
     inkscape:window-x="87"
     inkscape:window-y="23"
     inkscape:current-layer="svg2" />
  <defs
     id="defs4">
    <marker
       refX="0"
       refY="0"
       orient="auto"
       style="overflow:visible"
       id="TriangleOutM">
      <path
         d="M 5.77,0 L -2.88,5 L -2.88,-5 L 5.77,0 z "
         transform="scale(0.4,0.4)"
         style="fill-rule:evenodd;stroke:black;stroke-width:1pt;marker-start:none"
         id="path6394" />
    </marker>
    <marker
       refX="0"
       refY="0"
       orient="auto"
       style="overflow:visible"
       id="TriangleInM">
      <path
         d="M 5.77,0 L -2.88,5 L -2.88,-5 L 5.77,0 z "
         transform="scale(-0.4,-0.4)"
         style="fill-rule:evenodd;stroke:black;stroke-width:1pt;marker-start:none"
         id="path6403" />
    </marker>
    <marker
       refX="0"
       refY="0"
       orient="auto"
       style="overflow:visible"
       id="Arrow2Mstart">
      <path
         d="M 8.7185878,4.0337352 L -2.2072895,0.016013256 L 8.7185884,-4.0017078 C 6.97309,-1.6296469 6.9831476,1.6157441 8.7185878,4.0337352 z "
         transform="scale(0.6,0.6)"
         style="font-size:12px;fill-rule:evenodd;stroke-width:0.625;stroke-linejoin:round"
         id="path6471" />
    </marker>
    <marker
       refX="0"
       refY="0"
       orient="auto"
       style="overflow:visible"
       id="Arrow1Sstart">
      <path
         d="M 0,0 L 5,-5 L -12.5,0 L 5,5 L 0,0 z "
         transform="matrix(0.2,0,0,0.2,1.2,0)"
         style="fill-rule:evenodd;stroke:black;stroke-width:1pt;marker-start:none"
         id="path6483" />
    </marker>
    <marker
       refX="0"
       refY="0"
       orient="auto"
       style="overflow:visible"
       id="Arrow2Lstart">
      <path
         d="M 8.7185878,4.0337352 L -2.2072895,0.016013256 L 8.7185884,-4.0017078 C 6.97309,-1.6296469 6.9831476,1.6157441 8.7185878,4.0337352 z "
         transform="matrix(1.1,0,0,1.1,1.1,0)"
         style="font-size:12px;fill-rule:evenodd;stroke-width:0.625;stroke-linejoin:round"
         id="path6477" />
    </marker>
    <marker
       refX="0"
       refY="0"
       orient="auto"
       style="overflow:visible"
       id="Arrow2Mend">
      <path
         d="M 8.7185878,4.0337352 L -2.2072895,0.016013256 L 8.7185884,-4.0017078 C 6.97309,-1.6296469 6.9831476,1.6157441 8.7185878,4.0337352 z "
         transform="scale(-0.6,-0.6)"
         style="font-size:12px;fill-rule:evenodd;stroke-width:0.625;stroke-linejoin:round"
         id="path6468" />
    </marker>
  </defs>
  <g
     id="g2203">
    <path
       style="fill:#000000;fill-opacity:1;fill-rule:evenodd;stroke:none;stroke-width:10;stroke-linecap:butt;stroke-linejoin:miter;stroke-miterlimit:4;stroke-dasharray:30, 10;stroke-dashoffset:0;stroke-opacity:1"
       d="M 319.34375,285.96875 L 326.875,292.53125 L 346.625,269.9375 L 339.09375,263.34375 L 319.34375,285.96875 z M 293.03125,316.09375 L 300.5625,322.65625 L 320.3125,300.0625 L 312.78125,293.5 L 293.03125,316.09375 z M 266.71875,346.21875 L 274.25,352.78125 L 294,330.1875 L 286.46875,323.625 L 266.71875,346.21875 z M 240.40625,376.34375 L 247.9375,382.90625 L 267.6875,360.3125 L 260.15625,353.75 L 240.40625,376.34375 z M 214.09375,406.46875 L 221.625,413.03125 L 241.375,390.4375 L 233.84375,383.875 L 214.09375,406.46875 z M 187.78125,436.59375 L 195.3125,443.15625 L 215.0625,420.5625 L 207.53125,414 L 187.78125,436.59375 z M 161.46875,466.71875 L 169,473.28125 L 188.75,450.6875 L 181.21875,444.125 L 161.46875,466.71875 z M 141.9375,489.0625 L 149.46875,495.65625 L 162.4375,480.8125 L 154.90625,474.25 L 141.9375,489.0625 z "
       id="path4532" />
    <path
       id="path2209"
       style="fill-rule:evenodd;stroke:#000000;stroke-width:4pt;marker-start:none"
       d="M 358.03984,249.26481 L 350.34229,288.48097 L 320.21561,262.1678 L 358.03984,249.26481 z " />
  </g>
  <path
     transform="scale(0.864438,1.156821)"
     style="font-size:64.58097839px;font-style:normal;font-weight:normal;fill:#000000;fill-opacity:1;stroke:none;stroke-width:1px;stroke-linecap:butt;stroke-linejoin:miter;stroke-opacity:1;font-family:Bitstream Vera Sans"
     d="M 57.732388,455.41281 C 59.098817,455.87533 60.42323,456.86338 61.705631,458.37698 C 63.00899,459.89061 64.31238,461.97183 65.615808,464.62065 L 72.080212,477.48639 L 65.237404,477.48639 L 59.214471,465.40899 C 57.65878,462.25564 56.145165,460.1639 54.67362,459.13379 C 53.223047,458.10371 51.236427,457.58866 48.713755,457.58864 L 41.776345,457.58864 L 41.776345,477.48639 L 35.406541,477.48639 L 35.406541,430.4066 L 49.7859,430.4066 C 55.167622,430.40665 59.182907,431.53135 61.831766,433.78071 C 64.48056,436.03015 65.804973,439.42527 65.80501,443.96609 C 65.804973,446.93028 65.111233,449.38991 63.723787,451.34497 C 62.357294,453.30008 60.360163,454.65603 57.732388,455.41281 M 41.776345,435.64119 L 41.776345,452.35405 L 49.7859,452.35405 C 52.855154,452.35407 55.167622,451.64982 56.72331,450.24129 C 58.299965,448.81179 59.088306,446.72006 59.088336,443.96609 C 59.088306,441.21218 58.299965,439.14147 56.72331,437.75395 C 55.167622,436.34549 52.855154,435.64124 49.7859,435.64119 L 41.776345,435.64119 M 80.310503,430.4066 L 88.887664,430.4066 L 109.76296,469.79217 L 109.76296,430.4066 L 115.94356,430.4066 L 115.94356,477.48639 L 107.3664,477.48639 L 86.491104,438.10082 L 86.491104,477.48639 L 80.310503,477.48639 L 80.310503,430.4066 M 144.35541,436.68181 L 135.71518,460.11133 L 153.02717,460.11133 L 144.35541,436.68181 M 140.76057,430.4066 L 147.98178,430.4066 L 165.92445,477.48639 L 159.30237,477.48639 L 155.01379,465.40899 L 133.79163,465.40899 L 129.50305,477.48639 L 122.78637,477.48639 L 140.76057,430.4066"
     id="text5419" />
  <path
     transform="scale(0.7941299,1.2592398)"
     style="font-size:71.7778244px;font-style:normal;font-weight:normal;fill:#000000;fill-opacity:1;stroke:none;stroke-width:1px;stroke-linecap:butt;stroke-linejoin:miter;stroke-opacity:1;font-family:Bitstream Vera Sans"
     d="M 394.61345,139.83459 L 394.61345,180.52504 L 403.1651,180.52504 C 410.38491,180.52505 415.66544,178.88949 419.00669,175.61836 C 422.37124,172.34724 424.05353,167.18355 424.05357,160.12724 C 424.05353,153.11772 422.37124,147.98907 419.00669,144.74127 C 415.66544,141.47019 410.38491,139.83463 403.1651,139.83459 L 394.61345,139.83459 M 387.5338,134.01666 L 402.07862,134.01666 C 412.21908,134.01671 419.66088,136.13126 424.40405,140.3603 C 429.14713,144.56608 431.51869,151.15505 431.51874,160.12724 C 431.51869,169.14622 429.13545,175.77024 424.369,179.99933 C 419.60246,184.22843 412.17235,186.34297 402.07862,186.34297 L 387.5338,186.34297 L 387.5338,134.01666 M 442.76908,134.01666 L 452.30207,134.01666 L 475.50369,177.79132 L 475.50369,134.01666 L 482.37305,134.01666 L 482.37305,186.34297 L 472.84006,186.34297 L 449.63844,142.56831 L 449.63844,186.34297 L 442.76908,186.34297 L 442.76908,134.01666 M 513.95108,140.99116 L 504.348,167.03165 L 523.58922,167.03165 L 513.95108,140.99116 M 509.95564,134.01666 L 517.98158,134.01666 L 537.92376,186.34297 L 530.56373,186.34297 L 525.79723,172.91968 L 502.21008,172.91968 L 497.44359,186.34297 L 489.97841,186.34297 L 509.95564,134.01666"
     id="text5427" />
  <g
     id="g2211">
    <path
       style="fill:#000000;fill-opacity:1;fill-rule:evenodd;stroke:none;stroke-width:10;stroke-linecap:butt;stroke-linejoin:miter;stroke-miterlimit:4;stroke-dashoffset:0;stroke-opacity:1"
       d="M 297.09375,243.34375 L 99.9375,469.0625 L 107.46875,475.65625 L 304.625,249.9375 L 297.09375,243.34375 z "
       id="path7399" />
    <path
       id="path2217"
       style="fill-rule:evenodd;stroke:#000000;stroke-width:4pt;marker-start:none"
       d="M 88.531588,489.74527 L 96.229145,450.52911 L 126.35582,476.84228 L 88.531588,489.74527 z " />
  </g>
  <g
     id="g2219">
    <path
       style="fill:#000000;fill-opacity:1;fill-rule:evenodd;stroke:none;stroke-width:10;stroke-linecap:butt;stroke-linejoin:miter;stroke-miterlimit:4;stroke-dashoffset:0;stroke-opacity:1"
       d="M 496.59375,518.5 L 156.59375,521.34375 L 156.65625,531.34375 L 496.65625,528.5 L 496.59375,518.5 z "
       id="path7403" />
    <path
       id="path2225"
       style="fill-rule:evenodd;stroke:#000000;stroke-width:4pt;marker-start:none"
       d="M 519.70626,523.29813 L 485.27554,543.58817 L 484.93942,503.58958 L 519.70626,523.29813 z " />
  </g>
  <g
     id="g2227">
    <path
       style="fill:#000000;fill-opacity:1;fill-rule:evenodd;stroke:none;stroke-width:10;stroke-linecap:butt;stroke-linejoin:miter;stroke-miterlimit:4;stroke-dasharray:30, 10;stroke-dashoffset:0;stroke-opacity:1"
       d="M 424.625,253.40625 L 444.71875,275.6875 L 452.15625,269 L 432.0625,246.71875 L 424.625,253.40625 z M 451.40625,283.125 L 471.5,305.40625 L 478.9375,298.71875 L 458.84375,276.4375 L 451.40625,283.125 z M 478.1875,312.84375 L 498.28125,335.125 L 505.71875,328.40625 L 485.625,306.125 L 478.1875,312.84375 z M 504.96875,342.53125 L 525.0625,364.8125 L 532.5,358.125 L 512.40625,335.84375 L 504.96875,342.53125 z M 531.75,372.25 L 551.84375,394.53125 L 559.28125,387.84375 L 539.1875,365.5625 L 531.75,372.25 z M 558.53125,401.96875 L 578.625,424.25 L 586.0625,417.5625 L 565.96875,395.28125 L 558.53125,401.96875 z M 585.3125,431.6875 L 605.40625,453.96875 L 612.84375,447.25 L 592.75,424.96875 L 585.3125,431.6875 z "
       id="path7405" />
    <path
       id="path2233"
       style="fill-rule:evenodd;stroke:#000000;stroke-width:4pt;marker-start:none"
       d="M 626.65154,470.06385 L 588.6299,457.75473 L 618.34084,430.97303 L 626.65154,470.06385 z " />
  </g>
  <path
     transform="scale(0.6351449,1.5744438)"
     style="font-size:65.20500183px;font-style:normal;font-weight:normal;fill:#000000;fill-opacity:1;stroke:none;stroke-width:1px;stroke-linecap:butt;stroke-linejoin:miter;stroke-opacity:1;font-family:Bitstream Vera Sans"
     d="M 836.89611,312.30314 L 836.89611,330.16447 L 844.98306,330.16447 C 847.97585,330.1645 850.28943,329.38977 851.92383,327.84027 C 853.55817,326.29083 854.37535,324.08337 854.37538,321.21789 C 854.37535,318.3737 853.55817,316.17685 851.92383,314.62735 C 850.28943,313.07792 847.97585,312.30319 844.98306,312.30314 L 836.89611,312.30314 M 830.46476,307.01797 L 844.98306,307.01797 C 850.31066,307.01802 854.3329,308.22788 857.04981,310.64755 C 859.78787,313.04608 861.15692,316.56952 861.15696,321.21789 C 861.15692,325.90877 859.78787,329.45344 857.04981,331.85191 C 854.3329,334.25042 850.31066,335.44966 844.98306,335.44965 L 836.89611,335.44965 L 836.89611,354.55267 L 830.46476,354.55267 L 830.46476,307.01797 M 892.35857,332.26581 C 893.7382,332.73279 895.07541,333.73039 896.37021,335.25862 C 897.68616,336.78688 899.00214,338.88821 900.31817,341.56261 L 906.84503,354.55267 L 899.93611,354.55267 L 893.85498,342.35857 C 892.28425,339.17475 890.75601,337.06281 889.27025,336.02274 C 887.80566,334.9827 885.79984,334.46268 883.25279,334.46266 L 876.24835,334.46266 L 876.24835,354.55267 L 869.817,354.55267 L 869.817,307.01797 L 884.3353,307.01797 C 889.76902,307.01802 893.82311,308.15359 896.49756,310.42468 C 899.17195,312.69586 900.50916,316.12379 900.5092,320.70848 C 900.50916,323.70131 899.80872,326.18471 898.40786,328.15866 C 897.02817,330.13266 895.01174,331.50171 892.35857,332.26581 M 876.24835,312.30314 L 876.24835,329.17748 L 884.3353,329.17748 C 887.43421,329.17751 889.76902,328.46645 891.33974,327.04431 C 892.93163,325.601 893.72759,323.48906 893.72762,320.70848 C 893.72759,317.92796 892.93163,315.83724 891.33974,314.43631 C 889.76902,313.01424 887.43421,312.30319 884.3353,312.30314 L 876.24835,312.30314 M 934.44891,311.37983 C 929.77926,311.37987 926.06479,313.12037 923.30548,316.60132 C 920.56737,320.08236 919.19832,324.82627 919.19833,330.83308 C 919.19832,336.81871 920.56737,341.55201 923.30548,345.033 C 926.06479,348.514 929.77926,350.2545 934.44891,350.25449 C 939.11851,350.2545 942.81176,348.514 945.52867,345.033 C 948.26673,341.55201 949.63578,336.81871 949.63582,330.83308 C 949.63578,324.82627 948.26673,320.08236 945.52867,316.60132 C 942.81176,313.12037 939.11851,311.37987 934.44891,311.37983 M 934.44891,306.15834 C 941.11371,306.15838 946.44133,308.39768 950.43178,312.87623 C 954.42214,317.33364 956.41735,323.31925 956.4174,330.83308 C 956.41735,338.32573 954.42214,344.31134 950.43178,348.78993 C 946.44133,353.2473 941.11371,355.47599 934.44891,355.47599 C 927.76283,355.47599 922.41399,353.2473 918.40237,348.78993 C 914.41195,344.33256 912.41675,338.34695 912.41675,330.83308 C 912.41675,323.31925 914.41195,317.33364 918.40237,312.87623 C 922.41399,308.39768 927.76283,306.15838 934.44891,306.15834 M 959.88777,307.01797 L 1000.0996,307.01797 L 1000.0996,312.4305 L 983.2253,312.4305 L 983.2253,354.55267 L 976.76211,354.55267 L 976.76211,312.4305 L 959.88777,312.4305 L 959.88777,307.01797 M 1006.34,307.01797 L 1036.3954,307.01797 L 1036.3954,312.4305 L 1012.7713,312.4305 L 1012.7713,326.50306 L 1035.4084,326.50306 L 1035.4084,331.91559 L 1012.7713,331.91559 L 1012.7713,349.14015 L 1036.9685,349.14015 L 1036.9685,354.55267 L 1006.34,354.55267 L 1006.34,307.01797 M 1047.6025,307.01797 L 1054.0339,307.01797 L 1054.0339,354.55267 L 1047.6025,354.55267 L 1047.6025,307.01797 M 1066.8329,307.01797 L 1075.4929,307.01797 L 1096.5699,346.78411 L 1096.5699,307.01797 L 1102.8103,307.01797 L 1102.8103,354.55267 L 1094.1502,354.55267 L 1073.0732,314.78654 L 1073.0732,354.55267 L 1066.8329,354.55267 L 1066.8329,307.01797"
     id="text7407" />
  <g
     id="g2235">
    <path
       style="fill:#000000;fill-opacity:1;stroke:none;stroke-width:5.66374159;stroke-linecap:butt;stroke-linejoin:miter;stroke-miterlimit:4;stroke-dashoffset:0;stroke-opacity:1"
       d="M 136.375,575.5625 L 132.25,579.46875 C 154.29379,602.65411 153.17922,639.63247 129.59375,662.71875 C 106.00829,685.80499 68.811726,686.28046 45.90625,663.9375 C 23.000778,641.59455 22.789051,604.65767 45.53125,580.75 L 41.40625,576.84375 C 16.634971,602.88448 16.839042,643.48744 41.96875,668 C 67.098462,692.51258 107.87397,691.8948 133.5625,666.75 C 159.25105,641.60516 160.56044,601.00042 136.375,575.5625 z "
       id="path8308" />
    <path
       id="path2241"
       style="font-size:12px;fill-rule:evenodd;stroke-width:0.625;stroke-linejoin:round"
       d="M 144.79252,608.42659 L 129.10406,572.11088 L 164.5821,589.61138 C 154.65309,590.86683 146.68393,598.49078 144.79252,608.42659 z " />
  </g>
  <g
     id="g2243">
    <path
       style="fill:#000000;fill-opacity:1;stroke:none;stroke-width:5.66374016;stroke-linecap:butt;stroke-linejoin:miter;stroke-miterlimit:4;stroke-dashoffset:0;stroke-opacity:1"
       d="M 364.65625,39.3125 C 348.11153,39.558231 331.4897,46.010319 318.65625,58.59375 C 292.98935,83.760618 291.73014,124.39544 315.9375,149.8125 L 320.03125,145.90625 C 297.96747,122.73989 299.0594,85.76275 322.625,62.65625 C 346.1906,39.549755 383.38777,39.020508 406.3125,61.34375 C 429.23723,83.666988 429.50287,120.60408 406.78125,144.53125 L 410.875,148.4375 C 435.62386,122.37553 435.40082,81.772178 410.25,57.28125 C 397.67459,45.035784 381.20097,39.066769 364.65625,39.3125 z "
       id="path8310" />
    <path
       id="path2249"
       style="font-size:12px;fill-rule:evenodd;stroke-width:0.625;stroke-linejoin:round"
       d="M 439.16291,134.44346 L 403.69544,151.96535 L 419.36199,115.64019 C 421.12268,125.49217 429.1435,133.06173 439.16291,134.44346 z " />
  </g>
</svg>
