<?xml version="1.0" encoding="UTF-8" standalone="no"?>
<!-- Created with Inkscape (http://www.inkscape.org/) -->
<svg
   xmlns:dc="http://purl.org/dc/elements/1.1/"
   xmlns:cc="http://creativecommons.org/ns#"
   xmlns:rdf="http://www.w3.org/1999/02/22-rdf-syntax-ns#"
   xmlns:svg="http://www.w3.org/2000/svg"
   xmlns="http://www.w3.org/2000/svg"
   xmlns:xlink="http://www.w3.org/1999/xlink"
   xmlns:sodipodi="http://sodipodi.sourceforge.net/DTD/sodipodi-0.dtd"
   xmlns:inkscape="http://www.inkscape.org/namespaces/inkscape"
   width="687.92999"
   height="847.96997"
   id="svg2"
   sodipodi:version="0.32"
   inkscape:version="0.46"
   sodipodi:docname="Chromosome.svg"
   inkscape:output_extension="org.inkscape.output.svg.inkscape"
   version="1.1"
   font-family="serif">
  <sodipodi:namedview
     id="base"
     pagecolor="#ffffff"
     bordercolor="#666666"
     borderopacity="1.0"
     gridtolerance="10000"
     guidetolerance="10"
     objecttolerance="10"
     inkscape:pageopacity="0.0"
     inkscape:pageshadow="2"
     inkscape:zoom="0.7326375"
     inkscape:cx="372.04724"
     inkscape:cy="471.58383"
     inkscape:document-units="px"
     inkscape:current-layer="layer1"
     showgrid="true"
     inkscape:window-width="1274"
     inkscape:window-height="967"
     inkscape:window-x="0"
     inkscape:window-y="0">
  </sodipodi:namedview>
  <defs
     id="defs4">
    <marker
       inkscape:stockid="Arrow2Mend"
       orient="auto"
       refY="0"
       refX="0"
       id="Arrow2Mend"
       style="overflow:visible">
      <path
         id="path3726"
         style="font-size:12px;fill-rule:evenodd;stroke-width:0.625;stroke-linejoin:round"
         d="M 8.7185878,4.0337352 L -2.2072895,0.016013256 L 8.7185884,-4.0017078 C 6.97309,-1.6296469 6.9831476,1.6157441 8.7185878,4.0337352 z"
         transform="scale(-0.6,-0.6)" />
    </marker>
  </defs>
  <metadata
     id="metadata7">
    <rdf:RDF>
      <cc:Work
         rdf:about="">
        <dc:format>image/svg+xml</dc:format>
        <dc:type
           rdf:resource="http://purl.org/dc/dcmitype/StillImage" />
        <dc:title>Chromosome</dc:title>
        <dc:date>2008-11-26</dc:date>
        <dc:creator>
          <cc:Agent>
            <dc:title>http://commons.wikimedia.org/wiki/User:Tryphon</dc:title>
          </cc:Agent>
        </dc:creator>
        <dc:source>http://commons.wikimedia.org/wiki/Image:Chromosome-upright.png</dc:source>
        <dc:subject>
          <rdf:Bag>
            <rdf:li>Chromosome</rdf:li>
          </rdf:Bag>
        </dc:subject>
        <dc:description>(1) Chromatid. One of the two identical parts of the chromosome after S phase;
(2) Centromere. The point where the two chromatids touch, and where the microtubules attach;
(3) Short arm;
(4) Long arm.
In accordance with the display rules in Cytogenetics, the short arm is on top.</dc:description>
        <dc:contributor>
          <cc:Agent>
            <dc:title>http://commons.wikimedia.org/wiki/User:Magnus_Manske
http://commons.wikimedia.org/wiki/User:Dietzel65</dc:title>
          </cc:Agent>
        </dc:contributor>
        <cc:license
           rdf:resource="http://commons.wikimedia.org/wiki/Commons:GNU_Free_Documentation_License" />
      </cc:Work>
    </rdf:RDF>
  </metadata>
  <g
     id="layer1"
     inkscape:groupmode="layer"
     inkscape:label="Layer 1"
     transform="translate(-43.56693,-170.4754)">
    <g
       inkscape:label="#g3245"
       id="Chromosome"
       transform="translate(10,10.00311)">
      <path
         style="fill:none;fill-rule:evenodd;stroke:#4169e1;stroke-width:5;stroke-linecap:butt;stroke-linejoin:miter;stroke-miterlimit:4;stroke-dasharray:none;stroke-opacity:1"
         d="M 640.25095,841.54211 C 637.19878,851.86374 634.1232,889.0933 613.97138,896.13664 C 596.89818,909.90019 591.16536,882.73085 575.19256,874.92979 C 575.79597,865.56752 600.41671,862.96897 605.39742,865.2194 C 626.59903,854.22844 660.55564,840.89077 636.09295,820.44098 C 619.09123,803.17662 596.03312,856.9691 595.98353,862.89479 C 591.12731,882.95062 580.33472,847.63456 583.95314,835.68527 C 592.8787,816.99426 643.90541,860.95027 627.00471,805.83885 C 619.8934,786.66617 573.04315,846.07737 575.0811,845.82838 C 560.36781,874.77975 552.2445,838.71944 560.76065,819.23552 C 569.68197,801.5325 620.71641,812.12545 634.92997,790.1982 C 651.2607,765.27709 583.86725,790.39222 568.54903,821.51776 C 554.13373,841.3695 524.3476,830.4795 555.79861,822.62571 C 580.17986,808.89566 594.79663,810.45686 624.45048,793.65296 C 653.48692,765.18002 596.7197,778.07261 584.06899,789.84756 C 555.32724,808.07562 550.54995,799.38442 529.64986,778.79762 C 521.92213,776.05227 575.2567,779.48554 582.6484,782.39862 C 600.99931,801.03849 613.86118,759.49382 611.51556,753.53671 C 605.66844,747.48001 546.87758,803.92795 529.9795,795.53606 C 512.73666,782.67105 583.6461,751.4771 588.69032,758.34664 C 617.83314,745.27244 598.94382,737.70902 584.25916,735.91663 C 571.31662,731.08561 544.42924,761.70391 532.80817,769.70716 C 531.79223,776.4381 522.44281,758.166 553.34865,752.63107 C 577.91278,746.78553 585.90524,752.54237 590.56126,735.09002 C 592.0759,709.76421 543.16932,736.06558 539.74547,740.48169 C 525.23802,739.21575 565.23668,715.60904 580.81978,719.62035 C 611.99335,721.95999 624.62088,702.85507 590.55963,703.3189 C 573.14375,704.04159 542.97344,731.07917 540.7287,739.41631 C 523.15365,761.72686 505.53007,741.40554 519.02244,728.92377 C 528.73396,706.85601 577.77328,718.04527 589.6254,704.82186 C 612.60274,689.79288 568.56386,690.02871 554.12561,698.0073 C 528.46624,710.81216 535.99378,742.31302 509.109,703.43396 C 495.28173,684.1378 523.70005,679.75149 536.56332,683.90571 C 557.04365,689.38904 617.85806,671.73842 589.246,672.00797 C 572.96139,671.6895 547.41206,699.67677 519.11113,695.36138 C 506.0787,689.01959 555.92385,672.6634 575.64709,669.68375 C 600.06858,654.64369 579.40143,646.5841 558.26525,667.82272 C 544.77214,682.36687 540.62925,689.03587 520.58227,670.21583 C 508.22053,655.98146 550.50088,660.4729 566.97904,654.3099 C 601.65736,644.32727 560.81437,629.82581 546.92831,638.56564 C 523.70128,649.84444 534.12866,657.73081 505.09326,666.66411 C 496.83259,667.41895 525.01343,638.95501 538.91722,639.38807 C 554.11351,644.1962 581.90645,624.46808 574.72086,613.80238 C 573.74953,607.11671 533.57706,627.3988 511.34246,643.66147 C 487.1875,660.28332 472.49453,639.74733 514.44842,629.80211 C 537.01998,618.94734 543.4983,615.70435 561.33774,604.76531 C 563.36586,599.82998 495.45269,625.56385 493.16832,623.61398 C 468.1566,633.95027 474.2012,623.75559 492.29448,617.21955 C 509.84968,614.35707 534.86005,610.57329 558.48883,609.56548 C 577.58639,611.81203 563.54576,583.8188 528.17753,589.06736 C 507.72539,595.54558 499.59566,613.40691 497.15928,611.74349 C 500.66348,612.58464 520.80873,601.51929 539.24687,594.15531 C 546.84216,582.75786 558.08974,564.07341 527.16983,563.12963 C 515.56287,567.65151 480.06855,579.98166 469.16284,589.00436 C 472.02923,591.73458 471.51769,583.14029 491.60167,580.33168 C 518.19541,579.51782 539.80701,588.33843 538.26282,565.67648 C 540.914,565.25521 485.24601,600.60154 475.55226,569.91583 C 470.63569,562.17897 520.84648,550.69989 527.44105,542.50526 C 537.96272,538.38767 483.54218,535.42293 474.20665,537.13586 C 466.00881,541.15753 437.68714,562.70393 461.71849,554.7814 C 486.85612,544.34953 511.73215,558.00588 526.90329,550.88775 C 555.07509,535.84336 501.20132,530.25282 490.33753,535.64875 C 472.57865,544.68925 469.70093,580.65963 454.59524,549.3126 C 453.68601,545.14843 497.17098,554.72279 506.5967,548.19258 C 530.11477,531.95223 488.64043,518.12363 477.61119,523.5892 C 459.02497,533.44873 443.98909,543.52721 434.63265,532.32712 C 418.39663,524.61538 471.49103,523.49541 488.05963,521.97115 C 517.82938,526.03533 521.71505,500.76667 495.39888,503.18924 C 469.78464,509.2575 465.87357,515.20062 444.26876,526.20333 C 434.58529,519.3269 418.91834,503.97961 460.13279,512.30826 C 482.30763,522.49455 496.94273,505.19145 493.78366,486.96011 C 495.02646,486.98754 457.021,505.3094 436.2496,516.99888 C 426.12492,525.48353 413.07477,503.33092 448.80222,503.41944 C 473.16926,499.23449 494.35395,495.23689 493.37157,470.11137 C 492.41182,444.11899 455.3685,484.38684 442.19283,487.17087 C 426.91447,501.46411 422.1583,511.48178 406.25847,487.21883 C 388.12815,471.61754 451.85488,486.81372 465.68965,478.07509 C 489.84816,471.3752 488.3995,454.20176 458.14827,460.3235 C 439.50043,464.61844 421.55559,484.84059 409.69489,480.81164 C 392.68877,485.67848 440.56746,464.88435 459.70855,461.38354 C 483.0607,456.66377 442.69136,418.90969 429.59791,434.81058 C 405.83388,446.90866 417.77297,462.19299 402.31125,448.99323 C 388.71758,441.13492 406.91639,456.63432 432.0637,451.56179 C 468.47281,449.46752 453.35686,427.68453 422.55014,452.10082 C 406.11016,466.22226 386.07298,439.09299 390.58099,423.79294 C 394.68624,407.35417 416.73681,429.89187 432.88059,422.11431 C 436.44546,422.26642 407.50665,405.28775 390.47898,413.86665 C 386.9004,415.13401 396.05841,403.36179 426.11779,406.53872 C 441.67949,406.02302 442.36437,383.08809 413.19101,397.0499 C 401.35393,402.92977 354.66294,415.20081 378.60974,390.71377 C 382.47861,376.67523 413.8656,409.60919 428.84677,398.5595 C 444.43302,379.91412 397.68353,386.01445 393.9278,387.51393 C 380.16949,398.1829 375.12112,416.34243 368.19985,393.42261 C 364.71872,374.02314 388.52604,391.3927 401.10755,384.94355 C 403.1152,385.81803 347.33634,400.83662 371.80451,376.28992 C 382.17587,364.36111 398.94501,387.69613 411.8072,378.50692 C 434.4697,366.52621 402.94792,350.64121 390.17092,356.95054 C 377.70732,364.47251 342.9785,376.19588 371.07493,362.16587 C 388.10501,353.59421 392.79642,353.70157 409.0491,343.96874 C 419.01829,334.44021 373.16346,352.45991 365.09363,369.23449 C 359.40474,386.52717 344.7553,370.61495 346.00015,358.18227 C 343.7541,353.34299 390.97669,345.08999 392.54456,341.06067 C 398.29403,337.05682 362.70349,265.82761 344.08597,302.37214 C 334.54113,322.78865 346.98663,355.2538 375.69497,370.62151 C 397.93018,374.32479 396.59972,333.76068 403.33845,320.25845 C 409.18643,303.30819 376.57473,336.68876 370.76204,340.54884 C 340.8648,350.59527 323.69185,327.11991 341.56516,310.4538 C 346.21799,311.44753 385.54453,313.45966 395.64107,304.04111 C 418.3884,291.21836 361.99957,283.3207 357.30258,287.01089 C 336.47302,297.02342 326.66325,313.35679 306.84191,311.04406 C 276.80624,311.01214 295.86514,284.96103 315.63583,277.5232 C 334.64759,273.48063 343.66781,293.44635 366.62104,283.55741 C 372.78874,270.94622 355.84155,247.93577 337.27411,277.78519 C 325.33265,290.29336 298.04132,295.70529 286.03615,284.15687 C 282.17512,273.43015 326.71082,284.36878 336.62428,279.03282 C 352.64543,269.52936 372.87571,277.28351 363.30932,256.40139 C 356.07047,245.31648 317.45151,265.49849 307.74595,272.04009 C 301.03215,263.86428 236.78293,258.30883 316.21568,258.21475 C 326.58917,259.63712 344.83558,233.84586 338.34982,228.73064 C 327.72158,216.57399 308.42851,250.62372 292.14385,258.59094 C 287.51741,260.8302 287.76534,227.7151 320.27536,236.69229 C 342.55439,242.68705 338.85885,229.55541 349.6817,211.77272 C 356.50695,197.34325 323.65809,201.94592 314.61957,215.78334 C 305.12032,223.82567 277.04153,232.85662 252.84172,236.27466 C 254.28382,235.02613 261.65369,207.61774 308.05777,217.17424 C 337.53412,218.53058 354.12265,228.67368 351.77047,191.87338 C 351.11801,177.27041 308.89815,202.56068 305.04912,204.50296 C 290.80139,210.64128 274.05106,210.00836 258.84561,208.73472 C 241.48655,208.765 293.77295,192.92003 312.63014,198.2614 C 334.39362,203.48964 340.24133,184.6393 307.4089,186.48131 C 287.48592,186.96494 292.67411,184.48105 281.00058,190.8598"
         id="path2419"
         sodipodi:nodetypes="ccccccccccccccccccccccccccccccccccccccccccccccccccccccccccccccccccccccccccccccccccccccccccccccccccccccccccccccccccccccccccccccccccc" />
      <path
         id="path2421"
         d="M 136.8908,837.87412 C 139.02775,844.89204 153.21452,882.09823 169.81737,890.26062 C 188.31502,894.78384 198.49683,897.35147 208.73318,878.19559 C 216.66691,872.51627 178.07223,861.47826 173.27259,858.92469 C 151.37615,849.44617 134.86816,842.89107 156.42065,823.06301 C 168.24985,814.35135 187.57258,854.71893 196.51113,855.68074 C 210.65333,878.20726 213.0006,857.14289 211.1601,839.12457 C 214.35762,830.60558 148.5178,858.30479 158.74225,800.14421 C 167.44009,776.82787 203.94245,844.10412 204.31056,840.97711 C 209.25325,870.11471 239.84431,848.82371 230.11369,821.96842 C 219.82447,806.7347 165.04221,818.56032 150.7359,794.66724 C 132.9472,769.31403 193.52947,802.81545 213.55703,825.34528 C 230.99035,851.94913 247.04295,829.55515 224.94787,818.92346 C 193.36267,807.50859 199.37207,815.59536 170.77279,790.42819 C 141.83285,767.23239 196.97292,782.15674 206.16631,788.99255 C 228.49944,805.70361 231.02988,802.96513 249.86197,781.09554 C 257.92874,770.54442 217.8679,777.28867 208.5952,784.85045 C 178.02826,800.8153 174.7422,761.8505 184.0537,752.62279 C 186.9429,750.47918 226.45974,805.88011 241.06668,797.46526 C 260.78369,794.36411 205.34983,755.9326 206.14767,756.77163 C 177.6904,743.96062 190.59548,732.17895 197.37261,730.42603 C 210.18047,727.06393 244.38248,751.44958 256.04516,768.27385 C 259.71834,767.92787 270.25399,760.01391 236.8326,752.54565 C 209.43018,744.93107 195.06148,736.52977 185.70192,725.74182 C 175.72829,707.1283 241.01751,740.18632 249.6871,741.49868 C 270.51217,747.29246 228.8764,718.2811 209.29973,720.73894 C 173.96064,717.40438 185.28149,693.35107 206.32113,695.97657 C 227.21449,693.85682 243.74989,728.12697 249.99905,738.11887 C 264.96257,762.61482 270.46691,742.99859 261.95986,726.11715 C 250.81999,704.6081 222.61841,712.11999 211.70074,699.42679 C 190.31287,681.04201 224.307,685.54715 242.80759,693.1232 C 272.64651,711.35876 264.35567,727.83204 286.25902,700.40286 C 300.73946,681.15431 246.10265,686.39944 237.48753,686.21086 C 217.86908,682.89863 185.2146,673.03711 212.35465,675.22365 C 241.31571,671.41116 239.37922,688.5256 270.45036,691.6791 C 287.2075,687.49751 244.12689,680.49392 225.9572,672.09537 C 201.20669,662.65415 229.0423,648.199 244.42549,663.99649 C 256.4843,679.79229 260.61944,705.11058 277.42474,682.85186 C 291.99881,665.12889 238.26698,666.26646 226.80602,657.43816 C 201.70576,647.33572 243.90407,624.67876 259.40581,633.05689 C 277.62036,643.44736 268.11669,669.13865 294.50736,672.62575 C 299.34373,674.54655 273.53734,652.46018 261.11143,650.87257 C 242.01357,648.03262 234.4223,621.1891 229.37236,612.85319 C 233.02048,612.84128 266.87552,632.46155 287.64539,647.24987 C 313.5374,674.07666 329.66459,637.28963 290.93835,627.10057 C 269.5304,621.38997 254.29798,622.40614 249.29504,611.58263 C 247.87234,611.63567 299.85968,623.10343 301.31461,623.04046 C 320.82192,638.03642 333.5214,618.60291 310.26721,612.61999 C 292.35807,606.05274 274.84607,614.32127 253.17341,612.06533 C 230.94873,611.09623 233.11181,583.70553 266.96779,590.28119 C 290.8754,591.75123 310.79384,604.26597 312.32768,609.52032 C 313.13611,609.53115 289.89462,604.92134 273.52964,592.40943 C 258.93439,581.62613 254.70289,568.10164 284.55705,568.81028 C 306.36666,573.97614 320.90543,585.41074 330.12453,600.74084 C 330.62818,600.55334 330.66427,584.35983 308.16679,583.21541 C 283.45087,584.40184 266.74421,585.33673 268.19822,558.12285 C 269.17886,554.08226 317.41754,609.19941 326.5408,578.34838 C 328.256,571.9245 279.58214,553.89335 277.09803,545.63085 C 273.20998,536.30982 312.07997,545.7458 329.43652,544.87479 C 344.04439,547.81484 372.12868,566.22584 343.52036,554.9896 C 323.47422,556.02056 293.9223,560.73482 279.79408,554.0505 C 253.01194,542.89449 307.44561,539.42213 314.59724,535.90468 C 335.55766,540.72943 337.12386,592.53079 355.41841,552.80998 C 355.67111,551.32648 302.42999,551.75391 296.92315,539.46853 C 266.7369,527.25775 321.9106,516.02309 333.0514,525.95504 C 356.29143,534.18732 352.29743,545.86609 368.62407,537.97481 C 385.02791,528.19809 346.22992,520.66085 330.28552,518.81546 C 305.83205,519.16643 291.04796,502.14045 314.03772,507.10061 C 349.69755,515.0358 336.61861,517.59167 364.55267,522.89067 C 366.71901,527.09811 383.52055,499.25331 345.7315,510.552 C 327.78381,526.35082 303.21632,504.90916 307.83261,484.74508 C 304.13787,486.51826 344.82613,494.56957 369.60451,512.53657 C 383.9787,515.51427 392.9229,494.1206 358.32911,495.50967 C 328.27511,494.13575 305.92593,498.36655 312.53319,478.935 C 316.26986,457.04639 354.39908,485.05686 361.86242,490.99948 C 376.38397,501.94967 385.48726,525.83612 398.8763,494.83052 C 407.35622,477.02549 369.35083,485.98896 352.37174,477.45048 C 328.53794,465.65409 319.16799,449.3509 346.62362,457.84012 C 364.45843,456.12853 372.16718,479.58176 392.3997,483.66254 C 412.21173,492.89821 362.25869,460.08948 348.48398,460.45952 C 324.74745,454.54887 360.51621,449.8696 379.61426,455.07532 C 406.86062,463.70787 405.5415,469.08864 417.69074,461.00874 C 435.4853,451.38756 378.90917,447.93524 367.89986,449.96763 C 331.17508,439.86675 358.78874,417.48722 386.40572,443.47752 C 402.39958,456.49236 411.96232,449.17649 407.50459,435.60593 C 402.37173,420.08368 374.72239,419.18284 358.37287,424.4003 C 349.67906,419.01892 388.82175,405.84641 404.61929,412.83187 C 422.82827,420.56852 417.54098,414.13326 391.59466,410.79049 C 377.24726,410.74317 365.77353,381.75269 392.32555,395.8461 C 404.50315,401.50603 445.82987,431.34723 425.45815,400.92302 C 421.77954,397.75476 395.44029,415.80811 377.2416,393.93582 C 358.26613,378.32999 409.41925,378.01076 412.27863,383.03243 C 429.62857,390.78308 419.33727,420.93482 425.73583,397.26076 C 429.13953,382.8265 420.7612,384.8608 412.55783,373.87873 C 406.17561,369.26132 444.48025,420.48178 421.30436,389.19678 C 409.50914,377.51469 415.07205,391.21622 403.0669,384.07959 C 380.29756,370.71317 407.6001,356.01035 417.43646,357.80308 C 437.05082,367.0696 469.71346,386.30684 436.91221,369.84739 C 415.63254,359.23941 420.65751,389.4667 400.83427,364.10853 C 389.99505,353.27941 429.49597,368.0938 433.15985,383.08184 C 452.64206,401.5286 459.19613,375.80124 459.5414,361.57421 C 458.82081,355.17188 410.88817,341.01728 404.20886,343.76633 C 395.65758,340.59293 453.48772,268.19912 468.02722,301.56353 C 476.69694,319.74241 471.54797,353.96142 438.16241,360.81752 C 411.99444,371.8842 413.95608,342.2216 405.54643,330.4061 C 404.41331,317.24979 430.10738,322.54764 439.79334,327.59774 C 465.14124,337.30304 480.85896,327.82524 460.19264,307.26128 C 456.23872,307.8067 416.1905,307.93781 411.95485,306.89096 C 388.84618,295.38745 427.04307,282.14369 438.68187,292.81106 C 458.83541,302.37461 470.68815,297.60888 495.88831,302.88097 C 534.33191,301.60015 504.90015,287.45167 485.74816,283.36342 C 464.88059,280.11114 460.81421,289.4749 440.77192,280.4791 C 436.67167,273.07025 446.05127,259.24639 466.81531,278.81645 C 479.05284,296.2688 509.91631,304.24463 523.05715,286.5025 C 533.28112,277.39281 476.92879,272.31366 465.89466,272.34648 C 444.96016,270.68054 436.23696,279.95172 441.93619,253.64634 C 445.77936,240.94839 486.40212,260.02204 496.79816,267.78839 C 495.76062,263.78991 560.75341,254.28685 479.38441,257.74891 C 463.71007,257.99859 463.08408,234.43385 464.47517,223.07374 C 476.34348,206.63855 491.55889,250.06199 511.10264,254.1828 C 515.28424,256.58564 517.97336,223.74491 482.98695,232.12399 C 461.39335,237.48378 464.4845,222.67418 458.24142,212.98014 C 450.5028,196.61022 517.32965,216.76534 514.70055,219.07775 C 525.41575,230.48572 535.32149,235.68319 555.73848,239.95908 C 557.49064,240.61895 545.81305,210.37069 501.10245,219.33306 C 470.60057,234.1568 461.11842,226.76882 455.3998,190.57712 C 454.17849,180.53512 498.05193,197.7064 502.32637,201.99134 C 516.37793,208.69837 529.73659,210.12815 545.65392,209.26366 C 576.62587,220.50628 511.62922,195.99724 493.16045,195.99089 C 467.19353,193.47619 472.33645,169.5209 501.62213,173.3991 C 534.32049,176.87966 513.66733,182.8149 529.12428,191.6041"
         style="fill:none;fill-rule:evenodd;stroke:#4169e1;stroke-width:5;stroke-linecap:butt;stroke-linejoin:miter;stroke-miterlimit:4;stroke-dasharray:none;stroke-opacity:1"
         sodipodi:nodetypes="ccccccccccccccccccccccccccccccccccccccccccccccccccccccccccccccccccccccccccccccccccccccccccccccccccccccccccccccccccccccccccccccccccc" />
    </g>
    <path
       transform="matrix(0.8608229,0,0,0.8608229,-284.34561,-5.925092)"
       d="M 818.22357,480.11078 A 11.616755,11.616755 0 1 1 794.99006,480.11078 A 11.616755,11.616755 0 1 1 818.22357,480.11078 z"
       sodipodi:ry="11.616755"
       sodipodi:rx="11.616755"
       sodipodi:cy="480.11078"
       sodipodi:cx="806.60681"
       id="path3243"
       style="fill:#ff0000;fill-opacity:1;stroke:none;stroke-width:5;stroke-miterlimit:4;stroke-dasharray:none;stroke-opacity:1"
       sodipodi:type="arc" />
    <path
       d="M 110,182.36529 L 110,902.36529 M 90,182.36529 L 130,182.36529 M 90,902.36529 L 130,902.36529"
       style="fill:none;fill-rule:evenodd;stroke:#000000;stroke-width:3;stroke-linecap:butt;stroke-linejoin:miter;stroke-miterlimit:4;stroke-dasharray:none;stroke-opacity:1"
       id="path3249" />
    <g
       transform="matrix(0,-1,1,0,-268.85985,972.04795)"
       id="g3354">
      <text x="420" y="360" font-weight="normal" font-size="50" text-anchor="middle">0.2 – 20 µm</text>
    </g>
    <g
       transform="translate(12.57482,571.21077)"
       id="g3495">
      <g
         transform="matrix(0.7236449,0,0,-0.7236449,188.31148,641.79926)"
         xml:space="preserve"
         style="font-style:normal;font-variant:normal;font-weight:normal;font-stretch:normal;letter-spacing:normal;word-spacing:normal;text-anchor:start;fill:none;fill-opacity:1;stroke:#000000;stroke-linecap:butt;stroke-linejoin:miter;stroke-miterlimit:10.43299961;stroke-dasharray:none;stroke-dashoffset:0;stroke-opacity:1"
         id="g3497"><path
           d="M 478.91,389.58 L 478.91,389.64 L 478.91,389.69 L 478.91,389.74 L 478.91,389.79 L 478.91,389.83 L 478.91,389.88 L 478.91,389.93 L 478.91,389.97 L 478.91,390.01 L 478.91,390.06 L 478.91,390.1 L 478.91,390.14 L 478.91,390.21 L 478.9,390.28 L 478.9,390.35 L 478.89,390.41 L 478.89,390.47 L 478.88,390.53 L 478.87,390.58 L 478.86,390.62 L 478.84,390.67 L 478.83,390.71 L 478.81,390.75 L 478.79,390.78 L 478.77,390.81 L 478.74,390.84 L 478.72,390.86 L 478.69,390.88 L 478.65,390.9 L 478.62,390.92 L 478.58,390.93 L 478.54,390.95 L 478.49,390.96 L 478.45,390.96 L 478.39,390.97 L 478.34,390.97 L 478.28,390.98 L 478.21,390.98 C 475.18,391.03 470.25,391.43 465.76,393.62 C 460.38,396.31 458.34,399.45 457.1,401.39 C 456.95,401.64 456.65,401.64 456,401.64 C 454.86,401.64 454.8,401.59 454.8,400.34 L 454.8,399.55 C 461.58,387.34 472.79,385 477.87,385 C 478.91,385 478.91,385.05 478.91,386.39 L 478.91,389.58 z"
           style="fill:#000000;stroke-width:0"
           id="path3513" /><polyline
           points="478,385 520.36,385 520.36,391 478,391 "
           style="fill:#000000;fill-rule:nonzero;stroke-width:0"
           id="polyline3515" /><path
           d="M 543.61,376.43 L 542.96,377.55 L 542.29,378.61 L 541.6,379.61 L 540.88,380.56 L 540.15,381.46 L 539.4,382.31 L 538.64,383.11 L 537.86,383.85 L 537.08,384.56 L 536.28,385.21 L 535.48,385.83 L 534.68,386.4 L 533.87,386.93 L 533.06,387.42 L 532.25,387.87 L 531.44,388.28 L 530.64,388.66 L 529.85,389 L 529.07,389.31 L 528.29,389.59 L 527.53,389.84 L 526.78,390.06 L 526.05,390.25 L 525.34,390.42 L 524.65,390.56 L 523.98,390.68 L 523.34,390.78 L 522.72,390.85 L 522.13,390.91 L 521.57,390.95 L 521.04,390.97 L 520.55,390.98 C 519.5,390.98 519.5,390.93 519.5,389.58 L 519.5,386.39 C 519.5,385.25 519.5,385 520.2,385 C 523.24,384.95 528.17,384.55 532.65,382.36 C 538.03,379.67 540.07,376.53 541.32,374.59 C 541.47,374.34 541.77,374.34 542.41,374.34 C 543.56,374.34 543.61,374.39 543.61,375.64 L 543.61,376.43 z"
           style="fill:#000000;stroke-width:0"
           id="path3517" /><path
           d="M 565.91,389.58 L 565.91,389.64 L 565.91,389.7 L 565.91,389.76 L 565.91,389.82 L 565.91,389.87 L 565.91,389.93 L 565.91,389.98 L 565.91,390.03 L 565.91,390.08 L 565.91,390.12 L 565.91,390.17 L 565.91,390.21 L 565.91,390.25 L 565.9,390.29 L 565.9,390.33 L 565.9,390.37 L 565.89,390.4 L 565.89,390.44 L 565.89,390.47 L 565.88,390.5 L 565.88,390.53 L 565.87,390.56 L 565.87,390.59 L 565.86,390.62 L 565.85,390.64 L 565.84,390.66 L 565.84,390.69 L 565.83,390.71 L 565.81,390.75 L 565.78,390.78 L 565.76,390.82 L 565.73,390.84 L 565.69,390.87 L 565.66,390.89 L 565.62,390.91 L 565.57,390.92 L 565.53,390.94 L 565.47,390.95 L 565.41,390.96 L 565.38,390.96 L 565.35,390.96 L 565.32,390.97 L 565.29,390.97 L 565.25,390.97 L 565.21,390.97 L 565.17,390.97 L 565.13,390.97 L 565.09,390.98 L 565.05,390.98 L 565.01,390.98 L 564.96,390.98 L 564.92,390.98 L 564.87,390.98 C 559.78,390.98 548.58,388.59 541.8,376.43 L 541.8,375.64 C 541.8,374.39 541.85,374.34 543,374.34 C 543.95,374.34 544,374.39 544.25,374.74 C 548.33,381.27 555.2,384.8 565.32,385 C 565.91,385 565.91,385.35 565.91,386.39 L 565.91,389.58 z"
           style="fill:#000000;stroke-width:0"
           id="path3519" /><polyline
           points="565,385 607.36,385 607.36,391 565,391 "
           style="fill:#000000;fill-rule:nonzero;stroke-width:0"
           id="polyline3521" /><path
           d="M 631.61,400.34 L 631.61,400.4 L 631.61,400.46 L 631.61,400.51 L 631.61,400.56 L 631.61,400.61 L 631.61,400.66 L 631.61,400.71 L 631.61,400.76 L 631.61,400.8 L 631.61,400.84 L 631.6,400.88 L 631.6,400.92 L 631.6,400.96 L 631.59,401 L 631.59,401.04 L 631.59,401.07 L 631.58,401.1 L 631.58,401.13 L 631.57,401.17 L 631.57,401.19 L 631.56,401.22 L 631.55,401.25 L 631.54,401.3 L 631.52,401.34 L 631.5,401.39 L 631.47,401.42 L 631.44,401.46 L 631.41,401.49 L 631.38,401.51 L 631.34,401.54 L 631.3,401.56 L 631.25,401.57 L 631.2,401.59 L 631.15,401.6 L 631.09,401.61 L 631.05,401.61 L 631.02,401.62 L 630.99,401.62 L 630.95,401.62 L 630.91,401.63 L 630.88,401.63 L 630.84,401.63 L 630.8,401.63 L 630.75,401.63 L 630.71,401.63 L 630.66,401.64 L 630.62,401.64 L 630.57,401.64 L 630.52,401.64 L 630.47,401.64 L 630.41,401.64 C 629.47,401.64 629.42,401.59 629.17,401.24 C 625.09,394.71 618.21,391.18 608.1,390.98 C 607.5,390.98 607.5,390.63 607.5,389.58 L 607.5,386.39 C 607.5,385.05 607.5,385 608.55,385 C 613.63,385 624.84,387.39 631.61,399.55 L 631.61,400.34 z"
           style="fill:#000000;stroke-width:0"
           id="path3523" />
      </g>
    </g>
    <g
       id="g3647"
       transform="translate(203.97383,14.583188)">
      <text x="390" y="977" text-anchor="middle" font-size="40" font-weight="bold" fill="black" fill-opacity="1.0">1</text>
      <path
         d="M 420,962.36218 A 30,30 0 1 1 360,962.36218 A 30,30 0 1 1 420,962.36218 z"
         sodipodi:ry="30"
         sodipodi:rx="30"
         sodipodi:cy="962.36218"
         sodipodi:cx="390"
         id="path3633"
         style="fill:none;fill-opacity:1;stroke:#000000;stroke-width:3;stroke-miterlimit:4;stroke-dasharray:none;stroke-opacity:1"
         sodipodi:type="arc" />
    </g>
    <g
       transform="translate(300,-349.99689)"
       id="g3654">
      <text x="390" y="977" text-anchor="middle" font-size="40" font-weight="bold" fill="black" fill-opacity="1.0">4</text>
      <path
         sodipodi:type="arc"
         style="fill:none;fill-opacity:1;stroke:#000000;stroke-width:3;stroke-miterlimit:4;stroke-dasharray:none;stroke-opacity:1"
         id="path3656"
         sodipodi:cx="390"
         sodipodi:cy="962.36218"
         sodipodi:rx="30"
         sodipodi:ry="30"
         d="M 420,962.36218 A 30,30 0 1 1 360,962.36218 A 30,30 0 1 1 420,962.36218 z" />
    </g>
    <g
       id="g3666"
       transform="translate(300,-509.99689)">
      <text x="390" y="977" text-anchor="middle" font-size="40" font-weight="bold" fill="black" fill-opacity="1.0">2</text>
      <path
         d="M 420,962.36218 A 30,30 0 1 1 360,962.36218 A 30,30 0 1 1 420,962.36218 z"
         sodipodi:ry="30"
         sodipodi:rx="30"
         sodipodi:cy="962.36218"
         sodipodi:cx="390"
         id="path3668"
         style="fill:none;fill-opacity:1;stroke:#000000;stroke-width:3;stroke-miterlimit:4;stroke-dasharray:none;stroke-opacity:1"
         sodipodi:type="arc" />
    </g>
    <g
       transform="translate(300,-649.99689)"
       id="g3678">
      <text x="390" y="977" text-anchor="middle" font-size="40" font-weight="bold" fill="black" fill-opacity="1.0">3</text>
      <path
         sodipodi:type="arc"
         style="fill:none;fill-opacity:1;stroke:#000000;stroke-width:3;stroke-miterlimit:4;stroke-dasharray:none;stroke-opacity:1"
         id="path3680"
         sodipodi:cx="390"
         sodipodi:cy="962.36218"
         sodipodi:rx="30"
         sodipodi:ry="30"
         d="M 420,962.36218 A 30,30 0 1 1 360,962.36218 A 30,30 0 1 1 420,962.36218 z" />
    </g>
    <path
       style="fill:none;fill-rule:evenodd;stroke:#000000;stroke-width:3;stroke-linecap:butt;stroke-linejoin:miter;marker-end:url(#Arrow2Mend);stroke-miterlimit:4;stroke-dasharray:none;stroke-opacity:1"
       d="M 650,612.36529 L 590,642.36529"
       id="path3690"
       sodipodi:nodetypes="cc" />
    <path
       style="fill:none;fill-rule:evenodd;stroke:#000000;stroke-width:3;stroke-linecap:butt;stroke-linejoin:miter;marker-end:url(#Arrow2Mend);stroke-miterlimit:4;stroke-dasharray:none;stroke-opacity:1"
       d="M 650,452.36529 L 410,407.36529"
       id="path3692"
       sodipodi:nodetypes="cc" />
    <path
       style="fill:none;fill-rule:evenodd;stroke:#000000;stroke-width:3;stroke-linecap:butt;stroke-linejoin:miter;marker-end:url(#Arrow2Mend);stroke-miterlimit:4;stroke-dasharray:none;stroke-opacity:1"
       d="M 650,312.36529 L 540,297.36529"
       id="path3694"
       sodipodi:nodetypes="cc" />
  </g>
</svg>
