<?xml version="1.0" standalone="yes"?>

<svg version="1.1" viewBox="0.0 0.0 1931.0 722.0" fill="none" stroke="none" stroke-linecap="square" stroke-miterlimit="10" xmlns="http://www.w3.org/2000/svg" xmlns:xlink="http://www.w3.org/1999/xlink"><clipPath id="p.0"><path d="m0 0l1931.0 0l0 722.0l-1931.0 0l0 -722.0z" clip-rule="nonzero"></path></clipPath><g clip-path="url(#p.0)"><path fill="#000000" fill-opacity="0.0" d="m0 0l1931.3544 0l0 722.5591l-1931.3544 0z" fill-rule="nonzero"></path><path fill="#fce5cd" d="m361.11548 110.90551l0 0c0 -31.17147 27.652588 -56.440945 61.763794 -56.440945l0 0c34.111176 0 61.763763 25.269474 61.763763 56.440945l0 0c0 31.17147 -27.652588 56.44094 -61.763763 56.44094l0 0c-34.111206 0 -61.763794 -25.26947 -61.763794 -56.44094z" fill-rule="nonzero"></path><path stroke="#000000" stroke-width="2.0" stroke-linejoin="round" stroke-linecap="butt" d="m361.11548 110.90551l0 0c0 -31.17147 27.652588 -56.440945 61.763794 -56.440945l0 0c34.111176 0 61.763763 25.269474 61.763763 56.440945l0 0c0 31.17147 -27.652588 56.44094 -61.763763 56.44094l0 0c-34.111206 0 -61.763794 -25.26947 -61.763794 -56.44094z" fill-rule="nonzero"></path><path fill="#fce5cd" d="m237.58792 242.47769l0 0c0 -31.171478 27.652588 -56.44095 61.763794 -56.44095l0 0c34.111176 0 61.763763 25.26947 61.763763 56.44095l0 0c0 31.171478 -27.652588 56.44095 -61.763763 56.44095l0 0c-34.111206 0 -61.763794 -25.26947 -61.763794 -56.44095z" fill-rule="nonzero"></path><path stroke="#000000" stroke-width="2.0" stroke-linejoin="round" stroke-linecap="butt" d="m237.58792 242.47769l0 0c0 -31.171478 27.652588 -56.44095 61.763794 -56.44095l0 0c34.111176 0 61.763763 25.26947 61.763763 56.44095l0 0c0 31.171478 -27.652588 56.44095 -61.763763 56.44095l0 0c-34.111206 0 -61.763794 -25.26947 -61.763794 -56.44095z" fill-rule="nonzero"></path><path fill="#fce5cd" d="m484.64304 242.47769l0 0c0 -31.171478 27.652618 -56.44095 61.763763 -56.44095l0 0c34.111206 0 61.763794 25.26947 61.763794 56.44095l0 0c0 31.171478 -27.652588 56.44095 -61.763794 56.44095l0 0c-34.111145 0 -61.763763 -25.26947 -61.763763 -56.44095z" fill-rule="nonzero"></path><path stroke="#000000" stroke-width="2.0" stroke-linejoin="round" stroke-linecap="butt" d="m484.64304 242.47769l0 0c0 -31.171478 27.652618 -56.44095 61.763763 -56.44095l0 0c34.111206 0 61.763794 25.26947 61.763794 56.44095l0 0c0 31.171478 -27.652588 56.44095 -61.763794 56.44095l0 0c-34.111145 0 -61.763763 -25.26947 -61.763763 -56.44095z" fill-rule="nonzero"></path><path fill="#fce5cd" d="m438.3727 406.49606l0 0c0 -31.171478 27.652588 -56.44095 61.763763 -56.44095l0 0c34.111206 0 61.763794 25.26947 61.763794 56.44095l0 0c0 31.171478 -27.652588 56.44095 -61.763794 56.44095l0 0c-34.111176 0 -61.763763 -25.26947 -61.763763 -56.44095z" fill-rule="nonzero"></path><path stroke="#000000" stroke-width="2.0" stroke-linejoin="round" stroke-linecap="butt" d="m438.3727 406.49606l0 0c0 -31.171478 27.652588 -56.44095 61.763763 -56.44095l0 0c34.111206 0 61.763794 25.26947 61.763794 56.44095l0 0c0 31.171478 -27.652588 56.44095 -61.763794 56.44095l0 0c-34.111176 0 -61.763763 -25.26947 -61.763763 -56.44095z" fill-rule="nonzero"></path><path fill="#fce5cd" d="m561.90027 406.49606l0 0c0 -31.171478 27.652588 -56.44095 61.763794 -56.44095l0 0c34.111145 0 61.763733 25.26947 61.763733 56.44095l0 0c0 31.171478 -27.652588 56.44095 -61.763733 56.44095l0 0c-34.111206 0 -61.763794 -25.26947 -61.763794 -56.44095z" fill-rule="nonzero"></path><path stroke="#000000" stroke-width="2.0" stroke-linejoin="round" stroke-linecap="butt" d="m561.90027 406.49606l0 0c0 -31.171478 27.652588 -56.44095 61.763794 -56.44095l0 0c34.111145 0 61.763733 25.26947 61.763733 56.44095l0 0c0 31.171478 -27.652588 56.44095 -61.763733 56.44095l0 0c-34.111206 0 -61.763794 -25.26947 -61.763794 -56.44095z" fill-rule="nonzero"></path><path fill="#fce5cd" d="m290.90814 406.49606l0 0c0 -31.171478 27.652588 -56.44095 61.763763 -56.44095l0 0c34.111206 0 61.763794 25.26947 61.763794 56.44095l0 0c0 31.171478 -27.652588 56.44095 -61.763794 56.44095l0 0c-34.111176 0 -61.763763 -25.26947 -61.763763 -56.44095z" fill-rule="nonzero"></path><path stroke="#000000" stroke-width="2.0" stroke-linejoin="round" stroke-linecap="butt" d="m290.90814 406.49606l0 0c0 -31.171478 27.652588 -56.44095 61.763763 -56.44095l0 0c34.111206 0 61.763794 25.26947 61.763794 56.44095l0 0c0 31.171478 -27.652588 56.44095 -61.763794 56.44095l0 0c-34.111176 0 -61.763763 -25.26947 -61.763763 -56.44095z" fill-rule="nonzero"></path><path fill="#fce5cd" d="m167.38058 406.49606l0 0c0 -31.171478 27.652573 -56.44095 61.76378 -56.44095l0 0c34.11119 0 61.76378 25.26947 61.76378 56.44095l0 0c0 31.171478 -27.652588 56.44095 -61.76378 56.44095l0 0c-34.111206 0 -61.76378 -25.26947 -61.76378 -56.44095z" fill-rule="nonzero"></path><path stroke="#000000" stroke-width="2.0" stroke-linejoin="round" stroke-linecap="butt" d="m167.38058 406.49606l0 0c0 -31.171478 27.652573 -56.44095 61.76378 -56.44095l0 0c34.11119 0 61.76378 25.26947 61.76378 56.44095l0 0c0 31.171478 -27.652588 56.44095 -61.76378 56.44095l0 0c-34.111206 0 -61.76378 -25.26947 -61.76378 -56.44095z" fill-rule="nonzero"></path><path fill="#fce5cd" d="m451.67847 577.5932l0 0c0 -31.171509 27.652588 -56.44098 61.763794 -56.44098l0 0c34.111206 0 61.763794 25.26947 61.763794 56.44098l0 0c0 31.171448 -27.652588 56.440918 -61.763794 56.440918l0 0c-34.111206 0 -61.763794 -25.26947 -61.763794 -56.440918z" fill-rule="nonzero"></path><path stroke="#000000" stroke-width="2.0" stroke-linejoin="round" stroke-linecap="butt" d="m451.67847 577.5932l0 0c0 -31.171509 27.652588 -56.44098 61.763794 -56.44098l0 0c34.111206 0 61.763794 25.26947 61.763794 56.44098l0 0c0 31.171448 -27.652588 56.440918 -61.763794 56.440918l0 0c-34.111206 0 -61.763794 -25.26947 -61.763794 -56.440918z" fill-rule="nonzero"></path><path fill="#fce5cd" d="m583.0584 577.5932l0 0c0 -31.171509 27.652588 -56.44098 61.763794 -56.44098l0 0c34.111145 0 61.763733 25.26947 61.763733 56.44098l0 0c0 31.171448 -27.652588 56.440918 -61.763733 56.440918l0 0c-34.111206 0 -61.763794 -25.26947 -61.763794 -56.440918z" fill-rule="nonzero"></path><path stroke="#000000" stroke-width="2.0" stroke-linejoin="round" stroke-linecap="butt" d="m583.0584 577.5932l0 0c0 -31.171509 27.652588 -56.44098 61.763794 -56.44098l0 0c34.111145 0 61.763733 25.26947 61.763733 56.44098l0 0c0 31.171448 -27.652588 56.440918 -61.763733 56.440918l0 0c-34.111206 0 -61.763794 -25.26947 -61.763794 -56.440918z" fill-rule="nonzero"></path><path fill="#fce5cd" d="m279.44095 577.5932l0 0c0 -31.171509 27.652588 -56.44098 61.763763 -56.44098l0 0c34.111206 0 61.763794 25.26947 61.763794 56.44098l0 0c0 31.171448 -27.652588 56.440918 -61.763794 56.440918l0 0c-34.111176 0 -61.763763 -25.26947 -61.763763 -56.440918z" fill-rule="nonzero"></path><path stroke="#000000" stroke-width="2.0" stroke-linejoin="round" stroke-linecap="butt" d="m279.44095 577.5932l0 0c0 -31.171509 27.652588 -56.44098 61.763763 -56.44098l0 0c34.111206 0 61.763794 25.26947 61.763794 56.44098l0 0c0 31.171448 -27.652588 56.440918 -61.763794 56.440918l0 0c-34.111176 0 -61.763763 -25.26947 -61.763763 -56.440918z" fill-rule="nonzero"></path><path fill="#fce5cd" d="m155.91339 577.5932l0 0c0 -31.171509 27.652573 -56.44098 61.76378 -56.44098l0 0c34.11119 0 61.76378 25.26947 61.76378 56.44098l0 0c0 31.171448 -27.652588 56.440918 -61.76378 56.440918l0 0c-34.111206 0 -61.76378 -25.26947 -61.76378 -56.440918z" fill-rule="nonzero"></path><path stroke="#000000" stroke-width="2.0" stroke-linejoin="round" stroke-linecap="butt" d="m155.91339 577.5932l0 0c0 -31.171509 27.652573 -56.44098 61.76378 -56.44098l0 0c34.11119 0 61.76378 25.26947 61.76378 56.44098l0 0c0 31.171448 -27.652588 56.440918 -61.76378 56.440918l0 0c-34.111206 0 -61.76378 -25.26947 -61.76378 -56.440918z" fill-rule="nonzero"></path><path fill="#e6b8af" d="m392.3281 123.81889l0 0c0 -17.977516 13.678223 -32.551178 30.551178 -32.551178l0 0c8.102661 0 15.873474 3.4294891 21.602936 9.534019c5.7294617 6.1045303 8.948242 14.384056 8.948242 23.017159l0 0c0 17.977524 -13.678223 32.551178 -30.551178 32.551178l0 0c-16.872955 0 -30.551178 -14.573654 -30.551178 -32.551178z" fill-rule="nonzero"></path><path stroke="#000000" stroke-width="2.0" stroke-linejoin="round" stroke-linecap="butt" d="m392.3281 123.81889l0 0c0 -17.977516 13.678223 -32.551178 30.551178 -32.551178l0 0c8.102661 0 15.873474 3.4294891 21.602936 9.534019c5.7294617 6.1045303 8.948242 14.384056 8.948242 23.017159l0 0c0 17.977524 -13.678223 32.551178 -30.551178 32.551178l0 0c-16.872955 0 -30.551178 -14.573654 -30.551178 -32.551178z" fill-rule="nonzero"></path><path fill="#e6b8af" d="m615.5827 589.54596l0 0c0 -17.97754 13.678223 -32.55121 30.551147 -32.55121l0 0c8.102661 0 15.873474 3.4295044 21.602966 9.533997c5.729431 6.104553 8.948242 14.384094 8.948242 23.017212l0 0c0 17.977478 -13.678223 32.551147 -30.551208 32.551147l0 0c-16.872925 0 -30.551147 -14.573669 -30.551147 -32.551147z" fill-rule="nonzero"></path><path stroke="#000000" stroke-width="2.0" stroke-linejoin="round" stroke-linecap="butt" d="m615.5827 589.54596l0 0c0 -17.97754 13.678223 -32.55121 30.551147 -32.55121l0 0c8.102661 0 15.873474 3.4295044 21.602966 9.533997c5.729431 6.104553 8.948242 14.384094 8.948242 23.017212l0 0c0 17.977478 -13.678223 32.551147 -30.551208 32.551147l0 0c-16.872925 0 -30.551147 -14.573669 -30.551147 -32.551147z" fill-rule="nonzero"></path><path fill="#e6b8af" d="m491.521 592.0039l0 0c0 -17.977478 13.678223 -32.551147 30.551208 -32.551147l0 0c8.102661 0 15.873474 3.4295044 21.602905 9.533997c5.729492 6.104553 8.948242 14.384094 8.948242 23.01715l0 0c0 17.97754 -13.678223 32.55121 -30.551147 32.55121l0 0c-16.872986 0 -30.551208 -14.573669 -30.551208 -32.55121z" fill-rule="nonzero"></path><path stroke="#000000" stroke-width="2.0" stroke-linejoin="round" stroke-linecap="butt" d="m491.521 592.0039l0 0c0 -17.977478 13.678223 -32.551147 30.551208 -32.551147l0 0c8.102661 0 15.873474 3.4295044 21.602905 9.533997c5.729492 6.104553 8.948242 14.384094 8.948242 23.01715l0 0c0 17.97754 -13.678223 32.55121 -30.551147 32.55121l0 0c-16.872986 0 -30.551208 -14.573669 -30.551208 -32.55121z" fill-rule="nonzero"></path><path fill="#e6b8af" d="m585.8373 410.03543l0 0c0 -17.977509 13.678223 -32.551178 30.551147 -32.551178l0 0c8.102722 0 15.873535 3.4294739 21.602966 9.534027c5.729492 6.1045227 8.948242 14.384033 8.948242 23.01715l0 0c0 17.977509 -13.678223 32.551178 -30.551208 32.551178l0 0c-16.872925 0 -30.551147 -14.573669 -30.551147 -32.551178z" fill-rule="nonzero"></path><path stroke="#000000" stroke-width="2.0" stroke-linejoin="round" stroke-linecap="butt" d="m585.8373 410.03543l0 0c0 -17.977509 13.678223 -32.551178 30.551147 -32.551178l0 0c8.102722 0 15.873535 3.4294739 21.602966 9.534027c5.729492 6.1045227 8.948242 14.384033 8.948242 23.01715l0 0c0 17.977509 -13.678223 32.551178 -30.551208 32.551178l0 0c-16.872925 0 -30.551147 -14.573669 -30.551147 -32.551178z" fill-rule="nonzero"></path><path fill="#e6b8af" d="m457.6168 410.03543l0 0c0 -17.977509 13.678223 -32.551178 30.551178 -32.551178l0 0c8.102692 0 15.873505 3.4294739 21.602966 9.534027c5.729431 6.1045227 8.948242 14.384033 8.948242 23.01715l0 0c0 17.977509 -13.678253 32.551178 -30.551208 32.551178l0 0c-16.872955 0 -30.551178 -14.573669 -30.551178 -32.551178z" fill-rule="nonzero"></path><path stroke="#000000" stroke-width="2.0" stroke-linejoin="round" stroke-linecap="butt" d="m457.6168 410.03543l0 0c0 -17.977509 13.678223 -32.551178 30.551178 -32.551178l0 0c8.102692 0 15.873505 3.4294739 21.602966 9.534027c5.729431 6.1045227 8.948242 14.384033 8.948242 23.01715l0 0c0 17.977509 -13.678253 32.551178 -30.551208 32.551178l0 0c-16.872955 0 -30.551178 -14.573669 -30.551178 -32.551178z" fill-rule="nonzero"></path><path fill="#e6b8af" d="m296.70078 589.54596l0 0c0 -17.97754 13.678253 -32.55121 30.551208 -32.55121l0 0c8.102661 0 15.873474 3.4295044 21.602936 9.533997c5.7294617 6.104553 8.948242 14.384094 8.948242 23.017212l0 0c0 17.977478 -13.678253 32.551147 -30.551178 32.551147l0 0c-16.872955 0 -30.551208 -14.573669 -30.551208 -32.551147z" fill-rule="nonzero"></path><path stroke="#000000" stroke-width="2.0" stroke-linejoin="round" stroke-linecap="butt" d="m296.70078 589.54596l0 0c0 -17.97754 13.678253 -32.55121 30.551208 -32.55121l0 0c8.102661 0 15.873474 3.4295044 21.602936 9.533997c5.7294617 6.104553 8.948242 14.384094 8.948242 23.017212l0 0c0 17.977478 -13.678253 32.551147 -30.551178 32.551147l0 0c-16.872955 0 -30.551208 -14.573669 -30.551208 -32.551147z" fill-rule="nonzero"></path><path fill="#e6b8af" d="m176.48557 589.54596l0 0c0 -17.97754 13.678223 -32.55121 30.551178 -32.55121l0 0c8.102676 0 15.873489 3.4295044 21.602951 9.533997c5.7294617 6.104553 8.948227 14.384094 8.948227 23.017212l0 0c0 17.977478 -13.678223 32.551147 -30.551178 32.551147l0 0c-16.872955 0 -30.551178 -14.573669 -30.551178 -32.551147z" fill-rule="nonzero"></path><path stroke="#000000" stroke-width="2.0" stroke-linejoin="round" stroke-linecap="butt" d="m176.48557 589.54596l0 0c0 -17.97754 13.678223 -32.55121 30.551178 -32.55121l0 0c8.102676 0 15.873489 3.4295044 21.602951 9.533997c5.7294617 6.104553 8.948227 14.384094 8.948227 23.017212l0 0c0 17.977478 -13.678223 32.551147 -30.551178 32.551147l0 0c-16.872955 0 -30.551178 -14.573669 -30.551178 -32.551147z" fill-rule="nonzero"></path><path fill="#e6b8af" d="m310.65353 416.00394l0 0c0 -17.977509 13.678253 -32.551178 30.551178 -32.551178l0 0c8.102692 0 15.873505 3.4294739 21.602966 9.534027c5.7294617 6.1045227 8.948242 14.384033 8.948242 23.01715l0 0c0 17.977509 -13.678253 32.551178 -30.551208 32.551178l0 0c-16.872925 0 -30.551178 -14.573669 -30.551178 -32.551178z" fill-rule="nonzero"></path><path stroke="#000000" stroke-width="2.0" stroke-linejoin="round" stroke-linecap="butt" d="m310.65353 416.00394l0 0c0 -17.977509 13.678253 -32.551178 30.551178 -32.551178l0 0c8.102692 0 15.873505 3.4294739 21.602966 9.534027c5.7294617 6.1045227 8.948242 14.384033 8.948242 23.01715l0 0c0 17.977509 -13.678253 32.551178 -30.551208 32.551178l0 0c-16.872925 0 -30.551178 -14.573669 -30.551178 -32.551178z" fill-rule="nonzero"></path><path fill="#e6b8af" d="m188.60892 410.03543l0 0c0 -17.977509 13.678238 -32.551178 30.551193 -32.551178l0 0c8.102676 0 15.873489 3.4294739 21.602936 9.534027c5.7294617 6.1045227 8.948242 14.384033 8.948242 23.01715l0 0c0 17.977509 -13.678238 32.551178 -30.551178 32.551178l0 0c-16.872955 0 -30.551193 -14.573669 -30.551193 -32.551178z" fill-rule="nonzero"></path><path stroke="#000000" stroke-width="2.0" stroke-linejoin="round" stroke-linecap="butt" d="m188.60892 410.03543l0 0c0 -17.977509 13.678238 -32.551178 30.551193 -32.551178l0 0c8.102676 0 15.873489 3.4294739 21.602936 9.534027c5.7294617 6.1045227 8.948242 14.384033 8.948242 23.01715l0 0c0 17.977509 -13.678238 32.551178 -30.551178 32.551178l0 0c-16.872955 0 -30.551193 -14.573669 -30.551193 -32.551178z" fill-rule="nonzero"></path><path fill="#cc0000" d="m423.60104 144.48026l0 0c-5.0618896 0 -9.165344 -5.5700073 -9.165344 -12.4409485c0 -6.870941 4.1034546 -12.440941 9.165344 -12.440941l0 0c-3.171875 2.6693573 -5.101532 7.375099 -5.101532 12.440941c0 5.0658417 1.929657 9.771591 5.101532 12.4409485z" fill-rule="nonzero"></path><path stroke="#cc0000" stroke-width="2.0" stroke-linejoin="round" stroke-linecap="butt" d="m423.60104 144.48026l0 0c-5.0618896 0 -9.165344 -5.5700073 -9.165344 -12.4409485c0 -6.870941 4.1034546 -12.440941 9.165344 -12.440941l0 0c-3.171875 2.6693573 -5.101532 7.375099 -5.101532 12.440941c0 5.0658417 1.929657 9.771591 5.101532 12.4409485z" fill-rule="nonzero"></path><path fill="#cc0000" d="m405.4252 119.204666l0 0c5.0444946 0.50444794 8.583893 6.455185 7.9055176 13.291336c-0.67840576 6.836151 -5.3177185 11.969009 -10.362213 11.464569l0 0c3.4245605 -2.3397522 5.8121643 -6.829361 6.3123474 -11.869553c0.5001526 -5.0401993 -0.95822144 -9.914406 -3.8556519 -12.886353z" fill-rule="nonzero"></path><path stroke="#cc0000" stroke-width="2.0" stroke-linejoin="round" stroke-linecap="butt" d="m405.4252 119.204666l0 0c5.0444946 0.50444794 8.583893 6.455185 7.9055176 13.291336c-0.67840576 6.836151 -5.3177185 11.969009 -10.362213 11.464569l0 0c3.4245605 -2.3397522 5.8121643 -6.829361 6.3123474 -11.869553c0.5001526 -5.0401993 -0.95822144 -9.914406 -3.8556519 -12.886353z" fill-rule="nonzero"></path><path fill="#cc0000" d="m447.53806 130.40158l0 0c-5.0618896 0 -9.165344 -5.5700073 -9.165344 -12.4409485c0 -6.870949 4.1034546 -12.4409485 9.165344 -12.4409485l0 0c-3.1719055 2.669365 -5.101532 7.375107 -5.101532 12.4409485c0 5.0658417 1.9296265 9.771584 5.101532 12.4409485z" fill-rule="nonzero"></path><path stroke="#cc0000" stroke-width="2.0" stroke-linejoin="round" stroke-linecap="butt" d="m447.53806 130.40158l0 0c-5.0618896 0 -9.165344 -5.5700073 -9.165344 -12.4409485c0 -6.870949 4.1034546 -12.4409485 9.165344 -12.4409485l0 0c-3.1719055 2.669365 -5.101532 7.375107 -5.101532 12.4409485c0 5.0658417 1.9296265 9.771584 5.101532 12.4409485z" fill-rule="nonzero"></path><path fill="#cc0000" d="m429.20734 105.50394l0 0c5.0618896 0.01739502 9.144226 5.601494 9.118134 12.472443c-0.02609253 6.870941 -4.1507263 12.426849 -9.212616 12.409454l0 0c3.1820374 -2.6584702 5.129547 -7.357582 5.148773 -12.423424c0.019256592 -5.0658417 -1.8925171 -9.7782135 -5.054291 -12.458473z" fill-rule="nonzero"></path><path stroke="#cc0000" stroke-width="2.0" stroke-linejoin="round" stroke-linecap="butt" d="m429.20734 105.50394l0 0c5.0618896 0.01739502 9.144226 5.601494 9.118134 12.472443c-0.02609253 6.870941 -4.1507263 12.426849 -9.212616 12.409454l0 0c3.1820374 -2.6584702 5.129547 -7.357582 5.148773 -12.423424c0.019256592 -5.0658417 -1.8925171 -9.7782135 -5.054291 -12.458473z" fill-rule="nonzero"></path><path fill="#cc0000" d="m222.25984 422.47638l0 0c-5.0618896 0 -9.1653595 -5.5700073 -9.1653595 -12.4409485c0 -6.870941 4.10347 -12.4409485 9.1653595 -12.4409485l0 0c-3.1718903 2.6693726 -5.101532 7.375122 -5.101532 12.4409485c0 5.065857 1.9296417 9.771576 5.101532 12.4409485z" fill-rule="nonzero"></path><path stroke="#cc0000" stroke-width="2.0" stroke-linejoin="round" stroke-linecap="butt" d="m222.25984 422.47638l0 0c-5.0618896 0 -9.1653595 -5.5700073 -9.1653595 -12.4409485c0 -6.870941 4.10347 -12.4409485 9.1653595 -12.4409485l0 0c-3.1718903 2.6693726 -5.101532 7.375122 -5.101532 12.4409485c0 5.065857 1.9296417 9.771576 5.101532 12.4409485z" fill-rule="nonzero"></path><path fill="#cc0000" d="m357.2546 428.4449l0 0c-5.0618896 0 -9.165375 -5.5700073 -9.165375 -12.4409485c0 -6.870941 4.103485 -12.4409485 9.165375 -12.4409485l0 0c-3.1719055 2.6693726 -5.101532 7.3750916 -5.101532 12.4409485c0 5.065857 1.9296265 9.771576 5.101532 12.4409485z" fill-rule="nonzero"></path><path stroke="#cc0000" stroke-width="2.0" stroke-linejoin="round" stroke-linecap="butt" d="m357.2546 428.4449l0 0c-5.0618896 0 -9.165375 -5.5700073 -9.165375 -12.4409485c0 -6.870941 4.103485 -12.4409485 9.165375 -12.4409485l0 0c-3.1719055 2.6693726 -5.101532 7.3750916 -5.101532 12.4409485c0 5.065857 1.9296265 9.771576 5.101532 12.4409485z" fill-rule="nonzero"></path><path fill="#cc0000" d="m483.37927 422.47638l0 0c-5.0618896 0 -9.165375 -5.5700073 -9.165375 -12.4409485c0 -6.870941 4.103485 -12.4409485 9.165375 -12.4409485l0 0c-3.1719055 2.6693726 -5.101532 7.375122 -5.101532 12.4409485c0 5.065857 1.9296265 9.771576 5.101532 12.4409485z" fill-rule="nonzero"></path><path stroke="#cc0000" stroke-width="2.0" stroke-linejoin="round" stroke-linecap="butt" d="m483.37927 422.47638l0 0c-5.0618896 0 -9.165375 -5.5700073 -9.165375 -12.4409485c0 -6.870941 4.103485 -12.4409485 9.165375 -12.4409485l0 0c-3.1719055 2.6693726 -5.101532 7.375122 -5.101532 12.4409485c0 5.065857 1.9296265 9.771576 5.101532 12.4409485z" fill-rule="nonzero"></path><path fill="#cc0000" d="m215.02625 601.9869l0 0c-5.0618896 0 -9.1653595 -5.5700073 -9.1653595 -12.440918c0 -6.8709717 4.10347 -12.440979 9.1653595 -12.440979l0 0c-3.1718903 2.6693726 -5.101532 7.375122 -5.101532 12.440979c0 5.065796 1.9296417 9.771545 5.101532 12.440918z" fill-rule="nonzero"></path><path stroke="#cc0000" stroke-width="2.0" stroke-linejoin="round" stroke-linecap="butt" d="m215.02625 601.9869l0 0c-5.0618896 0 -9.1653595 -5.5700073 -9.1653595 -12.440918c0 -6.8709717 4.10347 -12.440979 9.1653595 -12.440979l0 0c-3.1718903 2.6693726 -5.101532 7.375122 -5.101532 12.440979c0 5.065796 1.9296417 9.771545 5.101532 12.440918z" fill-rule="nonzero"></path><path fill="#cc0000" d="m331.83466 601.9869l0 0c-5.0618896 0 -9.165375 -5.5700073 -9.165375 -12.440918c0 -6.8709717 4.103485 -12.440979 9.165375 -12.440979l0 0c-3.1719055 2.6693726 -5.101532 7.375122 -5.101532 12.440979c0 5.065796 1.9296265 9.771545 5.101532 12.440918z" fill-rule="nonzero"></path><path stroke="#cc0000" stroke-width="2.0" stroke-linejoin="round" stroke-linecap="butt" d="m331.83466 601.9869l0 0c-5.0618896 0 -9.165375 -5.5700073 -9.165375 -12.440918c0 -6.8709717 4.103485 -12.440979 9.165375 -12.440979l0 0c-3.1719055 2.6693726 -5.101532 7.375122 -5.101532 12.440979c0 5.065796 1.9296265 9.771545 5.101532 12.440918z" fill-rule="nonzero"></path><path fill="#cc0000" d="m533.7297 595.5801l0 0c-5.0618896 0 -9.165344 -5.5700073 -9.165344 -12.440979c0 -6.8709106 4.1034546 -12.440918 9.165344 -12.440918l0 0c-3.171936 2.6693726 -5.1015625 7.375061 -5.1015625 12.440918c0 5.065857 1.9296265 9.771606 5.1015625 12.440979z" fill-rule="nonzero"></path><path stroke="#cc0000" stroke-width="2.0" stroke-linejoin="round" stroke-linecap="butt" d="m533.7297 595.5801l0 0c-5.0618896 0 -9.165344 -5.5700073 -9.165344 -12.440979c0 -6.8709106 4.1034546 -12.440918 9.165344 -12.440918l0 0c-3.171936 2.6693726 -5.1015625 7.375061 -5.1015625 12.440918c0 5.065857 1.9296265 9.771606 5.1015625 12.440979z" fill-rule="nonzero"></path><path fill="#cc0000" d="m549.4344 610.2493l0 0c-5.0618896 0 -9.165344 -5.5700073 -9.165344 -12.440918c0 -6.8709717 4.1034546 -12.440979 9.165344 -12.440979l0 0c-3.171875 2.6693726 -5.1015015 7.375122 -5.1015015 12.440979c0 5.065857 1.9296265 9.771545 5.1015015 12.440918z" fill-rule="nonzero"></path><path stroke="#cc0000" stroke-width="2.0" stroke-linejoin="round" stroke-linecap="butt" d="m549.4344 610.2493l0 0c-5.0618896 0 -9.165344 -5.5700073 -9.165344 -12.440918c0 -6.8709717 4.1034546 -12.440979 9.165344 -12.440979l0 0c-3.171875 2.6693726 -5.1015015 7.375122 -5.1015015 12.440979c0 5.065857 1.9296265 9.771545 5.1015015 12.440918z" fill-rule="nonzero"></path><path fill="#1155cc" d="m197.77428 601.9869l0 0c-5.0618896 0 -9.1653595 -5.5700073 -9.1653595 -12.440918c0 -6.8709717 4.10347 -12.440979 9.1653595 -12.440979l0 0c-3.1718903 2.6693726 -5.101532 7.375122 -5.101532 12.440979c0 5.065796 1.9296417 9.771545 5.101532 12.440918z" fill-rule="nonzero"></path><path stroke="#1155cc" stroke-width="2.0" stroke-linejoin="round" stroke-linecap="butt" d="m197.77428 601.9869l0 0c-5.0618896 0 -9.1653595 -5.5700073 -9.1653595 -12.440918c0 -6.8709717 4.10347 -12.440979 9.1653595 -12.440979l0 0c-3.1718903 2.6693726 -5.101532 7.375122 -5.101532 12.440979c0 5.065796 1.9296417 9.771545 5.101532 12.440918z" fill-rule="nonzero"></path><path fill="#1155cc" d="m317.33334 601.9869l0 0c-5.0618896 0 -9.165375 -5.5700073 -9.165375 -12.440918c0 -6.8709717 4.103485 -12.440979 9.165375 -12.440979l0 0c-3.1719055 2.6693726 -5.101532 7.375122 -5.101532 12.440979c0 5.065796 1.9296265 9.771545 5.101532 12.440918z" fill-rule="nonzero"></path><path stroke="#1155cc" stroke-width="2.0" stroke-linejoin="round" stroke-linecap="butt" d="m317.33334 601.9869l0 0c-5.0618896 0 -9.165375 -5.5700073 -9.165375 -12.440918c0 -6.8709717 4.103485 -12.440979 9.165375 -12.440979l0 0c-3.1719055 2.6693726 -5.101532 7.375122 -5.101532 12.440979c0 5.065796 1.9296265 9.771545 5.101532 12.440918z" fill-rule="nonzero"></path><path fill="#1155cc" d="m650.3412 601.9869l0 0c-5.0618896 0 -9.165344 -5.5700073 -9.165344 -12.440918c0 -6.8709717 4.1034546 -12.440979 9.165344 -12.440979l0 0c-3.171875 2.6693726 -5.1015015 7.375122 -5.1015015 12.440979c0 5.065796 1.9296265 9.771545 5.1015015 12.440918z" fill-rule="nonzero"></path><path stroke="#1155cc" stroke-width="2.0" stroke-linejoin="round" stroke-linecap="butt" d="m650.3412 601.9869l0 0c-5.0618896 0 -9.165344 -5.5700073 -9.165344 -12.440918c0 -6.8709717 4.1034546 -12.440979 9.165344 -12.440979l0 0c-3.171875 2.6693726 -5.1015015 7.375122 -5.1015015 12.440979c0 5.065796 1.9296265 9.771545 5.1015015 12.440918z" fill-rule="nonzero"></path><path fill="#1155cc" d="m518.02496 610.2493l0 0c-5.0618896 0 -9.165375 -5.5700073 -9.165375 -12.440918c0 -6.8709717 4.103485 -12.440979 9.165375 -12.440979l0 0c-3.171936 2.6693726 -5.1015625 7.375122 -5.1015625 12.440979c0 5.065857 1.9296265 9.771545 5.1015625 12.440918z" fill-rule="nonzero"></path><path stroke="#1155cc" stroke-width="2.0" stroke-linejoin="round" stroke-linecap="butt" d="m518.02496 610.2493l0 0c-5.0618896 0 -9.165375 -5.5700073 -9.165375 -12.440918c0 -6.8709717 4.103485 -12.440979 9.165375 -12.440979l0 0c-3.171936 2.6693726 -5.1015625 7.375122 -5.1015625 12.440979c0 5.065857 1.9296265 9.771545 5.1015625 12.440918z" fill-rule="nonzero"></path><path fill="#000000" d="m209.75853 507.32022l4.7007904 0l0 -39.95276l9.401566 0l0 39.95276l4.7007904 0l-9.401566 9.401581z" fill-rule="nonzero"></path><path stroke="#000000" stroke-width="2.0" stroke-linejoin="round" stroke-linecap="butt" d="m209.75853 507.32022l4.7007904 0l0 -39.95276l9.401566 0l0 39.95276l4.7007904 0l-9.401566 9.401581z" fill-rule="nonzero"></path><path fill="#000000" d="m498.5958 507.32022l4.7008057 0l0 -39.95276l9.401581 0l0 39.95276l4.7007446 0l-9.40155 9.401581z" fill-rule="nonzero"></path><path stroke="#000000" stroke-width="2.0" stroke-linejoin="round" stroke-linecap="butt" d="m498.5958 507.32022l4.7008057 0l0 -39.95276l9.401581 0l0 39.95276l4.7007446 0l-9.40155 9.401581z" fill-rule="nonzero"></path><path fill="#000000" d="m331.80316 507.32022l4.700775 0l0 -39.95276l9.401581 0l0 39.95276l4.700775 0l-9.401581 9.401581z" fill-rule="nonzero"></path><path stroke="#000000" stroke-width="2.0" stroke-linejoin="round" stroke-linecap="butt" d="m331.80316 507.32022l4.700775 0l0 -39.95276l9.401581 0l0 39.95276l4.700775 0l-9.401581 9.401581z" fill-rule="nonzero"></path><path fill="#000000" d="m636.35693 507.32022l4.7008057 0l0 -39.95276l9.40155 0l0 39.95276l4.7008057 0l-9.40155 9.401581z" fill-rule="nonzero"></path><path stroke="#000000" stroke-width="2.0" stroke-linejoin="round" stroke-linecap="butt" d="m636.35693 507.32022l4.7008057 0l0 -39.95276l9.40155 0l0 39.95276l4.7008057 0l-9.40155 9.401581z" fill-rule="nonzero"></path><path fill="#000000" d="m335.98212 181.49052l3.763794 2.8189087l23.965363 -31.970856l7.5275574 5.637802l-23.965363 31.97084l3.7637634 2.8188934l-13.168457 1.8874359z" fill-rule="nonzero"></path><path stroke="#000000" stroke-width="2.0" stroke-linejoin="round" stroke-linecap="butt" d="m335.98212 181.49052l3.763794 2.8189087l23.965363 -31.970856l7.5275574 5.637802l-23.965363 31.97084l3.7637634 2.8188934l-13.168457 1.8874359z" fill-rule="nonzero"></path><path fill="#000000" d="m496.72955 189.14389l3.5747986 -3.0629883l-25.973633 -30.357803l7.149597 -6.125992l25.973633 30.357819l3.5747986 -3.0630035l-1.0287476 13.279999z" fill-rule="nonzero"></path><path stroke="#000000" stroke-width="2.0" stroke-linejoin="round" stroke-linecap="butt" d="m496.72955 189.14389l3.5747986 -3.0629883l-25.973633 -30.357803l7.149597 -6.125992l25.973633 30.357819l3.5747986 -3.0630035l-1.0287476 13.279999z" fill-rule="nonzero"></path><path fill="#000000" d="m233.14008 330.16113l6.1730804 2.501831l16.815231 -41.632904l7.937317 3.2168274l-16.815231 41.632904l6.1730804 2.501831l-14.239883 6.036377z" fill-rule="nonzero"></path><path stroke="#000000" stroke-width="2.0" stroke-linejoin="round" stroke-linecap="butt" d="m233.14008 330.16113l6.1730804 2.501831l16.815231 -41.632904l7.937317 3.2168274l-16.815231 41.632904l6.1730804 2.501831l-14.239883 6.036377z" fill-rule="nonzero"></path><path fill="#000000" d="m336.24924 338.1804l4.5275574 -1.2598572l-10.734009 -38.47415l9.055115 -2.5196838l10.734009 38.47415l4.5275574 -1.2598267l-6.5292664 11.57309z" fill-rule="nonzero"></path><path stroke="#000000" stroke-width="2.0" stroke-linejoin="round" stroke-linecap="butt" d="m336.24924 338.1804l4.5275574 -1.2598572l-10.734009 -38.47415l9.055115 -2.5196838l10.734009 38.47415l4.5275574 -1.2598267l-6.5292664 11.57309z" fill-rule="nonzero"></path><path fill="#000000" d="m591.7798 342.29648l4.456665 -1.4881897l-14.765381 -44.374786l8.913391 -2.9763794l14.765381 44.374786l4.456726 -1.4881897l-5.946533 11.892944z" fill-rule="nonzero"></path><path stroke="#000000" stroke-width="2.0" stroke-linejoin="round" stroke-linecap="butt" d="m591.7798 342.29648l4.456665 -1.4881897l-14.765381 -44.374786l8.913391 -2.9763794l14.765381 44.374786l4.456726 -1.4881897l-5.946533 11.892944z" fill-rule="nonzero"></path><path fill="#000000" d="m500.4915 337.20056l4.551178 1.1889648l10.068909 -38.644135l9.102356 2.3779602l-10.068909 38.644135l4.5512085 1.1889954l-11.474457 6.7259216z" fill-rule="nonzero"></path><path stroke="#000000" stroke-width="2.0" stroke-linejoin="round" stroke-linecap="butt" d="m500.4915 337.20056l4.551178 1.1889648l10.068909 -38.644135l9.102356 2.3779602l-10.068909 38.644135l4.5512085 1.1889954l-11.474457 6.7259216z" fill-rule="nonzero"></path><path fill="#cfe2f3" d="m136.34036 455.66095l23.478455 -17.28009l0 0c3.0757446 -2.263733 8.871353 0.38745117 12.94487 5.921631c4.073517 5.534149 4.88237 11.855591 1.8066254 14.119324l-23.478455 17.28006l0 0c-3.0757446 2.2637634 -8.871353 -0.38745117 -12.94487 -5.9216003c-4.073517 -5.534149 -4.88237 -11.855591 -1.8066254 -14.119324z" fill-rule="nonzero"></path><path stroke="#000000" stroke-width="2.0" stroke-linejoin="round" stroke-linecap="butt" d="m136.34036 455.66095l23.478455 -17.28009l0 0c3.0757446 -2.263733 8.871353 0.38745117 12.94487 5.921631c4.073517 5.534149 4.88237 11.855591 1.8066254 14.119324l-23.478455 17.28006l0 0c-3.0757446 2.2637634 -8.871353 -0.38745117 -12.94487 -5.9216003c-4.073517 -5.534149 -4.88237 -11.855591 -1.8066254 -14.119324z" fill-rule="nonzero"></path><path fill="#cfe2f3" d="m563.52704 487.45358l-18.79889 -22.282623l0 0c-2.4627075 -2.9190674 -0.20123291 -8.877045 5.0510864 -13.307495c5.2523804 -4.4304504 11.506653 -5.65567 13.96936 -2.7365723l18.79895 22.282593l0 0c2.4627075 2.919098 0.20123291 8.877075 -5.0511475 13.307526c-5.2523193 4.4304504 -11.506653 5.65567 -13.96936 2.7365723z" fill-rule="nonzero"></path><path stroke="#000000" stroke-width="2.0" stroke-linejoin="round" stroke-linecap="butt" d="m563.52704 487.45358l-18.79889 -22.282623l0 0c-2.4627075 -2.9190674 -0.20123291 -8.877045 5.0510864 -13.307495c5.2523804 -4.4304504 11.506653 -5.65567 13.96936 -2.7365723l18.79895 22.282593l0 0c2.4627075 2.919098 0.20123291 8.877075 -5.0511475 13.307526c-5.2523193 4.4304504 -11.506653 5.65567 -13.96936 2.7365723z" fill-rule="nonzero"></path><path fill="#cfe2f3" d="m690.4705 438.5176l24.382019 15.980408l0 0c3.1941528 2.0935059 2.6919556 8.506622 -1.1217041 14.324127c-3.8136597 5.8175354 -9.494568 8.836456 -12.68866 6.742981l-24.38208 -15.980438l0 0c-3.1940918 -2.0934753 -2.6918945 -8.506592 1.1217651 -14.324097c3.8135986 -5.8175354 9.494507 -8.836456 12.68866 -6.742981z" fill-rule="nonzero"></path><path stroke="#000000" stroke-width="2.0" stroke-linejoin="round" stroke-linecap="butt" d="m690.4705 438.5176l24.382019 15.980408l0 0c3.1941528 2.0935059 2.6919556 8.506622 -1.1217041 14.324127c-3.8136597 5.8175354 -9.494568 8.836456 -12.68866 6.742981l-24.38208 -15.980438l0 0c-3.1940918 -2.0934753 -2.6918945 -8.506592 1.1217651 -14.324097c3.8135986 -5.8175354 9.494507 -8.836456 12.68866 -6.742981z" fill-rule="nonzero"></path><path fill="#cfe2f3" d="m281.45462 478.1697l13.934814 -25.604828l0 0c1.8255005 -3.354309 8.197784 -3.4108887 14.23291 -0.12640381c6.0351257 3.2844849 9.447693 8.66629 7.622223 12.020569l-13.934814 25.604828l0 0c-1.8255005 3.354309 -8.197784 3.4108887 -14.23291 0.12640381c-6.0351257 -3.2844849 -9.447693 -8.66629 -7.622223 -12.020569z" fill-rule="nonzero"></path><path stroke="#000000" stroke-width="2.0" stroke-linejoin="round" stroke-linecap="butt" d="m281.45462 478.1697l13.934814 -25.604828l0 0c1.8255005 -3.354309 8.197784 -3.4108887 14.23291 -0.12640381c6.0351257 3.2844849 9.447693 8.66629 7.622223 12.020569l-13.934814 25.604828l0 0c-1.8255005 3.354309 -8.197784 3.4108887 -14.23291 0.12640381c-6.0351257 -3.2844849 -9.447693 -8.66629 -7.622223 -12.020569z" fill-rule="nonzero"></path><path fill="#cfe2f3" d="m111.98819 484.16595l24.143127 -16.798492l6.0342712 8.672546l-24.143127 16.798523z" fill-rule="nonzero"></path><path stroke="#000000" stroke-width="2.0" stroke-linejoin="round" stroke-linecap="butt" d="m111.98819 484.16595l24.143127 -16.798492l6.0342712 8.672546l-24.143127 16.798523z" fill-rule="nonzero"></path><path fill="#000000" fill-opacity="0.0" d="m111.96302 484.46048c-3.3777695 3.728485 -12.926491 20.188934 -20.26661 22.370941c-7.340126 2.1819763 -16.189865 -12.086517 -23.77414 -9.278961c-7.584278 2.8075256 -18.109592 21.770172 -21.731514 26.124237" fill-rule="nonzero"></path><path stroke="#000000" stroke-width="2.0" stroke-linejoin="round" stroke-linecap="butt" d="m111.96302 484.46048c-3.3777695 3.728485 -12.926491 20.188934 -20.26661 22.370941c-7.340126 2.1819763 -16.189865 -12.086517 -23.77414 -9.278961c-7.584278 2.8075256 -18.109592 21.770172 -21.731514 26.124237" fill-rule="nonzero"></path><path fill="#000000" fill-opacity="0.0" d="m284.50485 505.64304c-1.5397034 4.7893677 -3.4511719 23.721893 -9.23819 28.736298c-5.7870483 5.0143433 -19.732468 -4.334961 -25.483963 1.3499756c-5.7515106 5.6849365 -7.5208893 27.299622 -9.02507 32.75952" fill-rule="nonzero"></path><path stroke="#000000" stroke-width="2.0" stroke-linejoin="round" stroke-linecap="butt" d="m284.50485 505.64304c-1.5397034 4.7893677 -3.4511719 23.721893 -9.23819 28.736298c-5.7870483 5.0143433 -19.732468 -4.334961 -25.483963 1.3499756c-5.7515106 5.6849365 -7.5208893 27.299622 -9.02507 32.75952" fill-rule="nonzero"></path><path fill="#000000" fill-opacity="0.0" d="m730.1915 482.49637c3.8293457 3.2627563 20.572083 12.3063965 22.976196 19.5766c2.4040527 7.2702026 -11.58844 16.549408 -8.551636 24.044647c3.0367432 7.4952393 22.31012 17.438904 26.772156 20.926697" fill-rule="nonzero"></path><path stroke="#000000" stroke-width="2.0" stroke-linejoin="round" stroke-linecap="butt" d="m730.1915 482.49637c3.8293457 3.2627563 20.572083 12.3063965 22.976196 19.5766c2.4040527 7.2702026 -11.58844 16.549408 -8.551636 24.044647c3.0367432 7.4952393 22.31012 17.438904 26.772156 20.926697" fill-rule="nonzero"></path><path fill="#000000" fill-opacity="0.0" d="m593.2003 499.46332c3.1781006 3.8997192 18.015137 15.813965 19.068726 23.398315c1.0535889 7.5843506 -14.382385 14.187988 -12.74707 22.107727c1.6352539 7.919739 18.799072 21.175598 22.558899 25.410706" fill-rule="nonzero"></path><path stroke="#000000" stroke-width="2.0" stroke-linejoin="round" stroke-linecap="butt" d="m593.2003 499.46332c3.1781006 3.8997192 18.015137 15.813965 19.068726 23.398315c1.0535889 7.5843506 -14.382385 14.187988 -12.74707 22.107727c1.6352539 7.919739 18.799072 21.175598 22.558899 25.410706" fill-rule="nonzero"></path><path fill="#cfe2f3" d="m274.47412 508.8086l13.143341 -26.312225l9.451721 4.721283l-13.143341 26.312256z" fill-rule="nonzero"></path><path stroke="#000000" stroke-width="2.0" stroke-linejoin="round" stroke-linecap="butt" d="m274.47412 508.8086l13.143341 -26.312225l9.451721 4.721283l-13.143341 26.312256z" fill-rule="nonzero"></path><path fill="#cfe2f3" d="m589.3356 506.7098l-18.88916 -22.545105l8.098511 -6.785248l18.88916 22.545105z" fill-rule="nonzero"></path><path stroke="#000000" stroke-width="2.0" stroke-linejoin="round" stroke-linecap="butt" d="m589.3356 506.7098l-18.88916 -22.545105l8.098511 -6.785248l18.88916 22.545105z" fill-rule="nonzero"></path><path fill="#cfe2f3" d="m727.79443 484.48154l-23.283997 -17.970367l6.4552 -8.363953l23.284058 17.970367z" fill-rule="nonzero"></path><path stroke="#000000" stroke-width="2.0" stroke-linejoin="round" stroke-linecap="butt" d="m727.79443 484.48154l-23.283997 -17.970367l6.4552 -8.363953l23.284058 17.970367z" fill-rule="nonzero"></path><path fill="#1155cc" d="m159.35576 469.48233l0 0c-5.0618896 0 -9.1653595 -5.5700073 -9.1653595 -12.4409485c0 -6.870941 4.10347 -12.4409485 9.1653595 -12.4409485l0 0c-3.1718903 2.6693726 -5.101532 7.3750916 -5.101532 12.4409485c0 5.0658264 1.9296417 9.771576 5.101532 12.4409485z" fill-rule="nonzero"></path><path stroke="#1155cc" stroke-width="2.0" stroke-linejoin="round" stroke-linecap="butt" d="m159.35576 469.48233l0 0c-5.0618896 0 -9.1653595 -5.5700073 -9.1653595 -12.4409485c0 -6.870941 4.10347 -12.4409485 9.1653595 -12.4409485l0 0c-3.1718903 2.6693726 -5.101532 7.3750916 -5.101532 12.4409485c0 5.0658264 1.9296417 9.771576 5.101532 12.4409485z" fill-rule="nonzero"></path><path fill="#1155cc" d="m303.4469 483.75534l0 0c-5.061859 0 -9.165344 -5.5700073 -9.165344 -12.4409485c0 -6.870941 4.103485 -12.4409485 9.165344 -12.4409485l0 0c-3.171875 2.6693726 -5.1015015 7.3750916 -5.1015015 12.4409485c0 5.0658264 1.9296265 9.771576 5.1015015 12.4409485z" fill-rule="nonzero"></path><path stroke="#1155cc" stroke-width="2.0" stroke-linejoin="round" stroke-linecap="butt" d="m303.4469 483.75534l0 0c-5.061859 0 -9.165344 -5.5700073 -9.165344 -12.4409485c0 -6.870941 4.103485 -12.4409485 9.165344 -12.4409485l0 0c-3.171875 2.6693726 -5.1015015 7.3750916 -5.1015015 12.4409485c0 5.0658264 1.9296265 9.771576 5.1015015 12.4409485z" fill-rule="nonzero"></path><path fill="#1155cc" d="m568.2205 480.73117l0 0c-5.0618896 0 -9.165344 -5.5700073 -9.165344 -12.4409485c0 -6.870941 4.1034546 -12.4409485 9.165344 -12.4409485l0 0c-3.171875 2.6693726 -5.1015625 7.375122 -5.1015625 12.4409485c0 5.065857 1.9296875 9.771606 5.1015625 12.4409485z" fill-rule="nonzero"></path><path stroke="#1155cc" stroke-width="2.0" stroke-linejoin="round" stroke-linecap="butt" d="m568.2205 480.73117l0 0c-5.0618896 0 -9.165344 -5.5700073 -9.165344 -12.4409485c0 -6.870941 4.1034546 -12.4409485 9.165344 -12.4409485l0 0c-3.171875 2.6693726 -5.1015625 7.375122 -5.1015625 12.4409485c0 5.065857 1.9296875 9.771606 5.1015625 12.4409485z" fill-rule="nonzero"></path><path fill="#1155cc" d="m699.55176 469.48233l0 0c-5.0618896 0 -9.165344 -5.5700073 -9.165344 -12.4409485c0 -6.870941 4.1034546 -12.4409485 9.165344 -12.4409485l0 0c-3.171875 2.6693726 -5.1015015 7.3750916 -5.1015015 12.4409485c0 5.0658264 1.9296265 9.771576 5.1015015 12.4409485z" fill-rule="nonzero"></path><path stroke="#1155cc" stroke-width="2.0" stroke-linejoin="round" stroke-linecap="butt" d="m699.55176 469.48233l0 0c-5.0618896 0 -9.165344 -5.5700073 -9.165344 -12.4409485c0 -6.870941 4.1034546 -12.4409485 9.165344 -12.4409485l0 0c-3.171875 2.6693726 -5.1015015 7.3750916 -5.1015015 12.4409485c0 5.0658264 1.9296265 9.771576 5.1015015 12.4409485z" fill-rule="nonzero"></path><path fill="#fce5cd" d="m1272.7375 123.81889l0 0c0 -31.17147 27.652588 -56.44094 61.763794 -56.44094l0 0c34.111206 0 61.763794 25.26947 61.763794 56.44094l0 0c0 31.171478 -27.652588 56.44095 -61.763794 56.44095l0 0c-34.111206 0 -61.763794 -25.26947 -61.763794 -56.44095z" fill-rule="nonzero"></path><path stroke="#000000" stroke-width="2.0" stroke-linejoin="round" stroke-linecap="butt" d="m1272.7375 123.81889l0 0c0 -31.17147 27.652588 -56.44094 61.763794 -56.44094l0 0c34.111206 0 61.763794 25.26947 61.763794 56.44094l0 0c0 31.171478 -27.652588 56.44095 -61.763794 56.44095l0 0c-34.111206 0 -61.763794 -25.26947 -61.763794 -56.44095z" fill-rule="nonzero"></path><path fill="#fce5cd" d="m1410.4266 246.84l0 0c0 -31.171478 27.652588 -56.44095 61.763794 -56.44095l0 0c34.111206 0 61.763794 25.26947 61.763794 56.44095l0 0c0 31.171478 -27.652588 56.44095 -61.763794 56.44095l0 0c-34.111206 0 -61.763794 -25.26947 -61.763794 -56.44095z" fill-rule="nonzero"></path><path stroke="#000000" stroke-width="2.0" stroke-linejoin="round" stroke-linecap="butt" d="m1410.4266 246.84l0 0c0 -31.171478 27.652588 -56.44095 61.763794 -56.44095l0 0c34.111206 0 61.763794 25.26947 61.763794 56.44095l0 0c0 31.171478 -27.652588 56.44095 -61.763794 56.44095l0 0c-34.111206 0 -61.763794 -25.26947 -61.763794 -56.44095z" fill-rule="nonzero"></path><path fill="#fce5cd" d="m1149.21 247.33595l0 0c0 -31.171463 27.652588 -56.440933 61.763794 -56.440933l0 0c34.111206 0 61.763794 25.26947 61.763794 56.440933l0 0c0 31.171463 -27.652588 56.440933 -61.763794 56.440933l0 0c-34.111206 0 -61.763794 -25.26947 -61.763794 -56.440933z" fill-rule="nonzero"></path><path stroke="#000000" stroke-width="2.0" stroke-linejoin="round" stroke-linecap="butt" d="m1149.21 247.33595l0 0c0 -31.171463 27.652588 -56.440933 61.763794 -56.440933l0 0c34.111206 0 61.763794 25.26947 61.763794 56.440933l0 0c0 31.171463 -27.652588 56.440933 -61.763794 56.440933l0 0c-34.111206 0 -61.763794 -25.26947 -61.763794 -56.440933z" fill-rule="nonzero"></path><path fill="#fce5cd" d="m1476.5486 406.49606l0 0c0 -31.171478 27.652588 -56.44095 61.763794 -56.44095l0 0c34.111206 0 61.763794 25.26947 61.763794 56.44095l0 0c0 31.171478 -27.652588 56.44095 -61.763794 56.44095l0 0c-34.111206 0 -61.763794 -25.26947 -61.763794 -56.44095z" fill-rule="nonzero"></path><path stroke="#000000" stroke-width="2.0" stroke-linejoin="round" stroke-linecap="butt" d="m1476.5486 406.49606l0 0c0 -31.171478 27.652588 -56.44095 61.763794 -56.44095l0 0c34.111206 0 61.763794 25.26947 61.763794 56.44095l0 0c0 31.171478 -27.652588 56.44095 -61.763794 56.44095l0 0c-34.111206 0 -61.763794 -25.26947 -61.763794 -56.44095z" fill-rule="nonzero"></path><path fill="#fce5cd" d="m1353.021 406.49606l0 0c0 -31.171478 27.652588 -56.44095 61.763794 -56.44095l0 0c34.111206 0 61.763794 25.26947 61.763794 56.44095l0 0c0 31.171478 -27.652588 56.44095 -61.763794 56.44095l0 0c-34.111206 0 -61.763794 -25.26947 -61.763794 -56.44095z" fill-rule="nonzero"></path><path stroke="#000000" stroke-width="2.0" stroke-linejoin="round" stroke-linecap="butt" d="m1353.021 406.49606l0 0c0 -31.171478 27.652588 -56.44095 61.763794 -56.44095l0 0c34.111206 0 61.763794 25.26947 61.763794 56.44095l0 0c0 31.171478 -27.652588 56.44095 -61.763794 56.44095l0 0c-34.111206 0 -61.763794 -25.26947 -61.763794 -56.44095z" fill-rule="nonzero"></path><path fill="#fce5cd" d="m1194.6606 402.28082l0 0c0 -31.171448 27.652588 -56.440918 61.76367 -56.440918l0 0c34.111206 0 61.763794 25.26947 61.763794 56.440918l0 0c0 31.171478 -27.652588 56.44095 -61.763794 56.44095l0 0c-34.111084 0 -61.76367 -25.26947 -61.76367 -56.44095z" fill-rule="nonzero"></path><path stroke="#000000" stroke-width="2.0" stroke-linejoin="round" stroke-linecap="butt" d="m1194.6606 402.28082l0 0c0 -31.171448 27.652588 -56.440918 61.76367 -56.440918l0 0c34.111206 0 61.763794 25.26947 61.763794 56.440918l0 0c0 31.171478 -27.652588 56.44095 -61.763794 56.44095l0 0c-34.111084 0 -61.76367 -25.26947 -61.76367 -56.44095z" fill-rule="nonzero"></path><path fill="#fce5cd" d="m1070.9628 402.28082l0 0c0 -31.171448 27.652588 -56.440918 61.763794 -56.440918l0 0c34.111206 0 61.763794 25.26947 61.763794 56.440918l0 0c0 31.171478 -27.652588 56.44095 -61.763794 56.44095l0 0c-34.111206 0 -61.763794 -25.26947 -61.763794 -56.44095z" fill-rule="nonzero"></path><path stroke="#000000" stroke-width="2.0" stroke-linejoin="round" stroke-linecap="butt" d="m1070.9628 402.28082l0 0c0 -31.171448 27.652588 -56.440918 61.763794 -56.440918l0 0c34.111206 0 61.763794 25.26947 61.763794 56.440918l0 0c0 31.171478 -27.652588 56.44095 -61.763794 56.44095l0 0c-34.111206 0 -61.763794 -25.26947 -61.763794 -56.44095z" fill-rule="nonzero"></path><path fill="#fce5cd" d="m1499.5406 573.1627l0 0c0 -31.171448 27.652588 -56.440918 61.763794 -56.440918l0 0c34.111206 0 61.763794 25.26947 61.763794 56.440918l0 0c0 31.171509 -27.652588 56.44098 -61.763794 56.44098l0 0c-34.111206 0 -61.763794 -25.26947 -61.763794 -56.44098z" fill-rule="nonzero"></path><path stroke="#000000" stroke-width="2.0" stroke-linejoin="round" stroke-linecap="butt" d="m1499.5406 573.1627l0 0c0 -31.171448 27.652588 -56.440918 61.763794 -56.440918l0 0c34.111206 0 61.763794 25.26947 61.763794 56.440918l0 0c0 31.171509 -27.652588 56.44098 -61.763794 56.44098l0 0c-34.111206 0 -61.763794 -25.26947 -61.763794 -56.44098z" fill-rule="nonzero"></path><path fill="#fce5cd" d="m1376.0132 577.5932l0 0c0 -31.171509 27.652466 -56.44098 61.76367 -56.44098l0 0c34.111206 0 61.763794 25.26947 61.763794 56.44098l0 0c0 31.171448 -27.652588 56.440918 -61.763794 56.440918l0 0c-34.111206 0 -61.76367 -25.26947 -61.76367 -56.440918z" fill-rule="nonzero"></path><path stroke="#000000" stroke-width="2.0" stroke-linejoin="round" stroke-linecap="butt" d="m1376.0132 577.5932l0 0c0 -31.171509 27.652466 -56.44098 61.76367 -56.44098l0 0c34.111206 0 61.763794 25.26947 61.763794 56.44098l0 0c0 31.171448 -27.652588 56.440918 -61.763794 56.440918l0 0c-34.111206 0 -61.76367 -25.26947 -61.76367 -56.440918z" fill-rule="nonzero"></path><path fill="#fce5cd" d="m1178.2074 573.1627l0 0c0 -31.171448 27.652588 -56.440918 61.76367 -56.440918l0 0c34.111206 0 61.763794 25.26947 61.763794 56.440918l0 0c0 31.171509 -27.652588 56.44098 -61.763794 56.44098l0 0c-34.111084 0 -61.76367 -25.26947 -61.76367 -56.44098z" fill-rule="nonzero"></path><path stroke="#000000" stroke-width="2.0" stroke-linejoin="round" stroke-linecap="butt" d="m1178.2074 573.1627l0 0c0 -31.171448 27.652588 -56.440918 61.76367 -56.440918l0 0c34.111206 0 61.763794 25.26947 61.763794 56.440918l0 0c0 31.171509 -27.652588 56.44098 -61.763794 56.44098l0 0c-34.111084 0 -61.76367 -25.26947 -61.76367 -56.44098z" fill-rule="nonzero"></path><path fill="#fce5cd" d="m1054.6798 573.1627l0 0c0 -31.171448 27.652588 -56.440918 61.763794 -56.440918l0 0c34.111206 0 61.763794 25.26947 61.763794 56.440918l0 0c0 31.171509 -27.652588 56.44098 -61.763794 56.44098l0 0c-34.111206 0 -61.763794 -25.26947 -61.763794 -56.44098z" fill-rule="nonzero"></path><path stroke="#000000" stroke-width="2.0" stroke-linejoin="round" stroke-linecap="butt" d="m1054.6798 573.1627l0 0c0 -31.171448 27.652588 -56.440918 61.763794 -56.440918l0 0c34.111206 0 61.763794 25.26947 61.763794 56.440918l0 0c0 31.171509 -27.652588 56.44098 -61.763794 56.44098l0 0c-34.111206 0 -61.763794 -25.26947 -61.763794 -56.44098z" fill-rule="nonzero"></path><path fill="#000000" d="m1245.7144 181.49052l3.763794 2.8189087l23.965454 -31.970856l7.527466 5.637802l-23.965332 31.97084l3.763794 2.8188934l-13.168457 1.8874359z" fill-rule="nonzero"></path><path stroke="#000000" stroke-width="2.0" stroke-linejoin="round" stroke-linecap="butt" d="m1245.7144 181.49052l3.763794 2.8189087l23.965454 -31.970856l7.527466 5.637802l-23.965332 31.97084l3.763794 2.8188934l-13.168457 1.8874359z" fill-rule="nonzero"></path><path fill="#000000" d="m1416.0049 195.08804l3.574829 -3.0629883l-28.05481 -32.812454l7.149658 -6.125992l28.05481 32.812454l3.574707 -3.0629883l-1.0311279 13.282043z" fill-rule="nonzero"></path><path stroke="#000000" stroke-width="2.0" stroke-linejoin="round" stroke-linecap="butt" d="m1416.0049 195.08804l3.574829 -3.0629883l-28.05481 -32.812454l7.149658 -6.125992l28.05481 32.812454l3.574707 -3.0629883l-1.0311279 13.282043z" fill-rule="nonzero"></path><path fill="#000000" d="m1522.129 338.8238l4.527588 -1.2598572l-12.810669 -45.876312l9.055176 -2.5196838l12.810547 45.876312l4.527588 -1.2598267l-6.5270996 11.572479z" fill-rule="nonzero"></path><path stroke="#000000" stroke-width="2.0" stroke-linejoin="round" stroke-linecap="butt" d="m1522.129 338.8238l4.527588 -1.2598572l-12.810669 -45.876312l9.055176 -2.5196838l12.810547 45.876312l4.527588 -1.2598267l-6.5270996 11.572479z" fill-rule="nonzero"></path><path fill="#000000" d="m1256.6492 335.52997l4.590576 -1.0551147l-8.946045 -38.94461l9.181152 -2.1102295l8.946045 38.94461l4.590576 -1.0551147l-7.0721436 11.291595z" fill-rule="nonzero"></path><path stroke="#000000" stroke-width="2.0" stroke-linejoin="round" stroke-linecap="butt" d="m1256.6492 335.52997l4.590576 -1.0551147l-8.946045 -38.94461l9.181152 -2.1102295l8.946045 38.94461l4.590576 -1.0551147l-7.0721436 11.291595z" fill-rule="nonzero"></path><path fill="#000000" d="m1141.1086 330.16113l6.1730957 2.501831l16.815186 -41.632904l7.937378 3.2168274l-16.815308 41.632904l6.1730957 2.501831l-14.239868 6.036377z" fill-rule="nonzero"></path><path stroke="#000000" stroke-width="2.0" stroke-linejoin="round" stroke-linecap="butt" d="m1141.1086 330.16113l6.1730957 2.501831l16.815186 -41.632904l7.937378 3.2168274l-16.815308 41.632904l6.1730957 2.501831l-14.239868 6.036377z" fill-rule="nonzero"></path><path fill="#000000" d="m1122.4434 502.99738l4.7008057 0l0 -39.95276l9.401611 0l0 39.95276l4.7008057 0l-9.401611 9.40155z" fill-rule="nonzero"></path><path stroke="#000000" stroke-width="2.0" stroke-linejoin="round" stroke-linecap="butt" d="m1122.4434 502.99738l4.7008057 0l0 -39.95276l9.401611 0l0 39.95276l4.7008057 0l-9.401611 9.40155z" fill-rule="nonzero"></path><path fill="#000000" d="m1240.0735 502.99738l4.7008057 0l0 -39.95276l9.401611 0l0 39.95276l4.7006836 0l-9.401489 9.40155z" fill-rule="nonzero"></path><path stroke="#000000" stroke-width="2.0" stroke-linejoin="round" stroke-linecap="butt" d="m1240.0735 502.99738l4.7008057 0l0 -39.95276l9.401611 0l0 39.95276l4.7006836 0l-9.401489 9.40155z" fill-rule="nonzero"></path><path fill="#000000" d="m1418.5914 507.99402l4.6850586 -0.34646606l-2.9836426 -39.858887l9.369995 -0.6929016l2.9837646 39.858887l4.6850586 -0.34646606l-8.668823 10.062347z" fill-rule="nonzero"></path><path stroke="#000000" stroke-width="2.0" stroke-linejoin="round" stroke-linecap="butt" d="m1418.5914 507.99402l4.6850586 -0.34646606l-2.9836426 -39.858887l9.369995 -0.6929016l2.9837646 39.858887l4.6850586 -0.34646606l-8.668823 10.062347z" fill-rule="nonzero"></path><path fill="#000000" d="m1551.9028 505.10498l4.7008057 0l0 -39.95276l9.401611 0l0 39.95276l4.7008057 0l-9.401611 9.401611z" fill-rule="nonzero"></path><path stroke="#000000" stroke-width="2.0" stroke-linejoin="round" stroke-linecap="butt" d="m1551.9028 505.10498l4.7008057 0l0 -39.95276l9.401611 0l0 39.95276l4.7008057 0l-9.401611 9.401611z" fill-rule="nonzero"></path><path fill="#000000" d="m1424.8262 337.20056l4.5511475 1.1889648l10.068848 -38.644135l9.102417 2.3779602l-10.06897 38.644135l4.5512695 1.1889954l-11.474487 6.7259216z" fill-rule="nonzero"></path><path stroke="#000000" stroke-width="2.0" stroke-linejoin="round" stroke-linecap="butt" d="m1424.8262 337.20056l4.5511475 1.1889648l10.068848 -38.644135l9.102417 2.3779602l-10.06897 38.644135l4.5512695 1.1889954l-11.474487 6.7259216z" fill-rule="nonzero"></path><path fill="#e6b8af" d="m1436.4226 259.28873l0 0c0 -17.97754 13.678223 -32.551193 30.551147 -32.551193l0 0c8.102661 0 15.873535 3.4294891 21.602905 9.534012c5.729492 6.104538 8.948242 14.384064 8.948242 23.017181l0 0c0 17.977509 -13.678223 32.551178 -30.551147 32.551178l0 0c-16.872925 0 -30.551147 -14.573669 -30.551147 -32.551178z" fill-rule="nonzero"></path><path stroke="#000000" stroke-width="2.0" stroke-linejoin="round" stroke-linecap="butt" d="m1436.4226 259.28873l0 0c0 -17.97754 13.678223 -32.551193 30.551147 -32.551193l0 0c8.102661 0 15.873535 3.4294891 21.602905 9.534012c5.729492 6.104538 8.948242 14.384064 8.948242 23.017181l0 0c0 17.977509 -13.678223 32.551178 -30.551147 32.551178l0 0c-16.872925 0 -30.551147 -14.573669 -30.551147 -32.551178z" fill-rule="nonzero"></path><path fill="#e6b8af" d="m1499.5406 415.96066l0 0c0 -17.977509 13.678223 -32.551178 30.55127 -32.551178l0 0c8.102661 0 15.873413 3.4295044 21.602905 9.534027c5.729492 6.1045227 8.948242 14.384064 8.948242 23.01715l0 0c0 17.97754 -13.678223 32.551178 -30.551147 32.551178l0 0c-16.873047 0 -30.55127 -14.573639 -30.55127 -32.551178z" fill-rule="nonzero"></path><path stroke="#000000" stroke-width="2.0" stroke-linejoin="round" stroke-linecap="butt" d="m1499.5406 415.96066l0 0c0 -17.977509 13.678223 -32.551178 30.55127 -32.551178l0 0c8.102661 0 15.873413 3.4295044 21.602905 9.534027c5.729492 6.1045227 8.948242 14.384064 8.948242 23.01715l0 0c0 17.97754 -13.678223 32.551178 -30.551147 32.551178l0 0c-16.873047 0 -30.55127 -14.573639 -30.55127 -32.551178z" fill-rule="nonzero"></path><path fill="#e6b8af" d="m1375.4471 416.99246l0 0c0 -17.97754 13.678223 -32.551178 30.551147 -32.551178l0 0c8.102661 0 15.873535 3.4294739 21.602905 9.533997c5.729492 6.104553 8.948242 14.384064 8.948242 23.017181l0 0c0 17.977509 -13.678223 32.551178 -30.551147 32.551178l0 0c-16.872925 0 -30.551147 -14.573669 -30.551147 -32.551178z" fill-rule="nonzero"></path><path stroke="#000000" stroke-width="2.0" stroke-linejoin="round" stroke-linecap="butt" d="m1375.4471 416.99246l0 0c0 -17.97754 13.678223 -32.551178 30.551147 -32.551178l0 0c8.102661 0 15.873535 3.4294739 21.602905 9.533997c5.729492 6.104553 8.948242 14.384064 8.948242 23.017181l0 0c0 17.977509 -13.678223 32.551178 -30.551147 32.551178l0 0c-16.872925 0 -30.551147 -14.573669 -30.551147 -32.551178z" fill-rule="nonzero"></path><path fill="#e6b8af" d="m1521.7139 583.1391l0 0c0 -17.97754 13.678223 -32.551147 30.55127 -32.551147l0 0c8.102661 0 15.873413 3.4294434 21.602905 9.533997c5.729492 6.104553 8.948242 14.384033 8.948242 23.01715l0 0c0 17.97754 -13.678223 32.55121 -30.551147 32.55121l0 0c-16.873047 0 -30.55127 -14.573669 -30.55127 -32.55121z" fill-rule="nonzero"></path><path stroke="#000000" stroke-width="2.0" stroke-linejoin="round" stroke-linecap="butt" d="m1521.7139 583.1391l0 0c0 -17.97754 13.678223 -32.551147 30.55127 -32.551147l0 0c8.102661 0 15.873413 3.4294434 21.602905 9.533997c5.729492 6.104553 8.948242 14.384033 8.948242 23.01715l0 0c0 17.97754 -13.678223 32.55121 -30.551147 32.55121l0 0c-16.873047 0 -30.55127 -14.573669 -30.55127 -32.55121z" fill-rule="nonzero"></path><path fill="#e6b8af" d="m1396.2692 583.1391l0 0c0 -17.97754 13.678223 -32.551147 30.55127 -32.551147l0 0c8.102661 0 15.873413 3.4294434 21.602905 9.533997c5.729492 6.104553 8.948242 14.384033 8.948242 23.01715l0 0c0 17.97754 -13.678223 32.55121 -30.551147 32.55121l0 0c-16.873047 0 -30.55127 -14.573669 -30.55127 -32.55121z" fill-rule="nonzero"></path><path stroke="#000000" stroke-width="2.0" stroke-linejoin="round" stroke-linecap="butt" d="m1396.2692 583.1391l0 0c0 -17.97754 13.678223 -32.551147 30.55127 -32.551147l0 0c8.102661 0 15.873413 3.4294434 21.602905 9.533997c5.729492 6.104553 8.948242 14.384033 8.948242 23.01715l0 0c0 17.97754 -13.678223 32.55121 -30.551147 32.55121l0 0c-16.873047 0 -30.55127 -14.573669 -30.55127 -32.55121z" fill-rule="nonzero"></path><path fill="#e6b8af" d="m1194.6606 583.1391l0 0c0 -17.97754 13.678223 -32.551147 30.551147 -32.551147l0 0c8.102661 0 15.873535 3.4294434 21.602905 9.533997c5.729492 6.104553 8.948242 14.384033 8.948242 23.01715l0 0c0 17.97754 -13.678223 32.55121 -30.551147 32.55121l0 0c-16.872925 0 -30.551147 -14.573669 -30.551147 -32.55121z" fill-rule="nonzero"></path><path stroke="#000000" stroke-width="2.0" stroke-linejoin="round" stroke-linecap="butt" d="m1194.6606 583.1391l0 0c0 -17.97754 13.678223 -32.551147 30.551147 -32.551147l0 0c8.102661 0 15.873535 3.4294434 21.602905 9.533997c5.729492 6.104553 8.948242 14.384033 8.948242 23.01715l0 0c0 17.97754 -13.678223 32.55121 -30.551147 32.55121l0 0c-16.872925 0 -30.551147 -14.573669 -30.551147 -32.55121z" fill-rule="nonzero"></path><path fill="#e6b8af" d="m1076.4384 583.1391l0 0c0 -17.97754 13.678223 -32.551147 30.551147 -32.551147l0 0c8.102661 0 15.873535 3.4294434 21.602905 9.533997c5.729492 6.104553 8.948242 14.384033 8.948242 23.01715l0 0c0 17.97754 -13.678223 32.55121 -30.551147 32.55121l0 0c-16.872925 0 -30.551147 -14.573669 -30.551147 -32.55121z" fill-rule="nonzero"></path><path stroke="#000000" stroke-width="2.0" stroke-linejoin="round" stroke-linecap="butt" d="m1076.4384 583.1391l0 0c0 -17.97754 13.678223 -32.551147 30.551147 -32.551147l0 0c8.102661 0 15.873535 3.4294434 21.602905 9.533997c5.729492 6.104553 8.948242 14.384033 8.948242 23.01715l0 0c0 17.97754 -13.678223 32.55121 -30.551147 32.55121l0 0c-16.872925 0 -30.551147 -14.573669 -30.551147 -32.55121z" fill-rule="nonzero"></path><path fill="#e6b8af" d="m1100.6046 410.24933l0 0c0 -17.977509 13.678223 -32.551178 30.551147 -32.551178l0 0c8.102661 0 15.873535 3.4295044 21.602905 9.534027c5.729492 6.1045227 8.948242 14.384064 8.948242 23.01715l0 0c0 17.97754 -13.678223 32.55121 -30.551147 32.55121l0 0c-16.872925 0 -30.551147 -14.573669 -30.551147 -32.55121z" fill-rule="nonzero"></path><path stroke="#000000" stroke-width="2.0" stroke-linejoin="round" stroke-linecap="butt" d="m1100.6046 410.24933l0 0c0 -17.977509 13.678223 -32.551178 30.551147 -32.551178l0 0c8.102661 0 15.873535 3.4295044 21.602905 9.534027c5.729492 6.1045227 8.948242 14.384064 8.948242 23.01715l0 0c0 17.97754 -13.678223 32.55121 -30.551147 32.55121l0 0c-16.872925 0 -30.551147 -14.573669 -30.551147 -32.55121z" fill-rule="nonzero"></path><path fill="#e6b8af" d="m1218.9238 410.24933l0 0c0 -17.977509 13.678345 -32.551178 30.55127 -32.551178l0 0c8.102661 0 15.873413 3.4295044 21.602905 9.534027c5.729492 6.1045227 8.948242 14.384064 8.948242 23.01715l0 0c0 17.97754 -13.678223 32.55121 -30.551147 32.55121l0 0c-16.872925 0 -30.55127 -14.573669 -30.55127 -32.55121z" fill-rule="nonzero"></path><path stroke="#000000" stroke-width="2.0" stroke-linejoin="round" stroke-linecap="butt" d="m1218.9238 410.24933l0 0c0 -17.977509 13.678345 -32.551178 30.55127 -32.551178l0 0c8.102661 0 15.873413 3.4295044 21.602905 9.534027c5.729492 6.1045227 8.948242 14.384064 8.948242 23.01715l0 0c0 17.97754 -13.678223 32.55121 -30.551147 32.55121l0 0c-16.872925 0 -30.55127 -14.573669 -30.55127 -32.55121z" fill-rule="nonzero"></path><path fill="#e6b8af" d="m1166.4698 255.28871l0 0c0 -17.977524 13.678223 -32.551178 30.551147 -32.551178l0 0c8.102661 0 15.873535 3.4294891 21.602905 9.534012c5.729492 6.104538 8.948242 14.384064 8.948242 23.017166l0 0c0 17.977524 -13.678223 32.551193 -30.551147 32.551193l0 0c-16.872925 0 -30.551147 -14.573669 -30.551147 -32.551193z" fill-rule="nonzero"></path><path stroke="#000000" stroke-width="2.0" stroke-linejoin="round" stroke-linecap="butt" d="m1166.4698 255.28871l0 0c0 -17.977524 13.678223 -32.551178 30.551147 -32.551178l0 0c8.102661 0 15.873535 3.4294891 21.602905 9.534012c5.729492 6.104538 8.948242 14.384064 8.948242 23.017166l0 0c0 17.977524 -13.678223 32.551193 -30.551147 32.551193l0 0c-16.872925 0 -30.551147 -14.573669 -30.551147 -32.551193z" fill-rule="nonzero"></path><path fill="#e6b8af" d="m1300.3811 139.8189l0 0c0 -17.977516 13.678223 -32.551178 30.55127 -32.551178l0 0c8.102661 0 15.873413 3.4294891 21.602905 9.534019c5.729492 6.1045303 8.948242 14.384056 8.948242 23.017159l0 0c0 17.977524 -13.678223 32.551178 -30.551147 32.551178l0 0c-16.873047 0 -30.55127 -14.573654 -30.55127 -32.551178z" fill-rule="nonzero"></path><path stroke="#000000" stroke-width="2.0" stroke-linejoin="round" stroke-linecap="butt" d="m1300.3811 139.8189l0 0c0 -17.977516 13.678223 -32.551178 30.55127 -32.551178l0 0c8.102661 0 15.873413 3.4294891 21.602905 9.534019c5.729492 6.1045303 8.948242 14.384056 8.948242 23.017159l0 0c0 17.977524 -13.678223 32.551178 -30.551147 32.551178l0 0c-16.873047 0 -30.55127 -14.573654 -30.55127 -32.551178z" fill-rule="nonzero"></path><path fill="#cc0000" d="m1258.0546 416.31894l0 0c-5.0617676 0 -9.165283 -5.5700073 -9.165283 -12.4409485c0 -6.870941 4.1035156 -12.4409485 9.165283 -12.4409485l0 0c-3.171875 2.6693726 -5.1014404 7.375122 -5.1014404 12.4409485c0 5.065857 1.9295654 9.771576 5.1014404 12.4409485z" fill-rule="nonzero"></path><path stroke="#cc0000" stroke-width="2.0" stroke-linejoin="round" stroke-linecap="butt" d="m1258.0546 416.31894l0 0c-5.0617676 0 -9.165283 -5.5700073 -9.165283 -12.4409485c0 -6.870941 4.1035156 -12.4409485 9.165283 -12.4409485l0 0c-3.171875 2.6693726 -5.1014404 7.375122 -5.1014404 12.4409485c0 5.065857 1.9295654 9.771576 5.1014404 12.4409485z" fill-rule="nonzero"></path><path fill="#cc0000" d="m1137.4016 408.29138l0 0c-5.0618896 0 -9.165283 -5.5700073 -9.165283 -12.4409485c0 -6.870941 4.1033936 -12.4409485 9.165283 -12.4409485l0 0c-3.171875 2.6693726 -5.1014404 7.375122 -5.1014404 12.4409485c0 5.065857 1.9295654 9.771576 5.1014404 12.4409485z" fill-rule="nonzero"></path><path stroke="#cc0000" stroke-width="2.0" stroke-linejoin="round" stroke-linecap="butt" d="m1137.4016 408.29138l0 0c-5.0618896 0 -9.165283 -5.5700073 -9.165283 -12.4409485c0 -6.870941 4.1033936 -12.4409485 9.165283 -12.4409485l0 0c-3.171875 2.6693726 -5.1014404 7.375122 -5.1014404 12.4409485c0 5.065857 1.9295654 9.771576 5.1014404 12.4409485z" fill-rule="nonzero"></path><path fill="#cc0000" d="m1229.7944 585.5853l0 0c-5.0618896 0 -9.165283 -5.5700073 -9.165283 -12.440918c0 -6.8709717 4.1033936 -12.440979 9.165283 -12.440979l0 0c-3.171875 2.6693726 -5.1015625 7.375122 -5.1015625 12.440979c0 5.065857 1.9296875 9.771545 5.1015625 12.440918z" fill-rule="nonzero"></path><path stroke="#cc0000" stroke-width="2.0" stroke-linejoin="round" stroke-linecap="butt" d="m1229.7944 585.5853l0 0c-5.0618896 0 -9.165283 -5.5700073 -9.165283 -12.440918c0 -6.8709717 4.1033936 -12.440979 9.165283 -12.440979l0 0c-3.171875 2.6693726 -5.1015625 7.375122 -5.1015625 12.440979c0 5.065857 1.9296875 9.771545 5.1015625 12.440918z" fill-rule="nonzero"></path><path fill="#cc0000" d="m1248.3754 595.5801l0 0c-5.0618896 0 -9.165405 -5.5700073 -9.165405 -12.440979c0 -6.8709106 4.1035156 -12.440918 9.165405 -12.440918l0 0c-3.171875 2.6693726 -5.1015625 7.375061 -5.1015625 12.440918c0 5.065857 1.9296875 9.771606 5.1015625 12.440979z" fill-rule="nonzero"></path><path stroke="#cc0000" stroke-width="2.0" stroke-linejoin="round" stroke-linecap="butt" d="m1248.3754 595.5801l0 0c-5.0618896 0 -9.165405 -5.5700073 -9.165405 -12.440979c0 -6.8709106 4.1035156 -12.440918 9.165405 -12.440918l0 0c-3.171875 2.6693726 -5.1015625 7.375061 -5.1015625 12.440918c0 5.065857 1.9296875 9.771606 5.1015625 12.440979z" fill-rule="nonzero"></path><path fill="#cc0000" d="m1102.9423 610.2493l0 0c-5.0618896 0 -9.165405 -5.5700073 -9.165405 -12.440918c0 -6.8709717 4.1035156 -12.440979 9.165405 -12.440979l0 0c-3.171875 2.6693726 -5.1015625 7.375122 -5.1015625 12.440979c0 5.065857 1.9296875 9.771545 5.1015625 12.440918z" fill-rule="nonzero"></path><path stroke="#cc0000" stroke-width="2.0" stroke-linejoin="round" stroke-linecap="butt" d="m1102.9423 610.2493l0 0c-5.0618896 0 -9.165405 -5.5700073 -9.165405 -12.440918c0 -6.8709717 4.1035156 -12.440979 9.165405 -12.440979l0 0c-3.171875 2.6693726 -5.1015625 7.375122 -5.1015625 12.440979c0 5.065857 1.9296875 9.771545 5.1015625 12.440918z" fill-rule="nonzero"></path><path fill="#cc0000" d="m1121.0262 590.0341l0 0c-5.0618896 0 -9.165405 -5.5700073 -9.165405 -12.440918c0 -6.8709717 4.1035156 -12.440979 9.165405 -12.440979l0 0c-3.171875 2.6693726 -5.1015625 7.375122 -5.1015625 12.440979c0 5.065796 1.9296875 9.771545 5.1015625 12.440918z" fill-rule="nonzero"></path><path stroke="#cc0000" stroke-width="2.0" stroke-linejoin="round" stroke-linecap="butt" d="m1121.0262 590.0341l0 0c-5.0618896 0 -9.165405 -5.5700073 -9.165405 -12.440918c0 -6.8709717 4.1035156 -12.440979 9.165405 -12.440979l0 0c-3.171875 2.6693726 -5.1015625 7.375122 -5.1015625 12.440979c0 5.065796 1.9296875 9.771545 5.1015625 12.440918z" fill-rule="nonzero"></path><path fill="#cc0000" d="m1153.9229 422.69028l0 0c-5.0618896 0 -9.165405 -5.569977 -9.165405 -12.440918c0 -6.8709717 4.1035156 -12.4409485 9.165405 -12.4409485l0 0c-3.171875 2.669342 -5.1015625 7.3750916 -5.1015625 12.4409485c0 5.0658264 1.9296875 9.771576 5.1015625 12.440918z" fill-rule="nonzero"></path><path stroke="#cc0000" stroke-width="2.0" stroke-linejoin="round" stroke-linecap="butt" d="m1153.9229 422.69028l0 0c-5.0618896 0 -9.165405 -5.569977 -9.165405 -12.440918c0 -6.8709717 4.1035156 -12.4409485 9.165405 -12.4409485l0 0c-3.171875 2.669342 -5.1015625 7.3750916 -5.1015625 12.4409485c0 5.0658264 1.9296875 9.771576 5.1015625 12.440918z" fill-rule="nonzero"></path><path fill="#cc0000" d="m1269.2676 422.69028l0 0c-5.0618896 0 -9.165283 -5.569977 -9.165283 -12.440918c0 -6.8709717 4.1033936 -12.4409485 9.165283 -12.4409485l0 0c-3.171875 2.669342 -5.1014404 7.3750916 -5.1014404 12.4409485c0 5.0658264 1.9295654 9.771576 5.1014404 12.440918z" fill-rule="nonzero"></path><path stroke="#cc0000" stroke-width="2.0" stroke-linejoin="round" stroke-linecap="butt" d="m1269.2676 422.69028l0 0c-5.0618896 0 -9.165283 -5.569977 -9.165283 -12.440918c0 -6.8709717 4.1033936 -12.4409485 9.165283 -12.4409485l0 0c-3.171875 2.669342 -5.1014404 7.3750916 -5.1014404 12.4409485c0 5.0658264 1.9295654 9.771576 5.1014404 12.440918z" fill-rule="nonzero"></path><path fill="#cc0000" d="m1351.3031 155.69292l0 0c-5.0618896 0 -9.165283 -5.5700073 -9.165283 -12.4409485c0 -6.870941 4.1033936 -12.4409485 9.165283 -12.4409485l0 0c-3.171875 2.6693726 -5.1014404 7.375107 -5.1014404 12.4409485c0 5.0658417 1.9295654 9.771576 5.1014404 12.4409485z" fill-rule="nonzero"></path><path stroke="#cc0000" stroke-width="2.0" stroke-linejoin="round" stroke-linecap="butt" d="m1351.3031 155.69292l0 0c-5.0618896 0 -9.165283 -5.5700073 -9.165283 -12.4409485c0 -6.870941 4.1033936 -12.4409485 9.165283 -12.4409485l0 0c-3.171875 2.6693726 -5.1014404 7.375107 -5.1014404 12.4409485c0 5.0658417 1.9295654 9.771576 5.1014404 12.4409485z" fill-rule="nonzero"></path><path fill="#cc0000" d="m1327.3535 144.48026l0 0c-5.0618896 0 -9.165405 -5.5700073 -9.165405 -12.4409485c0 -6.870941 4.1035156 -12.440941 9.165405 -12.440941l0 0c-3.171875 2.6693573 -5.1015625 7.375099 -5.1015625 12.440941c0 5.0658417 1.9296875 9.771591 5.1015625 12.4409485z" fill-rule="nonzero"></path><path stroke="#cc0000" stroke-width="2.0" stroke-linejoin="round" stroke-linecap="butt" d="m1327.3535 144.48026l0 0c-5.0618896 0 -9.165405 -5.5700073 -9.165405 -12.4409485c0 -6.870941 4.1035156 -12.440941 9.165405 -12.440941l0 0c-3.171875 2.6693573 -5.1015625 7.375099 -5.1015625 12.440941c0 5.0658417 1.9296875 9.771591 5.1015625 12.4409485z" fill-rule="nonzero"></path><path fill="#1155cc" d="m1102.9423 584.00653l0 0c-5.0618896 0 -9.165405 -5.5700073 -9.165405 -12.440979c0 -6.8709106 4.1035156 -12.440918 9.165405 -12.440918l0 0c-3.171875 2.6693726 -5.1015625 7.375122 -5.1015625 12.440918c0 5.065857 1.9296875 9.771606 5.1015625 12.440979z" fill-rule="nonzero"></path><path stroke="#1155cc" stroke-width="2.0" stroke-linejoin="round" stroke-linecap="butt" d="m1102.9423 584.00653l0 0c-5.0618896 0 -9.165405 -5.5700073 -9.165405 -12.440979c0 -6.8709106 4.1035156 -12.440918 9.165405 -12.440918l0 0c-3.171875 2.6693726 -5.1015625 7.375122 -5.1015625 12.440918c0 5.065857 1.9296875 9.771606 5.1015625 12.440979z" fill-rule="nonzero"></path><path fill="#1155cc" d="m1561.071 595.5801l0 0c-5.0618896 0 -9.165405 -5.5700073 -9.165405 -12.440979c0 -6.8709106 4.1035156 -12.440918 9.165405 -12.440918l0 0c-3.171875 2.6693726 -5.1015625 7.375061 -5.1015625 12.440918c0 5.065857 1.9296875 9.771606 5.1015625 12.440979z" fill-rule="nonzero"></path><path stroke="#1155cc" stroke-width="2.0" stroke-linejoin="round" stroke-linecap="butt" d="m1561.071 595.5801l0 0c-5.0618896 0 -9.165405 -5.5700073 -9.165405 -12.440979c0 -6.8709106 4.1035156 -12.440918 9.165405 -12.440918l0 0c-3.171875 2.6693726 -5.1015625 7.375061 -5.1015625 12.440918c0 5.065857 1.9296875 9.771606 5.1015625 12.440979z" fill-rule="nonzero"></path><path fill="#1155cc" d="m1431.4031 595.5801l0 0c-5.0618896 0 -9.165405 -5.5700073 -9.165405 -12.440979c0 -6.8709106 4.1035156 -12.440918 9.165405 -12.440918l0 0c-3.171875 2.6693726 -5.1015625 7.375061 -5.1015625 12.440918c0 5.065857 1.9296875 9.771606 5.1015625 12.440979z" fill-rule="nonzero"></path><path stroke="#1155cc" stroke-width="2.0" stroke-linejoin="round" stroke-linecap="butt" d="m1431.4031 595.5801l0 0c-5.0618896 0 -9.165405 -5.5700073 -9.165405 -12.440979c0 -6.8709106 4.1035156 -12.440918 9.165405 -12.440918l0 0c-3.171875 2.6693726 -5.1015625 7.375061 -5.1015625 12.440918c0 5.065857 1.9296875 9.771606 5.1015625 12.440979z" fill-rule="nonzero"></path><path fill="#1155cc" d="m1220.5386 610.2493l0 0c-5.0617676 0 -9.165283 -5.5700073 -9.165283 -12.440918c0 -6.8709717 4.1035156 -12.440979 9.165283 -12.440979l0 0c-3.171875 2.6693726 -5.1014404 7.375122 -5.1014404 12.440979c0 5.065857 1.9295654 9.771545 5.1014404 12.440918z" fill-rule="nonzero"></path><path stroke="#1155cc" stroke-width="2.0" stroke-linejoin="round" stroke-linecap="butt" d="m1220.5386 610.2493l0 0c-5.0617676 0 -9.165283 -5.5700073 -9.165283 -12.440918c0 -6.8709717 4.1035156 -12.440979 9.165283 -12.440979l0 0c-3.171875 2.6693726 -5.1014404 7.375122 -5.1014404 12.440979c0 5.065857 1.9295654 9.771545 5.1014404 12.440918z" fill-rule="nonzero"></path><path fill="#cc0000" d="m1197.1173 251.83073l0 0c5.0444336 0.5044403 8.583862 6.455185 7.9055176 13.291336c-0.6784668 6.836151 -5.317749 11.969025 -10.362183 11.464569l0 0c3.4245605 -2.3397522 5.812134 -6.829376 6.312256 -11.869568c0.50024414 -5.0401917 -0.9581299 -9.914398 -3.8555908 -12.886337z" fill-rule="nonzero"></path><path stroke="#cc0000" stroke-width="2.0" stroke-linejoin="round" stroke-linecap="butt" d="m1197.1173 251.83073l0 0c5.0444336 0.5044403 8.583862 6.455185 7.9055176 13.291336c-0.6784668 6.836151 -5.317749 11.969025 -10.362183 11.464569l0 0c3.4245605 -2.3397522 5.812134 -6.829376 6.312256 -11.869568c0.50024414 -5.0401917 -0.9581299 -9.914398 -3.8555908 -12.886337z" fill-rule="nonzero"></path><path fill="#cc0000" d="m1309.0543 119.204666l0 0c5.0444336 0.50444794 8.583862 6.455185 7.9055176 13.291336c-0.6784668 6.836151 -5.317749 11.969009 -10.362183 11.464569l0 0c3.4245605 -2.3397522 5.812134 -6.829361 6.312256 -11.869553c0.50024414 -5.0401993 -0.9581299 -9.914406 -3.8555908 -12.886353z" fill-rule="nonzero"></path><path stroke="#cc0000" stroke-width="2.0" stroke-linejoin="round" stroke-linecap="butt" d="m1309.0543 119.204666l0 0c5.0444336 0.50444794 8.583862 6.455185 7.9055176 13.291336c-0.6784668 6.836151 -5.317749 11.969009 -10.362183 11.464569l0 0c3.4245605 -2.3397522 5.812134 -6.829361 6.312256 -11.869553c0.50024414 -5.0401993 -0.9581299 -9.914406 -3.8555908 -12.886353z" fill-rule="nonzero"></path><path fill="#cc0000" d="m1333.0039 130.41733l0 0c5.0445557 0.5044403 8.583984 6.455185 7.9055176 13.291336c-0.6783447 6.836151 -5.317749 11.969009 -10.362183 11.464569l0 0c3.4245605 -2.3397522 5.812134 -6.829361 6.312378 -11.869553c0.5001221 -5.0401917 -0.95825195 -9.914413 -3.855713 -12.886353z" fill-rule="nonzero"></path><path stroke="#cc0000" stroke-width="2.0" stroke-linejoin="round" stroke-linecap="butt" d="m1333.0039 130.41733l0 0c5.0445557 0.5044403 8.583984 6.455185 7.9055176 13.291336c-0.6783447 6.836151 -5.317749 11.969009 -10.362183 11.464569l0 0c3.4245605 -2.3397522 5.812134 -6.829361 6.312378 -11.869553c0.5001221 -5.0401917 -0.95825195 -9.914413 -3.855713 -12.886353z" fill-rule="nonzero"></path><path fill="#cc0000" d="m1180.6641 229.64305l0 0c5.0444336 0.5044403 8.583862 6.455185 7.9055176 13.291336c-0.6784668 6.836151 -5.317749 11.969009 -10.362183 11.464569l0 0c3.4245605 -2.3397522 5.812134 -6.829361 6.312256 -11.869553c0.50024414 -5.0401917 -0.9581299 -9.914413 -3.8555908 -12.886353z" fill-rule="nonzero"></path><path stroke="#cc0000" stroke-width="2.0" stroke-linejoin="round" stroke-linecap="butt" d="m1180.6641 229.64305l0 0c5.0444336 0.5044403 8.583862 6.455185 7.9055176 13.291336c-0.6784668 6.836151 -5.317749 11.969009 -10.362183 11.464569l0 0c3.4245605 -2.3397522 5.812134 -6.829361 6.312256 -11.869553c0.50024414 -5.0401917 -0.9581299 -9.914413 -3.8555908 -12.886353z" fill-rule="nonzero"></path><path fill="#cc0000" d="m1215.5564 277.50003l0 0c-5.0618896 0 -9.165283 -5.5700073 -9.165283 -12.4409485c0 -6.870941 4.1033936 -12.4409485 9.165283 -12.4409485l0 0c-3.171875 2.6693573 -5.1014404 7.3750916 -5.1014404 12.4409485c0 5.0658264 1.9295654 9.771576 5.1014404 12.4409485z" fill-rule="nonzero"></path><path stroke="#cc0000" stroke-width="2.0" stroke-linejoin="round" stroke-linecap="butt" d="m1215.5564 277.50003l0 0c-5.0618896 0 -9.165283 -5.5700073 -9.165283 -12.4409485c0 -6.870941 4.1033936 -12.4409485 9.165283 -12.4409485l0 0c-3.171875 2.6693573 -5.1014404 7.3750916 -5.1014404 12.4409485c0 5.0658264 1.9295654 9.771576 5.1014404 12.4409485z" fill-rule="nonzero"></path><path fill="#cc0000" d="m1198.9633 253.97375l0 0c-5.0618896 0 -9.165405 -5.5700073 -9.165405 -12.4409485c0 -6.870941 4.1035156 -12.4409485 9.165405 -12.4409485l0 0c-3.171875 2.6693726 -5.1015625 7.375107 -5.1015625 12.4409485c0 5.0658417 1.9296875 9.771591 5.1015625 12.4409485z" fill-rule="nonzero"></path><path stroke="#cc0000" stroke-width="2.0" stroke-linejoin="round" stroke-linecap="butt" d="m1198.9633 253.97375l0 0c-5.0618896 0 -9.165405 -5.5700073 -9.165405 -12.4409485c0 -6.870941 4.1035156 -12.4409485 9.165405 -12.4409485l0 0c-3.171875 2.6693726 -5.1015625 7.375107 -5.1015625 12.4409485c0 5.0658417 1.9296875 9.771591 5.1015625 12.4409485z" fill-rule="nonzero"></path><path fill="#cfe2f3" d="m1050.9663 455.66095l23.478394 -17.28009l0 0c3.0758057 -2.263733 8.871338 0.38745117 12.944824 5.921631c4.0736084 5.534149 4.8824463 11.855591 1.8066406 14.119324l-23.478394 17.28006l0 0c-3.0758057 2.2637634 -8.871338 -0.38745117 -12.944824 -5.9216003c-4.0736084 -5.534149 -4.8824463 -11.855591 -1.8066406 -14.119324z" fill-rule="nonzero"></path><path stroke="#000000" stroke-width="2.0" stroke-linejoin="round" stroke-linecap="butt" d="m1050.9663 455.66095l23.478394 -17.28009l0 0c3.0758057 -2.263733 8.871338 0.38745117 12.944824 5.921631c4.0736084 5.534149 4.8824463 11.855591 1.8066406 14.119324l-23.478394 17.28006l0 0c-3.0758057 2.2637634 -8.871338 -0.38745117 -12.944824 -5.9216003c-4.0736084 -5.534149 -4.8824463 -11.855591 -1.8066406 -14.119324z" fill-rule="nonzero"></path><path fill="#cfe2f3" d="m1198.0609 478.1697l13.934814 -25.604828l0 0c1.8255615 -3.354309 8.197754 -3.4108887 14.23291 -0.12640381c6.0351562 3.2844849 9.447754 8.66629 7.6221924 12.020569l-13.934814 25.604828l0 0c-1.8254395 3.354309 -8.197754 3.4108887 -14.23291 0.12640381c-6.035034 -3.2844849 -9.447632 -8.66629 -7.6221924 -12.020569z" fill-rule="nonzero"></path><path stroke="#000000" stroke-width="2.0" stroke-linejoin="round" stroke-linecap="butt" d="m1198.0609 478.1697l13.934814 -25.604828l0 0c1.8255615 -3.354309 8.197754 -3.4108887 14.23291 -0.12640381c6.0351562 3.2844849 9.447754 8.66629 7.6221924 12.020569l-13.934814 25.604828l0 0c-1.8254395 3.354309 -8.197754 3.4108887 -14.23291 0.12640381c-6.035034 -3.2844849 -9.447632 -8.66629 -7.6221924 -12.020569z" fill-rule="nonzero"></path><path fill="#cfe2f3" d="m1465.8099 490.47775l-18.79895 -22.282623l0 0c-2.4626465 -2.919098 -0.20129395 -8.877075 5.0511475 -13.307526c5.2523193 -4.4304504 11.506592 -5.6556396 13.96936 -2.7365723l18.798828 22.282623l0 0c2.4627686 2.9190674 0.20129395 8.877045 -5.0510254 13.307495c-5.2524414 4.4304504 -11.506714 5.65567 -13.96936 2.7366028z" fill-rule="nonzero"></path><path stroke="#000000" stroke-width="2.0" stroke-linejoin="round" stroke-linecap="butt" d="m1465.8099 490.47775l-18.79895 -22.282623l0 0c-2.4626465 -2.919098 -0.20129395 -8.877075 5.0511475 -13.307526c5.2523193 -4.4304504 11.506592 -5.6556396 13.96936 -2.7365723l18.798828 22.282623l0 0c2.4627686 2.9190674 0.20129395 8.877045 -5.0510254 13.307495c-5.2524414 4.4304504 -11.506714 5.65567 -13.96936 2.7366028z" fill-rule="nonzero"></path><path fill="#cfe2f3" d="m1606.9291 432.23547l24.38208 15.980408l0 0c3.1940918 2.0934753 2.6918945 8.506592 -1.1217041 14.324127c-3.8135986 5.817505 -9.494507 8.836426 -12.688599 6.7429504l-24.38208 -15.980408l0 0c-3.1942139 -2.0934753 -2.6918945 -8.506622 1.1217041 -14.324127c3.8135986 -5.817505 9.494507 -8.836456 12.688599 -6.7429504z" fill-rule="nonzero"></path><path stroke="#000000" stroke-width="2.0" stroke-linejoin="round" stroke-linecap="butt" d="m1606.9291 432.23547l24.38208 15.980408l0 0c3.1940918 2.0934753 2.6918945 8.506592 -1.1217041 14.324127c-3.8135986 5.817505 -9.494507 8.836426 -12.688599 6.7429504l-24.38208 -15.980408l0 0c-3.1942139 -2.0934753 -2.6918945 -8.506622 1.1217041 -14.324127c3.8135986 -5.817505 9.494507 -8.836456 12.688599 -6.7429504z" fill-rule="nonzero"></path><path fill="#cfe2f3" d="m1025.7148 484.16595l24.143188 -16.798492l6.0343018 8.672546l-24.143188 16.798523z" fill-rule="nonzero"></path><path stroke="#000000" stroke-width="2.0" stroke-linejoin="round" stroke-linecap="butt" d="m1025.7148 484.16595l24.143188 -16.798492l6.0343018 8.672546l-24.143188 16.798523z" fill-rule="nonzero"></path><path fill="#cfe2f3" d="m1189.1583 515.4503l13.143433 -26.312225l9.45166 4.721283l-13.143311 26.312256z" fill-rule="nonzero"></path><path stroke="#000000" stroke-width="2.0" stroke-linejoin="round" stroke-linecap="butt" d="m1189.1583 515.4503l13.143433 -26.312225l9.45166 4.721283l-13.143311 26.312256z" fill-rule="nonzero"></path><path fill="#cfe2f3" d="m1495.4376 511.4857l-18.889038 -22.545105l8.098511 -6.785248l18.889038 22.545105z" fill-rule="nonzero"></path><path stroke="#000000" stroke-width="2.0" stroke-linejoin="round" stroke-linecap="butt" d="m1495.4376 511.4857l-18.889038 -22.545105l8.098511 -6.785248l18.889038 22.545105z" fill-rule="nonzero"></path><path fill="#cfe2f3" d="m1646.0476 484.48154l-23.284058 -17.970367l6.4552 -8.363953l23.284058 17.970367z" fill-rule="nonzero"></path><path stroke="#000000" stroke-width="2.0" stroke-linejoin="round" stroke-linecap="butt" d="m1646.0476 484.48154l-23.284058 -17.970367l6.4552 -8.363953l23.284058 17.970367z" fill-rule="nonzero"></path><path fill="#000000" fill-opacity="0.0" d="m1649.0726 482.49637c3.8293457 3.2627563 20.572021 12.3063965 22.976196 19.5766c2.4040527 7.2702026 -11.588501 16.549408 -8.551636 24.044647c3.0367432 7.4952393 22.310059 17.438904 26.772095 20.926697" fill-rule="nonzero"></path><path stroke="#000000" stroke-width="2.0" stroke-linejoin="round" stroke-linecap="butt" d="m1649.0726 482.49637c3.8293457 3.2627563 20.572021 12.3063965 22.976196 19.5766c2.4040527 7.2702026 -11.588501 16.549408 -8.551636 24.044647c3.0367432 7.4952393 22.310059 17.438904 26.772095 20.926697" fill-rule="nonzero"></path><path fill="#000000" fill-opacity="0.0" d="m1500.0303 509.7112c3.1781006 3.8996887 18.015137 15.813995 19.068726 23.398285c1.0535889 7.5843506 -14.382446 14.187988 -12.74707 22.107727c1.6352539 7.919739 18.799072 21.175598 22.558838 25.410706" fill-rule="nonzero"></path><path stroke="#000000" stroke-width="2.0" stroke-linejoin="round" stroke-linecap="butt" d="m1500.0303 509.7112c3.1781006 3.8996887 18.015137 15.813995 19.068726 23.398285c1.0535889 7.5843506 -14.382446 14.187988 -12.74707 22.107727c1.6352539 7.919739 18.799072 21.175598 22.558838 25.410706" fill-rule="nonzero"></path><path fill="#000000" fill-opacity="0.0" d="m1192.7013 516.72174c-1.5396729 4.7894287 -3.4511719 23.721924 -9.238159 28.736328c-5.7869873 5.0143433 -19.732422 -4.334961 -25.484009 1.3499756c-5.751465 5.6849365 -7.520874 27.299622 -9.025024 32.75952" fill-rule="nonzero"></path><path stroke="#000000" stroke-width="2.0" stroke-linejoin="round" stroke-linecap="butt" d="m1192.7013 516.72174c-1.5396729 4.7894287 -3.4511719 23.721924 -9.238159 28.736328c-5.7869873 5.0143433 -19.732422 -4.334961 -25.484009 1.3499756c-5.751465 5.6849365 -7.520874 27.299622 -9.025024 32.75952" fill-rule="nonzero"></path><path fill="#000000" fill-opacity="0.0" d="m1028.2396 485.04675c-3.3778076 3.728485 -12.926514 20.188934 -20.266602 22.370941c-7.340149 2.1820068 -16.18988 -12.086517 -23.77417 -9.278961c-7.5842896 2.8075562 -18.109558 21.770203 -21.731506 26.124207" fill-rule="nonzero"></path><path stroke="#000000" stroke-width="2.0" stroke-linejoin="round" stroke-linecap="butt" d="m1028.2396 485.04675c-3.3778076 3.728485 -12.926514 20.188934 -20.266602 22.370941c-7.340149 2.1820068 -16.18988 -12.086517 -23.77417 -9.278961c-7.5842896 2.8075562 -18.109558 21.770203 -21.731506 26.124207" fill-rule="nonzero"></path><path fill="#1155cc" d="m1616.0024 463.20016l0 0c-5.0618896 0 -9.165283 -5.5700073 -9.165283 -12.4409485c0 -6.870941 4.1033936 -12.4409485 9.165283 -12.4409485l0 0c-3.171875 2.6693726 -5.1015625 7.375122 -5.1015625 12.4409485c0 5.065857 1.9296875 9.771606 5.1015625 12.4409485z" fill-rule="nonzero"></path><path stroke="#1155cc" stroke-width="2.0" stroke-linejoin="round" stroke-linecap="butt" d="m1616.0024 463.20016l0 0c-5.0618896 0 -9.165283 -5.5700073 -9.165283 -12.4409485c0 -6.870941 4.1033936 -12.4409485 9.165283 -12.4409485l0 0c-3.171875 2.6693726 -5.1015625 7.375122 -5.1015625 12.4409485c0 5.065857 1.9296875 9.771606 5.1015625 12.4409485z" fill-rule="nonzero"></path><path fill="#1155cc" d="m1221.8646 483.75534l0 0c-5.0618896 0 -9.165405 -5.5700073 -9.165405 -12.4409485c0 -6.870941 4.1035156 -12.4409485 9.165405 -12.4409485l0 0c-3.171875 2.6693726 -5.1015625 7.3750916 -5.1015625 12.4409485c0 5.0658264 1.9296875 9.771576 5.1015625 12.4409485z" fill-rule="nonzero"></path><path stroke="#1155cc" stroke-width="2.0" stroke-linejoin="round" stroke-linecap="butt" d="m1221.8646 483.75534l0 0c-5.0618896 0 -9.165405 -5.5700073 -9.165405 -12.4409485c0 -6.870941 4.1035156 -12.4409485 9.165405 -12.4409485l0 0c-3.171875 2.6693726 -5.1015625 7.3750916 -5.1015625 12.4409485c0 5.0658264 1.9296875 9.771576 5.1015625 12.4409485z" fill-rule="nonzero"></path><path fill="#1155cc" d="m1076.1993 469.48233l0 0c-5.0618896 0 -9.165283 -5.5700073 -9.165283 -12.4409485c0 -6.870941 4.1033936 -12.4409485 9.165283 -12.4409485l0 0c-3.171875 2.6693726 -5.1014404 7.3750916 -5.1014404 12.4409485c0 5.0658264 1.9295654 9.771576 5.1014404 12.4409485z" fill-rule="nonzero"></path><path stroke="#1155cc" stroke-width="2.0" stroke-linejoin="round" stroke-linecap="butt" d="m1076.1993 469.48233l0 0c-5.0618896 0 -9.165283 -5.5700073 -9.165283 -12.4409485c0 -6.870941 4.1033936 -12.4409485 9.165283 -12.4409485l0 0c-3.171875 2.6693726 -5.1014404 7.3750916 -5.1014404 12.4409485c0 5.0658264 1.9295654 9.771576 5.1014404 12.4409485z" fill-rule="nonzero"></path><path fill="#1155cc" d="m1471.5564 483.75534l0 0c-5.0618896 0 -9.165283 -5.5700073 -9.165283 -12.4409485c0 -6.870941 4.1033936 -12.4409485 9.165283 -12.4409485l0 0c-3.171875 2.6693726 -5.1014404 7.3750916 -5.1014404 12.4409485c0 5.0658264 1.9295654 9.771576 5.1014404 12.4409485z" fill-rule="nonzero"></path><path stroke="#1155cc" stroke-width="2.0" stroke-linejoin="round" stroke-linecap="butt" d="m1471.5564 483.75534l0 0c-5.0618896 0 -9.165283 -5.5700073 -9.165283 -12.4409485c0 -6.870941 4.1033936 -12.4409485 9.165283 -12.4409485l0 0c-3.171875 2.6693726 -5.1014404 7.3750916 -5.1014404 12.4409485c0 5.0658264 1.9295654 9.771576 5.1014404 12.4409485z" fill-rule="nonzero"></path><path fill="#e6b8af" d="m515.85565 247.3517l0 0c0 -17.977509 13.678223 -32.551178 30.551147 -32.551178l0 0c8.102722 0 15.873535 3.4294891 21.602966 9.534027c5.729492 6.1045227 8.948242 14.384048 8.948242 23.01715l0 0c0 17.977524 -13.678223 32.551193 -30.551208 32.551193l0 0c-16.872925 0 -30.551147 -14.573669 -30.551147 -32.551193z" fill-rule="nonzero"></path><path stroke="#000000" stroke-width="2.0" stroke-linejoin="round" stroke-linecap="butt" d="m515.85565 247.3517l0 0c0 -17.977509 13.678223 -32.551178 30.551147 -32.551178l0 0c8.102722 0 15.873535 3.4294891 21.602966 9.534027c5.729492 6.1045227 8.948242 14.384048 8.948242 23.01715l0 0c0 17.977524 -13.678223 32.551193 -30.551208 32.551193l0 0c-16.872925 0 -30.551147 -14.573669 -30.551147 -32.551193z" fill-rule="nonzero"></path><path fill="#e6b8af" d="m262.1811 246.7284l0 0c0 -17.977524 13.678253 -32.551193 30.551178 -32.551193l0 0c8.102692 0 15.873505 3.4294891 21.602966 9.534027c5.7294617 6.1045227 8.948242 14.384048 8.948242 23.017166l0 0c0 17.977509 -13.678253 32.551178 -30.551208 32.551178l0 0c-16.872925 0 -30.551178 -14.573669 -30.551178 -32.551178z" fill-rule="nonzero"></path><path stroke="#000000" stroke-width="2.0" stroke-linejoin="round" stroke-linecap="butt" d="m262.1811 246.7284l0 0c0 -17.977524 13.678253 -32.551193 30.551178 -32.551193l0 0c8.102692 0 15.873505 3.4294891 21.602966 9.534027c5.7294617 6.1045227 8.948242 14.384048 8.948242 23.017166l0 0c0 17.977509 -13.678253 32.551178 -30.551208 32.551178l0 0c-16.872925 0 -30.551178 -14.573669 -30.551178 -32.551178z" fill-rule="nonzero"></path><path fill="#cc0000" d="m297.31497 262.84122l0 0c-5.0618896 0 -9.165375 -5.5700073 -9.165375 -12.4409485c0 -6.8709564 4.103485 -12.4409485 9.165375 -12.4409485l0 0c-3.1719055 2.6693573 -5.101532 7.375107 -5.101532 12.4409485c0 5.0658417 1.9296265 9.771576 5.101532 12.4409485z" fill-rule="nonzero"></path><path stroke="#cc0000" stroke-width="2.0" stroke-linejoin="round" stroke-linecap="butt" d="m297.31497 262.84122l0 0c-5.0618896 0 -9.165375 -5.5700073 -9.165375 -12.4409485c0 -6.8709564 4.103485 -12.4409485 9.165375 -12.4409485l0 0c-3.1719055 2.6693573 -5.101532 7.375107 -5.101532 12.4409485c0 5.0658417 1.9296265 9.771576 5.101532 12.4409485z" fill-rule="nonzero"></path><path fill="#cc0000" d="m549.4344 263.8362l0 0c-5.0618896 0 -9.165344 -5.5700073 -9.165344 -12.4409485c0 -6.870941 4.1034546 -12.4409485 9.165344 -12.4409485l0 0c-3.171875 2.6693573 -5.1015015 7.375107 -5.1015015 12.4409485c0 5.0658264 1.9296265 9.771576 5.1015015 12.4409485z" fill-rule="nonzero"></path><path stroke="#cc0000" stroke-width="2.0" stroke-linejoin="round" stroke-linecap="butt" d="m549.4344 263.8362l0 0c-5.0618896 0 -9.165344 -5.5700073 -9.165344 -12.4409485c0 -6.870941 4.1034546 -12.4409485 9.165344 -12.4409485l0 0c-3.171875 2.6693573 -5.1015015 7.375107 -5.1015015 12.4409485c0 5.0658264 1.9296265 9.771576 5.1015015 12.4409485z" fill-rule="nonzero"></path><path fill="#cc0000" d="m529.1286 239.0488l0 0c5.0444946 -0.38267517 9.563965 4.855942 10.094482 11.70079c0.5305786 6.844864 -3.1287231 12.703934 -8.173218 13.086624l0 0c2.954895 -2.8990479 4.5145264 -7.732788 4.123352 -12.779388c-0.39111328 -5.0466156 -2.6774902 -9.588593 -6.0446167 -12.008026z" fill-rule="nonzero"></path><path stroke="#cc0000" stroke-width="2.0" stroke-linejoin="round" stroke-linecap="butt" d="m529.1286 239.0488l0 0c5.0444946 -0.38267517 9.563965 4.855942 10.094482 11.70079c0.5305786 6.844864 -3.1287231 12.703934 -8.173218 13.086624l0 0c2.954895 -2.8990479 4.5145264 -7.732788 4.123352 -12.779388c-0.39111328 -5.0466156 -2.6774902 -9.588593 -6.0446167 -12.008026z" fill-rule="nonzero"></path><path fill="#cc0000" d="m280.24408 238.35301l0 0c5.0444946 -0.38267517 9.563965 4.855942 10.094513 11.70079c0.5305176 6.8448486 -3.1287537 12.703918 -8.173248 13.086609l0 0c2.954895 -2.8990173 4.5145264 -7.732773 4.1233826 -12.779373c-0.39117432 -5.0466003 -2.6775208 -9.588593 -6.044647 -12.008026z" fill-rule="nonzero"></path><path stroke="#cc0000" stroke-width="2.0" stroke-linejoin="round" stroke-linecap="butt" d="m280.24408 238.35301l0 0c5.0444946 -0.38267517 9.563965 4.855942 10.094513 11.70079c0.5305176 6.8448486 -3.1287537 12.703918 -8.173248 13.086609l0 0c2.954895 -2.8990173 4.5145264 -7.732773 4.1233826 -12.779373c-0.39117432 -5.0466003 -2.6775208 -9.588593 -6.044647 -12.008026z" fill-rule="nonzero"></path><path fill="#0000ff" d="m564.91345 331.21655l5.1137085 -16.842804l2.9291382 5.4881897l68.96503 -36.87372l5.8582153 10.976379l-68.964966 36.87372l2.9291382 5.4881897z" fill-rule="nonzero"></path><path stroke="#0000ff" stroke-width="2.0" stroke-linejoin="round" stroke-linecap="butt" d="m564.91345 331.21655l5.1137085 -16.842804l2.9291382 5.4881897l68.96503 -36.87372l5.8582153 10.976379l-68.964966 36.87372l2.9291382 5.4881897z" fill-rule="nonzero"></path><path fill="#274e13" d="m1372.5914 192.13705l4.1065674 -17.124084l3.2519531 5.307083l66.64929 -40.891663l6.5039062 10.6141815l-66.64929 40.891663l3.2519531 5.307083z" fill-rule="nonzero"></path><path stroke="#274e13" stroke-width="2.0" stroke-linejoin="round" stroke-linecap="butt" d="m1372.5914 192.13705l4.1065674 -17.124084l3.2519531 5.307083l66.64929 -40.891663l6.5039062 10.6141815l-66.64929 40.891663l3.2519531 5.307083z" fill-rule="nonzero"></path><path fill="#000000" fill-opacity="0.0" d="m688.9659 225.66667l189.57477 0l0 59.244095l-189.57477 0z" fill-rule="nonzero"></path><path fill="#000000" fill-opacity="0.0" d="m1489.2896 86.90551l384.0 0l0 48.000008l-384.0 0z" fill-rule="nonzero"></path><path fill="#000000" fill-opacity="0.0" d="m800.8399 107.267715l119.49603 0l0 514.83466l-119.49603 0z" fill-rule="nonzero"></path><path fill="#000000" d="m865.2149 152.48647l-5.5 0l0 -20.6875q-3.0 2.8125 -7.078125 4.15625l0 -4.96875q2.140625 -0.703125 4.65625 -2.671875q2.53125 -1.96875 3.46875 -4.578125l4.453125 0l0 28.75z" fill-rule="nonzero"></path><path fill="#000000" d="m869.6993 285.39273l0 5.09375l-19.234375 0q0.3125 -2.890625 1.875 -5.46875q1.5625 -2.59375 6.171875 -6.875q3.703125 -3.453125 4.546875 -4.6875q1.140625 -1.703125 1.140625 -3.359375q0 -1.84375 -1.0 -2.828125q-0.984375 -0.984375 -2.71875 -0.984375q-1.71875 0 -2.734375 1.046875q-1.015625 1.03125 -1.171875 3.421875l-5.46875 -0.546875q0.484375 -4.53125 3.0625 -6.5q2.578125 -1.96875 6.453125 -1.96875q4.234375 0 6.65625 2.28125q2.421875 2.28125 2.421875 5.6875q0 1.9375 -0.703125 3.6875q-0.6875 1.734375 -2.1875 3.65625q-1.0 1.265625 -3.59375 3.65625q-2.59375 2.375 -3.296875 3.15625q-0.6875 0.78125 -1.109375 1.53125l10.890625 0z" fill-rule="nonzero"></path><path fill="#000000" d="m850.9649 466.89273l5.3125 -0.65625q0.265625 2.03125 1.375 3.109375q1.109375 1.078125 2.6875 1.078125q1.703125 0 2.859375 -1.28125q1.171875 -1.296875 1.171875 -3.484375q0 -2.078125 -1.125 -3.28125q-1.109375 -1.21875 -2.703125 -1.21875q-1.0625 0 -2.515625 0.421875l0.59375 -4.484375q2.234375 0.0625 3.40625 -0.953125q1.171875 -1.03125 1.171875 -2.734375q0 -1.4375 -0.859375 -2.296875q-0.859375 -0.859375 -2.28125 -0.859375q-1.40625 0 -2.40625 0.984375q-1.0 0.96875 -1.21875 2.84375l-5.046875 -0.859375q0.515625 -2.609375 1.578125 -4.15625q1.078125 -1.546875 2.96875 -2.4375q1.90625 -0.890625 4.28125 -0.890625q4.03125 0 6.484375 2.578125q2.0 2.109375 2.0 4.765625q0 3.765625 -4.109375 6.015625q2.453125 0.53125 3.921875 2.375q1.484375 1.828125 1.484375 4.421875q0 3.765625 -2.765625 6.421875q-2.75 2.65625 -6.84375 2.65625q-3.890625 0 -6.453125 -2.234375q-2.546875 -2.234375 -2.96875 -5.84375z" fill-rule="nonzero"></path><path fill="#000000" d="m861.93365 612.48645l0 -5.765625l-11.71875 0l0 -4.796875l12.421875 -18.1875l4.609375 0l0 18.15625l3.546875 0l0 4.828125l-3.546875 0l0 5.765625l-5.3125 0zm0 -10.59375l0 -9.78125l-6.59375 9.78125l6.59375 0z" fill-rule="nonzero"></path><path fill="#cc0000" d="m504.71915 421.65485l0 0c-5.061859 0 -9.165344 -5.569977 -9.165344 -12.4409485c0 -6.870941 4.103485 -12.440918 9.165344 -12.440918l0 0c-3.171875 2.669342 -5.1015015 7.3750916 -5.1015015 12.440918c0 5.065857 1.9296265 9.771606 5.1015015 12.4409485z" fill-rule="nonzero"></path><path stroke="#cc0000" stroke-width="2.0" stroke-linejoin="round" stroke-linecap="butt" d="m504.71915 421.65485l0 0c-5.061859 0 -9.165344 -5.569977 -9.165344 -12.4409485c0 -6.870941 4.103485 -12.440918 9.165344 -12.440918l0 0c-3.171875 2.669342 -5.1015015 7.3750916 -5.1015015 12.440918c0 5.065857 1.9296265 9.771606 5.1015015 12.4409485z" fill-rule="nonzero"></path></g></svg>

