<?xml version="1.0" encoding="UTF-8" standalone="no"?>
<svg xmlns:rdf="http://www.w3.org/1999/02/22-rdf-syntax-ns#" xmlns="http://www.w3.org/2000/svg" height="544" width="752" version="1.1" xmlns:cc="http://creativecommons.org/ns#" xmlns:xlink="http://www.w3.org/1999/xlink" xmlns:dc="http://purl.org/dc/elements/1.1/">
 <metadata>
  <rdf:RDF>
   <cc:Work rdf:about="">
    <dc:format>image/svg+xml</dc:format>
    <dc:type rdf:resource="http://purl.org/dc/dcmitype/StillImage"/>
    <dc:title/>
   </cc:Work>
  </rdf:RDF>
 </metadata>
 <defs>
  <linearGradient id="linearGradient4019">
   <stop stop-color="#19c6b9" offset="0"/>
   <stop stop-color="#028ba5" offset="0.5"/>
   <stop stop-color="#00262f" offset="1"/>
  </linearGradient>
  <linearGradient id="linearGradient3913">
   <stop stop-color="#b6ede9" offset="0"/>
   <stop stop-color="#36b8bd" offset="0.194"/>
   <stop stop-color="#00819f" offset="0.5"/>
   <stop stop-color="#8fa0a4" offset="1"/>
  </linearGradient>
  <linearGradient id="linearGradient4025" x1="11" xlink:href="#linearGradient4019" gradientUnits="userSpaceOnUse" x2="36" y1="196" y2="196"/>
  <linearGradient id="linearGradient4043" x1="11" xlink:href="#linearGradient3913" gradientUnits="userSpaceOnUse" y1="32" gradientTransform="matrix(1,0,0,2.4999999,0,108)" x2="37" y2="32"/>
  <linearGradient id="linearGradient4047" x1="11" xlink:href="#linearGradient3913" gradientUnits="userSpaceOnUse" y1="32" gradientTransform="matrix(1,0,0,2.0000004,0,279.99999)" x2="37" y2="32"/>
  <linearGradient id="linearGradient4071" x1="11" xlink:href="#linearGradient3913" gradientUnits="userSpaceOnUse" x2="37" y1="32" y2="32"/>
  <linearGradient id="linearGradient4116" x1="11" xlink:href="#linearGradient4019" gradientUnits="userSpaceOnUse" y1="196" gradientTransform="translate(128,0)" x2="36" y2="196"/>
  <linearGradient id="linearGradient4161" x1="11" xlink:href="#linearGradient3913" gradientUnits="userSpaceOnUse" y1="32" gradientTransform="translate(0,192)" x2="37" y2="32"/>
  <linearGradient id="linearGradient4164" x1="11" xlink:href="#linearGradient3913" gradientUnits="userSpaceOnUse" y1="32" gradientTransform="matrix(1,0,0,0.5000001,0,228)" x2="37" y2="32"/>
  <linearGradient id="linearGradient4167" x1="11" xlink:href="#linearGradient3913" gradientUnits="userSpaceOnUse" y1="32" gradientTransform="matrix(1,0,0,0.5000001,0,268)" x2="37" y2="32"/>
  <linearGradient id="linearGradient4179" x1="11" xlink:href="#linearGradient4019" gradientUnits="userSpaceOnUse" y1="196" gradientTransform="translate(416,-1)" x2="36" y2="196"/>
 </defs>
 <path style="enable-background:accumulate;color:#000000;" d="m618,208c27,0,40,1,46,40-6,39-19,40-46,40" fill-opacity="0.20784314" fill="#F00"/>
 <text style="word-spacing:0px;letter-spacing:0px;text-anchor:middle;text-align:center;" font-family="Liberation Sans" xml:space="preserve" font-size="80px" line-height="125%" font-stretch="normal" font-variant="normal" y="534" x="90" font-weight="normal" font-style="normal" fill="#000000"><tspan y="534" x="90">1</tspan></text>
 <path style="color:#000000;enable-background:accumulate;" fill-opacity="0.20784314000000001" fill="#F00" d="m710,287c-27,0-40,0-46-39v1c6-39,19-40,46-40"/>
 <path style="color:#000000;enable-background:accumulate;" fill="#F00" d="M328,208,424,288l1,81-97-82z" fill-opacity="0.20744681"/>
 <path style="color:#000000;enable-background:accumulate;" fill="#F00" d="m328,208,96,0,0,80-96,0z" fill-opacity="0.20744681"/>
 <path style="color:#000000;enable-background:accumulate;" d="m433,151-9,9,0,296c0,5,4,8,8,8h16c4,0,8-3,8-8v-296l-9-9z" stroke="#000" stroke-dasharray="none" stroke-miterlimit="4" stroke-width="4" fill="url(#linearGradient4179)"/>
 <path style="color:#000000;enable-background:accumulate;" d="m145,152-9,9,0,143c0,5,4,8,8,8h16c4,0,8-3,8-8v-143l-9-9z" stroke="#000" stroke-dasharray="none" stroke-miterlimit="4" stroke-width="4" fill="url(#linearGradient4116)"/>
 <use xlink:href="#path4076" transform="translate(704,0)" height="544" width="752" y="0" x="0"/>
 <g id="g4191">
  <path id="path4076" style="color:#000000;enable-background:accumulate;" d="m17,152-9,9,0,215c0,5,4,8,8,8h16c4,0,8-3,8-8v-215l-9-9z" stroke="#000" stroke-dasharray="none" stroke-miterlimit="4" stroke-width="4" fill="url(#linearGradient4025)"/>
  <path id="path4041" stroke-linejoin="miter" style="color:#000000;enable-background:accumulate;" d="m40,208-32,0v-40h32z" stroke-dashoffset="0" stroke="#000" stroke-linecap="butt" stroke-miterlimit="4" stroke-dasharray="none" stroke-width="3.99999952" fill="url(#linearGradient4043)"/>
  <path id="path4045" stroke-linejoin="miter" style="color:#000000;enable-background:accumulate;" d="M8,296v8h32v-8h-32zm0,32v32h32v-32h-32z" stroke-dashoffset="0" stroke="#000" stroke-linecap="butt" stroke-miterlimit="4" stroke-dasharray="none" stroke-width="3.99999976000000010" fill="url(#linearGradient4047)"/>
  <path id="path4053" stroke-linejoin="miter" style="color:#000000;enable-background:accumulate;" d="m40,288-32,0,0-8,32,0z" stroke-dashoffset="0" stroke="#000" stroke-linecap="butt" stroke-miterlimit="4" stroke-dasharray="none" stroke-width="3.99999976" fill="url(#linearGradient4167)"/>
  <path id="path4057" stroke-linejoin="miter" style="color:#000000;enable-background:accumulate;" d="m40,248-32,0,0-8,32,0z" stroke-dashoffset="0" stroke="#000" stroke-linecap="butt" stroke-miterlimit="4" stroke-dasharray="none" stroke-width="3.99999976" fill="url(#linearGradient4164)"/>
  <path id="path4061" stroke-linejoin="miter" style="color:#000000;enable-background:accumulate;" d="m40,232-32,0,0-16,32,0z" stroke-dashoffset="0" stroke="#000" stroke-linecap="butt" stroke-miterlimit="4" stroke-dasharray="none" stroke-width="3.99999952" fill="url(#linearGradient4161)"/>
  <rect id="rect4065" opacity="0.5" height="78" width="32" y="209" x="8" fill="#000"/>
  <g id="g4086">
   <path style="color:#000000;enable-background:accumulate;" d="m40,143,0-127c0-5-4-8-8-8h-16c-4,0-8,3-8,8v127l9,9h14z" stroke="#000" stroke-dasharray="none" stroke-miterlimit="4" stroke-width="4" fill="url(#linearGradient4025)"/>
   <path stroke-linejoin="miter" style="color:#000000;enable-background:accumulate;" d="M8,24v16h32v-16h-32zm0,32v8h32v-8h-32zm0,32v24h32v-24h-32zm0,32v16h32v-16h-32z" stroke-dashoffset="0" stroke="#000" stroke-linecap="butt" stroke-miterlimit="4" stroke-dasharray="none" stroke-width="4" fill="url(#linearGradient4071)"/>
   <path id="path4067" d="m7,142,34,0-17,17z" style="color:#000000;enable-background:accumulate;" fill="#000"/>
  </g>
  <use xlink:href="#path4067" transform="matrix(1,0,0,-1,0,305)" height="544" width="752" y="0" x="0"/>
 </g>
 <use xlink:href="#g4086" transform="translate(128,0)" height="544" width="752" y="0" x="0"/>
 <use xlink:href="#path4045" transform="translate(128,-72)" height="544" width="752" y="0" x="0"/>
 <use xlink:href="#path4045" transform="translate(416,80)" height="544" width="752" y="0" x="0"/>
 <use xlink:href="#path4045" transform="translate(704,0)" height="544" width="752" y="0" x="0"/>
 <use xlink:href="#path4041" transform="translate(128,0)" height="544" width="752" y="0" x="0"/>
 <use xlink:href="#path4041" transform="translate(416,0)" height="544" width="752" y="0" x="0"/>
 <use xlink:href="#path4041" transform="translate(704,0)" height="544" width="752" y="0" x="0"/>
 <use xlink:href="#path4053" transform="translate(704,0)" height="544" width="752" y="0" x="0"/>
 <use xlink:href="#path4057" transform="translate(704,0)" height="544" width="752" y="0" x="0"/>
 <use xlink:href="#path4061" transform="translate(704,40)" height="544" width="752" y="0" x="0"/>
 <use xlink:href="#rect4065" transform="translate(704,1)" height="544" width="752" y="0" x="0"/>
 <use xlink:href="#g4086" transform="translate(416,0)" height="544" width="752" y="0" x="0"/>
 <use xlink:href="#g4086" transform="translate(704,0)" height="544" width="752" y="0" x="0"/>
 <use xlink:href="#path4067" transform="matrix(1,0,0,-1,128,305)" height="544" width="752" y="0" x="0"/>
 <use xlink:href="#path4067" transform="matrix(1,0,0,-1,416,305)" height="544" width="752" y="0" x="0"/>
 <use xlink:href="#path4067" transform="matrix(1,0,0,-1,704,305)" height="544" width="752" y="0" x="0"/>
 <use xlink:href="#g4191" transform="translate(288,0)" height="544" width="752" y="0" x="0"/>
 <use xlink:href="#g4191" transform="translate(576,0)" height="544" width="752" y="0" x="0"/>
 <use xlink:href="#path4053" transform="translate(416,0)" height="544" width="752" y="0" x="0"/>
 <use xlink:href="#path4057" transform="translate(416,0)" height="544" width="752" y="0" x="0"/>
 <use xlink:href="#path4061" transform="translate(416,0)" height="544" width="752" y="0" x="0"/>
 <use xlink:href="#path4053" transform="translate(416,80)" height="544" width="752" y="0" x="0"/>
 <use xlink:href="#path4057" transform="translate(416,80)" height="544" width="752" y="0" x="0"/>
 <use xlink:href="#path4061" transform="translate(416,80)" height="544" width="752" y="0" x="0"/>
 <use xlink:href="#rect4065" transform="matrix(1,0,0,2.025641,415.91046,-214.35897)" height="544" width="752" y="0" x="0"/>
 <g id="g4241">
  <path stroke-linejoin="miter" style="color:#000000;enable-background:accumulate;" d="m329,208,83,0" stroke-dashoffset="0" stroke="#000" stroke-linecap="butt" stroke-miterlimit="4" stroke-dasharray="none" stroke-width="2" fill="none"/>
  <path style="color:#000000;enable-background:accumulate;" d="m405,203,0,10,17-5-17-5z" fill="#000"/>
  <g transform="matrix(0.77079551,0.63708262,-0.63708262,0.77079551,229.23748,-143.17433)">
   <path stroke-linejoin="miter" style="color:#000000;enable-background:accumulate;" d="m301,208,111,0" stroke-dashoffset="0" stroke="#000" stroke-linecap="butt" stroke-miterlimit="4" stroke-dasharray="none" stroke-width="2" fill="none"/>
   <path style="color:#000000;enable-background:accumulate;" d="m405,203,0,10,17-5-17-5z" fill="#000"/>
  </g>
 </g>
 <use xlink:href="#g4241" transform="translate(0,80)" height="544" width="752" y="0" x="0"/>
 <g transform="translate(-0.13816512,-4.0255719)">
  <path style="color:#000000;enable-background:accumulate;" fill="#F00" d="m40,293,0.163-81l96.8,8z" fill-opacity="0.20784314"/>
  <g transform="matrix(1.0103836,0.08402937,-0.08394091,1.0114484,-274.81833,-26.001368)" stroke="#0FF" stroke-miterlimit="4" stroke-dasharray="none" stroke-width="0.98580587" fill="#0FF">
   <g stroke-dasharray="none" stroke="#0FF" stroke-width="0.98580587" stroke-miterlimit="4">
    <path stroke-linejoin="miter" style="color:#000000;enable-background:accumulate;" d="m329,208,83,0" stroke-dashoffset="0" stroke="#000" stroke-linecap="butt" stroke-miterlimit="4" stroke-dasharray="none" stroke-width="1.97161174" fill="none"/>
    <path style="color:#000000;enable-background:accumulate;" d="m405,203,0,10,17-5-17-5z" fill="#000"/>
   </g>
  </g>
  <g transform="translate(-150.86877,0.05829531)">
   <path stroke-linejoin="miter" style="color:#000000;enable-background:accumulate;" d="m191,293,87-66.4" stroke-dashoffset="0" stroke="#000" stroke-linecap="butt" stroke-miterlimit="4" stroke-dasharray="none" stroke-width="1.99999988" fill="none"/>
   <path style="color:#000000;enable-background:accumulate;" d="m269,227,6.06,7.95,10.5-14.3-16.6,6.32z" fill="#000"/>
  </g>
 </g>
 <use xlink:href="#path4317" transform="matrix(1,0,0,-1,0,496)" height="544" width="752" y="0" x="0"/>
 <path id="path4317" stroke-linejoin="miter" style="color:#000000;enable-background:accumulate;" d="m618,288c27,0,40-1,46-40s18-39,40-39" stroke-dashoffset="0" stroke="#000" stroke-linecap="butt" stroke-miterlimit="4" stroke-dasharray="none" stroke-width="2" fill="none"/>
 <path id="path4323" style="color:#000000;enable-background:accumulate;" fill="#000" d="m693,204,0,10,17-5-17-5z"/>
 <use xlink:href="#path4323" transform="translate(0,78.085443)" height="544" width="752" y="0" x="0"/>
 <text style="word-spacing:0px;letter-spacing:0px;text-anchor:middle;text-align:center;" font-family="Liberation Sans" xml:space="preserve" font-size="80px" font-style="normal" font-stretch="normal" font-variant="normal" y="534" x="370" font-weight="normal" line-height="125%" fill="#000000"><tspan y="534" x="370">2</tspan></text>
 <text style="word-spacing:0px;letter-spacing:0px;text-anchor:middle;text-align:center;" font-family="Liberation Sans" xml:space="preserve" font-size="80px" line-height="125%" font-stretch="normal" font-variant="normal" y="534" x="670" font-weight="normal" font-style="normal" fill="#000000"><tspan y="534" x="670">3</tspan></text>
</svg>
